<svg width="26" height="38" viewBox="0 0 26 38" fill="none" xmlns="http://www.w3.org/2000/svg">
<path fill-rule="evenodd" clip-rule="evenodd" d="M11.7471 0.0972069C9.47138 0.50493 7.5958 1.93523 6.60823 4.01586C6.12106 5.0423 6.00316 5.65841 5.95857 7.41135L5.91985 8.93326L5.6542 9.46288C5.40554 9.95873 5.39042 10.0298 5.41697 10.5765C5.4502 11.2624 5.6257 11.676 6.08264 12.1455C6.43702 12.5096 6.68312 12.6473 7.2236 12.7838L7.61618 12.883L7.74911 13.4169C8.00371 14.4397 8.63893 15.4761 9.39348 16.0998L9.76643 16.4081V17.1297V17.8511L6.32641 19.1669C4.43436 19.8906 2.7057 20.5901 2.48486 20.7214C1.52233 21.2935 0.671314 22.3005 0.328966 23.2723C0.0111303 24.1747 -0.0175179 24.8707 0.00654346 31.0996L0.0291012 36.9333L0.254676 37.2929C0.402804 37.529 0.594017 37.7117 0.811622 37.8252C1.14224 37.9976 1.14991 37.998 4.08712 37.998C6.94599 37.998 7.03592 37.9936 7.1957 37.8466C7.41692 37.6431 7.41692 37.2393 7.1957 37.0358C7.05457 36.9059 6.9317 36.8844 6.331 36.8844H5.63089V31.3131V25.7417L5.44629 25.5596C5.19515 25.3115 4.86258 25.3172 4.65888 25.5729C4.50436 25.7668 4.50301 25.816 4.50301 31.3265V36.8844L2.94278 36.8833C2.08469 36.8826 1.3318 36.8504 1.26977 36.8117C1.17096 36.75 1.15698 35.9735 1.15698 30.5582C1.15698 24.78 1.166 24.3459 1.2945 23.9296C1.56873 23.0412 2.13597 22.2906 2.91007 21.7919C3.45003 21.444 7.38985 19.891 7.49233 19.9856C7.52309 20.0141 7.95431 20.8463 8.45058 21.835C9.19813 23.3243 9.39672 23.6613 9.60838 23.7997C9.92584 24.0073 10.3257 24.0143 10.6517 23.818C10.7872 23.7365 10.9124 23.6698 10.9301 23.6698C10.9478 23.6698 11.0613 23.812 11.1824 23.9857L11.4025 24.3016L10.5411 29.3124C9.80802 33.5756 9.69154 34.3619 9.76012 34.583C9.81072 34.7461 10.1917 35.2228 10.7839 35.8636L11.727 36.8844H10.5313C9.43544 36.8844 9.31904 36.8972 9.13745 37.0383C8.86285 37.2515 8.86345 37.6313 9.13873 37.8451L9.33814 38L17.1709 37.9805L25.0038 37.9609L25.3164 37.7566C25.4883 37.6443 25.7057 37.4105 25.7996 37.237C25.9665 36.9285 25.9708 36.8624 25.9942 34.2508C26.0075 32.7819 25.9971 31.4688 25.9712 31.3328C25.8811 30.8583 25.4256 30.647 25.068 30.9136C24.9234 31.0214 24.9161 31.1354 24.88 33.8836C24.848 36.3154 24.8255 36.752 24.7296 36.8118C24.6676 36.8505 23.9147 36.8826 23.0566 36.8833L21.4963 36.8844V31.3265C21.4963 25.816 21.495 25.7668 21.3405 25.5729C21.1368 25.3172 20.8042 25.3115 20.5531 25.5596L20.3685 25.7417V31.3131V36.8844H17.3182H14.2678L15.2131 35.8636C15.8129 35.2159 16.1874 34.7479 16.2378 34.583C16.3052 34.363 16.1852 33.5542 15.4563 29.3134L14.5953 24.3037L14.8162 23.9867C14.9377 23.8124 15.0516 23.6698 15.0693 23.6698C15.0869 23.6698 15.2122 23.7365 15.3476 23.818C15.6605 24.0063 16.0523 24.0071 16.3633 23.8198C16.5644 23.6987 16.7702 23.3504 17.5517 21.808C18.3516 20.2295 18.5188 19.9482 18.6385 19.9792C18.7164 19.9993 19.6366 20.3426 20.6834 20.7422C23.1856 21.6971 23.7446 22.0584 24.3515 23.113C24.7914 23.8774 24.8222 24.0912 24.8611 26.6591L24.8968 29.0173L25.0865 29.1647C25.336 29.3584 25.5029 29.3505 25.7593 29.1329L25.9703 28.9539L25.9934 27.1099C26.0198 25.0122 25.937 24.0294 25.6704 23.2723C25.3342 22.318 24.5781 21.4033 23.6197 20.7917C23.3388 20.6125 21.9081 20.0238 19.705 19.181L16.2329 17.8526L16.2334 17.1049L16.2339 16.3572L16.7878 15.7839C17.5344 15.0114 17.9644 14.1878 18.2179 13.0446C18.2534 12.8847 18.3159 12.8414 18.5697 12.8014C19.2231 12.6982 19.9109 12.1973 20.2093 11.6074C20.3051 11.418 20.4201 11.052 20.4649 10.7941C20.5374 10.376 20.5278 10.2699 20.3766 9.81485C20.2834 9.53415 20.1503 9.24261 20.0809 9.16704C19.9742 9.05063 19.9479 8.77736 19.9092 7.38529C19.8721 6.05114 19.8339 5.63317 19.7065 5.16947C19.0892 2.92217 17.3911 1.10879 15.2169 0.375085C14.1181 0.0042592 12.8381 -0.0981912 11.7471 0.0972069ZM14.4901 1.32015C16.2373 1.81362 17.6234 3.01593 18.326 4.64734C18.6637 5.43153 18.7894 6.14074 18.7894 7.26116V8.2308L18.5827 8.18203C18.2864 8.1121 18.2631 8.09086 18.2631 7.89146C18.2631 7.70111 17.8012 7.13874 16.8243 6.1397C16.3617 5.66657 16.2192 5.56494 15.9584 5.52196C15.6182 5.46591 15.633 5.46026 14.3531 6.13406C12.6959 7.00645 11.0589 7.41105 9.18422 7.41165C8.18944 7.41194 7.86844 7.52508 7.7137 7.92984C7.63542 8.13459 7.47677 8.22479 7.19112 8.22694C7.07412 8.22783 7.05976 8.1435 7.06186 7.46703C7.06314 7.04847 7.0951 6.47155 7.13284 6.18491C7.46722 3.64548 9.41732 1.6324 11.9855 1.17546C12.58 1.06974 13.8664 1.14398 14.4901 1.32015ZM16.4773 7.39257L17.1352 8.10326L17.1343 10.4485C17.1336 12.268 17.1088 12.8851 17.0236 13.2014C16.6399 14.6248 15.4923 15.757 14.049 16.1363C13.5067 16.2788 12.4209 16.2748 11.845 16.1282C10.5344 15.7946 9.45882 14.8227 8.9497 13.5123C8.76112 13.0267 8.75653 12.9699 8.72961 10.7707L8.70217 8.52494L9.40348 8.52361C11.2849 8.51997 13.522 7.92583 15.105 7.00942C15.4152 6.82983 15.7028 6.68269 15.7442 6.68239C15.7855 6.68202 16.1155 7.00162 16.4773 7.39257ZM7.58587 10.4923C7.58587 11.8466 7.58384 11.8512 7.12886 11.5484C6.38243 11.0518 6.31273 10.0569 6.99081 9.57877C7.13194 9.47922 7.4488 9.31129 7.56707 9.27335C7.57738 9.27008 7.58587 9.81856 7.58587 10.4923ZM18.8724 9.49547C19.1193 9.66912 19.3916 10.1967 19.3893 10.4972C19.3854 11.0114 18.957 11.5614 18.4653 11.6832L18.2631 11.7333V10.4923V9.25123L18.4653 9.30134C18.5765 9.32888 18.7597 9.41626 18.8724 9.49547ZM12.7423 17.3409C13.4917 17.3703 13.7545 17.3502 14.2461 17.2261C14.5738 17.1433 14.9011 17.0525 14.9735 17.024C15.0915 16.9777 15.105 17.0278 15.105 17.5116V18.0508L14.0827 19.3012C13.5204 19.989 13.0328 20.5517 12.9991 20.5517C12.9654 20.5517 12.4783 19.9921 11.9167 19.3082L10.8954 18.0647L10.8949 17.5343L10.8943 17.0038L11.3643 17.1545C11.6875 17.2582 12.1176 17.3164 12.7423 17.3409ZM11.1782 20.1808C11.7274 20.848 12.1505 21.4167 12.1183 21.4446C11.9432 21.5964 10.1993 22.7853 10.181 22.7654C10.0678 22.6426 8.5663 19.5589 8.60224 19.5229C8.68254 19.4427 10.0246 18.9309 10.1046 18.9499C10.1459 18.9597 10.629 19.5137 11.1782 20.1808ZM16.6089 19.1877C17.0018 19.336 17.351 19.482 17.3849 19.5123C17.4307 19.5531 15.953 22.6202 15.8167 22.767C15.8038 22.7809 15.3515 22.4815 14.8115 22.1017C13.9361 21.4859 13.8397 21.3968 13.9222 21.2796C14.1169 21.0033 15.8212 18.9269 15.857 18.9226C15.8776 18.9201 16.216 19.0393 16.6089 19.1877ZM13.6012 22.6171C13.87 22.8013 14.1009 22.9601 14.1144 22.9701C14.1279 22.98 14.0472 23.1247 13.9352 23.2918L13.7316 23.5955H12.9997H12.2678L12.0614 23.2876C11.8975 23.0431 11.8761 22.9677 11.9574 22.9213C12.0137 22.8892 12.2628 22.7148 12.5109 22.5336C12.7591 22.3525 12.9959 22.2218 13.0373 22.2433C13.0786 22.2647 13.3324 22.433 13.6012 22.6171ZM13.5559 24.9133C13.5789 25.0255 13.9386 27.1219 14.3552 29.5718C14.7718 32.0217 15.1269 34.0763 15.1441 34.1375C15.174 34.243 13.1232 36.5503 12.9997 36.5503C12.9693 36.5503 12.4679 36.0325 11.8856 35.3996C11.0997 34.5455 10.8354 34.2106 10.8604 34.1004C10.879 34.0188 11.233 31.9642 11.6473 29.5347C12.0616 27.1052 12.4196 25.0255 12.4429 24.9133C12.4842 24.7146 12.4989 24.7091 12.9997 24.7091C13.5006 24.7091 13.5152 24.7145 13.5559 24.9133Z" fill="url(#paint0_linear_52_9799)"/>
<defs>
<linearGradient id="paint0_linear_52_9799" x1="3.26274" y1="38" x2="27.5488" y2="28.1039" gradientUnits="userSpaceOnUse">
<stop stop-color="#9600FB"/>
<stop offset="1" stop-color="#42E8E0"/>
</linearGradient>
</defs>
</svg>
