<svg width="30" height="38" viewBox="0 0 30 38" fill="none" xmlns="http://www.w3.org/2000/svg">
<path fill-rule="evenodd" clip-rule="evenodd" d="M3.94856 0.178C3.7924 0.350231 3.78713 0.414308 3.78713 2.13954V3.92308H2.0475H0.307797L0.153936 4.12577L0 4.32846V20.9754V37.6224L0.182302 37.8112L0.36453 38H13.1272H25.8899L26.0514 37.822C26.2076 37.6498 26.2129 37.5857 26.2129 35.8605V34.0769H27.9525H29.6922L29.8461 33.8742L30 33.6715V19.7035V5.73554L27.2352 2.86777L24.4705 0H14.2902H4.11007L3.94856 0.178ZM23.7624 3.58038V6.08392L23.9447 6.27269L24.1269 6.46154H26.5437H28.9604V19.7308V33H16.8936H4.82673V17.0385V1.07692H14.2946H23.7624V3.58038ZM28.1436 5.32631C28.1436 5.35838 27.3917 5.38462 26.4728 5.38462H24.802V3.59677V1.809L26.4728 3.53846C27.3917 4.48969 28.1436 5.29423 28.1436 5.32631ZM3.78713 19.3605V33.7208L3.94856 33.8989L4.11007 34.0769H14.6416H25.1733V35.5V36.9231H13.1064H1.0396V20.9615V5H2.41337H3.78713V19.3605ZM15.9515 5.84685C15.1865 5.97277 14.6012 6.16069 13.8861 6.50992C11.3185 7.764 9.76181 10.4485 9.8997 13.3846C9.99319 15.3765 10.7577 17.0514 12.2024 18.4289C13.4805 19.6478 15.1251 20.3057 16.8936 20.3057C19.8729 20.3057 22.5507 18.3217 23.5084 15.4048C24.8336 11.3683 22.5319 6.99723 18.5564 6.00054C17.8389 5.82062 16.5666 5.74554 15.9515 5.84685ZM18.2999 7.04038C19.414 7.34115 20.2088 7.80169 21.0178 8.61539C21.982 9.58515 22.5411 10.6703 22.767 12.0102C22.9959 13.3681 22.7935 14.6539 22.1454 15.9585C21.8711 16.5107 21.6619 16.798 21.129 17.3539C20.7245 17.7759 20.2514 18.1792 19.9381 18.3692C17.5738 19.803 14.5876 19.4124 12.671 17.4187C11.9327 16.6507 11.5161 15.9358 11.172 14.8462C10.9881 14.2636 10.9649 14.0748 10.9594 13.1154C10.9525 11.8948 11.047 11.4109 11.4768 10.4684C12.3488 8.55585 14.0191 7.24938 16.0048 6.92662C16.5833 6.83262 17.7429 6.89008 18.2999 7.04038ZM15.9653 7.51438C15.5612 7.58369 14.7881 7.87362 14.2946 8.14085C13.3388 8.65823 12.2786 9.87862 11.8841 10.9155C11.4771 11.985 11.3765 13.3152 11.6238 14.3542C12.1086 16.39 13.6833 18.0222 15.6312 18.5082C16.3102 18.6775 17.477 18.6776 18.1539 18.5084C20.5821 17.9012 22.2798 15.6513 22.2761 13.0454C22.2748 12.0633 22.1373 11.4575 21.7081 10.5409C21.4183 9.922 21.2649 9.70685 20.6874 9.10846C20.106 8.50623 19.9059 8.35377 19.3046 8.05485C18.9179 7.86262 18.361 7.65046 18.0671 7.58338C17.5769 7.47162 16.4331 7.43408 15.9653 7.51438ZM18.1038 8.71723C19.446 9.11992 20.5559 10.203 21.0166 11.5598C21.245 12.2321 21.2982 13.475 21.1277 14.1538C20.735 15.7178 19.5517 16.9599 18.0074 17.4293C17.3247 17.6368 16.3035 17.6064 15.5569 17.3563C12.6545 16.3841 11.5911 12.7818 13.4589 10.2488C13.8023 9.78292 14.4984 9.21169 15.0371 8.95362C15.9864 8.49885 17.0919 8.41362 18.1038 8.71723ZM15.7155 9.23638C15.5514 9.37008 15.5198 9.45692 15.5198 9.77485V10.1538H14.9967C14.5402 10.1538 14.4502 10.1779 14.2912 10.3427C14.0685 10.5733 14.0607 10.7619 14.2628 11.0281C14.3664 11.1646 14.4877 11.2308 14.6341 11.2308H14.8515V13.0385V14.8462H14.6625C14.4403 14.8462 14.1089 15.1602 14.1089 15.3708C14.1089 15.4516 14.1782 15.6089 14.2628 15.7204C14.4044 15.9068 14.4609 15.9231 14.9683 15.9231H15.5198V16.3077C15.5198 16.7616 15.697 17 16.0342 17C16.3406 17 16.5594 16.6912 16.5594 16.2588C16.5594 15.9264 16.562 15.9231 16.8193 15.9231C17.0766 15.9231 17.0792 15.9264 17.0792 16.2588C17.0792 16.6912 17.298 17 17.6044 17C17.9369 17 18.1188 16.7608 18.1188 16.3236V15.955L18.4488 15.8635C19.029 15.7028 19.5199 15.1193 19.642 14.4452C19.7131 14.0524 19.5136 13.3985 19.2313 13.0994L19.0013 12.8557L19.1324 12.6009C19.216 12.4386 19.2635 12.1787 19.2633 11.8846C19.263 11.1879 18.9541 10.6642 18.3601 10.3532C18.1327 10.2341 18.1188 10.2029 18.1188 9.81131C18.1188 9.454 18.0914 9.37346 17.9231 9.23638C17.6662 9.027 17.4841 9.03508 17.2615 9.26577C17.1214 9.41085 17.0792 9.53554 17.0792 9.80423C17.0792 10.1525 17.0782 10.1538 16.8193 10.1538C16.5604 10.1538 16.5594 10.1525 16.5594 9.80423C16.5594 9.53554 16.5172 9.41085 16.3771 9.26577C16.1545 9.03508 15.9724 9.027 15.7155 9.23638ZM18.0503 11.4556C18.3157 11.7306 18.3278 11.9954 18.0883 12.2842L17.9092 12.5H16.9187H15.9282L15.906 11.9692C15.8938 11.6772 15.9011 11.3916 15.9222 11.3345C15.9517 11.2551 16.1797 11.2308 16.897 11.2308C17.8328 11.2308 17.8333 11.2308 18.0503 11.4556ZM18.4074 13.75C18.6668 13.9731 18.6851 14.3156 18.453 14.6014L18.2541 14.8462H17.0726H15.8911V14.2308V13.6154H17.071C18.0855 13.6154 18.2728 13.6342 18.4074 13.75ZM8.7678 22.4335C8.56545 22.6999 8.57347 22.8882 8.79713 23.1199L8.9804 23.3098L16.9256 23.2895C25.5855 23.2674 25.028 23.2978 25.1355 22.8428C25.1678 22.7061 25.1341 22.5845 25.0236 22.439L24.8655 22.2308H16.8936H8.92166L8.7678 22.4335ZM8.86634 25.5972C8.71114 25.7048 8.61045 25.9975 8.65923 26.199C8.76297 26.6271 8.53262 26.6154 16.8801 26.6154C22.1185 26.6154 24.6291 26.5894 24.7839 26.5335C24.925 26.4825 25.0455 26.3644 25.1029 26.2208C25.1835 26.0194 25.1764 25.9641 25.0463 25.7835L24.8973 25.5769L16.9227 25.5587C12.5366 25.5486 8.91126 25.5659 8.86634 25.5972ZM8.91215 28.8682C8.62745 29.0174 8.55074 29.3372 8.73743 29.5963L8.8898 29.8077H16.8936H24.8973L25.0463 29.6011C25.1753 29.4221 25.1831 29.3642 25.1049 29.1687C25.0553 29.0446 24.9319 28.9039 24.8306 28.8562C24.5503 28.7238 9.16522 28.7355 8.91215 28.8682Z" fill="url(#paint0_linear_52_9809)"/>
<defs>
<linearGradient id="paint0_linear_52_9809" x1="3.76471" y1="38" x2="30.5245" y2="25.4184" gradientUnits="userSpaceOnUse">
<stop stop-color="#9600FB"/>
<stop offset="1" stop-color="#42E8E0"/>
</linearGradient>
</defs>
</svg>
