<svg width="33" height="38" viewBox="0 0 33 38" fill="none" xmlns="http://www.w3.org/2000/svg">
<path fill-rule="evenodd" clip-rule="evenodd" d="M15.4336 0.27784C14.9452 0.52328 14.8129 0.649548 14.298 1.36159C13.5973 2.33035 13.3734 2.47064 12.5197 2.4756C11.6488 2.48064 11.1055 2.66282 10.583 3.12481C10.0166 3.6256 9.7501 4.26404 9.81295 4.96958C9.84755 5.3571 10.0276 5.79797 10.7355 7.22881L11.6153 9.00655L11.3201 9.24584C10.7419 9.71458 10.5958 10.6262 11.015 11.1504L11.1908 11.3701L11.015 11.5898C10.7382 11.9359 10.6941 12.475 10.9043 12.9423L11.0818 13.337L10.5867 13.6471C6.83245 15.9981 3.88099 20.4623 2.48654 25.8988C1.94148 28.0237 1.61836 30.4465 1.6168 32.4201L1.61584 33.5938L1.28594 33.7593C1.10452 33.8503 0.793479 34.0983 0.594842 34.3102C-0.448149 35.423 -0.0727831 37.1556 1.35505 37.8184L1.74624 38H16.5244C30.4109 38 31.3221 37.991 31.6254 37.8506C33.0724 37.1807 33.4511 35.4409 32.405 34.2692C32.2576 34.1041 31.9846 33.9015 31.7984 33.8189L31.4598 33.6688L31.4034 32.2011C31.2302 27.693 30.2493 23.8654 28.3502 20.2874C27.3086 18.3249 26.3178 17.0073 24.6612 15.3817C24.0588 14.7905 23.2587 13.9826 22.8833 13.5865C22.216 12.8823 22.2011 12.857 22.2162 12.456C22.2265 12.1833 22.1714 11.9323 22.0518 11.7066L21.8719 11.3672L22.0451 11.0493C22.3863 10.4234 22.2253 9.70526 21.6367 9.22669L21.3814 9.01912L22.2768 7.22385C23.1541 5.46482 23.1722 5.41643 23.1734 4.82553C23.1754 3.84856 22.7504 3.17824 21.8373 2.71813C21.5707 2.58383 21.262 2.52741 20.6272 2.49689C19.5871 2.44688 19.3929 2.33976 18.8073 1.49324C18.0602 0.413084 17.4041 0 16.4355 0C16.1001 0 15.8464 0.0703577 15.4336 0.27784ZM17.1853 1.2213C17.3477 1.32876 17.6586 1.67439 17.876 1.98934C18.7094 3.19653 19.0736 3.41932 20.3494 3.50267C21.334 3.56704 21.701 3.70964 21.961 4.12905C22.3123 4.69559 22.2253 5.02891 21.1979 7.05236L20.2643 8.89089H16.5022H12.7402L11.7771 6.98875C10.897 5.2505 10.8176 5.05447 10.8561 4.71354C10.9448 3.929 11.5778 3.50506 12.6605 3.50506C13.2301 3.50506 13.4008 3.46719 13.8702 3.23654C14.3157 3.0176 14.4909 2.86492 14.8186 2.41054C15.3536 1.66832 15.7845 1.19309 16 1.10709C16.3486 0.968167 16.8801 1.01937 17.1853 1.2213ZM21.0071 10.0052C21.2447 10.1303 21.23 10.5532 20.9819 10.724C20.8135 10.8401 20.2426 10.8571 16.5168 10.8571C12.3265 10.8571 12.2404 10.8537 12.0158 10.6799C11.7514 10.4755 11.7342 10.3705 11.9221 10.1068L12.0573 9.91676H16.4481C19.3085 9.91676 20.8975 9.94762 21.0071 10.0052ZM20.9819 12.0161C21.1948 12.1627 21.2438 12.5508 21.0709 12.7208C20.9925 12.7979 19.8607 12.8234 16.512 12.8234H12.0573L11.9221 12.6334C11.7432 12.3823 11.7513 12.2598 11.9606 12.054C12.1297 11.8876 12.2503 11.883 16.4616 11.883C20.2374 11.883 20.8134 11.8999 20.9819 12.0161ZM22.119 14.2553C24.4546 16.6867 25.4603 19.8939 24.9 23.1249C24.794 23.7358 24.7117 23.8515 24.383 23.8515C23.9988 23.8515 23.8588 23.5723 23.9756 23.0394C24.0271 22.8043 24.0688 22.0349 24.0681 21.3296C24.0672 20.2325 24.0352 19.929 23.847 19.2288C23.3422 17.3507 22.6204 16.1105 21.2513 14.7683L20.3138 13.8493L20.6793 13.8433C20.8803 13.8399 21.123 13.8042 21.2187 13.7638C21.511 13.6402 21.547 13.6598 22.119 14.2553ZM18.467 14.3408C19.059 15.5055 19.3497 16.7367 19.3497 18.0809V18.9634L18.8063 18.763C18.5076 18.6529 18.1945 18.5421 18.1109 18.5169C17.9795 18.4773 17.9588 18.3564 17.9588 17.6267C17.9588 16.4659 17.9473 16.4567 16.5076 16.4567C15.1108 16.4567 15.0901 16.4748 15.0901 17.6962V18.5321L14.7893 18.5876C14.2394 18.6891 13.1533 19.2921 12.6736 19.7624C11.6865 20.73 11.2915 22.2412 11.66 23.6412C12.0067 24.9589 13.0469 25.9428 14.6337 26.4539L15.0901 26.6009L15.0864 27.5985L15.0828 28.5962L14.7857 28.2653C14.6223 28.0834 14.4239 27.7372 14.3448 27.4959C14.1257 26.8277 13.9997 26.6727 13.6754 26.6726C13.5211 26.6726 12.8697 26.7756 12.2276 26.9015C10.5693 27.2268 10.5527 27.2523 11.0962 28.6381C11.4374 29.5083 12.093 30.4807 12.682 30.9906C13.1748 31.4172 14.3108 32.0193 14.7893 32.1076L15.0901 32.163V32.8184C15.0901 33.84 15.109 33.8538 16.5159 33.8538C17.9236 33.8538 17.9382 33.8444 17.9763 32.9184L18.0022 32.2867L18.5527 32.1766C18.8555 32.1159 19.3836 31.9297 19.7262 31.7628C21.3707 30.9617 22.2184 29.6191 22.2184 27.8157C22.2184 25.926 21.3025 24.7714 19.1006 23.8846C18.9273 23.8148 19.1114 23.7442 20.2742 23.435C21.0327 23.2333 21.7218 23.0077 21.8054 22.9337C21.9804 22.7789 21.9981 22.538 21.8624 22.1552C21.7842 21.9347 21.8067 21.7372 21.9878 21.0524C22.1886 20.2931 22.3532 19.3312 22.4158 18.5512C22.4594 18.0076 22.9126 19.5738 23.0219 20.6457C23.1014 21.4268 23.0938 21.7476 22.9772 22.5404C22.8159 23.6361 22.8646 23.9496 23.2659 24.399C23.6068 24.781 23.9452 24.9066 24.5087 24.8606C25.3412 24.7928 25.7597 24.3231 25.9414 23.2531C26.2078 21.6834 26.1403 20.1219 25.7406 18.6078L25.5339 17.8245L25.7828 18.1237C25.9197 18.2883 26.2761 18.8076 26.575 19.2778C28.852 22.861 30.1453 27.254 30.3563 32.1226L30.4165 33.5118H29.0992H27.7819V34.0167V34.5217L29.4119 34.5526C31.2255 34.5871 31.4664 34.649 31.7842 35.1617C32.1017 35.6737 31.9288 36.4191 31.4049 36.7971L31.1594 36.9741H16.5398C2.12769 36.9741 1.9161 36.9717 1.63575 36.805C1.25247 36.5771 0.970296 35.9981 1.04688 35.5965C1.12721 35.1759 1.57742 34.7182 2.00703 34.6207C2.19828 34.5773 2.99047 34.5408 3.76737 34.5397L5.17999 34.5377V34.0247V33.5118H3.9195H2.65901V32.4095C2.65901 28.7816 3.64349 24.5996 5.2677 21.3283C6.87374 18.0936 9.02544 15.6982 11.6788 14.1911L12.2648 13.8582L15.241 13.8537L18.217 13.8493L18.467 14.3408ZM21.2646 16.6753C21.4632 18.0266 21.3062 19.8302 20.8723 21.1808C20.6258 21.9484 20.4237 22.1893 20.0946 22.1081C19.7044 22.0118 19.6636 21.784 19.9084 21.0676C20.2982 19.9258 20.4172 19.0663 20.369 17.739C20.329 16.6382 20.2507 16.1769 19.9047 15.0034C19.8764 14.9073 20.1454 15.1154 20.519 15.4784C21.1683 16.1095 21.1855 16.1371 21.2646 16.6753ZM16.9156 18.2815C16.9156 19.2638 16.9545 19.3241 17.698 19.4928C18.3491 19.6407 19.0889 19.9697 19.0889 20.1114C19.0889 20.2366 18.7417 21.2868 18.7002 21.2868C18.6865 21.2868 18.4479 21.1522 18.17 20.9876C17.6136 20.6581 17.3157 20.6152 17.0746 20.8299C16.9313 20.9574 16.9156 21.1301 16.9156 22.5764C16.9156 24.3796 16.9149 24.3774 17.5498 24.5378C19.5614 25.0461 20.3619 25.5262 20.8959 26.5444C21.2207 27.1636 21.27 28.3061 21.0023 29.005C20.5223 30.2577 19.3042 31.1037 17.7502 31.2634C17.033 31.3371 16.9156 31.473 16.9156 32.2295V32.8279H16.5244H16.1332V32.1928C16.1332 31.7555 16.0945 31.5197 16.0087 31.4353C15.9402 31.3679 15.6232 31.2483 15.3044 31.1696C13.9334 30.8309 12.9516 30.0533 12.3146 28.8019C12.1172 28.414 11.9861 28.0702 12.0233 28.0378C12.0889 27.9809 13.0172 27.784 13.2201 27.784C13.2753 27.784 13.4071 27.9725 13.513 28.203C13.7964 28.8198 14.3226 29.3596 14.9326 29.6593C15.5396 29.9577 15.6698 29.9743 15.94 29.7882C16.1294 29.6577 16.1332 29.6191 16.1332 27.8281C16.1332 26.3387 16.1098 25.9779 16.006 25.8759C15.9362 25.8072 15.5949 25.666 15.2477 25.5623C13.9648 25.1791 13.2611 24.6802 12.8542 23.8653C12.6402 23.4367 12.613 23.2884 12.6162 22.5692C12.6192 21.9108 12.658 21.6727 12.8212 21.3113C13.1938 20.4859 14.2842 19.7182 15.4103 19.4883C16.0854 19.3505 16.1332 19.2749 16.1332 18.3456C16.1332 17.9101 16.1593 17.5281 16.1912 17.4968C16.223 17.4655 16.3991 17.4398 16.5824 17.4398H16.9156V18.2815ZM15.3509 20.748C14.9176 20.9011 14.3885 21.3307 14.2256 21.6616C14.0046 22.1107 13.9931 22.7626 14.1992 23.1656C14.4987 23.7513 15.6065 24.2084 15.9614 23.8926C16.1191 23.7521 16.1332 23.6257 16.1332 22.3555C16.1332 21.1231 16.1158 20.9558 15.9742 20.8299C15.8158 20.6889 15.5987 20.6604 15.3509 20.748ZM18.2049 22.3341C18.3001 22.4869 18.4064 22.7998 18.4409 23.0295C18.4754 23.2591 18.5766 23.5187 18.6659 23.6065C18.8561 23.7936 18.8488 23.7952 18.345 23.6704L17.9588 23.5748V22.8155C17.9588 22.3979 17.9751 22.0562 17.9951 22.0562C18.0152 22.0562 18.1095 22.1812 18.2049 22.3341ZM17.0595 26.3161C16.9362 26.45 16.9156 26.7053 16.9156 28.0981C16.9156 29.611 16.9276 29.7345 17.0882 29.8773C17.4445 30.1945 18.7124 29.8141 19.2005 29.2438C19.5104 28.8815 19.636 28.4453 19.5941 27.8763C19.5371 27.1011 19.0911 26.6327 18.0954 26.302C17.5411 26.1179 17.238 26.122 17.0595 26.3161ZM18.3382 27.5338C18.7291 27.8361 18.6103 28.5585 18.1282 28.8122C17.9661 28.8975 17.9588 28.8681 17.9588 28.129C17.9588 27.7042 17.9926 27.3566 18.034 27.3566C18.0753 27.3566 18.2123 27.4363 18.3382 27.5338Z" fill="url(#paint0_linear_52_9818)"/>
<defs>
<linearGradient id="paint0_linear_52_9818" x1="4.14118" y1="38" x2="32.4988" y2="23.3338" gradientUnits="userSpaceOnUse">
<stop stop-color="#9600FB"/>
<stop offset="1" stop-color="#42E8E0"/>
</linearGradient>
</defs>
</svg>
