<svg width="25" height="38" viewBox="0 0 25 38" fill="none" xmlns="http://www.w3.org/2000/svg">
<path fill-rule="evenodd" clip-rule="evenodd" d="M0.518806 0.10813C0.0772391 0.299313 0 0.521581 0 1.6005C0 2.54306 0.00597014 2.57867 0.245672 3.0626C0.38791 3.34978 0.615672 3.66442 0.786716 3.80997C1.02619 4.01377 1.08209 4.11036 1.08209 4.32054C1.08209 4.70772 1.48657 5.44857 1.86724 5.75867C2.04664 5.90483 2.35478 6.08518 2.55194 6.15951L2.91045 6.29468L2.95112 8.47226C2.99537 10.8391 3.05082 11.255 3.47888 12.4312C3.97664 13.7986 4.71769 14.9519 5.77463 16.0039C6.45888 16.685 7.62605 17.5008 8.41216 17.8474L8.91388 18.0687L8.91567 18.9589L8.91746 19.8492L8.33933 20.1222C7.40082 20.5653 6.61821 21.1263 5.77575 21.9596C4.28896 23.4302 3.41216 25.0947 3.06216 27.1108C2.97993 27.5843 2.94776 28.2958 2.94776 29.64V31.5103L2.66433 31.5947C1.77485 31.8596 1.09425 32.7248 1.08537 33.6017C1.08246 33.8897 1.04567 33.9581 0.758433 34.2095C0.556045 34.3866 0.353955 34.6681 0.219254 34.9607C0.0172391 35.3992 0.0035822 35.4894 0.00186579 36.3931C-0.000223767 37.4796 0.0773132 37.6968 0.535224 37.887C0.89791 38.0377 24.1021 38.0377 24.4648 37.887C24.922 37.6971 25 37.4794 25 36.3931C25 35.4915 24.9863 35.3997 24.7905 34.9836C24.5576 34.4885 24.3121 34.1982 23.9097 33.9421C23.6914 33.8032 23.6306 33.7104 23.5892 33.4529C23.473 32.7308 22.9854 32.0439 22.3833 31.7541L22.0522 31.5948V29.6856C22.0522 27.7159 21.9705 26.8867 21.6914 26.0222C21.6001 25.7394 21.5121 25.6114 21.3593 25.5387C21.0917 25.4114 20.784 25.5071 20.639 25.7626C20.543 25.9319 20.5506 26.0247 20.7113 26.647C20.8753 27.2821 20.8932 27.5201 20.918 29.4009L20.9451 31.4596L20.3979 31.4587L19.8507 31.4578L19.6067 31.0161C19.071 30.0466 18.1254 29.0889 16.9829 28.3586C16.3599 27.9604 15.0144 27.3405 14.1045 27.0326C13.3599 26.7806 13.2107 26.7549 12.5 26.7557C11.7919 26.7565 11.6373 26.7834 10.8955 27.0345C9.10866 27.6393 7.46246 28.594 6.45888 29.6072C6.02933 30.0409 5.44634 30.8398 5.25604 31.2556C5.16634 31.4515 5.14067 31.4596 4.60798 31.4596H4.05336L4.08537 29.3638C4.11366 27.5126 4.13604 27.2001 4.27754 26.6861C4.67433 25.2449 5.34664 24.0141 6.29164 22.9991C7.19634 22.0273 8.10634 21.4236 9.67918 20.752C10.0699 20.5851 10.13 20.3024 10.0994 18.7728C10.071 17.3572 10.0736 17.3636 9.4403 17.0853C8.52784 16.6842 8.38298 16.6071 7.74746 16.1846C6.57724 15.4064 5.43836 14.0832 4.85507 12.8241C4.19119 11.3911 4.06716 10.6679 4.06716 8.23055V6.30982H12.5H20.9328V8.23055C20.9328 10.6679 20.8088 11.3911 20.1449 12.8241C19.3319 14.5792 17.6567 16.1934 15.8582 16.9549C14.8928 17.3636 14.9298 17.2938 14.9006 18.7635C14.8719 20.2109 14.9391 20.5908 15.2463 20.7184C17.0822 21.4809 18.2866 22.3586 19.2582 23.6419C19.5011 23.9627 19.745 24.2065 19.8491 24.2325C20.1204 24.3002 20.4319 24.1142 20.5118 23.837C20.5732 23.6238 20.5487 23.5472 20.2985 23.1693C19.5938 22.1052 17.8879 20.6877 16.5865 20.0849L16.0821 19.8513L16.0841 18.96L16.0861 18.0687L16.5878 17.8474C17.7535 17.3334 19.2277 16.1582 20.0674 15.0734C20.7636 14.1739 21.4037 12.9264 21.7104 11.871C21.9902 10.908 22.052 10.243 22.0522 8.19205L22.0522 6.17947L22.2948 6.07998C22.8446 5.8546 23.441 5.1073 23.5796 4.4704C23.6168 4.29932 23.7165 4.1735 23.9121 4.05071C24.2813 3.81902 24.5704 3.47027 24.8067 2.97135C24.9837 2.59766 25 2.48208 25 1.59887C25 0.764399 24.9804 0.605562 24.8542 0.420314C24.557 -0.0159871 25.0182 0.00382115 15.1646 0.00382115H6.10813L5.94582 0.175493C5.7303 0.403621 5.73492 0.748597 5.95627 0.955359L6.12903 1.11664H15.0326H23.9362L23.9048 1.76995C23.8684 2.52607 23.7132 2.8551 23.2612 3.13456L22.9851 3.3052L12.661 3.32478C5.31037 3.33873 2.24896 3.32078 2.03127 3.26246C1.64537 3.15919 1.27097 2.79144 1.16485 2.41145C1.11978 2.25017 1.08276 1.8928 1.08254 1.61741L1.08209 1.11664L2.48134 1.11427C3.97388 1.11175 4.0703 1.0906 4.20575 0.73643C4.28985 0.51661 4.14761 0.1246 3.95739 0.0520435C3.70522 -0.0441786 0.759627 0.00382115 0.518806 0.10813ZM22.3602 4.58494C22.2513 4.78592 21.962 5.03052 21.7302 5.11784C21.5856 5.17237 18.6622 5.197 12.3435 5.197C2.34881 5.197 2.87 5.21888 2.46261 4.78191C2.36007 4.67182 2.27612 4.55334 2.27612 4.51847C2.27612 4.4836 6.8109 4.45511 12.3534 4.45511C21.9278 4.45511 22.4271 4.46157 22.3602 4.58494ZM5.13448 8.57263C4.90657 8.73132 4.86731 9.01687 4.95978 9.84155C5.13164 11.374 5.65269 12.714 6.52 13.8543C7.37739 14.9815 8.40104 15.7257 9.96022 16.3556C10.8187 16.7023 11.0074 17.0005 11.0076 18.0106C11.0077 18.7691 11.1299 19.0864 11.5222 19.3469C11.7396 19.4912 11.873 19.5153 12.4551 19.5152C13.2143 19.5151 13.5376 19.4028 13.7991 19.0482C13.924 18.8791 13.9599 18.6878 13.9941 18.0096C14.0172 17.5524 14.0736 17.1116 14.1194 17.03C14.2715 16.7592 14.5551 16.5514 15.0398 16.3556C16.2626 15.8616 17.0503 15.3639 17.8373 14.5882C19.2163 13.2288 20.0222 11.3306 20.0625 9.34708C20.0825 8.36068 20.9404 8.46128 12.5084 8.46128C6.2141 8.46128 5.27403 8.47545 5.13448 8.57263ZM18.8884 10.0603C18.7799 11.113 18.2235 12.4168 17.4934 13.3288C16.8243 14.1647 15.8989 14.8189 14.7707 15.2535C13.3991 15.7818 12.8731 16.4909 12.8731 17.8116V18.4025H12.5087H12.1443L12.1125 17.6792C12.0556 16.3841 11.5826 15.7748 10.2293 15.2535C9.10112 14.8189 8.17567 14.1647 7.50664 13.3288C6.77649 12.4168 6.22007 11.113 6.11157 10.0603L6.06149 9.5741H12.5H18.9385L18.8884 10.0603ZM11.7537 21.5184C11.5631 21.7079 11.5563 22.1198 11.741 22.2859C12.071 22.5828 12.6493 22.3303 12.6493 21.8893C12.6493 21.7657 12.5829 21.6008 12.5 21.5184C12.4171 21.436 12.2513 21.37 12.1269 21.37C12.0025 21.37 11.8366 21.436 11.7537 21.5184ZM12.7478 23.1646C12.2398 23.4087 12.4562 24.1892 13.0319 24.1892C13.2408 24.1892 13.5448 23.8594 13.5448 23.6328C13.5448 23.4099 13.24 23.0741 13.0444 23.0814C12.9707 23.0841 12.8373 23.1215 12.7478 23.1646ZM11.6284 24.7967C11.2368 24.9849 11.241 25.5791 11.6352 25.7577C12.2557 26.0387 12.7293 25.1294 12.1243 24.8185C11.8784 24.692 11.8489 24.6908 11.6284 24.7967ZM13.5999 28.0559C15.236 28.5756 16.6331 29.341 17.5593 30.2248C17.9969 30.6426 18.5448 31.3035 18.5448 31.4139C18.5448 31.4391 15.8246 31.4596 12.5 31.4596C9.17537 31.4596 6.45522 31.4391 6.45522 31.4139C6.45522 31.297 7.02537 30.6167 7.48351 30.1871C8.4003 29.3273 9.60843 28.6565 11.1974 28.125C12.302 27.7556 12.6252 27.7462 13.5999 28.0559ZM21.8784 32.7383C22.1112 32.8648 22.3555 33.1516 22.4482 33.4071C22.4929 33.5303 21.9803 33.5369 12.3484 33.5369C6.76761 33.5369 2.20149 33.5186 2.20149 33.4961C2.20149 33.4737 2.24866 33.3652 2.30634 33.255C2.46172 32.9582 2.75657 32.7117 3.03619 32.6452C3.17224 32.6127 7.41418 32.5914 12.4627 32.5979C21.0204 32.6087 21.6578 32.6182 21.8784 32.7383ZM22.9816 34.732C23.3588 34.8361 23.7304 35.2055 23.8351 35.5806C23.8802 35.7418 23.9172 36.0992 23.9175 36.3746L23.9179 36.8754H12.5H1.08209L1.08254 36.3746C1.08306 35.7411 1.18679 35.369 1.44119 35.0878C1.85157 34.6342 1.28634 34.6565 12.4627 34.6534C19.6634 34.6513 22.7738 34.6746 22.9816 34.732Z" fill="url(#paint0_linear_52_9826)"/>
<defs>
<linearGradient id="paint0_linear_52_9826" x1="3.13725" y1="38" x2="26.7428" y2="28.7511" gradientUnits="userSpaceOnUse">
<stop stop-color="#9600FB"/>
<stop offset="1" stop-color="#42E8E0"/>
</linearGradient>
</defs>
</svg>
