<svg width="9" height="18" viewBox="0 0 9 18" fill="none" xmlns="http://www.w3.org/2000/svg">
<path fill-rule="evenodd" clip-rule="evenodd" d="M5.83594 0.574356C4.09799 0.839725 3.00913 1.89432 2.68365 3.62748C2.6396 3.86202 2.62371 4.25201 2.61088 5.41433L2.59443 6.90116H1.29723H0V8.4129V9.92464H1.30078H2.60156V13.7289V17.5332H4.21875H5.83594V13.7289V9.92464H7.08398C7.77041 9.92464 8.33203 9.91601 8.33203 9.90547C8.33203 9.89494 8.41904 9.23077 8.52539 8.42951C8.63174 7.62825 8.71875 6.95661 8.71875 6.93694C8.71875 6.91195 8.28278 6.90116 7.27552 6.90116H5.83225L5.84371 5.56384C5.8538 4.3799 5.86223 4.20939 5.91729 4.07702C6.05478 3.74633 6.26263 3.56067 6.63557 3.43544C6.81852 3.37401 6.94146 3.3662 7.91895 3.35391L9 3.34028V1.99653C9 0.951162 8.99023 0.649611 8.95605 0.63868C8.83948 0.601335 7.90492 0.551065 7.08398 0.537941C6.37112 0.526545 6.09641 0.534586 5.83594 0.574356Z" fill="#282A4F"/>
</svg>
