<svg width="20" height="12" viewBox="0 0 20 12" fill="none" xmlns="http://www.w3.org/2000/svg">
<path fill-rule="evenodd" clip-rule="evenodd" d="M8.38054 0.539371C8.00013 0.566103 7.51792 0.63726 7.32494 0.695146C6.99361 0.794548 6.58071 1.14905 6.65707 1.26857C6.6711 1.29053 6.74797 1.32025 6.82784 1.33458C7.18643 1.39897 7.48887 1.59569 7.62446 1.85268C7.85618 2.29199 7.96041 3.66599 7.83573 4.63868C7.75336 5.28163 7.71852 5.43067 7.59639 5.66381C7.26868 6.28918 6.51609 5.78291 5.68666 4.37923C5.39149 3.87973 4.56082 2.27653 4.37546 1.84871C4.15144 1.33167 4.08052 1.23647 3.82581 1.11113L3.61082 1.00534L1.98834 1.0166C0.523176 1.02677 0.353577 1.03437 0.239143 1.09483C0.0577376 1.19072 -0.0197508 1.32161 0.0042542 1.49183C0.0299403 1.67419 0.645312 2.99699 1.09879 3.84468C1.98165 5.49503 2.7294 6.69344 3.52876 7.73906C4.70442 9.27696 5.22459 9.77593 6.42574 10.5181C6.98661 10.8647 7.39141 11.0586 7.89184 11.2203C8.57942 11.4425 8.87874 11.4853 9.90528 11.508C10.9269 11.5306 11.2204 11.5021 11.4369 11.3593C11.6152 11.2417 11.6703 11.0794 11.7036 10.5748C11.7365 10.0768 11.837 9.64976 11.9753 9.42169C12.0972 9.22043 12.3623 8.98802 12.476 8.98257C12.8728 8.96367 13.095 9.12311 13.9239 10.0218C14.7012 10.8643 14.9884 11.1123 15.4178 11.3111C15.6113 11.4007 15.8489 11.4916 15.9456 11.5131C16.1802 11.5651 19.3466 11.5066 19.5511 11.4465C19.7535 11.3869 19.9715 11.1801 19.9765 11.0429C19.9901 10.6676 19.9336 10.4984 19.662 10.1019C19.3052 9.58072 18.9986 9.24788 17.9548 8.24862C16.8465 7.18745 16.7691 7.0887 16.7675 6.7337C16.7662 6.43569 16.9102 6.20671 17.8833 4.96006C19.2559 3.20146 19.8055 2.35203 19.9584 1.75317C20.048 1.40196 19.997 1.2325 19.7657 1.11294L19.6011 1.02787L17.6267 1.04057C16.2311 1.04953 15.6242 1.06617 15.5561 1.09729C15.4236 1.15782 15.2831 1.37855 15.1071 1.80297C14.6381 2.93336 13.6726 4.56185 13.0364 5.29554C12.7831 5.58755 12.3896 5.88639 12.2584 5.88639C12.0751 5.88639 11.924 5.77194 11.8095 5.54641L11.7037 5.33815L11.7144 3.37512C11.7259 1.2641 11.721 1.20176 11.519 0.923024C11.32 0.64849 10.8349 0.554344 9.53387 0.537821C9.00705 0.531091 8.48805 0.53181 8.38054 0.539371Z" fill="#282A4F"/>
</svg>
