<svg width="16" height="17" viewBox="0 0 16 17" fill="none" xmlns="http://www.w3.org/2000/svg">
<path fill-rule="evenodd" clip-rule="evenodd" d="M3.7974 0.578632C2.0155 0.828814 0.58131 2.11082 0.143302 3.84494C0.102057 4.00822 0.0532199 4.26837 0.0347534 4.42306C-0.0115845 4.81127 -0.0115845 12.2534 0.0347534 12.6416C0.25207 14.4627 1.54756 15.9439 3.31309 16.3899C3.47635 16.4311 3.73647 16.48 3.89114 16.4984C4.27931 16.5448 11.7207 16.5448 12.1089 16.4984C13.7501 16.3025 15.1223 15.2315 15.7185 13.681C15.815 13.43 15.9279 12.9545 15.9652 12.6416C16.0116 12.2534 16.0116 4.81127 15.9652 4.42306C15.7694 2.78168 14.6984 1.40933 13.1481 0.813002C12.8971 0.716473 12.4217 0.6036 12.1089 0.566257C11.6812 0.515196 4.16948 0.526383 3.7974 0.578632ZM13.0485 2.6155C13.4539 2.75184 13.7787 3.0768 13.916 3.48333C13.981 3.67582 13.9833 4.05788 13.9207 4.26418C13.6644 5.10914 12.656 5.47185 11.9205 4.98361C11.4893 4.69733 11.2606 4.18762 11.3405 3.69101C11.4207 3.19305 11.7618 2.78224 12.2268 2.62378C12.4415 2.55056 12.8434 2.54653 13.0485 2.6155ZM12.4648 3.54798C12.2849 3.64579 12.2143 3.91085 12.3238 4.07784C12.5372 4.40371 13.0306 4.26193 13.0306 3.87475C13.0306 3.59604 12.7134 3.41283 12.4648 3.54798ZM8.68741 4.20281C9.61664 4.35781 10.4353 4.77755 11.0949 5.43716C11.9332 6.27561 12.3734 7.34116 12.3734 8.53235C12.3734 9.72355 11.9332 10.7891 11.0949 11.6275C10.2565 12.466 9.19107 12.9062 8 12.9062C6.80893 12.9062 5.7435 12.466 4.90514 11.6275C4.06678 10.7891 3.62664 9.72355 3.62664 8.53235C3.62664 7.34116 4.06678 6.27561 4.90514 5.43716C5.55412 4.78811 6.37395 4.36325 7.28134 4.20575C7.60255 4.14997 8.36114 4.14841 8.68741 4.20281ZM7.39508 5.14489C5.76528 5.43935 4.56293 6.87745 4.56293 8.53235C4.56293 10.6528 6.49731 12.2849 8.58008 11.9217C10.87 11.5223 12.1158 9.01894 11.0516 6.95538C10.3658 5.62569 8.8602 4.8802 7.39508 5.14489Z" fill="#282A4F"/>
</svg>
