<svg width="16" height="14" viewBox="0 0 16 14" fill="none" xmlns="http://www.w3.org/2000/svg">
<path fill-rule="evenodd" clip-rule="evenodd" d="M14.9223 0.603822C13.8573 0.98601 0.731433 5.90507 0.538104 5.99448C-0.104314 6.2915 -0.179417 6.68383 0.355383 6.94919C0.407017 6.9748 1.29546 7.25195 2.3297 7.56509L4.21017 8.1344L8.48012 5.52877C10.8286 4.09566 12.7974 2.90703 12.8552 2.8874C13.0002 2.83807 13.125 2.84268 13.1832 2.89952C13.224 2.93929 13.2257 2.95926 13.1933 3.01772C13.1718 3.05639 11.6123 4.43795 9.72768 6.08783C7.84305 7.73771 6.29601 9.10053 6.28979 9.11634C6.28359 9.13212 6.21985 9.95584 6.14812 10.9468L6.01775 12.7486L6.15942 12.7299C6.23734 12.7197 6.36073 12.6805 6.43361 12.6428C6.50652 12.6051 6.99717 12.1715 7.52399 11.6793C8.05078 11.1871 8.50005 10.7775 8.52236 10.7692C8.54465 10.7609 9.38358 11.3405 10.3867 12.0574C11.3897 12.7742 12.289 13.3962 12.385 13.4395C12.637 13.5531 12.9209 13.5644 13.1052 13.4681C13.2699 13.3822 13.4308 13.1687 13.4985 12.9463C13.5247 12.8603 14.0981 10.2756 14.7729 7.20262C15.8962 2.08624 15.9996 1.59089 16 1.32534C16.0004 1.07445 15.9897 1.01477 15.9208 0.88271C15.8722 0.789605 15.7893 0.694546 15.7083 0.638988C15.5231 0.511938 15.2166 0.498232 14.9223 0.603822Z" fill="#282A4F"/>
</svg>
