<svg width="18" height="13" viewBox="0 0 18 13" fill="none" xmlns="http://www.w3.org/2000/svg">
<path fill-rule="evenodd" clip-rule="evenodd" d="M1.27039 0.566018C0.666936 0.678403 0.153965 1.17492 0.0370149 1.75985C-0.0123383 2.00656 -0.0123383 11.0553 0.0370149 11.302C0.156742 11.9008 0.666585 12.3843 1.29791 12.4979C1.55958 12.545 16.4404 12.545 16.7021 12.4979C17.3334 12.3843 17.8433 11.9008 17.963 11.302C18.0123 11.0553 18.0123 2.00656 17.963 1.75985C17.8433 1.16108 17.3334 0.677536 16.7021 0.563984C16.4668 0.521644 1.49796 0.523611 1.27039 0.566018ZM13.0958 4.4513C10.9878 6.43999 9.94126 7.40452 9.80909 7.48053C9.31647 7.76375 8.68353 7.76375 8.19091 7.48053C8.05874 7.40452 7.0122 6.43999 4.90421 4.4513L1.81145 1.53358H9H16.1886L13.0958 4.4513ZM4.20163 5.19525L5.60756 6.53097L3.85011 8.20005C2.88351 9.11804 1.85932 10.0799 1.57417 10.3376L1.05568 10.806V6.53081V2.25563L1.92569 3.05756C2.40421 3.49864 3.42836 4.4606 4.20163 5.19525ZM16.9358 8.67296L16.9267 10.815L14.6594 8.67226L12.3922 6.52951L14.6594 4.39059L16.9267 2.25166L16.9358 4.39132C16.9408 5.56811 16.9408 7.49483 16.9358 8.67296ZM6.73337 7.59972C7.36952 8.20772 7.73808 8.44976 8.26181 8.60345C8.48249 8.66823 8.60278 8.68083 9 8.68083C9.54042 8.68083 9.82231 8.61842 10.2303 8.40855C10.5325 8.25309 10.6921 8.12927 11.2043 7.65293L11.6335 7.25383L12.4698 8.02376C12.9298 8.44719 13.9546 9.40975 14.7472 10.1627L16.1882 11.5318L8.99982 11.5303L1.81145 11.5289L4.07203 9.39665C5.31535 8.22392 6.34385 7.2644 6.35756 7.2644C6.37127 7.2644 6.54039 7.41529 6.73337 7.59972Z" fill="#07DBB4"/>
</svg>
