<svg width="142" height="143" viewBox="0 0 142 143" fill="none" xmlns="http://www.w3.org/2000/svg">
<path d="M53.3186 13.9436V27.1955H35.6494V115.542H53.3186V128.794H62.1533V115.542H70.9879V128.794H79.8225V115.542H86.4485C99.8212 115.542 110.744 104.619 110.744 91.2465C110.744 82.0495 105.619 73.9741 98.0439 69.8502C103.151 65.3811 106.326 58.7724 106.326 51.4907C106.326 38.118 95.4039 27.1955 82.0312 27.1955H79.8225V13.9436H70.9879V27.1955H62.1533V13.9436H53.3186ZM44.484 36.0301H82.0312C90.6242 36.0301 97.4917 42.8977 97.4917 51.4907C97.4917 60.0838 90.6242 66.9513 82.0312 66.9513H44.484V36.0301ZM44.484 75.7859H86.4485C95.0415 75.7859 101.909 82.6535 101.909 91.2465C101.909 99.8396 95.0415 106.707 86.4485 106.707H44.484V75.7859Z" fill="#07DBB4"/>
</svg>
