<svg width="90" height="90" viewBox="0 0 90 90" fill="none" xmlns="http://www.w3.org/2000/svg">
<path d="M33.7501 8.4375V16.875H22.5001V73.125H33.7501V81.5625H39.3751V73.125H45.0001V81.5625H50.6251V73.125H54.8438C63.3582 73.125 70.3126 66.1707 70.3126 57.6562C70.3126 51.8005 67.0496 46.6589 62.2266 44.0332C65.4786 41.1877 67.5001 36.98 67.5001 32.3438C67.5001 23.8293 60.5457 16.875 52.0313 16.875H50.6251V8.4375H45.0001V16.875H39.3751V8.4375H33.7501ZM28.1251 22.5H52.0313C57.5025 22.5 61.8751 26.8726 61.8751 32.3438C61.8751 37.8149 57.5025 42.1875 52.0313 42.1875H28.1251V22.5ZM28.1251 47.8125H54.8438C60.315 47.8125 64.6876 52.1851 64.6876 57.6562C64.6876 63.1274 60.315 67.5 54.8438 67.5H28.1251V47.8125Z" fill="#07DBB4"/>
</svg>
