<svg width="26" height="18" viewBox="0 0 26 18" fill="none" xmlns="http://www.w3.org/2000/svg">
<path fill-rule="evenodd" clip-rule="evenodd" d="M9.92669 0.0524802C7.72798 0.388601 5.92565 1.44289 4.75917 3.07545C4.43548 3.52842 4.07618 4.19113 3.93461 4.59619L3.8481 4.84376L2.36636 4.84404C1.48912 4.84418 0.806288 4.86446 0.692703 4.89374C0.587144 4.92095 0.422912 5.00672 0.327716 5.08429C-0.0288385 5.37491 -0.00872228 4.97079 0.00692364 11.5162L0.0209948 17.4106L0.139711 17.5878C0.204987 17.6853 0.355604 17.8179 0.474371 17.8825L0.690315 18H13H25.3097L25.5256 17.8825C25.6444 17.8179 25.795 17.6853 25.8603 17.5878L25.979 17.4106L25.9931 11.5162C26.0087 4.97079 26.0288 5.37491 25.6723 5.08429C25.5771 5.00672 25.4129 4.92095 25.3073 4.89374C25.1825 4.86158 23.9597 4.84418 21.8096 4.84404L18.5037 4.84376L18.3435 4.45473C17.425 2.22401 15.4347 0.658658 12.8359 0.122883C12.2301 -0.00203083 10.5494 -0.0426786 9.92669 0.0524802ZM12.492 0.813043C13.0358 0.921735 13.8443 1.17887 14.274 1.37975C15.714 2.05289 16.8901 3.20163 17.5431 4.57262L17.6722 4.84376L17.2283 4.84239L16.7845 4.84107L16.5611 4.49274C15.7616 3.24586 14.3902 2.36105 12.8278 2.08401C12.2903 1.98866 11.3136 1.98956 10.7725 2.08585C9.41343 2.32771 8.12147 3.0886 7.33689 4.10922C7.01432 4.52886 6.62982 5.30078 6.46605 5.85759C6.34068 6.28397 6.32701 6.40822 6.32381 7.15435C6.32066 7.87568 6.33494 8.02964 6.43714 8.37722C6.65995 9.13467 7.06374 9.79329 7.60652 10.2845C7.92539 10.573 8.00301 10.5615 8.42052 10.1643C8.71276 9.88613 8.72795 9.87817 8.75681 9.98728C8.77342 10.0501 8.93089 10.823 9.1067 11.7048C9.3357 12.8535 9.40906 13.3121 9.36552 13.3222C9.31869 13.333 6.62921 12.8886 5.81954 12.7363L5.67466 12.709L5.97559 12.4374C6.14109 12.288 6.30614 12.0993 6.34241 12.0181C6.42038 11.8433 6.40448 11.8152 5.96314 11.3511C5.23114 10.5813 4.72087 9.66224 4.4335 8.59593C4.25479 7.93283 4.21055 6.76872 4.33724 6.06469C4.7295 3.88538 6.25071 2.07284 8.39253 1.23277C8.96711 1.00742 9.6983 0.815165 10.2569 0.742546C10.7282 0.681292 12.04 0.722647 12.492 0.813043ZM13.1159 2.88131C14.1821 3.17735 15.1359 3.81224 15.7412 4.62892L15.9004 4.84376H11.8291H7.7578L7.85437 4.7021C8.26152 4.10526 9.02299 3.47937 9.71243 3.17499C10.5312 2.81355 11.017 2.71971 11.9586 2.74121C12.545 2.7546 12.748 2.77917 13.1159 2.88131ZM3.57358 5.79865C3.55291 5.90889 3.52233 6.12637 3.50562 6.28198L3.47529 6.56491L2.98366 6.58854C2.442 6.61457 2.30611 6.67191 2.09103 6.96526L1.97674 7.12115V11.4455V15.7698L2.09118 15.9274C2.15417 16.0142 2.28559 16.1287 2.38328 16.182L2.56092 16.2788H13H23.4391L23.6167 16.182C23.7144 16.1287 23.8458 16.0142 23.9088 15.9274L24.0233 15.7698V11.4455V7.12115L23.909 6.96526C23.8461 6.87953 23.7302 6.76499 23.6513 6.71072L23.5079 6.61207L15.3068 6.59986L7.10565 6.58764L7.13192 6.47018C7.14634 6.40558 7.17057 6.29434 7.18571 6.22304C7.20085 6.15174 7.24723 5.98189 7.28878 5.84566L7.36427 5.59795L16.2653 5.60988L25.1662 5.62181L25.1791 11.419C25.1894 16.0256 25.1789 17.2239 25.1283 17.2537C25.0549 17.297 1.01004 17.3072 0.888734 17.2641C0.816041 17.2382 0.808371 16.6819 0.808371 11.4483C0.808371 8.26532 0.82361 5.64695 0.842253 5.62969C0.860846 5.61238 1.49151 5.59824 2.24368 5.59824H3.61123L3.57358 5.79865ZM3.49617 7.84989C3.6002 8.72626 3.8669 9.58269 4.26409 10.3162C4.47668 10.7088 4.97379 11.411 5.24714 11.7048L5.42265 11.8934L4.96963 12.3232C4.59037 12.6832 4.51666 12.7776 4.51666 12.904C4.51666 13.1082 4.58864 13.2187 4.75688 13.2724C4.8343 13.2971 6.0463 13.5157 7.45027 13.7581L10.0028 14.1989L10.1426 14.1025C10.2324 14.0404 10.2879 13.9536 10.2981 13.8589C10.3152 13.6997 9.42653 9.19267 9.33718 8.98566C9.27282 8.83646 9.04199 8.73518 8.87638 8.78346C8.81146 8.80237 8.56961 8.98859 8.33894 9.1972C7.85696 9.63315 7.90679 9.64211 7.59926 9.06413C7.32536 8.54924 7.10738 7.84791 7.10738 7.48137V7.34297H15.1843H23.2613V9.95239C23.2613 11.3875 23.2462 13.2337 23.2277 14.0549L23.1941 15.5479H14.8796C10.3067 15.5479 5.70428 15.5339 4.65199 15.5167L2.73871 15.4855V11.4142V7.34297H3.08734H3.43597L3.49617 7.84989ZM12.8084 8.36477C12.7068 8.40273 12.5936 8.64299 12.5936 8.82076C12.5936 8.96741 12.5773 8.98576 12.4231 9.01259C11.8105 9.1193 11.2575 9.89401 11.3468 10.5206C11.4547 11.2777 12.0383 11.7592 12.8984 11.8009C13.5578 11.8328 13.8382 12.0433 13.8382 12.5064C13.8382 12.9163 13.5511 13.1922 13.091 13.2246C12.604 13.2588 12.1923 12.9675 12.1179 12.536C12.0968 12.4129 12.0395 12.3146 11.9518 12.2505C11.7987 12.1387 11.7344 12.1315 11.5581 12.2061C11.0043 12.4402 11.5541 13.577 12.3476 13.8386C12.5677 13.9111 12.5937 13.9346 12.5944 14.0618C12.5954 14.2534 12.6942 14.4224 12.8541 14.5057C13.125 14.6469 13.4064 14.4112 13.4064 14.043C13.4064 13.9366 13.4431 13.9077 13.6731 13.8331C14.0574 13.7083 14.4709 13.3069 14.5959 12.9373C14.7704 12.4213 14.627 11.8712 14.2192 11.4926C13.9173 11.2124 13.6254 11.1059 13.067 11.0723C12.7085 11.0508 12.5673 11.0217 12.4574 10.9468C11.9947 10.6318 12.0597 9.95144 12.574 9.72491C12.8203 9.61641 13.3006 9.64451 13.4959 9.77886C13.6958 9.91627 13.8448 10.1386 13.8821 10.3549C13.9142 10.5418 14.1023 10.7381 14.249 10.7381C14.3932 10.7381 14.5707 10.6252 14.6279 10.497C14.7426 10.2399 14.5499 9.71039 14.2294 9.40195C14.0394 9.21913 13.6277 8.9934 13.4843 8.9934C13.4325 8.9934 13.4064 8.94832 13.4064 8.85896C13.4064 8.6626 13.3079 8.43239 13.2012 8.37939C13.1036 8.33092 12.9177 8.32398 12.8084 8.36477ZM18.3475 9.88434C18.0236 9.99605 17.8495 10.1079 17.5993 10.3649C17.2869 10.6859 17.1925 10.9308 17.1916 11.4219C17.191 11.7892 17.2101 11.8843 17.3335 12.1292C17.9016 13.2564 19.5407 13.3896 20.286 12.3691C20.9016 11.5263 20.5959 10.4219 19.6242 9.97785C19.2012 9.78452 18.7356 9.75042 18.3475 9.88434ZM19.4945 10.7239C20.0407 11.1106 19.9451 11.9682 19.3247 12.247C18.834 12.4674 18.2997 12.2903 18.0417 11.8218C17.8387 11.4528 17.9369 11.0473 18.3014 10.7502C18.4746 10.609 18.5449 10.5799 18.8164 10.5372C18.9942 10.5092 19.3166 10.598 19.4945 10.7239Z" fill="#FD592E"/>
</svg>
