<svg width="25" height="27" viewBox="0 0 25 27" fill="none" xmlns="http://www.w3.org/2000/svg">
<path fill-rule="evenodd" clip-rule="evenodd" d="M1.54473 0.053416C0.992038 0.193749 0.449111 0.691301 0.181285 1.30284L0.0258211 1.65779L0.012935 10.4088L0 19.1598H0.415627H0.831205V11.3195V3.47926H6.05317H11.2751L11.2882 4.78597L11.3012 6.09268H11.6917H12.0822L12.095 4.08863C12.1026 2.88694 12.0878 1.96744 12.0579 1.792C11.9165 0.961934 11.3367 0.287304 10.5764 0.0683574C10.3718 0.00943674 9.52418 -0.00318156 6.02959 0.000619769C3.63297 0.00325958 1.65045 0.0265955 1.54473 0.053416ZM10.718 1.0784C10.866 1.1774 11.0132 1.33652 11.1047 1.49655C11.232 1.7193 11.2548 1.8156 11.2696 2.19473L11.2868 2.63452H6.05903H0.831205V2.23681C0.831205 1.63609 1.03011 1.26456 1.49016 1.00581C1.68413 0.896731 1.7141 0.896097 6.08226 0.907343L10.4791 0.918641L10.718 1.0784ZM14.317 2.71055C13.6348 2.94301 13.0762 3.62941 12.9382 4.40494C12.9073 4.57821 12.8888 5.02883 12.897 5.40632L12.912 6.09268L18.5373 6.10609L24.1626 6.1195L24.175 13.9463L24.1873 21.7732L24.59 21.7885L24.9927 21.8038V13.1806C24.9927 5.55748 24.9839 4.52088 24.917 4.24269C24.7655 3.61363 24.3778 3.10868 23.8311 2.82849L23.504 2.66092L19.0134 2.65068C15.3965 2.64249 14.4827 2.65411 14.317 2.71055ZM23.504 3.6198C23.957 3.88474 24.1629 4.26925 24.1629 4.85027V5.22154H18.9401H13.7174L13.7184 4.86516C13.7204 4.19998 14.0395 3.71357 14.5957 3.52804C14.6629 3.50555 16.6509 3.49135 19.0134 3.49642L23.3087 3.50566L23.504 3.6198ZM4.83372 5.67242V6.12335L5.23641 6.10799L5.6391 6.09268L5.65326 5.65711L5.66746 5.22154H5.25057H4.83372V5.67242ZM6.44449 5.67242V6.12335L6.84718 6.10799L7.24987 6.09268L7.26403 5.65711L7.27823 5.22154H6.86134H6.44449V5.67242ZM8.05526 5.67242V6.12335L8.45795 6.10799L8.86064 6.09268L8.8748 5.65711L8.889 5.22154H8.4721H8.05526V5.67242ZM11.9601 6.99333C11.893 7.00579 11.6844 7.04285 11.4964 7.07564C10.7696 7.20251 10.0183 7.53407 9.32435 8.03442C8.81964 8.39824 8.0432 9.26695 7.72427 9.82458C6.01827 12.8075 6.92455 16.6576 9.74134 18.3938C11.0902 19.2253 12.8672 19.3971 14.3334 18.8379C15.1766 18.5163 15.8563 18.056 16.4731 17.3888C18.3395 15.37 18.6659 12.2707 17.2699 9.82342C16.9548 9.27117 16.1334 8.35484 15.6454 8.0114C14.6877 7.33735 13.8124 7.03567 12.6923 6.99354C12.3567 6.98097 12.0273 6.98081 11.9601 6.99333ZM13.7418 8.01636C15.2343 8.45425 16.5145 9.72279 17.0354 11.2799C18.0235 14.2336 16.4362 17.4027 13.5859 18.1668C12.9802 18.3292 12.0139 18.3292 11.4082 18.1668C10.4707 17.9155 9.6648 17.4171 9.02889 16.6952C8.17031 15.7206 7.73808 14.6323 7.68019 13.2994C7.56827 10.722 9.19851 8.47447 11.5697 7.93701C12.0557 7.82687 13.2438 7.87027 13.7418 8.01636ZM3.27586 10.5318C2.43246 11.7491 1.69126 12.8184 1.62873 12.908L1.515 13.0711L3.17438 15.4643L4.83372 17.8576V16.344V14.8305H5.44386H6.054V14.3817V13.9329H5.05337H4.05274V14.5665C4.05274 14.9149 4.03624 15.1991 4.01613 15.1979C3.99602 15.1968 3.65371 14.7225 3.25551 14.1441C2.78111 13.455 2.54457 13.0689 2.56957 13.0242C2.59051 12.9868 2.9273 12.4948 3.31799 11.9307L4.02834 10.9053L4.04205 11.548L4.05577 12.1906H5.05488H6.054V11.7683V11.3459H5.44459H4.83523L4.82225 9.83229L4.80931 8.31872L3.27586 10.5318ZM20.1604 9.82991V11.3459H19.5503H18.9401V11.7683V12.1906H19.9393H20.9384L20.9521 11.548L20.9658 10.9053L21.6762 11.9307C22.0668 12.4948 22.4036 12.9868 22.4246 13.0242C22.4496 13.0689 22.213 13.455 21.7386 14.1441C21.3404 14.7225 20.9982 15.1968 20.978 15.1979C20.9579 15.1991 20.9414 14.9149 20.9414 14.5665V13.9329H19.9408H18.9401V14.3817V14.8305H19.5503H20.1604V16.344V17.8576L21.8196 15.4646C22.8682 13.9522 23.4636 13.0504 23.4374 13.0139C23.4146 12.9822 22.6981 11.9465 21.8452 10.7123C20.9924 9.47824 20.2643 8.43371 20.2275 8.39121C20.1705 8.32553 20.1604 8.54189 20.1604 9.82991ZM12.1066 9.14858V9.59111L11.8747 9.65415C10.4056 10.0537 10.0039 12.1163 11.2036 13.1008C11.5367 13.3742 11.9626 13.5103 12.49 13.5117C12.9911 13.5131 13.2362 13.6121 13.4576 13.9027C13.6029 14.0933 13.7176 14.4012 13.7171 14.599C13.7161 14.9682 13.4615 15.3876 13.126 15.5727C12.8619 15.7184 12.1322 15.7184 11.8681 15.5727C11.5154 15.3781 11.2779 14.9684 11.2771 14.5533L11.2768 14.4081H10.8798H10.4827L10.507 14.7756C10.5372 15.2321 10.7092 15.6336 11.0171 15.9667C11.2686 16.2387 11.4303 16.3409 11.8137 16.4701L12.0822 16.5605L12.0963 16.989L12.1105 17.4175H12.4971H12.8836L12.8978 16.9852L12.912 16.5529L13.1316 16.492C13.6601 16.3454 14.0919 15.9623 14.3369 15.4227C14.4593 15.153 14.4739 15.0646 14.4739 14.5929C14.4739 14.122 14.4592 14.0325 14.3378 13.7651C14.1593 13.372 13.7115 12.9217 13.3557 12.7777C13.1806 12.7069 12.9063 12.6579 12.5609 12.6358C11.9048 12.5937 11.6671 12.4885 11.4701 12.1525C11.1967 11.6862 11.2424 11.1689 11.5901 10.7934C11.8229 10.5419 12.0688 10.4484 12.4971 10.4484C12.9253 10.4484 13.1712 10.5419 13.4041 10.7934C13.6016 11.0067 13.7174 11.3171 13.7174 11.6333C13.7174 11.767 13.7211 11.7683 14.1134 11.7683H14.5094L14.4897 11.4119C14.444 10.5788 13.8856 9.86254 13.1194 9.65415L12.8876 9.59111V9.14858V8.70609H12.4971H12.1066V9.14858ZM0.00141552 21.2605C0.00141552 22.5744 0.0442229 22.8925 0.279688 23.3271C0.468294 23.6753 0.815781 24.0138 1.17288 24.1972L1.49016 24.3602H6.054H10.6178L10.8987 24.2178C11.4749 23.9258 11.9407 23.2744 12.0575 22.5975C12.0845 22.4411 12.1066 21.8055 12.1066 21.1852V20.0573H6.054H0.00141552V21.2605ZM12.8972 22.6839C12.9114 25.2098 12.9159 25.3208 13.0142 25.5795C13.245 26.1865 13.6617 26.6453 14.1932 26.8774L14.4739 27H18.9646H23.4552L23.7833 26.8318C24.2392 26.5982 24.5641 26.2534 24.7865 25.767L24.9683 25.3692L24.9842 24.0068L25 22.6443H19.3587H13.7174V21.3508V20.0573H13.2999H12.8825L12.8972 22.6839ZM16.1091 20.4797V20.902H16.524H16.9389V20.4797V20.0573H16.524H16.1091V20.4797ZM17.7199 20.4797V20.902H18.1348H18.5497V20.4797V20.0573H18.1348H17.7199V20.4797ZM19.3306 20.4797V20.902H19.7455H20.1604V20.4797V20.0573H19.7455H19.3306V20.4797ZM11.2757 21.7072C11.2748 22.4027 11.2611 22.5447 11.1752 22.7499C11.0527 23.0428 10.8734 23.2523 10.6178 23.4015L10.4226 23.5154H6.054H1.6854L1.49016 23.4013C1.38277 23.3385 1.22462 23.2078 1.13876 23.1109C0.869327 22.8069 0.831205 22.6346 0.831205 21.7221V20.902H6.054H11.2768L11.2757 21.7072ZM4.05274 22.2219V22.6443H6.054H8.05526V22.2219V21.7996H6.054H4.05274V22.2219ZM24.1629 24.3623C24.1629 25.092 24.1515 25.2073 24.0598 25.405C23.9183 25.71 23.7881 25.8533 23.5163 26.0029L23.2846 26.1305L18.8998 26.1165L14.515 26.1025L14.2761 25.9427C14.1283 25.8438 13.9809 25.6845 13.8895 25.5247C13.743 25.2688 13.7416 25.259 13.7263 24.4042L13.7108 23.5418H18.9369H24.1629V24.3623ZM16.9389 24.8354V25.2841H18.9401H20.9414V24.8354V24.3866H18.9401H16.9389V24.8354Z" fill="#B436CD"/>
</svg>
