<svg width="24" height="31" viewBox="0 0 24 31" fill="none" xmlns="http://www.w3.org/2000/svg">
<path fill-rule="evenodd" clip-rule="evenodd" d="M11.5803 0.0378931C11.2487 0.149414 10.9953 0.328356 10.5269 0.781709C8.50561 2.7385 5.55271 3.93252 2.00919 4.22595C1.07921 4.30295 0.759897 4.41744 0.419423 4.79604C-0.0415757 5.30857 -0.0114296 4.71705 0.0102047 12.8271C0.0295336 20.0643 0.0295336 20.0661 0.161408 20.6573C0.718283 23.1536 2.06315 25.3251 3.95538 26.7832C4.50056 27.2033 9.79847 30.3841 10.429 30.6699C10.8278 30.8506 11.5362 31 11.9944 31C12.4786 31 13.1817 30.8447 13.6172 30.6416C14.1544 30.391 19.2834 27.3417 19.8265 26.9501C20.5917 26.3983 21.7678 25.1534 22.2956 24.3366C23.034 23.1938 23.5253 22.0084 23.8305 20.6334C23.9506 20.0924 23.9574 19.8837 23.9782 16.1506L24 12.2352L23.8411 12.1071C23.6352 11.9411 23.5064 11.9455 23.3025 12.1252L23.1366 12.2713L23.1027 16.1383L23.0687 20.0054L22.9159 20.6415C22.5035 22.3575 21.7573 23.788 20.64 25.0043C20.1484 25.5395 19.4382 26.1506 18.9282 26.4771C17.8802 27.1482 13.2793 29.8143 12.9847 29.9212C12.4646 30.11 11.528 30.1114 11.0128 29.9242C10.5649 29.7615 5.15331 26.5686 4.54654 26.1091C3.85354 25.5843 2.9157 24.5752 2.43194 23.8338C1.77103 22.8209 1.37736 21.8979 1.0704 20.6415L0.915002 20.0054L0.896736 12.8427C0.879831 6.22437 0.885979 5.66815 0.97754 5.52501C1.13737 5.27507 1.37322 5.19281 2.11056 5.12993C5.8722 4.80912 8.88593 3.57991 11.1211 1.45483C11.8952 0.718952 12.0906 0.716347 12.8441 1.43175C15.1093 3.58239 18.1092 4.80724 21.9083 5.13266C22.6075 5.19251 22.875 5.28561 23.0019 5.51314C23.0584 5.6146 23.085 6.26525 23.1071 8.09242L23.1366 10.5361L23.2762 10.6518C23.4571 10.8019 23.7261 10.7994 23.8755 10.6464C23.99 10.5291 23.9937 10.4454 23.9924 8.02645C23.991 5.23073 23.9985 5.28677 23.5558 4.78459C23.2338 4.41931 22.9043 4.30252 21.9796 4.22595C18.4169 3.93095 15.4611 2.72639 13.4132 0.734944C13.1693 0.497788 12.8508 0.242035 12.7054 0.166557C12.4214 0.019175 11.8353 -0.0478829 11.5803 0.0378931ZM11.5129 3.2116C11.3944 3.28605 10.9293 3.60111 10.4794 3.91175C8.64245 5.18003 6.33994 6.06881 3.85844 6.46752C2.90707 6.62041 2.65461 6.74526 2.47432 7.15209C2.37354 7.37962 2.36196 7.56395 2.36077 8.95484C2.35947 10.4967 2.36012 10.5047 2.49625 10.6358C2.68984 10.8222 2.96866 10.8098 3.12359 10.6079C3.23992 10.4563 3.24612 10.3738 3.24612 8.9735V7.49871L3.37912 7.47084C3.4523 7.45546 3.85791 7.38361 4.28055 7.31104C7.15684 6.81753 9.47632 5.81541 11.9129 4.01357C11.967 3.97359 12.0218 3.97359 12.0759 4.01357C14.5086 5.81251 16.8366 6.81832 19.7083 7.31104C20.1309 7.38361 20.5365 7.45546 20.6097 7.47084L20.7427 7.49871V13.2782C20.7427 17.0607 20.7208 19.2191 20.6793 19.5248C20.425 21.3981 19.3882 23.1508 17.8949 24.2311C17.3986 24.5902 12.3938 27.5425 12.1697 27.6083C12.0733 27.6367 11.9186 27.6375 11.8258 27.6103C11.5442 27.5275 6.32067 24.4118 5.86085 24.0523C4.50067 22.989 3.55095 21.3036 3.30949 19.5248C3.27065 19.2383 3.24612 17.7578 3.24612 15.6961C3.24612 13.66 3.22372 12.2916 3.18926 12.2257C3.04367 11.9469 2.56346 11.9439 2.41882 12.2209C2.37153 12.3114 2.35924 13.3913 2.37537 16.0249C2.39523 19.2613 2.41037 19.757 2.50146 20.1568C2.7392 21.2002 3.12436 22.1285 3.67018 22.9736C4.04009 23.5464 5.00937 24.5675 5.55141 24.9554C5.76273 25.1067 7.16269 25.9562 8.66249 26.8433C10.7318 28.0673 11.4623 28.4704 11.6919 28.515C12.2831 28.6299 12.4035 28.5754 15.1827 26.9331C16.599 26.0963 17.9837 25.2599 18.2601 25.0746C18.8922 24.6504 19.9045 23.6177 20.3194 22.9736C20.864 22.1282 21.2368 21.2271 21.4908 20.1416C21.5841 19.7427 21.5954 19.1421 21.6137 13.5843C21.6361 6.80154 21.6523 7.10878 21.2546 6.80771C21.0043 6.61817 20.9916 6.61454 19.9815 6.43953C17.4784 6.00599 15.2989 5.15265 13.4912 3.89842C13.0541 3.59511 12.5983 3.28605 12.4784 3.2116C12.1886 3.03181 11.7993 3.03181 11.5129 3.2116ZM16.7528 9.94011C16.2684 10.1043 16.0758 10.2616 14.9351 11.4241C13.709 12.6738 13.6546 12.7558 13.855 13.049C13.9745 13.2238 14.2061 13.273 14.4037 13.1657C14.4927 13.1173 15.0179 12.6095 15.5706 12.0374C16.6574 10.9123 16.8568 10.771 17.3605 10.7689C17.8851 10.7666 18.3294 11.0419 18.568 11.5172C18.741 11.8618 18.7428 12.4091 18.5719 12.7363C18.4193 13.0283 11.041 20.5894 10.7826 20.7184C10.4682 20.8755 10.1787 20.8973 9.81892 20.791C9.4937 20.6948 9.41597 20.6239 7.54188 18.7128C6.47465 17.6246 5.53959 16.6253 5.46393 16.492C4.95943 15.6035 5.5893 14.4522 6.58513 14.4427C7.16671 14.4371 7.25349 14.4996 8.68803 15.9558C9.90297 17.1891 10.0398 17.3098 10.2235 17.3098C10.4078 17.3098 10.5436 17.1884 11.8009 15.8999C13.0272 14.6432 13.1766 14.4689 13.1766 14.2946C13.1766 14.0405 12.9971 13.8569 12.7486 13.8569C12.5785 13.8569 12.4263 13.9908 11.3904 15.0513L10.2239 16.2457L9.0846 15.0894C7.8528 13.8391 7.61246 13.6648 6.97608 13.5597C5.4949 13.3152 4.16186 14.6623 4.4168 16.1458C4.54235 16.876 4.59856 16.9486 6.78279 19.1997C8.97737 21.4615 9.14347 21.5989 9.83689 21.7264C10.2777 21.8074 10.778 21.7326 11.1934 21.5233C11.4282 21.405 12.3269 20.5152 15.4011 17.3574C19.1162 13.5413 19.317 13.324 19.4456 12.9786C19.6297 12.4844 19.63 11.787 19.4463 11.2977C19.2661 10.8175 18.8245 10.3367 18.3384 10.0915C18.0181 9.92988 17.872 9.89402 17.4712 9.87851C17.1807 9.8673 16.8953 9.89177 16.7528 9.94011Z" fill="#42E8E0"/>
</svg>
