<svg width="28" height="29" viewBox="0 0 28 29" fill="none" xmlns="http://www.w3.org/2000/svg">
<path fill-rule="evenodd" clip-rule="evenodd" d="M0.910725 0.606141C0.243044 0.844383 -0.139763 1.57651 0.049589 2.25288C0.139861 2.57521 0.52108 3.00251 0.828332 3.12576C1.09882 3.23424 1.62196 3.24912 1.80075 3.15344C1.9175 3.09097 2.07441 3.23736 4.63905 5.80141L7.35376 8.51545L7.66813 8.20112L7.98249 7.88678L5.26822 5.17229C2.74685 2.65076 2.55843 2.44939 2.61746 2.3391C2.71977 2.14796 2.69783 1.60627 2.57697 1.33914C2.28898 0.702751 1.5505 0.377855 0.910725 0.606141ZM16.9892 0.614839C16.2598 0.791428 16.5946 0.476872 8.2457 8.83061C1.90431 15.1758 0.41549 16.6925 0.299888 16.9251C-0.112955 17.7561 -0.0992224 18.6275 0.339115 19.4151C0.475343 19.6599 1.4354 20.652 4.66876 23.8894C8.56521 27.7906 8.84757 28.0611 9.21281 28.2416C9.94658 28.6042 10.7264 28.6209 11.486 28.2904C11.8233 28.1436 12.191 27.7854 19.6789 20.309C27.1221 12.8771 27.5284 12.4614 27.7133 12.0898C28.0964 11.3199 28.0923 10.5241 27.7013 9.72171C27.5071 9.32318 27.3512 9.15977 23.3625 5.17432C19.8453 1.6601 19.1751 1.01446 18.8923 0.867961C18.2535 0.537048 17.6451 0.456138 16.9892 0.614839ZM5.10983 1.0143C4.48937 1.17513 4.07762 1.70134 4.07762 2.33336C4.07762 2.7303 4.1698 2.96099 4.44576 3.25449C4.79629 3.62725 5.34301 3.78272 5.77489 3.63239L6.00226 3.55323L7.57933 5.13088L9.15646 6.70859L9.47236 6.396L9.78825 6.08341L9.29548 5.58866C9.0245 5.31655 8.80276 5.0695 8.80276 5.03958C8.80276 5.00971 9.19667 4.59198 9.67812 4.11128L10.5535 3.23725L9.72025 2.40283L8.88707 1.56841L8.57101 1.88116L8.25495 2.19391L8.77502 2.71591L9.2951 3.23791L8.70614 3.82495L8.11724 4.41205L7.38539 3.67873L6.65348 2.9454L6.71601 2.6972C6.828 2.25239 6.76251 1.92389 6.48076 1.51737C6.21886 1.13946 5.55982 0.897611 5.10983 1.0143ZM1.68646 1.60222C1.84195 1.79981 1.83067 2.01409 1.65566 2.18915C1.36941 2.47532 0.924512 2.29435 0.924512 1.89172C0.924512 1.60577 1.07223 1.45807 1.3582 1.45807C1.52517 1.45807 1.59838 1.49018 1.68646 1.60222ZM18.3223 1.59779C18.5805 1.71677 19.2003 2.3124 22.691 5.79588C27.2727 10.3683 27.0758 10.1379 27.0759 10.927C27.0759 11.2777 27.0508 11.3925 26.9142 11.6656C26.8252 11.8434 26.6279 12.1114 26.4757 12.2611L26.1989 12.5334L24.9273 11.2628L23.6557 9.99212H23.1913H22.727L20.6341 7.89991L18.5412 5.8077V5.34287V4.87803L17.2704 3.60652L15.9996 2.335L16.2719 2.05824C16.4217 1.90605 16.6897 1.70873 16.8676 1.61978C17.3078 1.39959 17.8736 1.39105 18.3223 1.59779ZM5.70426 2.00912C5.81247 2.09418 5.84842 2.17176 5.84842 2.32012C5.84842 2.73254 5.39629 2.92565 5.10737 2.6367C4.71182 2.24123 5.2628 1.66185 5.70426 2.00912ZM16.5027 4.09711L17.6111 5.20441V5.66968V6.13495L20.0044 8.52853L22.3977 10.9221H22.8635H23.3293L24.4501 12.0438L25.5708 13.1655L19.3342 19.4017L13.0977 25.6379L7.9959 20.5367L2.89407 15.4355L9.11723 9.21267C12.54 5.79008 15.3525 2.98982 15.3674 2.98982C15.3822 2.98982 15.8931 3.48808 16.5027 4.09711ZM1.49897 4.62486C0.878392 4.78575 0.466644 5.31201 0.466917 5.94391C0.467355 6.83249 1.26705 7.46341 2.13032 7.2563L2.41372 7.18835L3.14623 7.91927L3.87875 8.65019L3.2916 9.23904L2.7045 9.82795L2.18246 9.30792L1.66042 8.78789L1.34764 9.10392L1.03486 9.41995L1.86935 10.2531L2.70385 11.0862L3.57795 10.2109C4.05869 9.72953 4.47645 9.33565 4.50633 9.33565C4.53625 9.33565 4.78332 9.55737 5.05545 9.82833L5.55025 10.3211L5.86286 10.0052L6.17547 9.68932L4.59764 8.11233L3.01985 6.53539L3.09902 6.30803C3.29291 5.75097 2.97258 5.03586 2.39594 4.73853C2.16462 4.61928 1.73198 4.56441 1.49897 4.62486ZM19.7096 4.63055C19.5561 4.69247 19.4165 4.89592 19.4165 5.05763C19.4165 5.22651 19.6993 5.50627 19.8699 5.50627C20.0444 5.50627 20.2705 5.32552 20.3142 5.15107C20.3599 4.96928 20.216 4.69576 20.0395 4.62863C19.8792 4.56769 19.8651 4.5678 19.7096 4.63055ZM9.60962 10.1427L4.31654 15.4355L8.70713 19.8255L13.0977 24.2155L18.3908 18.9227L23.6839 13.6298L19.2933 9.23981L14.9027 4.84981L9.60962 10.1427ZM2.10324 5.64057C2.38899 5.9263 2.1992 6.38156 1.79429 6.38156C1.40656 6.38156 1.21989 5.91711 1.49651 5.64057C1.58114 5.55589 1.6933 5.50627 1.79987 5.50627C1.90645 5.50627 2.0186 5.55589 2.10324 5.64057ZM20.7419 5.95874L20.4571 6.24709L21.3742 7.16292L22.2913 8.07874L22.5773 7.78913C22.7346 7.62988 22.8632 7.47545 22.8632 7.44596C22.8632 7.37446 21.1543 5.67039 21.0827 5.67039C21.0519 5.67039 20.8986 5.80015 20.7419 5.95874ZM18.6779 9.88271L22.3979 13.6027L17.7479 18.2526L13.0978 22.9025L9.36365 19.1691L5.62952 15.4356L10.2661 10.7991C12.8162 8.24915 14.9151 6.16274 14.9303 6.16274C14.9455 6.16274 16.6319 7.83672 18.6779 9.88271ZM23.3205 8.24111C23.167 8.30303 23.0274 8.50648 23.0274 8.66819C23.0274 8.83707 23.3102 9.11683 23.4808 9.11683C23.5543 9.11683 23.6765 9.06798 23.7524 9.00829C24.0207 8.7973 23.9887 8.4265 23.689 8.27152C23.505 8.17639 23.4849 8.17475 23.3205 8.24111ZM15.9831 10.5523L15.5881 10.9473L15.2712 10.6338C15.097 10.4614 14.9305 10.3203 14.9011 10.3203C14.8317 10.3203 9.78754 15.3645 9.78754 15.4339C9.78754 15.463 9.92842 15.6292 10.1006 15.8031L10.4136 16.1195L10.0189 16.5168L9.62412 16.9142L9.93739 17.2275L10.2507 17.5408L10.6487 17.1455L11.0467 16.7501L11.4147 17.118L11.7826 17.4859L11.3867 17.8845L10.9907 18.283L11.307 18.5959L11.6233 18.9089L12.0247 18.5048L12.4262 18.1007L12.6524 18.2525C13.5247 18.838 14.7336 18.6301 15.3826 17.783C15.6151 17.4794 15.8056 16.9371 15.8056 16.5784V16.3379H16.0461C16.8759 16.3379 17.7288 15.6995 17.9661 14.9006C18.138 14.3218 18.0233 13.5656 17.6991 13.1405L17.5639 12.9634L17.9704 12.5597L18.3768 12.1559L18.0638 11.8397L17.7509 11.5234L17.3523 11.9193L16.9537 12.3152L16.5858 11.9473L16.2178 11.5794L16.6138 11.1809L17.0097 10.7823L16.6939 10.4699L16.378 10.1573L15.9831 10.5523ZM17.1187 13.9817C17.2434 14.4525 17.0497 14.9648 16.6412 15.2447C16.382 15.4223 15.8014 15.4642 15.5267 15.3251C15.4244 15.2733 14.8787 14.7728 14.3142 14.213L13.2877 13.195L14.0954 12.3859L14.9029 11.5768L15.9788 12.6581C16.9077 13.5918 17.0633 13.7725 17.1187 13.9817ZM14.7485 15.9976C14.8695 16.2009 14.885 16.2807 14.8667 16.6053C14.8507 16.888 14.8131 17.0264 14.7123 17.1734C14.4323 17.582 13.9198 17.7757 13.4492 17.6508C13.2402 17.5953 13.0585 17.439 12.1258 16.5121L11.0447 15.4378L11.8516 14.6296L12.6586 13.8214L13.6339 14.7925C14.1704 15.3266 14.6719 15.8688 14.7485 15.9976ZM11.9618 26.7744C11.3045 27.4356 10.9808 27.6075 10.3943 27.6067C9.61947 27.6057 9.86578 27.8159 5.30936 23.2692C0.730347 18.7 0.924129 18.9266 0.925114 18.1432C0.925825 17.5511 1.07196 17.2716 1.73165 16.6002L2.26135 16.0611L7.36438 21.1635L12.4674 26.2658L11.9618 26.7744ZM24.4225 18.8544C23.9417 19.3358 23.524 19.7297 23.4941 19.7297C23.4642 19.7297 23.2171 19.508 22.945 19.237L22.4502 18.7443L22.1376 19.0601L21.825 19.376L23.4028 20.953L24.9806 22.5299L24.9014 22.7573C24.7058 23.3192 25.0393 24.0476 25.6261 24.3397C26.2542 24.6524 27.0765 24.3586 27.418 23.6995C27.5761 23.3945 27.5768 22.8497 27.4197 22.547C27.107 21.945 26.5028 21.6573 25.8701 21.809L25.5867 21.877L24.8542 21.1461L24.1217 20.4151L24.7088 19.8263L25.2959 19.2374L25.818 19.7574L26.34 20.2775L26.6528 19.9614L26.9656 19.6454L26.1311 18.8123L25.2966 17.9791L24.4225 18.8544ZM4.47995 20.4142L4.18206 20.7159L5.52087 22.0554C6.25727 22.7922 6.88539 23.3949 6.91674 23.3949C6.94809 23.3949 7.10182 23.2652 7.2584 23.1067L7.54312 22.8184L6.18932 21.4655C5.44471 20.7214 4.82249 20.1126 4.80663 20.1126C4.79082 20.1126 4.64376 20.2483 4.47995 20.4142ZM20.3323 20.8642L20.0179 21.1786L22.7322 23.893C25.2965 26.4575 25.4429 26.6144 25.3804 26.7311C25.2847 26.9099 25.2996 27.433 25.4081 27.7034C25.5313 28.0107 25.9587 28.3919 26.281 28.4821C27.3059 28.769 28.2482 27.7993 27.9409 26.7738C27.8535 26.4818 27.4602 26.0552 27.1721 25.9396C26.9016 25.8311 26.3785 25.8162 26.1997 25.9119C26.0829 25.9744 25.926 25.828 23.3614 23.2639L20.6467 20.5499L20.3323 20.8642ZM18.5267 22.6708L18.2133 22.9874L18.7055 23.4772C18.9762 23.7467 19.1977 23.9925 19.1977 24.0236C19.1977 24.0546 18.8038 24.4734 18.3223 24.9541L17.4469 25.8281L18.2802 26.6625L19.1134 27.4969L19.4294 27.1842L19.7455 26.8714L19.2254 26.3494L18.7053 25.8274L19.2943 25.2404L19.8832 24.6533L20.6142 25.3857L21.3452 26.1182L21.2772 26.4016C21.127 27.0273 21.4199 27.6428 22.0145 27.9509C22.3181 28.1082 22.8627 28.1074 23.1679 27.9493C23.827 27.6079 24.1208 26.7856 23.8081 26.1576C23.5173 25.5736 22.7855 25.2368 22.2341 25.4331L22.0152 25.5109L20.4276 23.9325L18.84 22.3542L18.5267 22.6708ZM26.5248 22.8279C26.6783 23.023 26.6701 23.2587 26.5039 23.4248C26.1048 23.8239 25.4952 23.2219 25.8818 22.8104C26.0544 22.6267 26.3734 22.6354 26.5248 22.8279ZM22.8931 26.4286C23.2886 26.8241 22.7376 27.4035 22.2962 27.0562C22.188 26.9712 22.152 26.8936 22.152 26.7452C22.152 26.3328 22.6041 26.1397 22.8931 26.4286ZM26.9318 26.8454C27.1157 26.99 27.1338 27.3306 26.9665 27.4979C26.8942 27.5701 26.7842 27.6073 26.6422 27.6073C26.2451 27.6073 26.0542 27.1469 26.3349 26.8663C26.501 26.7001 26.7367 26.6919 26.9318 26.8454Z" fill="#FD592E"/>
</svg>
