<svg width="21" height="30" viewBox="0 0 21 30" fill="none" xmlns="http://www.w3.org/2000/svg">
<path fill-rule="evenodd" clip-rule="evenodd" d="M3.95744 0.605182C3.16035 0.783236 2.27672 1.40005 1.8186 2.09815C1.38088 2.76519 1.21068 3.36307 1.20947 4.23809L1.20864 4.81233L0.884176 4.83654C0.642281 4.85456 0.511273 4.89878 0.3696 5.01017C0.00527448 5.29672 -0.00764473 5.37365 0.0104424 7.1458C0.0258356 8.64977 0.0324328 8.73729 0.14167 8.88921C0.346676 9.17424 0.589504 9.30422 0.917161 9.30422H1.21414L1.19765 9.63017L1.18116 9.95612L0.846297 9.98917C0.449645 10.0283 0.263882 10.1497 0.109949 10.47C0.00708869 10.684 -0.000772897 10.8098 5.17432e-05 12.2274C0.000931359 13.702 0.00516479 13.7619 0.124023 13.9809C0.274547 14.2584 0.634584 14.4628 0.972907 14.4628H1.20864L1.20947 20.4291C1.21035 27.0557 1.19424 26.7463 1.58083 27.5575C1.85219 28.1269 2.50448 28.8103 3.05837 29.1054C3.59394 29.3908 3.80219 29.3822 3.92974 29.0694C4.04716 28.7815 3.95101 28.6222 3.52885 28.405C3.08233 28.1754 2.54528 27.6439 2.3423 27.2309C2.01443 26.5636 2.03328 27.3092 2.03328 15.0296C2.03328 2.70788 2.01349 3.47055 2.35022 2.81779C2.68123 2.17621 3.45892 1.58213 4.1663 1.43049C4.36822 1.38718 6.31421 1.36802 10.5052 1.36802C17.2236 1.36802 17.0013 1.35629 17.6276 1.74323C18.1245 2.05019 18.4482 2.41197 18.7081 2.95084L18.9384 3.42832L18.9659 7.13004L18.9934 10.8317L19.114 10.9561C19.2616 11.1082 19.5281 11.1188 19.6784 10.9785C19.7754 10.8879 19.7892 10.7912 19.8028 10.1046L19.818 9.33256L20.1529 9.29952C20.5347 9.26182 20.7184 9.14748 20.8863 8.84301C20.9938 8.64818 21 8.54994 21 7.05159C21 5.50085 20.9973 5.46219 20.8763 5.27887C20.6752 4.97423 20.4873 4.86426 20.1211 4.83699L19.7905 4.81233V4.20748C19.7905 3.85364 19.7559 3.46244 19.7072 3.26477C19.4198 2.09877 18.5141 1.09269 17.3991 0.7007L16.9593 0.546057L10.637 0.535683C5.37786 0.527067 4.2547 0.538745 3.95744 0.605182ZM9.31513 2.01737C9.16504 2.17207 9.1508 2.25994 9.24228 2.4669C9.3474 2.70482 9.52376 2.7373 10.607 2.71803C11.5839 2.70062 11.6117 2.69682 11.714 2.56633C11.8501 2.39292 11.8471 2.21374 11.705 2.02758L11.5911 1.87821H10.5206C9.45724 1.87821 9.44916 1.87917 9.31513 2.01737ZM3.81214 3.24386C3.54166 3.32469 3.1007 3.76883 2.98558 4.07642C2.89003 4.33174 2.88541 4.80462 2.88541 14.321C2.88541 23.4094 2.89338 24.316 2.97475 24.5005C3.1145 24.8173 3.40895 25.1257 3.70967 25.2701L3.98493 25.4022L10.4761 25.4028C17.68 25.4034 17.2737 25.4246 17.6696 25.028C17.7784 24.9192 17.9228 24.7231 17.9905 24.5924L18.1138 24.3547L18.1283 14.415C18.138 7.74413 18.1242 4.40424 18.0863 4.25906C17.9882 3.88351 17.7039 3.51397 17.3791 3.34L17.0842 3.18201L10.5345 3.18711C6.77656 3.19006 3.91126 3.21426 3.81214 3.24386ZM17.1096 4.19773L17.2891 4.36314V14.2927V24.2222L17.1096 24.3876L16.93 24.5531H10.5061C4.11786 24.5531 4.08141 24.5524 3.93925 24.4371C3.86063 24.3733 3.77085 24.2267 3.73974 24.1112C3.70197 23.9711 3.68306 20.6893 3.68289 14.2484C3.68256 3.83601 3.6686 4.33803 3.96388 4.12477C4.08042 4.04059 4.66542 4.03232 10.511 4.03232H16.93L17.1096 4.19773ZM10.0566 5.49989C9.78809 5.59031 9.64092 5.70017 8.4006 6.73612C7.30394 7.65202 7.14253 7.80774 7.06084 8.02825C6.9544 8.3156 6.98019 8.5572 7.14737 8.83984C7.30966 9.11421 7.63154 9.24476 8.14936 9.24629L8.57543 9.24753V10.0097V10.7719L8.1962 10.9774C6.88167 11.6896 5.91536 13.2084 5.77984 14.7752C5.64845 16.294 6.12014 17.659 7.14347 18.721C8.04991 19.6616 9.23277 20.1617 10.5271 20.1514C11.8877 20.1405 12.9314 19.6796 13.9081 18.6584C16.0774 16.3902 15.5797 12.6394 12.8958 11.0299L12.4285 10.7497L12.4261 9.99864L12.4237 9.24753H12.8519C13.3399 9.24753 13.6817 9.10916 13.8774 8.83241C14.0249 8.62386 14.0345 8.09293 13.8948 7.8731C13.7743 7.68354 11.4834 5.76604 11.1868 5.60652C10.9468 5.47744 10.3034 5.41673 10.0566 5.49989ZM1.20864 7.06508V8.45391H1.01623H0.823812V7.06508V5.67624H1.01623H1.20864V7.06508ZM20.1754 7.06508V8.45391H19.9829H19.7905V7.10289C19.7905 6.35978 19.807 5.7348 19.8272 5.71405C19.8473 5.69325 19.9339 5.67624 20.0196 5.67624H20.1754V7.06508ZM12.009 7.3234C12.6604 7.86459 13.1934 8.32761 13.1934 8.35233C13.1934 8.37699 12.886 8.39723 12.5102 8.39723C11.8376 8.39723 11.8252 8.39955 11.7131 8.5466C11.6087 8.68333 11.5991 8.77136 11.5991 9.5893V10.4826L11.3655 10.4254C11.237 10.394 10.8473 10.3682 10.4996 10.3682C10.1519 10.3682 9.76225 10.394 9.63371 10.4254L9.40007 10.4826V9.5711C9.40007 8.36956 9.42096 8.39723 8.51413 8.39723C8.15832 8.39723 7.85651 8.37807 7.84337 8.35471C7.82033 8.31373 9.94152 6.5168 10.1868 6.36958C10.2554 6.32837 10.4184 6.30632 10.5658 6.31834C10.8078 6.33801 10.901 6.40292 12.009 7.3234ZM1.20864 12.2236V13.6124H1.01623H0.823812V12.2236V10.8348H1.01623H1.20864V12.2236ZM11.5417 11.3514C12.8899 11.7231 13.9676 12.8596 14.3308 14.2927C14.4557 14.7858 14.4553 15.7298 14.3299 16.2201C14.0228 17.4207 13.2453 18.4001 12.1918 18.9131C11.5994 19.2016 11.1668 19.3007 10.4996 19.3007C9.58979 19.3007 8.82782 19.0347 8.09114 18.46C7.4256 17.9408 6.87029 17.0509 6.67573 16.1917C6.56045 15.6826 6.56045 14.8301 6.67573 14.321C7.0494 12.6708 8.41545 11.4363 10.1148 11.213C10.448 11.1693 11.1161 11.2341 11.5417 11.3514ZM9.35466 11.9296C9.27126 12.0212 9.23514 12.1325 9.23514 12.2981V12.5354H8.95663C8.61682 12.5354 8.50071 12.5943 8.41369 12.8108C8.35871 12.9477 8.3619 13.0072 8.43161 13.1462C8.53397 13.3504 8.61286 13.3857 8.96642 13.3857H9.23844L9.22304 14.1085L9.20765 14.8312L8.89775 14.8481C8.53925 14.8675 8.39219 14.9874 8.39219 15.2602C8.39219 15.5235 8.56828 15.6669 8.92953 15.6978L9.23514 15.7239V16.4255V17.127H8.96477C8.6149 17.127 8.53381 17.1627 8.4348 17.3602C8.25794 17.7127 8.47669 17.9774 8.94503 17.9774H9.23514V18.2226C9.23514 18.4056 9.26741 18.499 9.36235 18.591C9.65631 18.8758 10.0598 18.6475 10.0598 18.1964V17.9774H10.3072H10.5546V18.2283C10.5546 18.4319 10.5819 18.5015 10.6994 18.5968C10.8855 18.7477 11.0084 18.7452 11.1871 18.5866C11.2828 18.5018 11.3412 18.3811 11.3613 18.2265C11.3905 18.0015 11.4012 17.9909 11.6971 17.8948C12.1191 17.7576 12.5453 17.3196 12.6666 16.8984C12.8205 16.3642 12.756 15.9366 12.4538 15.4869L12.3079 15.2699L12.4765 14.9958C12.7676 14.5224 12.8195 14.1454 12.6666 13.6144C12.5437 13.1876 12.1128 12.7472 11.6958 12.6222C11.4015 12.534 11.3923 12.5252 11.3629 12.2984C11.3256 12.0118 11.1661 11.8363 10.9431 11.8363C10.6913 11.8363 10.5546 11.9957 10.5546 12.2891V12.5354H10.3072H10.0598V12.3061C10.0598 11.8697 9.62217 11.636 9.35466 11.9296ZM19.1476 12.3321L18.9934 12.4688L18.9659 19.5498L18.9384 26.6308L18.7081 27.1083C18.4482 27.6473 18.1245 28.0091 17.6276 28.316C17.0046 28.7009 17.1772 28.6912 10.9387 28.6912C7.38179 28.6912 5.28775 28.7116 5.22403 28.7467C4.96565 28.8893 5.01122 29.443 5.28715 29.5132C5.35708 29.531 8.01192 29.5383 11.1868 29.5294L16.9593 29.5132L17.429 29.3397C17.6873 29.2443 18.0397 29.0698 18.2119 28.9519C18.6639 28.6425 19.2075 28.0122 19.433 27.5357C19.8108 26.7376 19.7905 27.1969 19.7905 19.4434V12.4302L19.6457 12.3128C19.4571 12.1598 19.3366 12.1645 19.1476 12.3321ZM11.5887 13.5005C11.9526 13.7293 12.0219 14.269 11.728 14.5853C11.5274 14.8013 11.2951 14.8589 10.6233 14.8592L10.0598 14.8596V14.1226V13.3857L10.7332 13.3859C11.3117 13.3861 11.4324 13.4022 11.5887 13.5005ZM11.6857 15.8942C12.0373 16.2263 11.9881 16.7611 11.5827 17.0159C11.4335 17.1098 11.3042 17.1266 10.7332 17.1268L10.0598 17.127V16.4185V15.7099H10.7753H11.4907L11.6857 15.8942ZM7.23594 20.9859C7.10168 21.0947 7.09107 21.1356 7.09107 21.5429C7.09107 21.929 7.10652 21.9974 7.21829 22.1056C7.38712 22.2691 7.61296 22.2627 7.78075 22.0897C7.89867 21.9682 7.91571 21.8998 7.91571 21.5486C7.91571 21.1975 7.89867 21.1291 7.78075 21.0076C7.61587 20.8375 7.42808 20.83 7.23594 20.9859ZM13.2918 20.9457C12.9962 21.1772 13.026 22.072 13.3333 22.1937C13.5014 22.2602 13.6884 22.2287 13.7981 22.1155C13.8896 22.0212 13.9081 21.9266 13.9081 21.5528C13.9081 21.1348 13.898 21.0951 13.7632 20.9859C13.5987 20.8524 13.4293 20.838 13.2918 20.9457ZM9.40408 21.5846C9.26559 21.7661 9.26092 21.8765 9.38379 22.0604C9.51606 22.2583 9.60711 22.3291 9.94064 22.4937C10.1831 22.6133 10.2924 22.6342 10.5729 22.6147C11.3657 22.5595 11.9534 21.9538 11.597 21.5594C11.4365 21.3817 11.1967 21.4005 10.9096 21.6132C10.7066 21.7635 10.635 21.7863 10.4475 21.7603C10.324 21.7432 10.1505 21.6644 10.056 21.5824C9.82575 21.3827 9.55746 21.3835 9.40408 21.5846ZM5.35686 26.7897C5.18368 26.9682 5.18044 27.2141 5.3491 27.3776C5.46747 27.4922 5.53113 27.5008 6.25874 27.5008C7.01609 27.5008 7.04539 27.4964 7.17601 27.3616C7.32571 27.2073 7.34028 27.119 7.24995 26.9145C7.1532 26.6956 6.97507 26.6505 6.20635 26.6505C5.52096 26.6505 5.48627 26.6562 5.35686 26.7897ZM13.888 26.768C13.7065 26.9152 13.6894 27.2186 13.8531 27.3874C13.953 27.4904 14.0364 27.5008 14.7602 27.5008C15.4841 27.5008 15.5675 27.4904 15.6673 27.3874C15.831 27.2186 15.8139 26.9152 15.6324 26.768C15.5025 26.6626 15.4128 26.6505 14.7602 26.6505C14.1076 26.6505 14.018 26.6626 13.888 26.768Z" fill="#B436CD"/>
</svg>
