<svg width="29" height="30" viewBox="0 0 29 30" fill="none" xmlns="http://www.w3.org/2000/svg">
<path fill-rule="evenodd" clip-rule="evenodd" d="M10.0617 0.585424C7.57554 0.864732 5.30351 1.97924 3.52903 3.78993C2.62293 4.71457 2.07842 5.48153 1.52291 6.61577C0.96331 7.75828 0.585896 9.0078 0.449939 10.1682C0.405017 10.5514 0.502631 10.7904 0.757814 10.9223C1.03149 11.0637 1.25746 11.0324 1.46534 10.8241C1.63022 10.6589 1.65597 10.5872 1.71474 10.1298C1.91513 8.57041 2.51647 7.05326 3.4591 5.72927C3.90991 5.09601 4.97817 4.03818 5.63828 3.57127C7.36823 2.34771 9.46488 1.71019 11.5144 1.78456C12.3804 1.81596 12.563 1.76733 12.7063 1.46733C12.9093 1.04185 12.6617 0.64692 12.1459 0.573522C11.7573 0.518205 10.6011 0.524836 10.0617 0.585424ZM20.1579 0.5623C16.2328 0.982339 13.1606 4.18939 12.9748 8.06105C12.9428 8.72685 12.948 8.77865 13.0619 8.92131C13.1286 9.00474 13.2722 9.10245 13.3811 9.13833C13.5474 9.19319 13.613 9.18707 13.7914 9.09996C14.0801 8.959 14.2021 8.69851 14.2022 8.22315C14.2022 8.01622 14.2417 7.63365 14.2899 7.37298C14.7466 4.90382 16.4723 2.90938 18.8406 2.11391C19.604 1.8575 19.9731 1.80519 21.0087 1.80666C21.8953 1.80796 22.0602 1.82383 22.5527 1.95533C23.3021 2.1554 23.9916 2.44429 24.5744 2.80243C25.2278 3.20394 26.2175 4.17845 26.6519 4.84805C28.3897 7.52669 28.0364 11.0552 25.8053 13.3035C24.8023 14.3143 23.5852 14.9541 22.1468 15.2267C21.8883 15.2757 21.5073 15.3159 21.3002 15.3159C20.8245 15.316 20.5638 15.4379 20.4228 15.7264C20.3356 15.9047 20.3295 15.9702 20.3844 16.1364C20.4203 16.2452 20.5181 16.3887 20.6015 16.4553C20.7443 16.5691 20.7962 16.5744 21.4624 16.5424C25.0434 16.3707 28.1119 13.709 28.839 10.1434C29.7685 5.58576 26.568 1.14869 21.9446 0.585424C21.4622 0.52665 20.5957 0.515427 20.1579 0.5623ZM20.682 3.37216C20.4844 3.48659 20.3892 3.65929 20.3418 3.98949L20.2984 4.29198L19.9143 4.48208C19.3783 4.74739 18.9548 5.15076 18.7271 5.61297C18.5567 5.95882 18.5414 6.03448 18.5414 6.52956C18.5414 7.02135 18.5578 7.10388 18.7266 7.46004C18.8575 7.73618 19.0257 7.96266 19.3001 8.23199C19.6396 8.5652 19.8067 8.67136 20.6302 9.07643C21.6474 9.57684 22.0177 9.86369 22.1453 10.2499C22.4448 11.1566 21.2469 11.9416 20.2982 11.4603C20.0834 11.3513 19.962 11.2337 19.7892 10.9672C19.5188 10.5501 19.2998 10.409 19.0076 10.4638C18.7372 10.5145 18.513 10.7789 18.513 11.0472C18.513 11.3136 18.798 11.8373 19.109 12.1422C19.2459 12.2765 19.5698 12.4911 19.8288 12.6191C20.2134 12.8092 20.3024 12.8778 20.3146 12.9928C20.3686 13.5039 20.5867 13.7855 20.9286 13.7855C21.3226 13.7855 21.5759 13.5412 21.5759 13.1611C21.5759 12.8864 21.6587 12.7903 22.0553 12.6049C23.4333 11.9605 23.8803 10.1917 22.9366 9.11764C22.6604 8.8033 22.1528 8.46573 21.3041 8.03203C20.1372 7.43567 19.8334 7.18255 19.7766 6.75911C19.6809 6.04644 20.211 5.51055 21.0116 5.51055C21.543 5.51055 21.9782 5.76215 22.2034 6.19947C22.4361 6.65142 22.8776 6.78223 23.2145 6.49901C23.4707 6.28352 23.5004 6.02337 23.3125 5.6404C23.0406 5.08643 22.5317 4.62377 21.9537 4.40494C21.6637 4.29515 21.5759 4.1695 21.5759 3.86412C21.5759 3.61564 21.3167 3.35583 21.037 3.32387C20.9061 3.3089 20.756 3.32937 20.682 3.37216ZM8.98407 9.82447C6.53462 10.0403 4.13645 11.2335 2.51511 13.043C1.30743 14.3909 0.430597 16.1946 0.101452 18.008C0.0239157 18.435 -0.00109775 18.8544 3.66461e-05 19.7083C0.0013412 20.7143 0.0184139 20.922 0.151819 21.5536C0.589923 23.6279 1.50782 25.3119 2.97982 26.742C4.74159 28.4537 6.98083 29.4141 9.46619 29.524C12.6712 29.6657 15.814 28.1693 17.7609 25.5745C19.9771 22.6208 20.354 18.6595 18.7349 15.3384C17.1991 12.188 14.1814 10.1342 10.6262 9.81982C9.90304 9.75583 9.75801 9.75628 8.98407 9.82447ZM10.6289 11.0661C12.9028 11.3015 14.7982 12.2654 16.3307 13.9656C17.3368 15.0819 18.1087 16.6934 18.3755 18.2347C18.5059 18.988 18.507 20.3696 18.3778 21.082C17.7248 24.6833 15.1161 27.3666 11.5222 28.1335C10.7271 28.3032 9.16585 28.3166 8.33179 28.1607C6.53286 27.8246 5.07068 27.0517 3.76419 25.7462C2.45771 24.4406 1.68422 22.9795 1.34787 21.182C1.19189 20.3485 1.20522 18.7884 1.37504 17.9939C1.95625 15.2744 3.63056 13.1029 6.06299 11.9136C7.51582 11.2032 9.10488 10.9083 10.6289 11.0661ZM7.58876 13.6948L7.39591 13.8875V14.4757C7.39591 15.2989 7.39704 15.2977 6.58873 15.3253C6.09771 15.342 5.91473 15.3703 5.7993 15.4475C5.4684 15.6689 5.4473 16.157 5.75733 16.4176C5.91944 16.5539 5.96748 16.5627 6.54948 16.5627C7.48689 16.5627 7.39591 16.232 7.39591 19.639C7.39591 22.0786 7.38366 22.5061 7.31094 22.6099C7.23352 22.7203 7.165 22.7328 6.54046 22.75L5.85489 22.7689L5.68955 22.954C5.4608 23.21 5.4608 23.5181 5.68955 23.7741L5.85489 23.9592L6.54046 23.9781C7.40538 24.002 7.39591 23.9923 7.39591 24.8459C7.39591 25.414 7.4051 25.4633 7.54111 25.6249C7.72908 25.8481 8.02647 25.9106 8.27201 25.7785C8.56417 25.6212 8.60938 25.4961 8.63218 24.781C8.64857 24.2663 8.67216 24.1143 8.74426 24.0583C8.80375 24.0122 9.0384 23.9875 9.41707 23.9875C10.1661 23.9875 10.1752 23.9978 10.1752 24.8427C10.1752 25.5289 10.244 25.6836 10.6018 25.8016C10.7681 25.8565 10.8337 25.8503 11.0121 25.7632C11.3362 25.605 11.4229 25.3766 11.4229 24.6806C11.423 24.0098 11.3944 24.043 12.0579 23.9428C12.5726 23.865 13.0069 23.6548 13.3787 23.3034C13.9641 22.7503 14.1719 22.2223 14.1324 21.389C14.0942 20.5853 13.7987 20.0143 13.1747 19.5388C12.8487 19.2903 12.8352 19.2066 13.0471 18.7442C13.2636 18.2716 13.2967 17.5771 13.1265 17.0759C12.8851 16.3647 12.488 15.9161 11.7947 15.5711L11.4514 15.4004L11.4228 14.6638C11.4059 14.2301 11.3649 13.876 11.3231 13.8026C11.1623 13.5207 10.809 13.4225 10.4856 13.5698C10.2441 13.6797 10.1752 13.8879 10.1752 14.5069C10.1752 15.3047 10.1644 15.3158 9.38485 15.3158C8.9624 15.3158 8.7531 15.2937 8.71346 15.245C8.68175 15.206 8.64596 14.8936 8.63388 14.5507C8.61006 13.8742 8.54256 13.6909 8.27161 13.5675C8.00826 13.4477 7.79664 13.4871 7.58876 13.6948ZM11.1732 16.6462C12.2622 16.9693 12.2622 18.6499 11.1732 18.9731C10.7604 19.0956 8.94652 19.092 8.76984 18.9683C8.64709 18.8824 8.64375 18.8515 8.64375 17.8096C8.64375 16.7677 8.64709 16.7368 8.76984 16.651C8.94652 16.5273 10.7604 16.5237 11.1732 16.6462ZM28.0598 16.8433C27.9603 16.9039 27.8552 16.9994 27.826 17.0556C27.7969 17.1118 27.7587 17.6042 27.7413 18.1497C27.704 19.3219 27.5707 20.1216 27.2501 21.0972C26.052 24.743 22.995 27.3679 19.4523 27.7928C18.928 27.8556 18.8667 27.8761 18.6973 28.0441C18.4568 28.2828 18.4416 28.5982 18.6582 28.8555C18.8511 29.0846 19.0448 29.1111 19.7715 29.0081C23.2471 28.5156 26.1657 26.3704 27.802 23.1056C28.5579 21.5975 28.9242 20.1102 28.9885 18.2889C29.0276 17.182 28.9804 16.9842 28.6388 16.8221C28.3927 16.7055 28.2791 16.7096 28.0598 16.8433ZM12.2039 20.3912C12.6603 20.5817 12.8944 20.9659 12.8965 21.5273C12.8981 21.9639 12.7283 22.3056 12.3923 22.5422L12.1509 22.7123L10.513 22.7296C9.40623 22.7413 8.83756 22.7269 8.7594 22.6851C8.64914 22.6262 8.64375 22.5722 8.64375 21.5314C8.64375 20.7577 8.6636 20.4196 8.71181 20.3715C8.76155 20.3218 9.21259 20.3034 10.3869 20.3034C11.709 20.3034 12.0311 20.319 12.2039 20.3912Z" fill="#FFE600"/>
</svg>
