<svg width="32" height="28" viewBox="0 0 32 28" fill="none" xmlns="http://www.w3.org/2000/svg">
<path fill-rule="evenodd" clip-rule="evenodd" d="M1.55689 0.605508C0.823956 0.815721 0.21672 1.48648 0.0586695 2.26062C0.00492239 2.52382 -0.00903058 5.00038 0.00523523 11.7717L0.024444 20.9268L0.199576 21.2956C0.415127 21.7496 0.854239 22.2078 1.22233 22.363C1.50502 22.4822 1.51241 22.4949 1.59031 22.9973C1.68566 23.6118 2.28289 24.3428 2.85608 24.5467C3.20153 24.6695 2.56364 24.5916 16.9495 26.2679C25.0774 27.215 28.2203 27.5591 28.4935 27.5317C29.2493 27.4559 29.9351 26.9516 30.25 26.2401C30.3854 25.9343 30.4598 25.2113 31.2173 16.8507C31.7504 10.9671 32.0241 7.68062 31.9983 7.47312C31.9147 6.79887 31.3913 6.04614 30.8005 5.75039C30.6406 5.67042 30.2424 5.56988 29.8814 5.51838C29.531 5.46843 29.1557 5.41304 29.0475 5.39525L28.8506 5.3629L28.824 3.82794C28.7999 2.43557 28.7845 2.259 28.659 1.92761C28.4648 1.41479 28.1019 1.01422 27.6 0.75872L27.1822 0.546048L14.5106 0.535372C4.53882 0.526896 1.77889 0.541842 1.55689 0.605508ZM27.1501 1.75919C27.3034 1.83922 27.4905 2.00085 27.566 2.11828C27.6994 2.32591 27.8094 2.89585 27.7636 3.14172C27.7416 3.26044 27.4054 3.26387 14.3921 3.27979L1.04314 3.29616L1.0666 2.8155C1.08712 2.39585 1.1144 2.30339 1.28128 2.08742C1.38639 1.95142 1.56897 1.78915 1.68697 1.72697C1.88914 1.62034 2.62389 1.61381 14.3865 1.61374L26.8715 1.61361L27.1501 1.75919ZM27.774 6.04562V7.6955H14.4154H1.05684V6.04562V4.39575H14.4154H27.774V6.04562ZM29.666 6.4995C30.3936 6.55126 30.6095 6.66818 30.8313 7.13033L30.9791 7.43844L30.156 16.5417C29.2286 26.8 29.3421 26.009 28.7519 26.3224L28.4471 26.4843L23.8715 25.9521C5.38977 23.8028 3.3933 23.562 3.20072 23.459C2.96821 23.3347 2.71105 23.0057 2.65061 22.7553L2.60781 22.578L14.925 22.5612L27.2421 22.5444L27.5347 22.4045C28.178 22.0971 28.6368 21.4766 28.7695 20.7344C28.8159 20.4744 28.8376 18.1321 28.8376 13.3729C28.8376 6.75623 28.8433 6.39443 28.9471 6.42445C29.0073 6.44185 29.3309 6.47563 29.666 6.4995ZM27.7599 14.7317C27.7443 20.1132 27.733 20.6861 27.6391 20.8621C27.505 21.1136 27.2869 21.3212 27.066 21.4078C26.9434 21.4558 23.0947 21.4768 14.3998 21.4768C2.06802 21.4768 1.90653 21.4752 1.65538 21.3484C1.51547 21.2777 1.33058 21.1125 1.24455 20.9811L1.08812 20.7422L1.07154 14.7689L1.0549 8.79541H14.416H27.7771L27.7599 14.7317ZM2.35547 11.1232C2.07084 11.3547 2.07559 11.7821 2.36535 12.0122C2.43918 12.0708 3.06012 12.0916 4.78691 12.0931C7.0431 12.0951 7.11387 12.0913 7.27404 11.961C7.47915 11.7942 7.5013 11.4128 7.31934 11.1804L7.19977 11.0276L4.85905 11.0092C2.58134 10.9913 2.51389 10.9944 2.35547 11.1232ZM8.83515 11.0604C8.5233 11.1903 8.45905 11.7407 8.73003 11.961C8.89021 12.0913 8.96098 12.0951 11.2172 12.0931C13.7189 12.0909 13.6903 12.0947 13.8186 11.7457C13.9051 11.5106 13.8425 11.2809 13.6491 11.1236C13.4981 11.0008 13.3938 10.9954 11.2316 10.9993C9.98874 11.0016 8.91036 11.0291 8.83515 11.0604ZM2.43336 13.2788C2.10863 13.4486 2.04656 13.895 2.30979 14.1672C2.43005 14.2916 2.53266 14.295 6.12777 14.295H9.82224L9.97579 14.1362C10.2369 13.8662 10.1393 13.3858 9.79859 13.263C9.50589 13.1575 2.63715 13.1722 2.43336 13.2788ZM11.5059 13.2788C11.1812 13.4486 11.1191 13.895 11.3823 14.1672C11.4952 14.2839 11.5936 14.295 12.5112 14.295C13.064 14.295 13.5686 14.2661 13.6324 14.2308C13.6962 14.1955 13.7808 14.0653 13.8202 13.9415C13.908 13.6665 13.8089 13.4034 13.5707 13.2788C13.3556 13.1663 11.721 13.1663 11.5059 13.2788ZM16.8372 13.2622C16.5226 13.3942 16.5046 13.5733 16.5244 16.3756L16.5428 18.9648L16.7183 19.1209L16.8939 19.277L21.3485 19.2749C24.7515 19.2733 25.8265 19.2542 25.9023 19.194C26.1376 19.0072 26.1472 18.8909 26.1472 16.2116V13.5905L25.9962 13.409L25.8452 13.2274L21.413 13.2147C18.7898 13.2072 16.9221 13.2265 16.8372 13.2622ZM25.0835 16.236V18.177H21.3606H17.6377V16.236V14.295H21.3606H25.0835V16.236Z" fill="#42E8E0"/>
</svg>
