<svg width="29" height="30" viewBox="0 0 29 30" fill="none" xmlns="http://www.w3.org/2000/svg">
<path fill-rule="evenodd" clip-rule="evenodd" d="M13.7611 0.614235C12.5096 0.883988 11.4484 1.95569 11.1835 3.21714C11.0217 3.98804 11.1173 4.72654 11.4725 5.44831C11.6348 5.77818 11.8257 6.02011 12.3773 6.59497C13.1672 7.41834 13.2115 7.50628 13.184 8.19542L13.1662 8.64098L12.6846 8.77696C12.4198 8.85175 11.8979 9.06547 11.525 9.25194L10.8468 9.59087L10.5745 9.32265C10.1059 8.86105 10.06 8.70761 10.0185 7.46656C9.98591 6.48931 9.96891 6.35463 9.83413 6.00589C9.43391 4.97017 8.55088 4.17298 7.50093 3.89949C7.07216 3.78781 6.23377 3.78719 5.79871 3.8983C4.83653 4.14391 4.01837 4.81628 3.59385 5.71013C3.34348 6.23723 3.26077 6.62466 3.26711 7.23964C3.28224 8.69509 4.23134 9.96096 5.65934 10.4302C5.82478 10.4845 6.28221 10.5267 6.96242 10.5502C8.17321 10.5921 8.33015 10.6402 8.79399 11.1112L9.06616 11.3875L8.78401 11.9201C8.51337 12.4307 8.28397 13.0208 8.14981 13.5513L8.08687 13.8001L7.60643 13.7631C7.34218 13.7428 7.03953 13.6901 6.93381 13.6459C6.82815 13.6018 6.42805 13.2642 6.04471 12.8958C5.26819 12.1494 4.90378 11.9206 4.20918 11.7429C3.40853 11.5381 2.53693 11.645 1.78897 12.0398C1.27295 12.3121 0.630188 12.9748 0.370762 13.502C-0.295905 14.8567 -0.0517758 16.355 1.00842 17.4153C2.06675 18.4737 3.5671 18.7196 4.91596 18.0558C5.24581 17.8935 5.48773 17.7025 6.06256 17.151C6.88588 16.361 6.97381 16.3167 7.66291 16.3442L8.10845 16.362L8.24443 16.8436C8.31921 17.1085 8.53411 17.6312 8.72192 18.0051L9.06344 18.685L8.73903 18.9897C8.26046 19.4392 8.17684 19.4632 6.93409 19.5075C5.96047 19.5421 5.82092 19.56 5.47351 19.6943C4.43337 20.0963 3.64189 20.9731 3.36722 22.0276C3.25555 22.4564 3.25493 23.2948 3.36603 23.7299C3.61164 24.6922 4.28397 25.5104 5.17777 25.9349C5.70484 26.1853 6.09225 26.268 6.70719 26.2617C8.16256 26.2465 9.42836 25.2974 9.89752 23.8693C9.95191 23.7039 9.99407 23.2464 10.0176 22.5661C10.0594 21.357 10.1079 21.198 10.5745 20.7384L10.8468 20.4702L11.525 20.8091C11.8979 20.9956 12.4198 21.2093 12.6846 21.2841L13.1662 21.4201L13.184 21.8656C13.2115 22.5533 13.1664 22.6433 12.3847 23.4601C11.4557 24.4309 11.1796 24.9646 11.1156 25.9138C10.9856 27.8395 12.5683 29.5332 14.4976 29.5332C16.0608 29.5332 17.4907 28.3728 17.8118 26.8439C17.9736 26.073 17.8779 25.3345 17.5228 24.6127C17.3604 24.2829 17.1695 24.0409 16.618 23.4661C15.828 22.6427 15.7837 22.5548 15.8112 21.8656L15.829 21.4201L16.3106 21.2841C16.5755 21.2093 17.0973 20.9956 17.4703 20.8091L18.1484 20.4702L18.4207 20.7384C18.8893 21.2 18.9353 21.3534 18.9767 22.5945C19.0093 23.5717 19.0263 23.7064 19.1611 24.0551C19.5613 25.0909 20.4444 25.8881 21.4943 26.1615C21.9231 26.2732 22.7615 26.2738 23.1965 26.1627C24.1587 25.9171 24.9769 25.2448 25.4014 24.3509C25.6518 23.8238 25.7345 23.4364 25.7281 22.8214C25.713 21.3659 24.7639 20.1001 23.3359 19.6309C23.1705 19.5765 22.713 19.5343 22.0328 19.5108C20.8237 19.4689 20.6648 19.4205 20.2052 18.9539L19.937 18.6815L20.2759 18.0034C20.4623 17.6304 20.676 17.1085 20.7508 16.8436L20.8868 16.362L21.3323 16.3442C22.0214 16.3167 22.1094 16.361 22.9327 17.151C23.5075 17.7025 23.7494 17.8935 24.0793 18.0558C25.4281 18.7196 26.9285 18.4737 27.9868 17.4153C29.3373 16.0647 29.3378 14.01 27.9878 12.6499C26.8748 11.5285 25.2353 11.3148 23.8673 12.1128C23.7153 12.2015 23.291 12.5642 22.9246 12.9188C22.5582 13.2735 22.1708 13.6002 22.0638 13.6449C21.9568 13.6896 21.6531 13.7428 21.3888 13.7631L20.9084 13.8001L20.8454 13.5513C20.7113 13.0208 20.4819 12.4307 20.2112 11.9201L19.9291 11.3875L20.2013 11.1112C20.6671 10.6382 20.8184 10.5927 22.0612 10.5512C23.0384 10.5185 23.173 10.5015 23.5217 10.3668C24.5574 9.96652 25.3545 9.08343 25.628 8.03343C25.7397 7.60464 25.7403 6.7662 25.6292 6.33111C25.3836 5.36888 24.7113 4.55067 23.8175 4.12612C23.2904 3.87575 22.903 3.79302 22.2881 3.79937C20.8327 3.8145 19.5669 4.76365 19.0977 6.19173C19.0439 6.35553 19.0001 6.8215 18.9752 7.49489C18.9305 8.70603 18.9047 8.79447 18.4566 9.2716L18.1519 9.59603L17.472 9.25449C17.0981 9.06666 16.5755 8.85175 16.3106 8.77696L15.829 8.64098L15.8112 8.19542C15.7838 7.50752 15.8287 7.41772 16.6105 6.60172C17.3795 5.79897 17.6065 5.43947 17.7851 4.74149C17.9271 4.18601 17.9271 3.66475 17.7851 3.10926C17.6245 2.48143 17.3671 2.03649 16.8772 1.53998C16.0469 0.698543 14.9213 0.364143 13.7611 0.614235ZM15.0189 1.43947C16.3238 1.71659 17.2241 3.02785 17.0014 4.32692C16.8884 4.98524 16.7088 5.28406 15.9566 6.06476C15.2029 6.84682 15.0274 7.14304 14.9467 7.76804C14.8344 8.63889 14.9104 9.27126 15.1385 9.36389C15.2067 9.3916 15.4664 9.4567 15.7157 9.50849C16.2639 9.62243 16.8906 9.87241 17.3871 10.1752C17.5896 10.2988 17.8358 10.4485 17.9341 10.5079C18.0514 10.5788 18.1623 10.6035 18.2567 10.5798C18.4459 10.5324 19.3813 9.56243 19.5424 9.24667C19.7514 8.8368 19.7741 8.69934 19.8176 7.57988C19.8582 6.53492 19.8646 6.49208 20.0369 6.1191C20.2681 5.61863 20.7637 5.11612 21.2509 4.88852C22.5228 4.29423 24.0054 4.81373 24.6266 6.07145C24.8345 6.4922 24.8373 6.50693 24.8373 7.18054C24.8373 7.83195 24.829 7.88079 24.6547 8.24856C24.4125 8.76014 23.9437 9.22786 23.4209 9.47976C23.0268 9.66962 23.0175 9.6711 21.9478 9.71144C20.8267 9.75371 20.6932 9.7758 20.2749 9.98793C19.9606 10.1473 18.9955 11.0822 18.9474 11.2739C18.9244 11.3652 18.9501 11.4783 19.0199 11.5939C19.0794 11.6922 19.2291 11.9384 19.3526 12.1409C19.6542 12.6354 19.9047 13.2622 20.0207 13.8124C20.16 14.4731 20.1573 14.4672 20.3651 14.5541C20.5792 14.6435 21.1857 14.6554 21.7597 14.5814C22.3899 14.5001 22.6957 14.3191 23.4675 13.571C24.1993 12.8616 24.5491 12.6405 25.1077 12.5346C26.5291 12.265 27.8627 13.2093 28.1114 14.6614C28.2433 15.431 27.9746 16.2356 27.3909 16.8193C26.799 17.4112 26.0041 17.6722 25.2085 17.5357C24.5482 17.4225 24.2359 17.2349 23.4675 16.49C22.5186 15.5702 22.4012 15.5177 21.2396 15.4947C20.583 15.4817 20.3362 15.4961 20.2613 15.5514C20.1967 15.5991 20.1131 15.8368 20.0259 16.2204C19.8738 16.8893 19.6796 17.3789 19.3514 17.9201C19.2285 18.1227 19.0794 18.3689 19.0199 18.4672C18.9501 18.5827 18.9244 18.6958 18.9474 18.7871C18.9955 18.9788 19.9606 19.9137 20.2749 20.0731C20.6929 20.2851 20.8263 20.3073 21.9478 20.3508C22.9927 20.3914 23.0356 20.3978 23.4085 20.5701C23.909 20.8013 24.4115 21.297 24.639 21.7841C25.2397 23.0698 24.6934 24.5801 23.4072 25.1894C23.0423 25.3623 22.9922 25.3708 22.3415 25.3708C21.6664 25.3708 21.6539 25.3684 21.2278 25.1578C20.7058 24.8998 20.3057 24.4886 20.0399 23.9372C19.86 23.5638 19.8563 23.5403 19.8164 22.4812C19.7742 21.362 19.7516 21.2245 19.5424 20.8144C19.3813 20.4986 18.4459 19.5287 18.2567 19.4812C18.1623 19.4575 18.0514 19.4823 17.9341 19.5531C17.8358 19.6125 17.5896 19.7622 17.3871 19.8858C16.8906 20.1886 16.2639 20.4386 15.7157 20.5525C15.4664 20.6043 15.2067 20.6694 15.1385 20.6971C14.9104 20.7898 14.8344 21.4221 14.9467 22.293C15.0274 22.918 15.2029 23.2142 15.9566 23.9963C16.7088 24.777 16.8884 25.0758 17.0014 25.7341C17.1392 26.5382 16.8807 27.3301 16.2864 27.9245C14.5224 29.6885 11.5373 28.0912 12.0034 25.6327C12.1089 25.0769 12.3218 24.7403 13.0387 23.9963C13.7923 23.2142 13.9679 22.918 14.0485 22.293C14.1609 21.4221 14.0849 20.7898 13.8568 20.6971C13.7886 20.6694 13.5288 20.6043 13.2795 20.5525C12.7313 20.4386 12.1047 20.1886 11.6082 19.8858C11.4056 19.7622 11.1595 19.6125 11.0612 19.5531C10.9456 19.4833 10.8325 19.4576 10.7412 19.4805C10.5496 19.5286 9.6147 20.4938 9.45533 20.8081C9.24321 21.2264 9.22111 21.3599 9.17885 22.4812C9.13851 23.5509 9.13704 23.5602 8.94718 23.9543C8.0186 25.8817 5.31397 25.9027 4.36861 23.9898C4.16057 23.5689 4.15797 23.555 4.15797 22.8778C4.15797 22.1992 4.16023 22.1874 4.37094 21.761C4.62889 21.2391 5.04004 20.8389 5.59147 20.5731C5.96483 20.3932 5.98834 20.3895 7.0474 20.3496C8.16647 20.3074 8.30397 20.2848 8.7141 20.0755C9.02984 19.9145 9.99973 18.979 10.0472 18.7898C10.0709 18.6954 10.0461 18.5844 9.97531 18.4672C9.91588 18.3689 9.7662 18.1227 9.64263 17.9201C9.34105 17.4257 9.09052 16.7988 8.97455 16.2487C8.83529 15.588 8.83795 15.5938 8.63014 15.507C8.41604 15.4175 7.80954 15.4056 7.23556 15.4797C6.61059 15.5603 6.31439 15.7359 5.53238 16.4895C4.75172 17.2418 4.45292 17.4215 3.79463 17.5344C2.99488 17.6715 2.20108 17.4118 1.60438 16.8178C-0.168203 15.0532 1.46637 12.0291 3.9144 12.544C4.48674 12.6644 4.79268 12.8587 5.53238 13.5715C6.31439 14.3252 6.61059 14.5008 7.23556 14.5814C7.80954 14.6554 8.41604 14.6435 8.63014 14.5541C8.83795 14.4672 8.83529 14.4731 8.97455 13.8124C9.09131 13.2585 9.3427 12.6316 9.64478 12.1409C10.0325 11.5112 10.0879 11.3796 10.0294 11.2286C9.95089 11.0261 9.01154 10.1359 8.72033 9.98805C8.30227 9.7758 8.16873 9.75371 7.0474 9.71144C5.97775 9.6711 5.96845 9.66962 5.57436 9.47976C3.62546 8.54075 3.63362 5.7975 5.58801 4.87164C5.95293 4.69877 6.00301 4.69027 6.65376 4.69027C7.32887 4.69027 7.34139 4.69265 7.7675 4.90325C8.28941 5.16122 8.68957 5.5724 8.95534 6.12386C9.13528 6.49724 9.13891 6.52075 9.17885 7.57988C9.22111 8.7011 9.24321 8.83459 9.45533 9.2529C9.6147 9.56724 10.5496 10.5324 10.7412 10.5805C10.8325 10.6035 10.9456 10.5778 11.0612 10.5079C11.1595 10.4485 11.4056 10.2988 11.6082 10.1752C12.1047 9.87241 12.7313 9.62243 13.2795 9.50849C13.5288 9.4567 13.7886 9.3916 13.8568 9.36389C14.0849 9.27126 14.1609 8.63889 14.0485 7.76804C13.9679 7.14304 13.7923 6.84682 13.0387 6.06476C12.2865 5.28406 12.1068 4.98524 11.9939 4.32692C11.8559 3.52225 12.1148 2.72976 12.7089 2.13785C13.3384 1.51063 14.17 1.25924 15.0189 1.43947ZM13.9499 2.32703C12.5286 2.83509 12.4043 4.77747 13.7508 5.43874C14.0162 5.56905 14.1473 5.59682 14.4976 5.59682C15.4819 5.59682 16.1666 4.91113 16.1666 3.92538C16.1666 3.4427 16.049 3.11986 15.7484 2.77741C15.3421 2.31479 14.5436 2.11479 13.9499 2.32703ZM14.8957 3.18955C15.1484 3.31851 15.3475 3.64458 15.3475 3.92957C15.3475 4.34635 14.9164 4.77526 14.4976 4.77526C14.0665 4.77526 13.6478 4.3565 13.6478 3.92538C13.6478 3.65291 13.8483 3.31862 14.0875 3.19233C14.3609 3.04802 14.6165 3.04717 14.8957 3.18955ZM6.29088 5.51489C5.56189 5.6618 4.98537 6.34432 4.96525 7.08417C4.94599 7.79433 5.26825 8.35378 5.87849 8.66971C6.18567 8.82875 6.29349 8.8547 6.64674 8.8547C7.61532 8.8547 8.32029 8.14907 8.32159 7.17816C8.32204 6.84246 8.29355 6.71923 8.14834 6.42851C8.05231 6.23638 7.87118 5.99218 7.74376 5.88311C7.38224 5.57364 6.76968 5.4184 6.29088 5.51489ZM22.0612 5.51273C21.4814 5.63126 21.1026 5.91682 20.8474 6.42772C20.7013 6.71991 20.6731 6.84235 20.6731 7.18326C20.6731 7.52367 20.7014 7.64673 20.8463 7.93683C21.0443 8.33299 21.2531 8.53061 21.6824 8.72795C21.9389 8.84586 22.048 8.86309 22.4189 8.84433C22.9309 8.81844 23.2079 8.70183 23.5354 8.37429C24.536 7.37358 23.9434 5.65472 22.5427 5.4954C22.4025 5.47942 22.1858 5.48724 22.0612 5.51273ZM7.10859 6.48115C7.54144 6.74047 7.60257 7.39103 7.22921 7.76447C7.05772 7.93592 6.97998 7.97043 6.71495 7.99241C6.46204 8.01337 6.36425 7.99451 6.20029 7.89314C5.60371 7.52446 5.7045 6.62047 6.36754 6.39248C6.62685 6.30329 6.85789 6.33094 7.10859 6.48115ZM22.7957 6.46965C23.1633 6.67622 23.2931 7.2474 23.0587 7.62673C22.7822 8.07417 22.1424 8.1408 21.7633 7.76169C21.5918 7.59019 21.5573 7.51245 21.5353 7.2474C21.5148 6.99958 21.5336 6.8964 21.6263 6.74756C21.8825 6.33627 22.3575 6.22335 22.7957 6.46965ZM13.7418 10.27C13.0953 10.3877 12.1977 10.7416 11.8299 11.0238C11.585 11.2117 11.5687 11.5572 11.7972 11.7173C11.9828 11.8473 12.1006 11.8217 12.7109 11.5186C13.9139 10.9212 15.0689 10.9139 16.254 11.4964C16.7007 11.716 16.8751 11.8439 17.2796 12.2484C17.687 12.6559 17.8099 12.8241 18.0287 13.2741C18.3128 13.8584 18.4635 14.4673 18.4635 15.0305C18.4635 15.5937 18.3128 16.2026 18.0287 16.7869C17.8099 17.2369 17.687 17.4051 17.2796 17.8126C16.8721 18.2201 16.7039 18.343 16.254 18.5618C15.0688 19.1381 13.9264 19.1381 12.7413 18.5618C12.2913 18.343 12.1231 18.2201 11.7157 17.8126C11.3111 17.4081 11.1833 17.2337 10.9637 16.7869C10.3813 15.6019 10.3885 14.4468 10.9859 13.2437C11.289 12.6333 11.3146 12.5155 11.1846 12.33C11.0245 12.1014 10.679 12.1177 10.4911 12.3626C10.3108 12.5976 10.0133 13.2429 9.87384 13.7011C9.73611 14.1539 9.7194 14.298 9.7194 15.0305C9.7194 15.7598 9.73645 15.9081 9.87129 16.3511C10.3723 17.9968 11.5315 19.1561 13.1772 19.6571C13.6201 19.792 13.7684 19.809 14.4976 19.809C15.2268 19.809 15.3752 19.792 15.8181 19.6571C17.4637 19.1561 18.623 17.9968 19.124 16.3511C19.2588 15.9081 19.2759 15.7598 19.2759 15.0305C19.2759 14.3013 19.2588 14.1529 19.124 13.71C18.4962 11.6476 16.7782 10.3106 14.6676 10.2414C14.3092 10.2297 13.8927 10.2426 13.7418 10.27ZM13.9027 11.9694C12.7814 12.2179 11.9078 12.9901 11.5417 14.0566C11.3571 14.594 11.3571 15.467 11.5417 16.0045C11.8603 16.9324 12.5621 17.6385 13.5107 17.9857C13.9917 18.1617 15.0035 18.1617 15.4846 17.9857C16.4332 17.6385 17.1349 16.9324 17.4536 16.0045C17.6382 15.467 17.6382 14.594 17.4536 14.0566C17.1339 13.1256 16.418 12.4072 15.4846 12.0808C15.1066 11.9487 14.264 11.8893 13.9027 11.9694ZM15.4284 12.9806C15.9396 13.2199 16.2704 13.5452 16.5239 14.0583C16.7239 14.4628 16.7355 14.5163 16.7355 15.0305C16.7355 15.5447 16.7239 15.5982 16.5239 16.0028C16.2691 16.5185 15.941 16.8397 15.4143 17.0892C15.0721 17.2514 14.9844 17.2685 14.4976 17.2685C14.012 17.2685 13.9234 17.2513 13.5911 17.0923C13.0516 16.8341 12.7258 16.5179 12.4734 16.0071C12.2713 15.5982 12.2597 15.5452 12.2597 15.0335C12.2597 14.5434 12.2767 14.4565 12.439 14.1138C12.6667 13.6332 12.9908 13.2814 13.4136 13.0561C13.8599 12.8182 14.104 12.7644 14.625 12.7892C14.9651 12.8054 15.1462 12.8485 15.4284 12.9806ZM2.84537 13.4322C1.42405 13.9402 1.29974 15.8826 2.64628 16.5439C3.10479 16.769 3.68144 16.769 4.13995 16.5439C4.74769 16.2454 5.06213 15.7294 5.06213 15.0305C5.06213 14.5478 4.94446 14.225 4.64384 13.8826C4.23762 13.4199 3.43912 13.2199 2.84537 13.4322ZM25.0544 13.4322C23.6331 13.9402 23.5088 15.8826 24.8553 16.5439C25.3138 16.769 25.8905 16.769 26.349 16.5439C26.9567 16.2454 27.2712 15.7294 27.2712 15.0305C27.2712 14.5478 27.1535 14.225 26.8529 13.8826C26.4466 13.4199 25.6481 13.2199 25.0544 13.4322ZM3.79118 14.2947C4.04392 14.4236 4.24295 14.7497 4.24295 15.0347C4.24295 15.4515 3.81191 15.8804 3.39311 15.8804C2.96202 15.8804 2.54328 15.4616 2.54328 15.0305C2.54328 14.758 2.74378 14.4238 2.98298 14.2975C3.25635 14.1532 3.51204 14.1523 3.79118 14.2947ZM26.0002 14.2947C26.2529 14.4236 26.452 14.7497 26.452 15.0347C26.452 15.4515 26.0209 15.8804 25.6021 15.8804C25.321 15.8804 24.9946 15.68 24.8663 15.4286C24.7219 15.1455 24.7219 14.9156 24.8662 14.6327C25.0756 14.2222 25.5696 14.075 26.0002 14.2947ZM5.87849 21.3913C5.26825 21.7073 4.94599 22.2667 4.96525 22.9769C4.98859 23.8366 5.71277 24.5501 6.5749 24.5628C7.29879 24.5735 7.83724 24.2551 8.14834 23.6325C8.29389 23.3412 8.32216 23.2185 8.32216 22.8778C8.32216 21.9115 7.61481 21.2082 6.64158 21.2069C6.29349 21.2064 6.18499 21.2326 5.87849 21.3913ZM21.596 21.3756C20.9875 21.6823 20.6746 22.1949 20.6737 22.887C20.6723 23.8653 21.4381 24.5907 22.4435 24.5634C23.6254 24.5314 24.3899 23.2361 23.8716 22.1439C23.5946 21.5601 23.0974 21.2468 22.4011 21.2174C21.9861 21.1999 21.9182 21.2132 21.596 21.3756ZM7.22802 22.2954C7.60864 22.676 7.54235 23.3151 7.09358 23.5925C6.70436 23.833 6.15128 23.702 5.92574 23.3157C5.79662 23.0947 5.78806 22.6969 5.90744 22.466C6.05638 22.1781 6.31615 22.0482 6.6962 22.0718C6.98469 22.0897 7.04967 22.117 7.22802 22.2954ZM22.8065 22.175C23.3167 22.4903 23.299 23.3012 22.7752 23.607C22.382 23.8367 21.8237 23.6823 21.6095 23.2846C21.4568 23.0011 21.5114 22.5592 21.7273 22.331C21.8174 22.2357 21.9422 22.1365 22.0045 22.1106C22.2205 22.0206 22.607 22.0517 22.8065 22.175ZM13.9499 24.5373C12.5286 25.0454 12.4043 26.9877 13.7508 27.649C14.2093 27.8742 14.7859 27.8742 15.2445 27.649C15.8522 27.3505 16.1666 26.8345 16.1666 26.1357C16.1666 25.653 16.049 25.3301 15.7484 24.9877C15.3421 24.5251 14.5436 24.3251 13.9499 24.5373ZM14.8957 25.3998C15.1484 25.5288 15.3475 25.8549 15.3475 26.1398C15.3475 26.5566 14.9164 26.9855 14.4976 26.9855C14.2165 26.9855 13.8901 26.7851 13.7618 26.5337C13.6174 26.2506 13.6174 26.0207 13.7617 25.7378C13.9711 25.3274 14.4651 25.1802 14.8957 25.3998Z" fill="#04A5FF"/>
</svg>
