<svg width="29" height="30" viewBox="0 0 29 30" fill="none" xmlns="http://www.w3.org/2000/svg">
<path fill-rule="evenodd" clip-rule="evenodd" d="M1.99912 0.555866C1.91468 0.572054 1.67241 0.663891 1.4607 0.759913C0.948358 0.992397 0.454282 1.49036 0.197372 2.03313L0 2.45008V15.0376V27.6251L0.197372 28.042C0.456804 28.5902 0.944976 29.0788 1.49121 29.3369L1.90668 29.5332H7.84199H13.7773L14.1939 29.3357C14.7362 29.0786 15.2017 28.6128 15.4744 28.0542L15.684 27.6251L15.7011 22.5008L15.7181 17.3766H22.15H28.5818L28.7909 17.1673L29 16.958V11.1598V5.36152L28.7909 5.15224L28.5818 4.94296H22.1537H15.7257L15.7031 3.69652L15.6805 2.45008L15.4861 2.0343C15.2306 1.48808 14.7436 1.00003 14.1939 0.739477L13.7773 0.541955L7.96501 0.534199C4.76824 0.529952 2.08363 0.539678 1.99912 0.555866ZM13.4588 1.93132C13.588 1.96727 13.8003 2.09302 13.9306 2.21077C14.2924 2.5378 14.3616 2.82045 14.3616 3.96908V4.94296H9.58876H4.81591L4.60679 5.15224L4.39767 5.36152V11.1598V16.958L4.60679 17.1673L4.81591 17.3766H6.54422H8.27253V19.1062V20.8358L8.48165 21.0451C8.65485 21.2184 8.73635 21.2544 8.95611 21.2544H9.22145L11.1623 19.3155L13.1033 17.3766H13.7325H14.3616V20.5773V23.778H7.84199H1.32238L1.32274 13.391C1.32293 6.16484 1.34323 2.93142 1.38929 2.76542C1.47528 2.45538 1.84148 2.06803 2.1527 1.95785C2.35746 1.88534 3.30606 1.87032 7.81124 1.86835C11.4454 1.86681 13.3009 1.88749 13.4588 1.93132ZM6.08004 2.84562C5.823 3.00252 5.71402 3.32148 5.8139 3.62432C5.85782 3.75758 5.96293 3.89121 6.08004 3.96268C6.25748 4.07095 6.40393 4.0808 7.84199 4.0808C9.28006 4.0808 9.42651 4.07095 9.60395 3.96268C10.0066 3.71696 10.0066 3.09134 9.60395 2.84562C9.42651 2.73735 9.28006 2.7275 7.84199 2.7275C6.40393 2.7275 6.25748 2.73735 6.08004 2.84562ZM27.6469 11.1598V16.0224H20.1H12.5532L11.1338 17.4381C10.3532 18.2168 9.69455 18.8538 9.67013 18.8538C9.64565 18.8538 9.62566 18.3109 9.62566 17.6474V16.441L9.41654 16.2317L9.20742 16.0224H7.47911H5.7508V11.1598V6.29712H16.6988H27.6469V11.1598ZM9.58876 8.47608L9.37964 8.68536V9.30704C9.37964 9.64896 9.36451 9.92872 9.346 9.92872C9.32754 9.92872 9.09647 9.80407 8.83254 9.65173C8.30993 9.35006 8.06397 9.30925 7.77987 9.47723C7.44571 9.67481 7.36662 10.1621 7.6199 10.4634C7.70072 10.5594 7.96304 10.7485 8.20279 10.8835C8.44254 11.0186 8.63868 11.1428 8.63868 11.1598C8.63868 11.1767 8.41578 11.3152 8.14337 11.4675C7.62322 11.7584 7.47296 11.9364 7.47296 12.2617C7.47296 12.5234 7.57869 12.7234 7.77987 12.8423C8.06397 13.0103 8.30993 12.9695 8.83254 12.6678C9.09647 12.5155 9.32754 12.3908 9.346 12.3908C9.36451 12.3908 9.37964 12.6706 9.37964 13.0125V13.6342L9.58876 13.8435C9.76018 14.015 9.84444 14.0527 10.0562 14.0527C10.268 14.0527 10.3522 14.015 10.5236 13.8435L10.7328 13.6342V13.0125C10.7328 12.6706 10.7536 12.3911 10.7789 12.3915C10.8042 12.3919 11.0326 12.5162 11.2863 12.6678C11.7915 12.9697 12.0455 13.012 12.3325 12.8423C12.674 12.6404 12.7458 12.1575 12.4812 11.8427C12.3941 11.7392 12.1313 11.5501 11.8973 11.4225C11.6632 11.2949 11.4716 11.1767 11.4716 11.1598C11.4716 11.1428 11.6632 11.0246 11.8973 10.897C12.1313 10.7695 12.3941 10.5804 12.4812 10.4768C12.7458 10.1621 12.674 9.67912 12.3325 9.47723C12.0484 9.30925 11.8025 9.35006 11.2799 9.65173C11.0159 9.80407 10.7849 9.92872 10.7664 9.92872C10.7479 9.92872 10.7328 9.64896 10.7328 9.30704V8.68536L10.5236 8.47608C10.3522 8.30453 10.268 8.2668 10.0562 8.2668C9.84444 8.2668 9.76018 8.30453 9.58876 8.47608ZM16.2314 8.47608L16.0223 8.68536V9.30704C16.0223 9.64896 16.0071 9.92872 15.9886 9.92872C15.9702 9.92872 15.7391 9.80407 15.4752 9.65173C14.9526 9.35006 14.7066 9.30925 14.4225 9.47723C14.0883 9.67481 14.0092 10.1621 14.2625 10.4634C14.3433 10.5594 14.6057 10.7485 14.8454 10.8835C15.0852 11.0186 15.2813 11.1428 15.2813 11.1598C15.2813 11.1767 15.0584 11.3152 14.786 11.4675C14.2658 11.7584 14.1156 11.9364 14.1156 12.2617C14.1156 12.5234 14.2213 12.7234 14.4225 12.8423C14.7066 13.0103 14.9526 12.9695 15.4752 12.6678C15.7391 12.5155 15.9702 12.3908 15.9886 12.3908C16.0071 12.3908 16.0223 12.6706 16.0223 13.0125V13.6342L16.2314 13.8435C16.4028 14.015 16.4871 14.0527 16.6988 14.0527C16.9106 14.0527 16.9949 14.015 17.1663 13.8435L17.3754 13.6342V13.0125C17.3754 12.6706 17.3961 12.3911 17.4215 12.3915C17.4469 12.3919 17.6752 12.5162 17.9289 12.6678C18.4342 12.9697 18.6881 13.012 18.9752 12.8423C19.3166 12.6404 19.3884 12.1575 19.1238 11.8427C19.0367 11.7392 18.774 11.5501 18.5399 11.4225C18.3058 11.2949 18.1143 11.1767 18.1143 11.1598C18.1143 11.1428 18.3058 11.0246 18.5399 10.897C18.774 10.7695 19.0367 10.5804 19.1238 10.4768C19.3884 10.1621 19.3166 9.67912 18.9752 9.47723C18.6911 9.30925 18.4451 9.35006 17.9225 9.65173C17.6586 9.80407 17.4275 9.92872 17.409 9.92872C17.3905 9.92872 17.3754 9.64896 17.3754 9.30704V8.68536L17.1663 8.47608C16.9949 8.30453 16.9106 8.2668 16.6988 8.2668C16.4871 8.2668 16.4028 8.30453 16.2314 8.47608ZM22.874 8.47608L22.6649 8.68536V9.30704C22.6649 9.64896 22.6498 9.92872 22.6313 9.92872C22.6128 9.92872 22.3817 9.80407 22.1178 9.65173C21.5952 9.35006 21.3492 9.30925 21.0651 9.47723C20.731 9.67481 20.6519 10.1621 20.9052 10.4634C20.986 10.5594 21.2483 10.7485 21.488 10.8835C21.7278 11.0186 21.924 11.1428 21.924 11.1598C21.924 11.1767 21.7278 11.301 21.488 11.436C21.2483 11.571 20.986 11.7601 20.9052 11.8562C20.6519 12.1574 20.731 12.6447 21.0651 12.8423C21.3492 13.0103 21.5952 12.9695 22.1178 12.6678C22.3817 12.5155 22.6128 12.3908 22.6313 12.3908C22.6498 12.3908 22.6649 12.6706 22.6649 13.0125V13.6342L22.874 13.8435C23.0454 14.015 23.1297 14.0527 23.3415 14.0527C23.5532 14.0527 23.6375 14.015 23.8089 13.8435L24.018 13.6342V13.0125C24.018 12.6706 24.0388 12.3911 24.0642 12.3915C24.0896 12.3919 24.3179 12.5162 24.5716 12.6678C25.0768 12.9697 25.3307 13.012 25.6178 12.8423C25.9593 12.6404 26.0311 12.1575 25.7665 11.8427C25.6794 11.7392 25.4166 11.5501 25.1825 11.4225C24.9484 11.2949 24.7569 11.1767 24.7569 11.1598C24.7569 11.1428 24.9484 11.0246 25.1825 10.897C25.703 10.6134 25.9247 10.3678 25.9247 10.0748C25.9247 9.64521 25.6586 9.37474 25.2359 9.37474C25.1217 9.37474 24.8522 9.48603 24.5651 9.65173C24.3012 9.80407 24.0701 9.92872 24.0517 9.92872C24.0332 9.92872 24.018 9.64896 24.018 9.30704V8.68536L23.8089 8.47608C23.6375 8.30453 23.5532 8.2668 23.3415 8.2668C23.1297 8.2668 23.0454 8.30453 22.874 8.47608ZM14.3616 26.0945C14.3616 26.6776 14.3318 27.1567 14.286 27.3102C14.1883 27.6372 13.7894 28.0364 13.4626 28.1341C13.2707 28.1915 11.9084 28.2098 7.83043 28.2098C1.81005 28.2098 2.07361 28.2283 1.66755 27.7785C1.37146 27.4504 1.32311 27.2155 1.32274 26.1016L1.32238 25.1322H7.84199H14.3616V26.0945ZM6.08004 26.1125C5.96293 26.1839 5.85782 26.3176 5.8139 26.4508C5.71402 26.7537 5.823 27.0726 6.08004 27.2295C6.25748 27.3378 6.40393 27.3477 7.84199 27.3477C9.28006 27.3477 9.42651 27.3378 9.60395 27.2295C10.0066 26.9838 10.0066 26.3582 9.60395 26.1125C9.42651 26.0042 9.28006 25.9944 7.84199 25.9944C6.40393 25.9944 6.25748 26.0042 6.08004 26.1125Z" fill="#1ACA6B"/>
</svg>
