<svg width="99" height="81" viewBox="0 0 99 81" fill="none" xmlns="http://www.w3.org/2000/svg">
<g style="mix-blend-mode:multiply" opacity="0.4">
<path d="M39.86 29.0001C37.8583 27.9732 35.5778 27.6223 33.36 28.0001C31.1389 27.6238 28.8557 27.9745 26.85 29.0001L3.70997 42.3201C0.999972 43.8701 0.999972 46.3801 3.67997 47.9301L56.94 78.6501C58.4739 79.4734 60.2005 79.8705 61.94 79.8001H64.94L65.47 43.7401L39.86 29.0001Z" fill="#50197C"/>
</g>
<path d="M89 61.6301L63.24 76.4701C63.0104 76.6026 62.7501 76.6724 62.485 76.6724C62.2199 76.6724 61.9595 76.6026 61.73 76.4701L6.72999 44.7201C5.72999 44.1401 4.46999 42.7201 6.00999 41.0001L29.62 27.1801C31.5831 26.0208 33.858 25.5001 36.13 25.6901C37.0282 25.765 37.909 25.981 38.74 26.3301L90.29 56.0001C92.46 57.2801 91.12 60.3701 89 61.6301Z" fill="url(#paint0_linear_52_13589)"/>
<path d="M95.11 60.05C95.0569 60.6565 94.8438 61.238 94.4924 61.7352C94.141 62.2324 93.664 62.6275 93.11 62.88L70 76.24C68.4992 77.004 66.839 77.4022 65.155 77.4022C63.471 77.4022 61.8108 77.004 60.31 76.24L7 45.52C6.44924 45.2767 5.97346 44.8908 5.62185 44.402C5.27023 43.9133 5.05555 43.3395 5 42.74V45.16C5.05758 45.7589 5.27306 46.3318 5.62442 46.8202C5.97579 47.3086 6.45047 47.695 7 47.94L60.27 78.66C61.7708 79.424 63.431 79.8222 65.115 79.8222C66.799 79.8222 68.4592 79.424 69.96 78.66L93.1 65.3C93.654 65.0475 94.131 64.6524 94.4824 64.1552C94.8338 63.658 95.0469 63.0765 95.1 62.47L95.11 60.05Z" fill="url(#paint1_linear_52_13589)"/>
<path d="M93.12 57.2701L39.86 26.5501C38.3592 25.7862 36.6991 25.3879 35.015 25.3879C33.331 25.3879 31.6708 25.7862 30.17 26.5501L7.00001 39.9101C4.35001 41.4601 4.33001 44.0001 7.00001 45.5201L60.26 76.2501C61.7608 77.0141 63.421 77.4124 65.105 77.4124C66.7891 77.4124 68.4492 77.0141 69.95 76.2501L93.08 62.8801C95.77 61.3301 95.78 58.8201 93.12 57.2701ZM59.43 74.7901L6.58001 44.2901C6.29139 44.1233 6.05173 43.8835 5.88512 43.5948C5.7185 43.306 5.63079 42.9785 5.63079 42.6451C5.63079 42.3118 5.7185 41.9843 5.88512 41.6955C6.05173 41.4068 6.29139 41.167 6.58001 41.0001L12.58 37.5601C12.6843 37.4998 12.8002 37.4623 12.92 37.4501L17.5 36.9101C17.5875 36.8988 17.6722 36.8717 17.75 36.8301L24.96 32.6601C25.0673 32.6013 25.157 32.5151 25.22 32.4101L26.94 29.3401C26.9782 29.2617 27.0416 29.1983 27.12 29.1601L30.75 27.0001C32.0732 26.2385 33.5732 25.8377 35.1 25.8377C36.6268 25.8377 38.1268 26.2385 39.45 27.0001L90.45 56.4401C90.5473 56.4989 90.6278 56.5818 90.6837 56.6808C90.7395 56.7798 90.7689 56.8915 90.7689 57.0051C90.7689 57.1188 90.7395 57.2305 90.6837 57.3295C90.6278 57.4285 90.5473 57.5114 90.45 57.5701L60.72 74.7901C60.5239 74.9034 60.3015 74.963 60.075 74.963C59.8486 74.963 59.6261 74.9034 59.43 74.7901V74.7901Z" fill="#353131"/>
<path d="M82.37 66.2301L81 65.4501C80.5905 65.2577 80.1412 65.1655 79.6891 65.1811C79.237 65.1968 78.7951 65.3199 78.4 65.5401L75.4 67.3001C75.1623 67.4257 74.9621 67.612 74.82 67.8401C74.7574 67.9475 74.7183 68.067 74.7053 68.1905C74.6923 68.3141 74.7055 68.4391 74.7443 68.5572C74.783 68.6753 74.8463 68.7838 74.93 68.8757C75.0137 68.9675 75.116 69.0406 75.23 69.0901L76.59 69.8801C77.0002 70.071 77.4499 70.1615 77.902 70.1441C78.3542 70.1268 78.7956 70.002 79.19 69.7801L82.19 68.0301C82.4248 67.9043 82.6217 67.7178 82.76 67.4901C82.8232 67.3832 82.8634 67.2642 82.8779 67.1408C82.8925 67.0174 82.881 66.8924 82.8442 66.7737C82.8075 66.655 82.7463 66.5453 82.6646 66.4517C82.583 66.3581 82.4826 66.2826 82.37 66.2301Z" fill="#262424"/>
<path d="M82.38 66.5601L81 65.7701C80.5895 65.5752 80.1383 65.4816 79.6841 65.4973C79.2299 65.513 78.7862 65.6374 78.39 65.8601L75.34 67.6301C75.1024 67.7556 74.9022 67.942 74.76 68.1701C74.7152 68.258 74.6848 68.3525 74.67 68.4501C74.7014 68.5894 74.7623 68.7204 74.8485 68.8343C74.9348 68.9481 75.0444 69.0422 75.17 69.1101L76.54 69.9001C76.9513 70.0935 77.4031 70.1853 77.8572 70.1679C78.3114 70.1505 78.7547 70.0244 79.15 69.8001L82.15 68.0401C82.3856 67.9116 82.5851 67.7259 82.73 67.5001C82.7808 67.4139 82.8147 67.3189 82.83 67.2201C82.8044 67.0851 82.7512 66.9568 82.6738 66.8432C82.5964 66.7297 82.4964 66.6333 82.38 66.5601Z" fill="#353131"/>
<path d="M22.77 31.81L17.94 34.59C17.68 34.75 17.65 34.98 17.88 35.11C18.0196 35.1804 18.1737 35.217 18.33 35.217C18.4863 35.217 18.6405 35.1804 18.78 35.11L23.6 32.33C23.86 32.18 23.89 31.94 23.66 31.81C23.5218 31.7413 23.3694 31.7056 23.215 31.7056C23.0606 31.7056 22.9083 31.7413 22.77 31.81V31.81Z" fill="#191414"/>
<path d="M16.55 52.0901C16.4971 51.9566 16.4301 51.8292 16.35 51.7101C16.2574 51.5834 16.1421 51.4749 16.01 51.3901L11.58 48.8401C11.5211 48.7944 11.4509 48.7656 11.3769 48.7568C11.3029 48.748 11.2279 48.7595 11.16 48.7901L10.72 49.0501C10.7827 49.01 10.8555 48.9888 10.93 48.9888C11.0044 48.9888 11.0773 49.01 11.14 49.0501L15.57 51.6001C15.7018 51.6852 15.817 51.7937 15.91 51.9201C16 52.0367 16.0678 52.1689 16.11 52.3101C16.1495 52.4191 16.1698 52.5342 16.17 52.6501V52.8401C16.1778 52.9153 16.1653 52.9912 16.1336 53.0599C16.1019 53.1285 16.0523 53.1873 15.99 53.2301L16.43 52.9801C16.4923 52.9373 16.5419 52.8785 16.5736 52.8099C16.6053 52.7412 16.6178 52.6653 16.61 52.5901V52.3901C16.6039 52.2878 16.5837 52.1869 16.55 52.0901V52.0901Z" fill="#F9F7FB"/>
<path d="M15.57 51.64L11.14 49.09C10.81 48.9 10.54 49.09 10.54 49.44V49.63C10.5589 49.831 10.6227 50.0251 10.7265 50.1982C10.8303 50.3712 10.9716 50.5188 11.14 50.63L15.57 53.18C15.9 53.37 16.17 53.18 16.17 52.83V52.64C16.1518 52.4389 16.0884 52.2445 15.9845 52.0713C15.8806 51.8982 15.7389 51.7507 15.57 51.64V51.64Z" fill="#C0B9C8"/>
<path d="M23.3 56C23.2554 55.8629 23.1877 55.7344 23.1 55.62C23.0099 55.4911 22.8942 55.3821 22.76 55.3L18.33 52.75C18.2711 52.7043 18.2009 52.6755 18.1269 52.6667C18.0529 52.6579 17.9779 52.6694 17.91 52.7L17.47 52.95C17.5397 52.9196 17.6162 52.9082 17.6917 52.917C17.7673 52.9258 17.8391 52.9544 17.9 53L22.32 55.55C22.457 55.6284 22.5735 55.738 22.66 55.87C22.75 55.9867 22.8178 56.1189 22.86 56.26C22.8984 56.3659 22.9187 56.4774 22.92 56.59V56.79C22.9289 56.8643 22.9179 56.9396 22.888 57.0082C22.8581 57.0767 22.8105 57.1361 22.75 57.18L23.18 56.93C23.2415 56.8865 23.2906 56.8276 23.3222 56.7591C23.3537 56.6907 23.3668 56.6151 23.36 56.54V56.34C23.3587 56.2242 23.3384 56.1093 23.3 56V56Z" fill="#F9F7FB"/>
<path d="M22.32 55.5402L17.9 53.0002C17.56 52.8102 17.29 53.0002 17.29 53.3502V53.5402C17.3079 53.7426 17.3722 53.9381 17.478 54.1115C17.5838 54.285 17.7283 54.4317 17.9 54.5402L22.32 57.1002C22.65 57.2902 22.92 57.1002 22.92 56.7502V56.5502C22.904 56.3471 22.8416 56.1505 22.7376 55.9753C22.6336 55.8002 22.4907 55.6513 22.32 55.5402V55.5402Z" fill="#C0B9C8"/>
<path d="M17 36.2801C16.8175 36.374 16.6152 36.4229 16.41 36.4229C16.2047 36.4229 16.0025 36.374 15.82 36.2801C15.5 36.0901 15.5 35.7901 15.82 35.6001C16.0025 35.5062 16.2047 35.4573 16.41 35.4573C16.6152 35.4573 16.8175 35.5062 17 35.6001C17.36 35.7901 17.36 36.0901 17 36.2801Z" fill="#191414"/>
<path opacity="0.1" d="M16 36.2001C16.137 36.2673 16.2875 36.3021 16.44 36.3021C16.5926 36.3021 16.7431 36.2673 16.88 36.2001C17.11 36.0501 17.1 35.8301 16.88 35.6901C16.7444 35.6246 16.5957 35.5906 16.445 35.5906C16.2944 35.5906 16.1457 35.6246 16.01 35.6901C15.9508 35.7007 15.897 35.7314 15.8579 35.7772C15.8188 35.8229 15.7968 35.8809 15.7956 35.941C15.7944 36.0012 15.8141 36.0599 15.8514 36.1072C15.8887 36.1544 15.9412 36.1873 16 36.2001V36.2001Z" fill="#CFD5D5"/>
<path opacity="0.1" d="M16.21 36.06C16.282 36.0994 16.3629 36.12 16.445 36.12C16.5271 36.12 16.6079 36.0994 16.68 36.06C16.81 35.98 16.8 35.86 16.68 35.79C16.6071 35.7531 16.5266 35.7339 16.445 35.7339C16.3633 35.7339 16.2828 35.7531 16.21 35.79C16.07 35.87 16.07 36 16.21 36.06Z" fill="#CFD5D5"/>
<g style="mix-blend-mode:screen" opacity="0.2">
<path d="M16.35 36.0001C16.3777 36.015 16.4086 36.0228 16.44 36.0228C16.4714 36.0228 16.5023 36.015 16.53 36.0001C16.5433 36.0001 16.556 35.9948 16.5654 35.9855C16.5747 35.9761 16.58 35.9634 16.58 35.9501C16.58 35.9369 16.5747 35.9241 16.5654 35.9148C16.556 35.9054 16.5433 35.9001 16.53 35.9001C16.5023 35.8852 16.4714 35.8774 16.44 35.8774C16.4086 35.8774 16.3777 35.8852 16.35 35.9001C16.3 35.9001 16.3 36.0001 16.35 36.0001Z" fill="#CFD5D5"/>
</g>
<path d="M83 70.61L79.9 72.42C79.53 72.63 79.24 72.51 79.24 72.14C79.2685 71.9346 79.3425 71.7382 79.4567 71.5652C79.5709 71.3922 79.7224 71.2469 79.9 71.14L83 69.29C83.37 69.08 83.66 69.2 83.66 69.57C83.6412 69.7835 83.5714 69.9893 83.4566 70.1703C83.3417 70.3513 83.1852 70.502 83 70.61V70.61Z" fill="#262424"/>
<path d="M78.71 71.11L78.27 71.36L79.82 72.26L80.26 72.01L78.71 71.11ZM79.71 70.56L79.27 70.81L80.82 71.7L81.26 71.45L79.71 70.56ZM80.71 70L80.27 70.25L81.82 71.15L82.26 70.9L80.71 70ZM81.71 69.45L81.27 69.7L82.82 70.59L83.26 70.34L81.71 69.45Z" fill="#9E6512"/>
<path opacity="0.7" d="M91.39 47.5801L60.24 65.57L8.65002 35.78L39.81 17.8L91.39 47.5801Z" fill="#CFE9FF"/>
<path d="M40.01 17.9099L8.85 35.8999L5 33.6699L36.15 15.6899L40.01 17.9099Z" fill="#07DBB4"/>
<path opacity="0.5" d="M45.6601 23.6001L18.6601 39.2101C17.8801 39.6601 17.8001 40.3301 18.4701 40.7201L34.6501 50.0001C35.0664 50.1889 35.5214 50.2774 35.9782 50.2583C36.435 50.2392 36.8809 50.113 37.2801 49.8901L64.2801 34.2801C65.0601 33.8301 65.1401 33.1501 64.4701 32.7701L48.2801 23.4901C47.8654 23.3013 47.4121 23.2129 46.9569 23.232C46.5017 23.2512 46.0574 23.3772 45.6601 23.6001Z" fill="#455CBA"/>
<path opacity="0.7" d="M64.88 27.5701C64.8561 27.7525 64.7855 27.9256 64.6751 28.0727C64.5648 28.2199 64.4184 28.3361 64.25 28.4101L37.27 44.0001C36.8727 44.223 36.4284 44.3491 35.9732 44.3682C35.518 44.3873 35.0647 44.2989 34.65 44.1101L18.49 34.8101C18.3452 34.7566 18.2204 34.6597 18.1327 34.5326C18.045 34.4056 17.9987 34.2545 18 34.1001C18 33.9501 18 33.6401 18 33.4601C18.0379 33.2904 18.1145 33.1317 18.2238 32.9964C18.3331 32.8612 18.4721 32.7529 18.63 32.6801L45.63 17.0701C46.0352 16.851 46.4862 16.7305 46.9467 16.7183C47.4071 16.7061 47.8639 16.8027 48.28 17.0001L64.44 26.3101C64.5613 26.3644 64.6664 26.449 64.7453 26.5559C64.8241 26.6628 64.874 26.7883 64.89 26.9201C64.9 27.0701 64.88 27.4101 64.88 27.5701Z" fill="#CFE9FF"/>
<path d="M48.2801 17C47.8648 16.8135 47.4118 16.7264 46.9571 16.7455C46.5023 16.7646 46.0582 16.8894 45.6601 17.11L18.6601 32.72C17.8801 33.17 17.8001 33.85 18.4701 34.24L28.8801 40.24L58.5601 22.88L48.2801 17Z" fill="#07DBB4"/>
<path d="M60.72 24.1501L64.56 26.3501C65.09 26.7501 64.98 27.3501 64.25 27.7801L37.25 43.3901C36.8508 43.6131 36.4049 43.7392 35.9481 43.7583C35.4913 43.7774 35.0364 43.689 34.62 43.5001L31 41.3701L60.72 24.1501Z" fill="#AB00FB"/>
<path d="M57.03 22.01L60.86 24.22L30.96 41.37L27.25 39.24L57.03 22.01Z" fill="#291B2A"/>
<path d="M56.8799 27.75C56.7806 27.7936 56.6928 27.8596 56.6234 27.9429C56.554 28.0262 56.5049 28.1245 56.4799 28.23C56.4753 28.3259 56.4994 28.421 56.5494 28.503C56.5993 28.585 56.6726 28.6501 56.7599 28.69L57.8299 29.3C58.0864 29.4167 58.3668 29.4712 58.6483 29.459C58.9298 29.4468 59.2045 29.3684 59.4499 29.23L62.2699 27.6C62.3672 27.5535 62.4533 27.4865 62.5223 27.4037C62.5913 27.3208 62.6417 27.2241 62.6699 27.12C62.6746 27.0241 62.6504 26.9291 62.6005 26.8471C62.5506 26.7651 62.4773 26.6999 62.3899 26.66L61.3199 26.05C61.0635 25.9334 60.7831 25.8789 60.5016 25.8911C60.2201 25.9032 59.9454 25.9817 59.6999 26.12L56.8799 27.75Z" fill="#FEDCFF"/>
<path d="M45.64 20.35C46.0141 20.5374 46.4267 20.635 46.845 20.635C47.2634 20.635 47.676 20.5374 48.05 20.35C48.1925 20.2979 48.3155 20.2033 48.4024 20.079C48.4893 19.9547 48.5359 19.8067 48.5359 19.655C48.5359 19.5033 48.4893 19.3553 48.4024 19.231C48.3155 19.1067 48.1925 19.0121 48.05 18.96C47.6774 18.7679 47.2643 18.6677 46.845 18.6677C46.4258 18.6677 46.0127 18.7679 45.64 18.96C45 19.34 45 20 45.64 20.35Z" fill="#DD3E3E"/>
<path d="M44.07 22.23C45.0089 22.23 45.77 21.7913 45.77 21.25C45.77 20.7088 45.0089 20.27 44.07 20.27C43.1311 20.27 42.37 20.7088 42.37 21.25C42.37 21.7913 43.1311 22.23 44.07 22.23Z" fill="#FFC440"/>
<path d="M22.1799 33.8701L21.8799 34.0401C21.7594 34.1144 21.6215 34.1557 21.4799 34.1601C21.3428 34.1566 21.2087 34.1188 21.0899 34.0501L20.2499 33.5701C20.1299 33.4901 20.0699 33.4201 20.0699 33.3401C20.0699 33.2601 20.1399 33.1801 20.2599 33.1101L20.5599 32.9401C20.6818 32.8701 20.8195 32.8323 20.9599 32.8301C21.0971 32.8226 21.2333 32.8576 21.3499 32.9301L21.4799 33.0001L21.3199 33.1001C21.306 33.1071 21.2906 33.1108 21.2749 33.1108C21.2593 33.1108 21.2439 33.1071 21.2299 33.1001L21.1199 33.0301C21.0644 32.9955 21.0003 32.9772 20.9349 32.9772C20.8695 32.9772 20.8055 32.9955 20.7499 33.0301L20.5299 33.1601C20.3999 33.2301 20.3999 33.3101 20.5299 33.3801L21.3399 33.8501C21.3974 33.8844 21.463 33.9026 21.5299 33.9026C21.5969 33.9026 21.6625 33.8844 21.7199 33.8501L21.9399 33.7201C22.0599 33.6534 22.0599 33.5834 21.9399 33.5101L21.8299 33.4401C21.8299 33.4401 21.8299 33.4401 21.8299 33.3901L21.9899 33.3001C22.0026 33.2895 22.0185 33.2837 22.0349 33.2837C22.0514 33.2837 22.0673 33.2895 22.0799 33.3001L22.1999 33.3701C22.3199 33.4401 22.3799 33.5101 22.3799 33.5901C22.3799 33.6701 22.3099 33.8001 22.1799 33.8701Z" fill="#FEDCFF"/>
<path d="M23.11 33.3401L22.95 33.4301C22.9373 33.4407 22.9214 33.4465 22.905 33.4465C22.8885 33.4465 22.8726 33.4407 22.86 33.4301L21.33 32.5501L21.93 32.2001C22.0518 32.1302 22.1895 32.0923 22.33 32.0901C22.4696 32.0888 22.6073 32.1233 22.73 32.1901L22.94 32.3101C23.13 32.4301 23.17 32.5401 23.06 32.6701L23.94 32.8501C24 32.8501 24 32.8501 23.94 32.9001L23.78 32.9901C23.7413 33.0047 23.6986 33.0047 23.66 32.9901L22.8 32.8101L22.54 32.9601C22.7139 33.0939 22.8977 33.2143 23.09 33.3201C23.09 33.3201 23.14 33.3201 23.11 33.3401ZM22.36 32.8201L22.69 32.6301C22.81 32.5601 22.82 32.4901 22.69 32.4101L22.48 32.2901C22.4233 32.2535 22.3574 32.2341 22.29 32.2341C22.2225 32.2341 22.1566 32.2535 22.1 32.2901L21.78 32.4701C21.9422 32.5995 22.1163 32.7133 22.3 32.8101L22.36 32.8201Z" fill="#FEDCFF"/>
<path d="M25.17 32.1501L24.34 32.6201C24.329 32.63 24.3147 32.6354 24.3 32.6354C24.2852 32.6354 24.271 32.63 24.26 32.6201L22.73 31.7401L23.55 31.2601C23.5792 31.2502 23.6108 31.2502 23.64 31.2601L23.76 31.3401C23.76 31.3401 23.76 31.3401 23.76 31.3901L23.17 31.7301C23.3014 31.8328 23.442 31.9232 23.59 32.0001L24.09 31.7101C24.1033 31.7011 24.1189 31.6963 24.135 31.6963C24.151 31.6963 24.1667 31.7011 24.18 31.7101L24.31 31.7801C24.31 31.7801 24.31 31.7801 24.31 31.8401L23.81 32.1201L24.25 32.4101C24.25 32.4101 24.25 32.4101 24.31 32.4101L25 32.0001L25.13 32.0801C25.13 32.0801 25.2 32.1301 25.17 32.1501Z" fill="#FEDCFF"/>
<path d="M25.5 31.91L24 31C24 31 24 31 24 30.95L24.63 30.59C24.7499 30.5154 24.8888 30.4772 25.03 30.48C25.1672 30.4725 25.3033 30.5075 25.42 30.58L26.26 31.06C26.38 31.13 26.44 31.21 26.44 31.29C26.44 31.37 26.37 31.45 26.25 31.52L25.61 31.89C25.5951 31.9028 25.5771 31.9115 25.5577 31.915C25.5384 31.9185 25.5184 31.9168 25.5 31.91ZM25.6 31.65L25.97 31.44C26.09 31.37 26.09 31.3 25.97 31.22L25.15 30.75C25.0945 30.7154 25.0304 30.6971 24.965 30.6971C24.8996 30.6971 24.8355 30.7154 24.78 30.75L24.41 30.96L25.55 31.65H25.6Z" fill="#FEDCFF"/>
<path d="M25.66 30.05L27.19 30.93C27.19 30.93 27.19 30.93 27.19 30.98L27.03 31.07C27.0174 31.0806 27.0015 31.0864 26.985 31.0864C26.9686 31.0864 26.9526 31.0806 26.94 31.07L25.41 30.19C25.41 30.19 25.41 30.19 25.41 30.14L25.57 30.05C25.5833 30.041 25.599 30.0361 25.615 30.0361C25.6311 30.0361 25.6468 30.041 25.66 30.05V30.05Z" fill="#FEDCFF"/>
<path d="M28.08 30.4702L27.92 30.5602C27.9074 30.5708 27.8915 30.5766 27.875 30.5766C27.8585 30.5766 27.8426 30.5708 27.83 30.5602L26.49 29.7902L26.16 29.9802C26.1626 30.0014 26.1568 30.0228 26.1436 30.0397C26.1305 30.0565 26.1112 30.0675 26.09 30.0702C26.0795 30.0715 26.0688 30.0707 26.0586 30.0679C26.0484 30.0651 26.0389 30.0603 26.0305 30.0538C26.0136 30.0407 26.0026 30.0214 26 30.0002L25.87 29.9302C25.87 29.9302 25.87 29.9302 25.87 29.8802L26.87 29.3202C26.8992 29.3103 26.9308 29.3103 26.96 29.3202L27.09 29.4002C27.09 29.4002 27.09 29.4002 27.09 29.4502L26.77 29.6302L28.1 30.4402C28.1 30.4402 28.11 30.4502 28.08 30.4702Z" fill="#FEDCFF"/>
<path d="M30 29.34L29.7 29.51C29.5806 29.5857 29.4414 29.624 29.3 29.62C29.1637 29.62 29.0296 29.5856 28.91 29.52L28.1 29C27.98 28.93 27.92 28.86 27.92 28.78C27.92 28.7 27.99 28.62 28.11 28.55L28.41 28.38C28.5311 28.307 28.6687 28.2657 28.81 28.26C28.9475 28.2612 29.0822 28.2992 29.2 28.37L29.32 28.44C29.32 28.44 29.32 28.44 29.32 28.49L29.16 28.59H29.07L29 28.55C28.9445 28.5154 28.8804 28.4971 28.815 28.4971C28.7496 28.4971 28.6856 28.5154 28.63 28.55L28.4 28.68C28.28 28.75 28.28 28.82 28.4 28.9L29.22 29.37C29.2756 29.4046 29.3396 29.4229 29.405 29.4229C29.4704 29.4229 29.5345 29.4046 29.59 29.37L29.82 29.24C29.94 29.17 29.94 29.1 29.82 29.02L29.67 29C29.67 29 29.67 29 29.67 28.95L29.83 28.85H29.92L30.04 28.92C30.16 28.99 30.22 29.07 30.22 29.15C30.22 29.23 30.16 29.27 30 29.34Z" fill="#FEDCFF"/>
<path d="M30.84 28.8701L30.66 28.9801C30.6498 28.9874 30.6376 28.9913 30.625 28.9913C30.6124 28.9913 30.6002 28.9874 30.59 28.9801L29.5 27.8301C29.5 27.8301 29.5 27.8301 29.5 27.7601L29.76 27.6201C29.7953 27.6061 29.8347 27.6061 29.87 27.6201L31.87 28.2501L31.69 28.3601C31.5141 28.3275 31.3405 28.2841 31.17 28.2301L30.61 28.5501L30.84 28.8001C30.84 28.8001 30.87 28.8601 30.84 28.8701ZM29.89 27.8701L30.47 28.4701L30.93 28.2001L29.93 27.8701H29.89Z" fill="#FEDCFF"/>
<path d="M32.37 28.0001L32.21 28.0901C32.1967 28.0991 32.181 28.1039 32.165 28.1039C32.1489 28.1039 32.1332 28.0991 32.12 28.0901L30.59 27.2101C30.59 27.2101 30.59 27.2101 30.59 27.1601L31.2 26.8101C31.3207 26.7375 31.4591 26.6994 31.6 26.7001C31.7366 26.6977 31.8713 26.7323 31.99 26.8001L32.2 26.9301C32.4 27.0401 32.44 27.1501 32.32 27.2801L33.21 27.4601C33.21 27.4601 33.27 27.4601 33.21 27.5101L33.05 27.6001C33.0113 27.6146 32.9686 27.6146 32.93 27.6001L32.08 27.4301L31.82 27.5801C31.9914 27.7094 32.1719 27.8264 32.36 27.9301C32.36 27.9301 32.4 28.0001 32.37 28.0001ZM31.62 27.4801L31.95 27.2901C32.08 27.2201 32.08 27.1501 31.95 27.0801L31.74 26.9501C31.6834 26.9135 31.6174 26.894 31.55 26.894C31.4826 26.894 31.4166 26.9135 31.36 26.9501L31.03 27.1401C31.1997 27.2608 31.3767 27.371 31.56 27.4701H31.62V27.4801Z" fill="#FEDCFF"/>
<path d="M33.52 27.28L32 26.39C32 26.39 32 26.39 32 26.34L32.64 25.97C32.7578 25.8992 32.8925 25.8612 33.03 25.86C33.1712 25.8572 33.3101 25.8954 33.43 25.97L34.27 26.45C34.39 26.52 34.45 26.6 34.45 26.68C34.4376 26.7316 34.413 26.7794 34.3781 26.8195C34.3433 26.8595 34.2994 26.8906 34.25 26.91L33.62 27.27C33.6057 27.2803 33.5889 27.2867 33.5713 27.2885C33.5538 27.2902 33.5361 27.2873 33.52 27.28ZM33.63 27.02L33.99 26.81C34.12 26.73 34.12 26.66 33.99 26.59L33.18 26.12C33.1226 26.0856 33.0569 26.0675 32.99 26.0675C32.9231 26.0675 32.8574 26.0856 32.8 26.12L32.44 26.33L33.57 27.02C33.5809 27.0226 33.5922 27.0221 33.6028 27.0186C33.6134 27.015 33.6229 27.0086 33.63 27V27.02Z" fill="#FEDCFF"/>
<path opacity="0.6" d="M39.28 39.1501L39.15 39.0701L37.23 40.1701L37.37 40.2501L39.28 39.1501ZM40.12 39.1501L40.26 39.2301L42.17 38.1201L42 38.0001L40.12 39.1501ZM43.3 36.8401L44.43 36.1801L44.3 36.1001L43.16 36.7601L43.3 36.8401ZM42.19 38.0001L42.32 38.0801L43.16 37.5901L43 37.4601L42.19 38.0001ZM39.3 39.0001L39.44 39.0801L41.38 37.9601L41.24 37.8801L39.3 39.0001ZM43 36.8301L41.38 37.7701L41.52 37.8501L43.14 36.9101L43 36.8301ZM43 38.0801L42 38.7101L42.14 38.7901L43.22 38.1601L43 38.0801ZM43.29 38.0801L44.29 37.5101L44.15 37.4301L43.15 38.0001L43.29 38.0801ZM43.29 37.4501L44.54 36.7301L44.41 36.6501L43.15 37.3701L43.29 37.4501ZM41.79 38.7901L39.31 40.2301L39.45 40.3101L42 38.8701L41.79 38.7901ZM38.51 40.6901L36.33 42.0001L36.47 42.0801L38.68 40.8101L38.51 40.6901ZM37.33 40.6901L35.76 41.6001L35.9 41.6801L37.47 40.7701L37.33 40.6901ZM39.33 40.3601L39.2 40.2801L38.7 40.5601L38.84 40.6401L39.33 40.3601ZM37.23 40.3001L37.09 40.2201L35.25 41.2801L35.39 41.3601L37.23 40.3001ZM40.11 39.3001L40 39.2301L37.55 40.6401L37.68 40.7201L40.11 39.3001Z" fill="#791F94"/>
<path d="M34.56 41.6401C34.48 41.6401 34.48 41.7501 34.56 41.7901C34.6016 41.812 34.648 41.8235 34.695 41.8235C34.742 41.8235 34.7884 41.812 34.83 41.7901C34.9 41.7901 34.9 41.6701 34.83 41.6301C34.7876 41.6098 34.7408 41.6 34.6938 41.6018C34.6467 41.6035 34.6008 41.6167 34.56 41.6401ZM35.11 41.9601C35.03 41.9601 35.04 42.0701 35.11 42.1101C35.1507 42.1348 35.1974 42.1479 35.245 42.1479C35.2926 42.1479 35.3393 42.1348 35.38 42.1101C35.3953 42.1044 35.4085 42.0942 35.4178 42.0808C35.4272 42.0674 35.4322 42.0515 35.4322 42.0351C35.4322 42.0188 35.4272 42.0029 35.4178 41.9894C35.4085 41.976 35.3953 41.9658 35.38 41.9601C35.3357 41.9411 35.287 41.9348 35.2393 41.9418C35.1917 41.9489 35.1469 41.9691 35.11 42.0001V41.9601ZM35.66 42.2701C35.58 42.2701 35.59 42.3901 35.66 42.4301C35.7023 42.4498 35.7484 42.46 35.795 42.46C35.8416 42.46 35.8877 42.4498 35.93 42.4301C36.01 42.4301 36 42.3201 35.93 42.2801C35.8892 42.2567 35.8433 42.2435 35.7962 42.2418C35.7492 42.24 35.7024 42.2498 35.66 42.2701Z" fill="#791F94"/>
<path opacity="0.6" d="M51.97 32.46L53.92 31.33L53.78 31.25L51.83 32.38L51.97 32.46Z" fill="#791F94"/>
<path opacity="0.6" d="M50.13 34.16L49.99 34.08L51.93 32.95L52.07 33.0299L50.13 34.16Z" fill="#791F94"/>
<path opacity="0.6" d="M50.8101 32.97L51.6801 32.47L51.8201 32.55L50.9501 33.05L50.8101 32.97Z" fill="#791F94"/>
<path opacity="0.6" d="M49.72 33.76L49.58 33.68L50.66 33.05L50.8 33.1301L49.72 33.76Z" fill="#791F94"/>
<path opacity="0.6" d="M52.74 31.21L53.61 30.71L53.75 30.8L52.88 31.3L52.74 31.21Z" fill="#791F94"/>
<path opacity="0.6" d="M55.5401 30.23L55.6801 30.32L54.0701 31.24L53.9301 31.16L55.5401 30.23Z" fill="#791F94"/>
<path opacity="0.6" d="M47.2099 35.8402L47.0699 35.7602L49.8399 34.1602L49.9799 34.2402L47.2099 35.8402Z" fill="#791F94"/>
<path opacity="0.6" d="M48.88 33.4501L50.82 32.3301L50.96 32.4101L49.02 33.5301L48.88 33.4501Z" fill="#791F94"/>
<path opacity="0.6" d="M50.97 32.2401L52.59 31.3L52.73 31.38L51.11 32.32L50.97 32.2401Z" fill="#791F94"/>
<path opacity="0.6" d="M46.12 35.2L45.98 35.12L48.73 33.53L48.87 33.61L46.12 35.2Z" fill="#791F94"/>
<path opacity="0.6" d="M53.76 30.6302L54.99 29.9202L55.13 30.0002L53.9 30.7102L53.76 30.6302Z" fill="#791F94"/>
<path opacity="0.6" d="M49.57 33.84L46.65 35.53L46.51 35.45L49.43 33.77L49.57 33.84Z" fill="#791F94"/>
<path d="M45.25 35.46C45.18 35.46 45.18 35.58 45.25 35.62C45.2923 35.6396 45.3384 35.6498 45.385 35.6498C45.4316 35.6498 45.4777 35.6396 45.52 35.62C45.6 35.62 45.6 35.51 45.52 35.47C45.4792 35.4465 45.4333 35.4333 45.3862 35.4316C45.3392 35.4299 45.2924 35.4396 45.25 35.46V35.46Z" fill="#791F94"/>
<path d="M46.07 35.7801C46.15 35.7801 46.15 35.9001 46.07 35.9401C46.0277 35.9598 45.9816 35.97 45.935 35.97C45.8884 35.97 45.8423 35.9598 45.8 35.9401C45.72 35.9401 45.72 35.8201 45.8 35.7801C45.8423 35.7604 45.8884 35.7502 45.935 35.7502C45.9816 35.7502 46.0277 35.7604 46.07 35.7801V35.7801Z" fill="#791F94"/>
<path d="M46.62 36.0999C46.7 36.0999 46.7 36.2199 46.62 36.2599C46.5778 36.2796 46.5317 36.2898 46.485 36.2898C46.4384 36.2898 46.3923 36.2796 46.35 36.2599C46.27 36.2599 46.27 36.1399 46.35 36.0999C46.3923 36.0803 46.4384 36.0701 46.485 36.0701C46.5317 36.0701 46.5778 36.0803 46.62 36.0999V36.0999Z" fill="#791F94"/>
<path opacity="0.5" d="M45.25 56.13L39.1 52.58L69.07 35.28L75.22 38.83L45.25 56.13Z" fill="#455CBA"/>
<g opacity="0.5">
<path d="M78.25 48.2401C79.88 49.1801 79.88 50.7001 78.25 51.6401L68 57.6201C67.0964 58.0834 66.0955 58.3251 65.08 58.3251C64.0646 58.3251 63.0637 58.0834 62.16 57.6201L58.53 55.5301C56.91 54.5901 56.9 53.0801 58.53 52.1401L68.84 46.1401C69.7454 45.6767 70.7479 45.4351 71.765 45.4351C72.7821 45.4351 73.7846 45.6767 74.69 46.1401L78.25 48.2401Z" fill="#455CBA"/>
</g>
<path opacity="0.7" d="M79.47 43.4502L57.27 47.3302V48.0002C57.2966 48.3686 57.4246 48.7224 57.64 49.0225C57.8553 49.3225 58.1495 49.5571 58.49 49.7002L62.11 51.7902C63.0154 52.2536 64.0179 52.4952 65.035 52.4952C66.0521 52.4952 67.0546 52.2536 67.96 51.7902L78.26 45.7902C78.5934 45.6411 78.8812 45.406 79.0938 45.109C79.3064 44.812 79.4363 44.4639 79.47 44.1002V43.4502Z" fill="#CFE9FF"/>
<path d="M78.25 41.7501C79.88 42.6901 79.88 44.2001 78.25 45.1401L68 51.1301C67.0949 51.5887 66.0946 51.8277 65.08 51.8277C64.0654 51.8277 63.065 51.5887 62.16 51.1301L58.49 49.0001C56.87 48.0701 56.86 46.5501 58.49 45.6201L68.8 39.6201C69.7054 39.1567 70.7079 38.915 71.725 38.915C72.7421 38.915 73.7446 39.1567 74.65 39.6201L78.25 41.7501Z" fill="url(#paint2_linear_52_13589)"/>
<path d="M66.52 49.36L65.88 49.73C65.8337 49.7593 65.7799 49.7749 65.725 49.7749C65.6702 49.7749 65.6164 49.7593 65.57 49.73L61 47.11C60.9 47.05 60.9 46.99 61 46.93L61.64 46.56C61.6864 46.5306 61.7402 46.5151 61.795 46.5151C61.8499 46.5151 61.9037 46.5306 61.95 46.56L62.2 46.71C62.1703 46.6529 62.1547 46.5894 62.1547 46.525C62.1547 46.4606 62.1703 46.3971 62.2 46.34C62.2947 46.1877 62.4345 46.0688 62.6 46L62.91 45.82C63.2659 45.6055 63.6746 45.4946 64.09 45.5C64.5158 45.5165 64.9312 45.6366 65.3001 45.85L66.68 46.65C67.07 46.88 67.28 47.11 67.29 47.34C67.3 47.57 67.1101 47.81 66.7301 48.03L66.42 48.21C66.2526 48.3045 66.0698 48.3688 65.88 48.4C65.6826 48.445 65.4775 48.445 65.28 48.4L66.53 49.15C66.53 49.15 66.62 49.3 66.52 49.36ZM65.35 47.9L65.68 47.71C65.84 47.62 65.92 47.54 65.92 47.46C65.92 47.38 65.84 47.3 65.68 47.2L64.39 46.46C64.2575 46.3771 64.1062 46.3289 63.95 46.32C63.7937 46.3276 63.642 46.3758 63.51 46.46L63.18 46.65C62.83 46.85 62.85 47.06 63.18 47.28L64.18 47.87C64.3472 47.9972 64.5502 48.0686 64.7602 48.074C64.9702 48.0794 65.1766 48.0185 65.35 47.9ZM70 46.18L69.82 46.28C69.4493 46.5051 69.0238 46.6241 68.59 46.6241C68.1563 46.6241 67.7308 46.5051 67.36 46.28L66 45.49C65.61 45.27 65.41 45.03 65.42 44.78C65.43 44.53 65.62 44.3 66.02 44.08L67.75 43.08C67.7975 43.0486 67.8532 43.0318 67.9101 43.0318C67.967 43.0318 68.0226 43.0486 68.07 43.08L71.5801 45.08C71.6801 45.14 71.6801 45.2 71.5801 45.26L70.95 45.63C70.9037 45.6593 70.8499 45.6749 70.795 45.6749C70.7402 45.6749 70.6864 45.6593 70.64 45.63L70.39 45.48C70.4198 45.5353 70.4354 45.5972 70.4354 45.66C70.4354 45.7228 70.4198 45.7846 70.39 45.84C70.2921 45.9856 70.1576 46.1028 70 46.18ZM69.3701 44.93L67.85 44.05C67.825 44.0328 67.7954 44.0236 67.765 44.0236C67.7347 44.0236 67.7051 44.0328 67.68 44.05L66.97 44.45C66.81 44.55 66.7301 44.63 66.7301 44.71C66.7301 44.79 66.8201 44.87 66.9801 44.96L68.27 45.7C68.4015 45.7868 68.553 45.8385 68.71 45.85C68.863 45.8407 69.011 45.7925 69.14 45.71L69.42 45.55C69.76 45.36 69.74 45.15 69.36 44.93H69.3701ZM74.43 45.08L73.95 45.36C73.9018 45.3891 73.8464 45.4045 73.79 45.4045C73.7337 45.4045 73.6783 45.3891 73.63 45.36L73.13 45.07C73.02 45.01 73.02 44.95 73.13 44.89L73.28 44.8C73.6 44.62 73.77 44.47 73.79 44.35C73.79 44.24 73.7901 44.09 73.5501 43.91L73.1501 44.14C73.0951 44.1651 73.0354 44.1782 72.975 44.1782C72.9146 44.1782 72.855 44.1651 72.8001 44.14L68.6201 42.74C68.4901 42.74 68.4701 42.64 68.6201 42.58L69.28 42.2C69.3344 42.1727 69.3943 42.1585 69.4551 42.1585C69.5158 42.1585 69.5757 42.1727 69.63 42.2L73 43.41L70.9001 41.41C70.9001 41.41 70.8301 41.27 70.9001 41.21L71.53 40.85C71.5734 40.8133 71.6283 40.7932 71.685 40.7932C71.7418 40.7932 71.7967 40.8133 71.84 40.85L74.59 43.49C74.7175 43.5912 74.8219 43.7185 74.896 43.8634C74.9702 44.0083 75.0125 44.1674 75.02 44.33C75 44.61 74.81 44.86 74.42 45.08H74.43Z" fill="#F8F5F4"/>
<path opacity="0.7" d="M45.25 49.4802L39.1 45.9302V46.5802L45.25 50.1302L75.22 32.8202V32.1702L45.25 49.4802Z" fill="#CFE9FF"/>
<path d="M45.25 49.4801L39.1 45.9301L69.07 28.6301L75.22 32.1701L45.25 49.4801Z" fill="#F8F5F4"/>
<path d="M42.82 46.26L42.61 46.38C42.5318 46.4277 42.4416 46.4519 42.35 46.45C42.2579 46.4566 42.1663 46.4319 42.09 46.38L41.48 46C41.4 45.9467 41.36 45.8967 41.36 45.85C41.36 45.8033 41.4 45.7533 41.48 45.7L41.69 45.58C41.769 45.5344 41.8587 45.5103 41.95 45.5103C42.0413 45.5103 42.1309 45.5344 42.21 45.58L42.82 45.93C42.9 45.9767 42.94 46.0267 42.94 46.08C42.94 46.1333 42.9 46.1933 42.82 46.26ZM42.51 46.31L42.69 46.21C42.79 46.15 42.79 46.09 42.69 46.03L42.09 45.69C42.0447 45.6626 41.9929 45.6482 41.94 45.6482C41.8871 45.6482 41.8352 45.6626 41.79 45.69L41.61 45.8C41.51 45.85 41.51 45.91 41.61 45.97L42.21 46.32C42.2554 46.3482 42.3081 46.3623 42.3615 46.3605C42.4149 46.3587 42.4666 46.3412 42.51 46.31V46.31ZM43.43 45.91L43.35 45.96H43.3L42.45 45.47L42.53 45.4H42.6C42.5929 45.386 42.5893 45.3706 42.5893 45.355C42.5893 45.3394 42.5929 45.3239 42.6 45.31C42.6 45.31 42.6 45.26 42.68 45.23H42.75C42.7862 45.2218 42.8238 45.2218 42.86 45.23L42.77 45.31C42.77 45.31 42.69 45.37 42.7 45.41C42.7044 45.4318 42.714 45.4523 42.7279 45.4697C42.7418 45.4871 42.7597 45.5009 42.78 45.51L43.37 45.84L43.43 45.91ZM44.23 45.45L44.13 45.51C44.0499 45.553 43.9609 45.577 43.87 45.58C43.7776 45.5779 43.6876 45.5502 43.61 45.5L43.24 45.29C43.15 45.29 43.11 45.19 43.11 45.14C43.11 45.09 43.11 45.04 43.23 44.99L43.33 44.93C43.4203 44.8963 43.5197 44.8963 43.61 44.93L43.21 44.69L43.29 44.62L44.52 45.3L44.44 45.38H44.37C44.35 45.34 44.32 45.4 44.23 45.45V45.45ZM44.14 45.18L43.8 45C43.7442 44.986 43.6858 44.986 43.63 45C43.5775 44.9864 43.5225 44.9864 43.47 45L43.36 45.06C43.27 45.12 43.27 45.18 43.36 45.24L43.73 45.45C43.7729 45.4788 43.8233 45.4942 43.875 45.4942C43.9266 45.4942 43.9771 45.4788 44.02 45.45L44.13 45.39C44.13 45.39 44.21 45.33 44.21 45.3C44.21 45.27 44.2 45.21 44.14 45.18V45.18ZM45.4 44.77L45 45C44.9209 45.0456 44.8313 45.0697 44.74 45.0697C44.6487 45.0697 44.559 45.0456 44.48 45L44.1 44.78C44.02 44.7267 43.98 44.6767 43.98 44.63C43.98 44.63 43.98 44.53 44.1 44.48L44.25 44.39C44.329 44.3443 44.4187 44.3203 44.51 44.3203C44.6013 44.3203 44.6909 44.3443 44.77 44.39L44.99 44.52C44.8337 44.6371 44.67 44.7439 44.5 44.84L44.6 44.92C44.6444 44.9497 44.6966 44.9655 44.75 44.9655C44.8034 44.9655 44.8556 44.9497 44.9 44.92L45.26 44.72H45.31H45.37C45.37 44.72 45.42 44.76 45.4 44.77V44.77ZM44.4 44.77L44.78 44.55L44.65 44.45C44.6056 44.4203 44.5534 44.4045 44.5 44.4045C44.4466 44.4045 44.3944 44.4203 44.35 44.45L44.23 44.52C44.13 44.52 44.13 44.63 44.23 44.69L44.37 44.77H44.4ZM45.73 44.56H45.65L44.8 44.07L44.88 44H44.95C44.9662 43.9946 44.9837 43.9946 45 44C45.0152 43.9639 45.0439 43.9352 45.08 43.92H45.15H45.22L45.12 44.01C45.12 44.01 45.04 44.07 45.05 44.1C45.06 44.13 45.05 44.17 45.13 44.2L45.72 44.54L45.76 44.57L45.73 44.56ZM45.89 43.56L45.79 43.62H45.73L45.82 43.53L45.67 43.43L45.75 43.35C45.8206 43.3703 45.888 43.4006 45.95 43.44C46.0271 43.4115 46.1009 43.3746 46.17 43.33H46.22H46.29L46.1 43.46C46.2597 43.5772 46.4267 43.6841 46.6 43.78C46.6464 43.8093 46.7001 43.8249 46.755 43.8249C46.8099 43.8249 46.8636 43.8093 46.91 43.78H46.98H47.04L46.95 43.86C46.8722 43.9087 46.7817 43.9331 46.69 43.93C46.5984 43.9319 46.5082 43.9077 46.43 43.86L46 43.57L45.89 43.56ZM47.65 43.45L47.49 43.54C47.4103 43.5841 47.3211 43.6081 47.23 43.61C47.1393 43.6057 47.0506 43.5818 46.97 43.54L46.6 43.32C46.51 43.32 46.47 43.22 46.47 43.17C46.4803 43.1374 46.4971 43.1073 46.5195 43.0815C46.5418 43.0557 46.5692 43.0348 46.6 43.02L46.75 42.93C46.8301 42.8869 46.9191 42.863 47.01 42.86C47.1016 42.858 47.1918 42.8823 47.27 42.93L47.65 43.15C47.73 43.2033 47.77 43.2533 47.77 43.3C47.77 43.3 47.76 43.41 47.68 43.46L47.65 43.45ZM47.4 43.45L47.52 43.38C47.62 43.38 47.62 43.27 47.52 43.21L47.18 43C47.1347 42.9726 47.0829 42.9582 47.03 42.9582C46.9771 42.9582 46.9252 42.9726 46.88 43L46.75 43.08C46.66 43.08 46.66 43.19 46.75 43.25L47.12 43.46C47.1644 43.4933 47.2179 43.5122 47.2734 43.5139C47.3289 43.5157 47.3835 43.5004 47.43 43.47L47.4 43.45ZM47.4 42.69H47.3H47.23L47.33 42.6L47.18 42.5L47.26 42.42L47.42 42.51C47.4962 42.4794 47.5698 42.4426 47.64 42.4H47.69H47.75L47.56 42.53L48.07 42.85C48.1152 42.8773 48.1671 42.8918 48.22 42.8918C48.2729 42.8918 48.3247 42.8773 48.37 42.85H48.44H48.51L48.42 42.93C48.3399 42.9731 48.2509 42.997 48.16 43C48.107 43.0082 48.053 43.0082 48 43L47.49 42.71L47.4 42.69ZM49.1 42.61H49.01C48.9334 42.6624 48.8428 42.6905 48.75 42.6905C48.6572 42.6905 48.5665 42.6624 48.49 42.61L48.11 42.4C48.0367 42.4 48 42.3733 48 42.32C48 42.2667 48.04 42.2167 48.12 42.17L48.5 42L49.35 42.49L49.27 42.56H49.2C49.23 42.53 49.2 42.58 49.11 42.63L49.1 42.61ZM49 42.37L48.51 42.08C48.4128 42.1185 48.3191 42.1654 48.23 42.22C48.13 42.28 48.13 42.34 48.23 42.4L48.6 42.61C48.6444 42.6397 48.6966 42.6555 48.75 42.6555C48.8034 42.6555 48.8556 42.6397 48.9 42.61L49 42.55C49 42.55 49.08 42.49 49.08 42.46C49.08 42.43 49.07 42.4 49 42.37ZM49.76 42.25H49.68H49.63L48.44 41.57L48.52 41.49H48.57L49.76 42.18C49.76 42.18 49.8 42.24 49.78 42.25H49.76Z" fill="#CFCAD4"/>
<path d="M45.87 47.7601L45.7 47.8601C45.6814 47.8697 45.6609 47.8747 45.64 47.8747C45.6191 47.8747 45.5985 47.8697 45.58 47.8601L45.36 47.7301C45.2162 47.8206 45.0499 47.8691 44.88 47.8701C44.715 47.8662 44.5535 47.8215 44.41 47.7401C44.41 47.7401 44.41 47.6901 44.41 47.6701L44.65 47.5301C44.6685 47.5204 44.6891 47.5154 44.71 47.5154C44.7309 47.5154 44.7514 47.5204 44.77 47.5301C44.8332 47.5701 44.9053 47.5942 44.98 47.6001C45.052 47.5967 45.1215 47.5724 45.18 47.5301L45.29 47.4701C45.37 47.4701 45.4 47.3901 45.4 47.3501C45.4 47.3101 45.4 47.2801 45.29 47.2401C45.2332 47.1947 45.1626 47.17 45.09 47.1701C45.0404 47.1606 44.9895 47.1606 44.94 47.1701L44.71 47.2701L44.45 47.3801H44.23C44.0325 47.4028 43.8335 47.3531 43.67 47.2401L43.56 47.1801C43.41 47.1001 43.34 47.0101 43.34 46.9101C43.34 46.8101 43.41 46.7301 43.56 46.6501C43.71 46.5701 43.35 46.5101 43.35 46.5101C43.35 46.5101 43.35 46.5101 43.35 46.4401L43.52 46.3401C43.5385 46.3304 43.5591 46.3254 43.58 46.3254C43.6009 46.3254 43.6214 46.3304 43.64 46.3401L43.87 46.4701C44.0067 46.3908 44.162 46.3494 44.32 46.3501C44.481 46.3591 44.638 46.4035 44.78 46.4801H44.83C44.83 46.4801 44.83 46.5301 44.83 46.5501L44.59 46.6901C44.5735 46.7048 44.5521 46.713 44.53 46.713C44.5078 46.713 44.4865 46.7048 44.47 46.6901C44.4067 46.65 44.3346 46.6259 44.26 46.6201C44.1882 46.625 44.1191 46.6492 44.06 46.6901L43.97 46.7401C43.89 46.7401 43.86 46.8201 43.86 46.8601C43.86 46.9001 43.86 46.9301 43.99 46.9801H44.04C44.0889 46.9948 44.1411 46.9948 44.19 46.9801H44.33L44.57 46.8701L44.83 46.7601H45.05C45.239 46.748 45.4272 46.7933 45.59 46.8901L45.7 46.9601C45.85 47.0401 45.92 47.1301 45.92 47.2301C45.92 47.3301 45.85 47.4101 45.7 47.4901L45.92 47.6201C45.92 47.6201 45.91 47.7401 45.87 47.7601ZM46.32 47.1101L46.05 47.0001C46.0037 46.9808 45.9649 46.9469 45.9396 46.9036C45.9144 46.8603 45.9039 46.8099 45.91 46.7601L45.99 46.2001C46.0003 46.1603 45.9959 46.1181 45.9775 46.0813C45.9591 46.0445 45.928 46.0157 45.89 46.0001L45.81 45.9501C45.7545 45.9337 45.6954 45.9337 45.64 45.9501C45.5787 45.9534 45.5197 45.9742 45.47 46.0101L45.37 46.0601C45.31 46.0601 45.28 46.1301 45.28 46.1601C45.28 46.1901 45.28 46.2201 45.37 46.2501L45.46 46.3101C45.46 46.3101 45.46 46.3101 45.46 46.3801L45.22 46.5201C45.2021 46.5317 45.1813 46.5379 45.16 46.5379C45.1387 46.5379 45.1178 46.5317 45.1 46.5201H45C44.85 46.4301 44.78 46.3401 44.78 46.2501C44.78 46.1601 44.86 46.0701 45.01 45.9801L45.22 45.8601C45.3617 45.7743 45.5243 45.7293 45.69 45.7301C45.8517 45.7243 46.0116 45.7661 46.15 45.8501L46.27 45.9201C46.3322 45.9423 46.385 45.9852 46.4196 46.0416C46.4541 46.098 46.4684 46.1645 46.46 46.2301L46.39 46.8001C46.39 46.8001 46.39 46.8001 46.39 46.8601L47.08 46.4601C47.0967 46.4504 47.1157 46.4453 47.135 46.4453C47.1543 46.4453 47.1732 46.4504 47.19 46.4601L47.39 46.5801C47.39 46.5801 47.39 46.5801 47.39 46.6501L46.39 47.2401C46.3665 47.228 46.3472 47.2092 46.3347 47.186C46.3222 47.1627 46.3171 47.1363 46.32 47.1101V47.1101ZM48.55 45.8901L48.27 46.0501C48.1282 46.1358 47.9656 46.1808 47.8 46.1801C47.6375 46.1805 47.4782 46.1355 47.34 46.0501L46.43 45.5301C46.28 45.4501 46.21 45.3601 46.21 45.2601C46.21 45.1601 46.29 45.0801 46.44 44.9901L46.72 44.8301C46.8635 44.7486 47.025 44.7039 47.19 44.7001C47.3527 44.6979 47.5125 44.7431 47.65 44.8301L48.56 45.3501C48.7 45.4401 48.78 45.5201 48.78 45.6201C48.78 45.7201 48.7 45.8001 48.55 45.8901ZM48.02 45.8901L48.18 45.7901C48.24 45.7901 48.27 45.7201 48.27 45.6901C48.27 45.6601 48.27 45.6301 48.18 45.6001L47.31 45.1001C47.2639 45.0644 47.2081 45.0435 47.15 45.0401C47.103 45.0173 47.0521 45.0037 47 45.0001L46.83 45.1001C46.77 45.1001 46.74 45.1701 46.74 45.2001C46.74 45.2301 46.74 45.2601 46.84 45.2901L47.7 45.7901C47.7497 45.8259 47.8087 45.8468 47.87 45.8501C47.9136 45.8537 47.9574 45.8503 48 45.8401L48.02 45.8901ZM50.08 45.0001L49.79 45.1601C49.6518 45.2455 49.4924 45.2905 49.33 45.2901C49.1643 45.2908 49.0017 45.2458 48.86 45.1601L47.96 44.6401C47.81 44.5601 47.74 44.4701 47.74 44.3701C47.74 44.2701 47.81 44.1901 47.96 44.1001L48.25 43.9401C48.3882 43.8546 48.5475 43.8096 48.71 43.8101C48.8757 43.8083 49.0387 43.8533 49.18 43.9401L50.08 44.4601C50.23 44.5401 50.3 44.6301 50.3 44.7301C50.3 44.8301 50.23 44.9201 50.08 45.0001ZM49.54 45.0001L49.71 44.9001C49.77 44.9001 49.8 44.8301 49.8 44.8001C49.8 44.7701 49.8 44.7401 49.71 44.7101L48.84 44.2101C48.7902 44.1742 48.7312 44.1534 48.67 44.1501C48.6173 44.1384 48.5627 44.1384 48.51 44.1501L48.34 44.2501C48.28 44.2501 48.25 44.3201 48.25 44.3501C48.25 44.3801 48.25 44.4101 48.34 44.4401L49.21 44.9401C49.2561 44.9757 49.3118 44.9966 49.37 45.0001C49.4259 45.0133 49.4841 45.0133 49.54 45.0001V45.0001ZM50.76 44.1801L51.11 44.3801C51.11 44.3801 51.11 44.3801 51.11 44.4501L50.85 44.5901C50.8332 44.5997 50.8143 44.6048 50.795 44.6048C50.7757 44.6048 50.7567 44.5997 50.74 44.5901L50.39 44.3901C50.39 44.3901 50.39 44.3901 50.39 44.3301L50.64 44.1801C50.6534 44.1619 50.6722 44.1482 50.6936 44.1411C50.7151 44.1339 50.7383 44.1336 50.76 44.1401V44.1801ZM52.19 43.8301L51.9 44.0001C51.7595 44.0898 51.5967 44.1383 51.43 44.1401C51.2778 44.1268 51.1307 44.0789 51 44.0001L50.09 43.4801C49.95 43.3901 49.87 43.3001 49.87 43.2101C49.87 43.1201 49.95 43.0201 50.1 42.9401L50.39 42.7701C50.5303 42.6909 50.6888 42.6495 50.85 42.6501C51.0147 42.6458 51.1774 42.6873 51.32 42.7701L52.22 43.2901C52.37 43.3801 52.44 43.4701 52.44 43.5601C52.44 43.6501 52.33 43.7101 52.19 43.7901V43.8301ZM51.65 43.8301L51.82 43.7301C51.88 43.7301 51.91 43.6701 51.9 43.6401C51.89 43.6101 51.9 43.5801 51.81 43.5401L50.94 43.0401C50.8933 43.0068 50.8373 42.9893 50.78 42.9901C50.7196 42.9892 50.6603 43.0067 50.61 43.0401L50.44 43.1301C50.38 43.1301 50.35 43.2001 50.35 43.2301C50.35 43.2601 50.35 43.2901 50.45 43.3301L51.31 43.8301C51.3661 43.8409 51.4238 43.8409 51.48 43.8301C51.543 43.814 51.6012 43.7831 51.65 43.7401V43.8301ZM53.71 43.0001L53.43 43.1601C53.2873 43.245 53.1258 43.2931 52.96 43.3001C52.795 43.2962 52.6335 43.2515 52.49 43.1701L51.59 42.6501C51.44 42.5601 51.37 42.4701 51.37 42.3801C51.37 42.2901 51.45 42.1901 51.6 42.1101L51.88 41.9401C52.0249 41.8621 52.1855 41.8177 52.35 41.8101C52.5116 41.8156 52.6694 41.8602 52.81 41.9401L53.71 42.4601C53.86 42.5501 53.93 42.6401 53.93 42.7301C53.93 42.8201 53.86 42.8201 53.71 42.9101V43.0001ZM53.17 43.0001L53.34 42.9001C53.4 42.9001 53.43 42.8301 53.43 42.8101C53.43 42.7901 53.43 42.7401 53.34 42.7101L52.47 42.2101C52.4145 42.1937 52.3554 42.1937 52.3 42.2101C52.2485 42.19 52.1914 42.19 52.14 42.2101L51.97 42.3001C51.91 42.3001 51.88 42.3701 51.88 42.4001C51.88 42.4301 51.88 42.4601 51.97 42.5001L52.84 43.0001C52.896 43.0119 52.9539 43.0119 53.01 43.0001C53.0758 42.97 53.1315 42.9214 53.17 42.8601V43.0001Z" fill="#788EFF"/>
<path d="M65.46 34.0701C65.92 34.3301 65.92 34.7501 65.46 35.0101C65.2074 35.1383 64.9282 35.2052 64.645 35.2052C64.3617 35.2052 64.0825 35.1383 63.83 35.0101C63.37 34.7501 63.37 34.3301 63.83 34.0701C64.0825 33.9418 64.3617 33.875 64.645 33.875C64.9282 33.875 65.2074 33.9418 65.46 34.0701V34.0701Z" fill="#CFCAD4"/>
<path d="M65.1301 34.1301L64.6401 34.4001L64.1601 34.1301L63.9301 34.2601L64.4101 34.5401L63.9301 34.8201L64.1601 34.9601L64.6401 34.6801L65.1301 34.9601L65.3601 34.8201L64.8801 34.5401L65.3601 34.2601L65.1301 34.1301Z" fill="#F8F5F4"/>
<path d="M66.71 33.9402L65.58 33.2902C65.7133 33.1842 65.8536 33.0873 66 33.0002C66.0817 32.9509 66.1746 32.9234 66.27 32.9202C66.3686 32.9221 66.4651 32.9497 66.55 33.0002L67.19 33.3702C67.27 33.3702 67.32 33.4702 67.32 33.5202C67.32 33.5702 67.32 33.6302 67.19 33.6802L66.73 33.9402H66.71ZM66.77 33.8002L67.08 33.6202C67.1933 33.5602 67.1933 33.5002 67.08 33.4402L66.45 33.0802C66.4025 33.0488 66.3469 33.032 66.29 33.032C66.2331 33.032 66.1774 33.0488 66.13 33.0802L65.82 33.2602L66.74 33.8102L66.77 33.8002Z" fill="#CFCAD4"/>
<path d="M68.3901 33L68.0001 33.23C67.9173 33.2755 67.8245 33.2994 67.7301 33.2994C67.6356 33.2994 67.5428 33.2755 67.4601 33.23L67.0601 33C66.9701 33 66.9301 32.9 66.9301 32.84C66.9301 32.78 66.9301 32.73 67.0601 32.69L67.2201 32.6C67.3005 32.548 67.3942 32.5203 67.4901 32.52C67.5854 32.5233 67.6783 32.5508 67.7601 32.6L67.9901 32.73C67.8252 32.8528 67.6514 32.9631 67.4701 33.06C67.4701 33.06 67.5801 33.15 67.5801 33.15C67.6284 33.1791 67.6837 33.1945 67.7401 33.1945C67.7964 33.1945 67.8518 33.1791 67.9001 33.15L68.2801 32.94H68.3501C68.3501 32.94 68.4101 33 68.3901 33ZM67.3901 33L67.7801 32.77L67.6401 32.66C67.5937 32.6307 67.5399 32.6151 67.4851 32.6151C67.4302 32.6151 67.3764 32.6307 67.3301 32.66L67.2001 32.73C67.1001 32.79 67.1001 32.86 67.2001 32.92L67.34 33C67.34 33 67.3601 33 67.3801 33H67.3901Z" fill="#CFCAD4"/>
<path d="M67.87 32.3601H67.77H67.7L67.8 32.2701L67.64 32.1601L67.73 32.0801L67.88 32.1701C67.9633 32.1411 68.0437 32.1043 68.12 32.0601C68.12 32.0601 68.12 32.0601 68.12 32.0601H68.19C68.129 32.1172 68.0619 32.1675 67.99 32.2101L68.52 32.5301C68.5675 32.5614 68.6231 32.5782 68.68 32.5782C68.7369 32.5782 68.7926 32.5614 68.84 32.5301H68.91H69H69.07L68.98 32.6101C68.8934 32.6563 68.798 32.6836 68.7 32.6901C68.6044 32.6882 68.5112 32.6606 68.43 32.6101L67.89 32.3001L67.87 32.3601Z" fill="#CFCAD4"/>
<path d="M69.65 32.28H69.56C69.4752 32.3305 69.3787 32.358 69.28 32.36C69.1845 32.3582 69.0912 32.3305 69.01 32.28L68.61 32.05C68.53 32 68.48 31.95 68.49 31.9C68.5 31.85 68.49 31.79 68.61 31.74L69.01 31.51H69.07L69.96 32.02L69.87 32.1H69.82H69.75C69.78 32.17 69.75 32.22 69.65 32.28ZM69.56 32L69 31.7C68.9003 31.7438 68.8034 31.7939 68.71 31.85C68.6 31.91 68.61 31.97 68.71 32.03L69.1 32.25C69.1472 32.2772 69.2006 32.2915 69.255 32.2915C69.3095 32.2915 69.3629 32.2772 69.41 32.25L69.52 32.18C69.52 32.18 69.6 32.12 69.6 32.09C69.6 32.06 69.61 32 69.56 32Z" fill="#CFCAD4"/>
<path d="M69.15 31.3001L69 31.2001L69.08 31.1201L69.25 31.2201L69.17 31.3001H69.15ZM70.22 31.9201L69.33 31.4001L69.41 31.3301H69.47L70.36 31.8401L70.27 31.9201H70.22Z" fill="#CFCAD4"/>
<path d="M70.76 31.6302L70.68 31.6802H70.63L69.38 31.0002L69.46 30.9302H69.52L70.76 31.6602C70.76 31.6602 70.78 31.6202 70.76 31.6302Z" fill="#CFCAD4"/>
<path d="M71.37 31.2801L71.04 31.4701H70.99H70.93C71.0261 31.3899 71.1299 31.3196 71.24 31.2601C71.34 31.2001 71.35 31.1501 71.24 31.1101C71.2097 31.0762 71.1728 31.0489 71.1315 31.03C71.0902 31.0111 71.0454 31.0009 71 31.0001L70.69 31.0701H70.47C70.4066 31.0622 70.3454 31.0418 70.29 31.0101C70.13 30.9201 70.14 30.8301 70.29 30.7301L70.59 30.5601H70.66C70.5739 30.6335 70.48 30.6972 70.38 30.7501C70.3452 30.762 70.3164 30.7871 70.3 30.8201C70.2931 30.8395 70.2931 30.8606 70.3 30.8801C70.3406 30.8996 70.385 30.9097 70.43 30.9097C70.475 30.9097 70.5194 30.8996 70.56 30.8801L70.87 30.8101C70.946 30.7964 71.0239 30.7964 71.1 30.8101L71.31 30.8901C71.56 31.0901 71.55 31.1801 71.37 31.2801Z" fill="#CFCAD4"/>
<path d="M34.3101 19.9201L13.4601 31.9601L12.0601 31.1601L32.9101 19.1101L34.3101 19.9201Z" fill="#91338C"/>
<path d="M22.47 1.75006C21.8329 1.37735 21.1635 1.06275 20.47 0.810059C20.47 0.870059 20.55 0.960059 20.59 1.03006C20.15 1.03006 19.92 1.03006 19.5 1.03006L19.74 1.50006C19.3 1.50006 19.07 1.50006 18.65 1.50006L18.89 1.97006L17.76 2.00006L18 2.48006C17.58 2.48006 17.38 2.48006 16.92 2.48006L17.16 2.96006H16.07L16.32 3.44006H15.23L15.47 3.92006C15 4.00006 14.8 4.00006 14.38 4.00006L14.62 4.47006C14.19 4.47006 13.95 4.47006 13.53 4.47006L13.78 4.94006C13.34 4.94006 13.11 4.94006 12.69 4.94006L12.93 5.42006C12.49 5.42006 12.26 5.42006 11.84 5.42006L12.09 5.90006C11.65 5.90006 11.42 5.90006 11 5.90006L11.24 6.38006H10.15L10.39 6.86006C9.96 6.86006 9.72 6.86006 9.3 6.86006C9.39 7.01006 9.47 7.17006 9.55 7.33006C9.11 7.33006 8.88 7.33006 8.46 7.33006L8.7 7.80006H7.61L7.86 8.28006C7.42 8.28006 7.19 8.28006 6.77 8.28006L7 8.90006C6.57 8.90006 6.33 8.90006 5.91 8.90006L6.15 9.38006H5.07C5.16 9.54006 5.24 9.70006 5.32 9.86006C4.88 9.86006 4.65 9.86006 4.23 9.86006L4.47 10.3301C4.05 10.3301 3.84 10.3301 3.39 10.3301C3.46 10.4901 3.55 10.6401 3.63 10.8001C3.19 10.8001 2.96 10.8001 2.54 10.8001L2.78 11.2701C2.35 11.2701 2.11 11.2701 1.69 11.2701L1.93 11.7501C1.5 11.7501 1.26 11.7501 0.84 11.7501C0.93 11.9101 1.01 12.0701 1.09 12.2301H0L0.16 12.5501C0.851894 12.7946 1.5211 13.0991 2.16 13.4601C7.81 16.7301 12.39 24.6501 12.37 31.1401L13.54 31.8301L32.68 20.8701V19.4301C32.69 12.9401 28.12 5.00006 22.47 1.75006Z" fill="#F8F5F4"/>
<path d="M8.11997 14.3101L7.71997 14.5401C8.16997 15.0001 8.71997 15.6101 9.17997 16.0901L9.57997 15.8501C9.14997 15.3801 8.57997 14.7601 8.11997 14.3101V14.3101Z" fill="#968EA0"/>
<path d="M8.91001 13.8501L8.51001 14.0801C8.96001 14.5401 9.51001 15.1501 9.97001 15.6301L10.37 15.3901C9.94001 14.9201 9.37001 14.3001 8.91001 13.8501V13.8501Z" fill="#968EA0"/>
<path d="M9.35001 13.6001L9.26001 13.6501C9.71001 14.1001 10.26 14.7201 10.72 15.1901H10.81C10.39 14.7101 9.81001 14.1001 9.35001 13.6501V13.6001Z" fill="#968EA0"/>
<path d="M9.75002 13.3601L9.65002 13.4201C10.1 13.8701 10.65 14.4901 11.12 14.9601L11.21 14.9101C10.79 14.4301 10.21 13.8201 9.75002 13.3601Z" fill="#968EA0"/>
<path d="M10.4699 12.9399L10.0699 13.1799C10.5199 13.6299 11.0699 14.2399 11.5399 14.7199L11.9399 14.4799C11.5099 14.0099 10.9399 13.3899 10.4699 12.9399V12.9399Z" fill="#968EA0"/>
<path d="M11.27 12.48L10.87 12.72C11.32 13.17 11.87 13.78 12.33 14.26L12.73 14.02C12.3 13.55 11.73 12.93 11.27 12.48Z" fill="#968EA0"/>
<path d="M12.06 12L11.66 12.23C12.11 12.69 12.66 13.3 13.12 13.78L13.52 13.54C13.09 13.07 12.52 12.45 12.06 12V12Z" fill="#968EA0"/>
<path d="M12.52 11.75L12.37 11.84C12.82 12.29 13.37 12.91 13.84 13.38L13.99 13.29C13.56 12.82 12.99 12.2 12.52 11.75Z" fill="#968EA0"/>
<path d="M13.48 11.1899L12.91 11.5299C13.36 11.9799 13.91 12.5899 14.38 13.0699L14.95 12.7399C14.52 12.2599 13.95 11.6499 13.48 11.1899Z" fill="#968EA0"/>
<path d="M14.25 10.75L13.89 10.96C14.34 11.41 14.89 12.02 15.36 12.5L15.72 12.29C15.29 11.82 14.72 11.2 14.25 10.75Z" fill="#968EA0"/>
<path d="M14.74 10.46L14.64 10.52C15.09 10.97 15.64 11.59 16.11 12.06L16.2 12C15.78 11.53 15.2 10.91 14.74 10.46V10.46Z" fill="#968EA0"/>
<path d="M15.53 10L15.12 10.23C15.57 10.68 16.12 11.3 16.59 11.77L16.99 11.54C16.56 11.07 15.99 10.45 15.53 10V10Z" fill="#968EA0"/>
<path d="M16.32 9.55005L15.92 9.78005C16.37 10.23 16.92 10.85 17.38 11.32L17.78 11.09C17.36 10.61 16.78 10 16.32 9.55005V9.55005Z" fill="#968EA0"/>
<path d="M16.76 9.29004L16.66 9.35004C17.11 9.80004 17.66 10.41 18.13 10.89L18.22 10.83C17.8 10.36 17.22 9.74004 16.76 9.29004V9.29004Z" fill="#968EA0"/>
<path d="M17.1501 9.06006L17.0601 9.12006C17.5101 9.57006 18.0601 10.1801 18.5201 10.6601L18.6201 10.6001C18.1901 10.1301 17.6201 9.51006 17.1501 9.06006V9.06006Z" fill="#968EA0"/>
<path d="M17.88 8.64014L17.48 8.87014C17.93 9.32014 18.48 9.94014 18.94 10.4101L19.35 10.1801C18.92 9.71014 18.35 9.09014 17.88 8.64014V8.64014Z" fill="#968EA0"/>
<path d="M18.67 8.18018L18.27 8.41018C18.72 8.86018 19.27 9.48018 19.74 9.95018L20.14 9.72018C19.71 9.25018 19.14 8.63018 18.67 8.18018Z" fill="#968EA0"/>
<path d="M19.4701 7.71997L19.0601 7.99997C19.5201 8.44997 20.0601 9.06997 20.5301 9.53997L20.9301 9.30997C20.5001 8.82997 19.9301 8.21997 19.4701 7.76997V7.71997Z" fill="#968EA0"/>
<path d="M19.93 7.44995L19.78 7.53995C20.23 7.98995 20.78 8.59995 21.24 9.07995L21.39 8.99995C20.97 8.52995 20.39 7.90995 19.93 7.45995V7.44995Z" fill="#968EA0"/>
<path d="M20.8899 6.89014L20.3199 7.22014C20.7699 7.67014 21.3199 8.29014 21.7799 8.76014L22.3499 8.43014C21.9199 7.96014 21.3499 7.34014 20.8899 6.89014Z" fill="#968EA0"/>
<path d="M22.3101 6.07007L21.3101 6.65007C21.7601 7.10007 22.3101 7.72007 22.7801 8.19007L23.7801 7.61007C23.3501 7.13007 22.7801 6.52007 22.3201 6.07007H22.3101Z" fill="#968EA0"/>
<path d="M22.7999 5.78003L22.7 5.84003C23.15 6.29003 23.7 6.91003 24.16 7.38003L24.26 7.32003C23.83 6.85003 23.2599 6.23003 22.7999 5.78003Z" fill="#968EA0"/>
<path d="M27.78 7.70996L27.86 7.81996L8.43999 19.11L8.35999 19L27.78 7.70996Z" fill="#968EA0"/>
<path d="M30.88 13.55V13.68L11.5 25L11.45 24.87L30.88 13.55Z" fill="#968EA0"/>
<path d="M6.31 11.9001H6.39C6.46642 11.9411 6.52904 12.0037 6.57 12.0801C6.57 12.0801 6.57 12.0101 6.57 11.9501C6.57 11.8901 6.57 11.8701 6.71 11.8601L6.85 11.9101V11.9601C6.77684 12.0536 6.67492 12.1204 6.56 12.1501C6.65948 12.1357 6.76051 12.1357 6.86 12.1501C6.98 12.1501 6.98 12.1501 7.04 12.2001V12.3001H7C6.85716 12.2871 6.71975 12.239 6.6 12.1601C6.50747 12.2521 6.39434 12.3206 6.27 12.3601H6.19L6.12 12.2701V12.2201C6.26222 12.1949 6.40777 12.1949 6.55 12.2201H6.4H6.38L6.21 12.0001V11.9401L6.32 11.8701L6.31 11.9001Z" fill="#968EA0"/>
<path d="M6.61001 12.1602C6.52001 12.3702 6.52001 12.3702 6.53001 12.4402H6.60001H6.76001C6.72805 12.329 6.65703 12.2331 6.56001 12.1702L6.61001 12.1602Z" fill="#968EA0"/>
<path d="M7.99996 11.3501C8.05078 11.3805 8.09477 11.421 8.12919 11.4692C8.1636 11.5174 8.1877 11.5722 8.19996 11.6301H7.99996H7.92996C7.91786 11.6016 7.91162 11.571 7.91162 11.5401C7.91162 11.5092 7.91786 11.4786 7.92996 11.4501L7.99996 11.3501Z" fill="#968EA0"/>
<path d="M7.70001 11.1001H7.78001C7.85518 11.1394 7.91503 11.2028 7.95001 11.2801C7.95001 11.2801 7.95001 11.2101 8.01001 11.1401C8.07001 11.0701 8.01001 11.0701 8.15001 11.0601H8.28001V11.1101C8.19924 11.1996 8.09549 11.2653 7.98001 11.3001C8.34001 11.2101 8.43001 11.3001 8.46001 11.3001V11.4001H8.39001C8.24532 11.3883 8.10679 11.3363 7.99001 11.2501C7.90455 11.3507 7.78875 11.4209 7.66001 11.4501H7.58001L7.51001 11.3601C7.65564 11.3354 7.80438 11.3354 7.95001 11.3601H7.79001H7.73001H7.62001C7.61305 11.3372 7.61305 11.3129 7.62001 11.2901L7.74001 11.2301L7.70001 11.1001Z" fill="#968EA0"/>
<path d="M9.37005 10.55C9.47215 10.6097 9.54736 10.7064 9.58005 10.82H9.52005H9.37005H9.30005C9.30005 10.76 9.30005 10.75 9.30005 10.65L9.37005 10.55Z" fill="#968EA0"/>
<path d="M9.08003 10.29H9.16003C9.23717 10.3346 9.2997 10.4006 9.34003 10.48C9.34548 10.4301 9.36261 10.3821 9.39003 10.34C9.39003 10.27 9.39003 10.27 9.53003 10.25L9.67003 10.3C9.67003 10.35 9.58003 10.42 9.38003 10.49C9.48943 10.4737 9.60064 10.4737 9.71003 10.49C9.80003 10.49 9.80003 10.49 9.85003 10.55V10.64H9.78003C9.63754 10.6255 9.50049 10.5775 9.38003 10.5C9.28966 10.5947 9.17579 10.6637 9.05003 10.7H8.97003L8.91003 10.61V10.56C9.05229 10.5352 9.19778 10.5352 9.34003 10.56H9.23003H9.18003H9.12003L9.00003 10.42V10.36L9.11003 10.29H9.08003Z" fill="#968EA0"/>
<path d="M16.51 6.00017H16.59C16.6639 6.04433 16.7258 6.10618 16.77 6.18017C16.7718 6.117 16.789 6.05523 16.82 6.00017C16.82 5.93017 16.82 5.93017 16.96 5.92017H17.1V5.98017C17.0192 6.06972 16.9154 6.13543 16.8 6.17017C17.16 6.08017 17.25 6.17017 17.28 6.17017V6.27017H17.21C17.0653 6.25836 16.9267 6.20642 16.81 6.12017C16.7219 6.21775 16.6072 6.2873 16.48 6.32017H16.4L16.33 6.23017V6.18017C16.4755 6.15457 16.6244 6.15457 16.77 6.18017H16.61H16.55H16.5H16.39V6.11017L16.51 6.00017Z" fill="#968EA0"/>
<path d="M16.8 6.22998C16.71 6.43998 16.71 6.43998 16.73 6.51998H16.8H17H17.05C17.0383 6.46183 17.0145 6.40682 16.98 6.35856C16.9455 6.3103 16.9012 6.26989 16.85 6.23998L16.8 6.22998Z" fill="#968EA0"/>
<path d="M18.18 5.43018C18.2316 5.45842 18.2769 5.49695 18.313 5.5434C18.3491 5.58984 18.3753 5.6432 18.39 5.70018H18.33H18.18H18.11C18.11 5.64018 18.11 5.63018 18.11 5.53018L18.18 5.43018Z" fill="#968EA0"/>
<path d="M17.89 5.17013H18C18.0787 5.21267 18.1418 5.27924 18.18 5.36013C18.1854 5.31018 18.2026 5.26222 18.23 5.22013C18.23 5.14013 18.23 5.14013 18.37 5.13013H18.51V5.18013C18.51 5.18013 18.42 5.30013 18.22 5.37013C18.3292 5.35185 18.4408 5.35185 18.55 5.37013C18.64 5.37013 18.64 5.37013 18.69 5.43013V5.52013H18.62C18.4775 5.50559 18.3405 5.45762 18.22 5.38013C18.1347 5.47608 18.0236 5.5455 17.9 5.58013H17.81L17.75 5.49013C17.8923 5.46569 18.0377 5.46569 18.18 5.49013H18.02H18H17.94L17.83 5.43013V5.37013L17.94 5.30013L17.89 5.17013Z" fill="#968EA0"/>
<path d="M19.57 4.62012C19.72 4.74012 19.74 4.78012 19.77 4.90012H19.72H19.56H19.49C19.4722 4.84144 19.4722 4.7788 19.49 4.72012L19.57 4.62012Z" fill="#968EA0"/>
<path d="M19.27 4.37008H19.36C19.4318 4.41698 19.4931 4.47827 19.54 4.55008C19.5489 4.50101 19.5658 4.45373 19.59 4.41008C19.59 4.34008 19.59 4.34008 19.73 4.33008H19.86C19.7777 4.4178 19.6744 4.48318 19.56 4.52008C19.663 4.50826 19.767 4.50826 19.87 4.52008C19.99 4.52008 19.99 4.52008 20.04 4.58008V4.68008H19.97C19.8253 4.66828 19.6867 4.61633 19.57 4.53008C19.4845 4.6307 19.3687 4.70088 19.24 4.73008H19.16L19.09 4.64008C19.2365 4.6302 19.3835 4.6302 19.53 4.64008H19.37H19.31H19.26H19.15C19.143 4.61726 19.143 4.59289 19.15 4.57008L19.26 4.51008L19.27 4.37008Z" fill="#968EA0"/>
<path d="M14.91 6.16016C15.545 6.53027 16.1531 6.94462 16.73 7.40016L11.16 10.6302C10.5835 10.1772 9.97523 9.76617 9.33997 9.40016L14.91 6.16016Z" fill="#968EA0"/>
<path d="M31.92 19.77V19.2C31.31 19.55 30.51 20.01 29.92 20.37V20.94L31.92 19.77Z" fill="#968EA0"/>
<path d="M18.7 27.4301V26.8501L12.8 30.2701V30.8501L18.7 27.4301Z" fill="#968EA0"/>
<path d="M14.48 26.9999L12.64 27.9999V28.2699L14.47 27.2099V26.9399L14.48 26.9999Z" fill="#968EA0"/>
<path d="M18.39 24.71L16.39 25.89L14.75 26.84V27.11L18.43 25V24.73L18.39 24.71Z" fill="#968EA0"/>
<path d="M20.21 23.6401L18.62 24.5701V24.8401L20.22 23.9101L20.17 23.6401H20.21Z" fill="#968EA0"/>
<path d="M21.7199 22.77L20.4399 23.51V23.78L21.7699 23L21.7199 22.73V22.77Z" fill="#968EA0"/>
<path d="M24.5 21.1501L22 22.6301L22.05 22.9001L24.05 21.7201L24.56 21.4201L24.51 21.1501H24.5Z" fill="#968EA0"/>
<path d="M17.94 23.77L12.38 27L12.44 27.27L18 24L17.94 23.73V23.77Z" fill="#968EA0"/>
<path d="M21 22L18.12 23.68L18.19 23.94L21.07 22.27L21 22Z" fill="#968EA0"/>
<path d="M23.67 20.4399L21.27 21.8299L21.33 22.0999L23.33 20.9199L23.7 20.6999L23.63 20.4399H23.67Z" fill="#968EA0"/>
<path d="M25.18 19.5601L23.9 20.3001L23.96 20.5701L25.25 19.8301L25.18 19.5601V19.5601Z" fill="#968EA0"/>
<path d="M14.93 24.27L12.09 25.93L12.17 26.2L15 24.54L14.92 24.27H14.93Z" fill="#968EA0"/>
<path d="M18.84 22L15.16 24.14L15.24 24.41L17.24 23.23L18.89 22.23L18.84 22Z" fill="#968EA0"/>
<path d="M20.6699 20.9399L19.0699 21.8699L19.1499 22.1399L20.7499 21.2099L20.6699 20.9399Z" fill="#968EA0"/>
<path d="M22.18 20.0601L20.9 20.8101L20.98 21.0801L22.26 20.3301L22.18 20.0601Z" fill="#968EA0"/>
<path d="M25.31 18.24L22.41 19.93L22.49 20.2L25.39 18.52L25.31 18.24Z" fill="#968EA0"/>
<path d="M14.9201 20.9302L11.0601 23.1802L11.1701 23.4402L15.0001 21.1902L14.8801 20.9302H14.9201Z" fill="#968EA0"/>
<path d="M18 19.1301L16 20.3101L15.16 20.8001L15.27 21.0601L17.27 19.8801L18.11 19.3901L18 19.1301Z" fill="#968EA0"/>
<path d="M20.65 17.6001L18.25 19.0001L18.37 19.2601L20.77 17.8601L20.65 17.6001Z" fill="#968EA0"/>
<path d="M23.52 15.9302L20.88 17.4702L21 17.7302L23.64 16.2002L23.52 15.9302Z" fill="#968EA0"/>
<path d="M14.63 19.77L10.55 22.14L10.68 22.4L14.76 20L14.63 19.74V19.77Z" fill="#968EA0"/>
<path d="M16.45 18.71L14.85 19.64L14.98 19.9L16.58 18.97L16.45 18.71V18.71Z" fill="#968EA0"/>
<path d="M18 17.8301L16.71 18.5801L16.84 18.8401L18.13 18.0901L18 17.8301Z" fill="#968EA0"/>
<path d="M21.0899 16L18.1899 17.69L18.3199 17.95C19.3199 17.39 20.2599 16.83 21.2199 16.26L21.0899 16Z" fill="#968EA0"/>
<path d="M24 14.3301L21.33 15.8801L21.46 16.1401L24.13 14.5901L24 14.3301Z" fill="#968EA0"/>
<path d="M13.86 18.8801L10 21.1101L10.14 21.3601L14 19.1401L13.86 18.8801Z" fill="#968EA0"/>
<path d="M17 17.0701L14.12 18.7501L14.27 19.0101L17.15 17.3301L17 17.0701Z" fill="#968EA0"/>
<path d="M19.5999 15.54L17.1899 16.94L17.3299 17.2L19.7399 15.8L19.5999 15.54Z" fill="#968EA0"/>
<path d="M21.1099 14.6702L19.8199 15.4102L19.9599 15.6702L21.2499 14.9202L21.1099 14.6702Z" fill="#968EA0"/>
<path d="M23.16 13.47L21.33 14.54L21.48 14.79L23.3 13.73L23.16 13.47V13.47Z" fill="#968EA0"/>
<path d="M10.55 19.46L9.45996 20.1L9.60996 20.35L10.71 19.71L10.55 19.46Z" fill="#968EA0"/>
<path d="M14.46 17.1899L10.78 19.3299L10.93 19.5699L14.62 17.4399L14.46 17.1899Z" fill="#968EA0"/>
<path d="M16.2899 16.1301L14.6899 17.0601L14.8399 17.3001L16.4399 16.3701L16.2899 16.1301V16.1301Z" fill="#968EA0"/>
<path d="M17.8 15.25L16.52 16L16.67 16.24L18 15.5L17.85 15.25H17.8Z" fill="#968EA0"/>
<path d="M20.93 13.4302L18 15.1202L18.15 15.3602L21.05 13.6802L20.9 13.4302H20.93Z" fill="#968EA0"/>
<path d="M22.75 12.3701L21.16 13.3001L21.31 13.5501L22.91 12.6201L22.75 12.3701Z" fill="#968EA0"/>
<defs>
<linearGradient id="paint0_linear_52_13589" x1="5.27999" y1="51.1501" x2="91.39" y2="51.1501" gradientUnits="userSpaceOnUse">
<stop stop-color="#5917FF"/>
<stop offset="0.16" stop-color="#6D22F8"/>
<stop offset="0.48" stop-color="#A13DE7"/>
<stop offset="0.95" stop-color="#4BF2EA"/>
<stop offset="1" stop-color="#42E8E0"/>
</linearGradient>
<linearGradient id="paint1_linear_52_13589" x1="59.65" y1="61.28" x2="69.43" y2="61.28" gradientUnits="userSpaceOnUse">
<stop stop-color="#C0B9C8"/>
<stop offset="1" stop-color="#E0DBE1"/>
</linearGradient>
<linearGradient id="paint2_linear_52_13589" x1="57.27" y1="45.3901" x2="79.47" y2="45.3901" gradientUnits="userSpaceOnUse">
<stop stop-color="#8930EF"/>
<stop offset="0.45" stop-color="#BC4BDE"/>
<stop offset="1" stop-color="#07DBB4"/>
</linearGradient>
</defs>
</svg>
