<svg width="81" height="77" viewBox="0 0 81 77" fill="none" xmlns="http://www.w3.org/2000/svg">
<g clip-path="url(#clip0_52_13475)">
<g opacity="0.3">
<path opacity="0.7" d="M51.67 34.4L-0.280029 64.4V32.28L51.67 2.29004V34.4Z" fill="#CFE9FF"/>
<path d="M-0.280029 29.99V35.35L51.67 5.36V0L-0.280029 29.99Z" fill="#07DBB4"/>
</g>
<g opacity="0.5">
<path opacity="0.7" d="M57.6299 37.84L5.67993 67.84V35.72L57.6299 5.72998V37.84Z" fill="#CFE9FF"/>
<path d="M5.67993 33.4299V38.7899L57.6299 8.79994V3.43994L5.67993 33.4299Z" fill="#07DBB4"/>
</g>
<path opacity="0.9" d="M63.59 41.2899L11.64 71.2799V39.1599L63.59 9.16992V41.2899Z" fill="#95ACF4"/>
<path d="M11.64 36.8799V42.2299L63.59 12.2399V6.87988L11.64 36.8799Z" fill="#07DBB4"/>
<path d="M56.7299 14.0899L54.7899 15.2099C54.6599 15.2799 54.5599 15.2099 54.5599 15.1099V13.1699C54.5671 13.096 54.5917 13.0248 54.6317 12.9622C54.6717 12.8997 54.7259 12.8475 54.7899 12.8099L56.7299 11.6899C56.8599 11.6099 56.9599 11.6899 56.9599 11.7899V13.7299C56.9528 13.8038 56.9282 13.8749 56.8882 13.9375C56.8482 14.0001 56.794 14.0523 56.7299 14.0899Z" fill="#455CBA"/>
<path d="M59.7099 12.3699L57.7699 13.4899C57.6399 13.5699 57.5399 13.4899 57.5399 13.3899V11.4499C57.5471 11.376 57.5717 11.3049 57.6116 11.2423C57.6516 11.1797 57.7059 11.1275 57.7699 11.0899L59.7099 9.99994C59.8299 9.91994 59.9399 9.99994 59.9399 10.0999V11.9999C59.932 12.075 59.9072 12.1472 59.8673 12.2113C59.8275 12.2754 59.7737 12.3296 59.7099 12.3699Z" fill="#455CBA"/>
<path d="M57.9199 11.61V12.79C57.9199 12.92 58.0199 12.97 58.1499 12.89L59.3299 12.21C59.3925 12.1707 59.4455 12.118 59.4853 12.0558C59.5251 11.9935 59.5506 11.9232 59.5599 11.85V10.67C59.5599 10.54 59.4499 10.5 59.3299 10.57L58.1499 11.25C58.0859 11.2875 58.0316 11.3398 57.9917 11.4023C57.9517 11.4649 57.9271 11.5361 57.9199 11.61ZM59.0399 12.09L58.4299 12.45C58.2999 12.52 58.1999 12.45 58.1999 12.35V11.73C58.2071 11.6561 58.2317 11.5849 58.2717 11.5223C58.3116 11.4598 58.3659 11.4075 58.4299 11.37L58.9999 11C59.1299 10.93 59.2399 11 59.2399 11.1V11.72C59.2324 11.7963 59.2067 11.8698 59.1649 11.9342C59.1232 11.9985 59.0666 12.052 58.9999 12.09H59.0399Z" fill="#FFFFF7"/>
<path d="M62.68 10.65L60.74 11.77C60.62 11.85 60.51 11.77 60.51 11.67V9.72997C60.5194 9.6567 60.5449 9.58641 60.5846 9.52417C60.6244 9.46192 60.6775 9.40926 60.74 9.36997L62.68 8.24997C62.81 8.17997 62.92 8.24997 62.92 8.34997V10.29C62.9118 10.3648 62.8857 10.4366 62.8439 10.4992C62.8021 10.5619 62.7459 10.6136 62.68 10.65Z" fill="#455CBA"/>
<path d="M60.9999 9.90996L61.5299 10.13C61.5299 10.13 61.5299 10.13 61.5299 10.22L60.9999 11.06C60.9999 11.06 60.9999 11.06 60.9999 11.12L61.1399 11.18H61.1999L61.7299 10.33C61.7299 10.33 61.7899 10.27 61.8199 10.28L62.3499 10.51C62.3693 10.5168 62.3905 10.5168 62.4099 10.51L62.5499 10.28V10.23L61.9999 9.99996C61.9999 9.99996 61.9999 9.93996 61.9999 9.90996L62.4999 8.99996L62.3599 8.93996C62.3405 8.9331 62.3193 8.9331 62.2999 8.93996L61.7699 9.77996C61.7699 9.77996 61.6999 9.84996 61.6799 9.83996L61.1499 9.60996C61.1499 9.60996 61.1499 9.60996 61.0899 9.60996L60.9999 9.84996C60.9999 9.84996 60.9399 9.89996 60.9999 9.90996Z" fill="#FFFFF7"/>
<path d="M55 14.47V14.67C55 14.67 55 14.73 55.07 14.67L56.57 13.81C56.5909 13.7966 56.6088 13.7791 56.6225 13.7584C56.6363 13.7378 56.6457 13.7145 56.65 13.69V13.49C56.65 13.49 56.65 13.43 56.57 13.49L55.07 14.35C55.0505 14.364 55.0342 14.3819 55.0222 14.4026C55.0101 14.4232 55.0026 14.4462 55 14.47Z" fill="#FFFFF7"/>
<path d="M18.1 42.52L19.58 41.67V42L18.1 42.85V42.52ZM16.21 46.41L13.91 47.74V48.09L16.63 46.52L17.58 45.97V45.62L16.21 46.41ZM18.21 44.19V43.84L17.05 44.5L16.3 44.94V45.29L17.05 44.85L18.21 44.19ZM15.8 45.25L13.91 46.34V46.69L15.8 45.6V45.25ZM16.8 43.64L17.59 43.19V42.83L16.23 43.62L13.95 44.94V45.29L16.8 43.64ZM14.56 43.54L16.42 42.47V42.11L14.56 43.19L13.96 43.53V43.89L14.56 43.54ZM18.28 41.4L18.87 41.05V40.7L18.08 41.15L16.96 41.8V42.15L18.28 41.4ZM19.62 44.46L18.15 45.31V45.66L19.62 44.81V44.46ZM16.74 51.17L13.94 52.78V53.14L16.74 51.52V51.17ZM13.97 54.17V54.52L14.53 54.19L16.88 52.84V52.48L14.88 53.64L13.97 54.17ZM19.62 46.71L17.62 47.88L16.27 48.66V49L17.62 48.21L19.62 47.04V46.71ZM19.33 51.07L18.82 51.36L17.42 52.17V52.52L18.54 51.88L19.33 51.42V51.07ZM15.62 50.42L13.95 51.42V51.77L15.62 50.77L17.48 49.7V49.35L15.62 50.42ZM18 49V49.36L19 48.79V48.44L18 49ZM17.26 51.18L19.03 50.18V49.82L17.26 50.82V51.18ZM13.92 50.31L15.68 49.31V49L13.92 50V50.31ZM19 54.71L17.24 55.71V56.07L19 55.07V54.71ZM18.67 58.05L19.67 57.49V57.13L18.67 57.7V58.05ZM16.07 59.56L18.07 58.41V58.06L16.07 59.2V59.56ZM19.26 56L17.51 57V57.35L19.26 56.35V56ZM13.94 56.63L14.67 56.21L16.85 54.95V54.6L14.85 55.75L13.94 56.28V56.63ZM16.94 57.32L14.7 58.62L13.9 59.08V59.43L15 58.79L17 57.65L16.94 57.32ZM13.94 58.03L15.25 57.27L16.73 56.42V56.07L14.6 57.3L13.94 57.68V58.03ZM13.94 60.83L15.59 59.83V59.48L13.94 60.48V60.83ZM19.32 53.18L18.67 53.56L18.53 53.64L17.41 54.29V54.64L18.51 54L18.65 53.92L19.3 53.54L19.32 53.18ZM18.07 59.95L16.95 60.6V60.95L18.27 60.19L18.86 59.85V59.49L18.07 59.95ZM16.41 60.95L14.53 62L13.93 62.35V62.7L14.53 62.35L16.39 61.28L16.41 60.95ZM15.68 62.77L13.94 63.77V64.13L15.68 63.13V62.77ZM18.1 61.3L16.2 62.4V62.75L18.2 61.57L19.53 60.8V60.45L18.05 61.3H18.1ZM16.21 65.54L17.98 64.54V64.18L16.21 65.18V65.54ZM13.91 66.86L15.67 65.86V65.5L13.91 66.5V66.86ZM17.46 63.07L16.34 63.72V64.07L17.46 63.42L18.25 62.96V62.61L17.46 63.07ZM13.91 65.47L15.8 64.38V64L13.91 65.09V65.47ZM24 41.93L22.63 42.73V43.08L24 42.29V41.93ZM24 37.75L23.18 38.23V38.58L24 38.11V37.75ZM22.64 38.54L21.92 38.95V39.31L22.64 38.9V38.54ZM24.02 39.14L22.66 39.93V40.28L24 39.5L24.02 39.14ZM22.02 41.72L21.44 42.05V42.4L22.02 42.07V41.72ZM22.56 41.72L24 40.89V40.53L22.49 41.4L22.56 41.72ZM24.04 48.35L22.76 49.09V49.44L24.04 48.7V48.35ZM24 47L21.58 48.4V48.75L24 47.33V47ZM22.16 49.46L21.45 49.87V50.23L22.16 49.82V49.46ZM22.06 47L24 45.94V45.59L22.1 46.68L22.06 47ZM22.59 45.3L24 44.54V44.19L22.59 45V45.3ZM21.41 52.3L22.12 51.89V51.54L21.41 51.95V52.3ZM22.66 51.58L23.94 50.84V50.49L22.66 51.22V51.58ZM22.51 54.45L24 53.63V53.27L22.56 54.1L22.51 54.45ZM22.27 53.2L23.94 52.2V51.85L22.27 52.85V53.2ZM21.73 53.2L21.05 53.59V53.94L21.73 53.55V53.2ZM24 54.67L22 55.82V56.17L24 55V54.67ZM22 54.41L21.32 54.81V55.16L22 54.77V54.41ZM22.49 60.53L24 59.66V59.31L22.49 60.18V60.53ZM21.37 61.18L21.95 60.84V60.49L21.37 60.83V61.18ZM21.89 58.08L22.61 57.67V57.32L21.89 57.73V58.08ZM23.99 57.92L22.63 58.7V59.05L24 58.27L23.99 57.92ZM23.99 56.92V56.57L23.17 57.05V57.4L23.99 56.92ZM22.64 61.92L24 61.06V60.71L22.63 61.5L22.64 61.92ZM30.64 35.75L32 34.83V34.48L30.52 35.33L30.64 35.75ZM28.75 39.29L26.45 40.61V40.96L29.17 39.39L30.11 38.85V38.5L28.75 39.29ZM30.75 37.07V36.71L29.6 37.38L28.84 37.82V38.17L29.6 37.73L30.75 37.07ZM28.3 38.13L26.42 39.22V39.57L28.3 38.48V38.13ZM29.3 36.52L30 36V35.65L28.64 36.44L26.36 37.76V38.11L29.21 36.46L29.3 36.52ZM27 36.35L28.86 35.27V34.92L27 36L26.4 36.35V36.7L27 36.36V36.35ZM30.7 34.2L31.3 33.86V33.51L30.51 33.96L29.39 34.61V35L30.7 34.24V34.2ZM32.05 37.26L30.58 38.12V38.47L32.05 37.62V37.26ZM29.17 44L26.37 45.62V45.97L29.17 44.36V44ZM26.4 47V47.36L27 47L29.35 45.64V45.29L27.35 46.45L26.4 47ZM32.05 39.55L30.05 40.72L28.7 41.5V41.85L30 41L32 39.83L32.05 39.55ZM30.89 44.41L30.39 44.7L29.85 45.01V45.36L30.1 45.21L30.89 44.76V44.41ZM28.05 43.26L26.37 44.26V44.61L28.05 43.61L29.91 42.53V42.18L28.05 43.26ZM30.45 41.87V42.22L31.45 41.66V41.3L30.45 41.87ZM29.71 44L31.48 43V42.65L29.71 43.65V44ZM26.37 43.14L28.13 42.14V41.79L26.37 42.79V43.14ZM31.15 47.71L29.72 48.53V48.88L31.15 48.06V47.71ZM28.56 52.35L30.56 51.21V50.86L28.56 52V52.35ZM26.4 49.42L27.13 48.99L29.31 47.74V47.38L27.31 48.54L26.4 49.07V49.42ZM29.4 50.11L27.18 51.4L26.39 51.86V52.22L27.46 51.6L29.46 50.46L29.4 50.11ZM26.4 50.82L27.71 50.06L29.19 49.21V48.85L27.06 50.09L26.4 50.47V50.82ZM26.4 53.62L28 52.67V52.31L26.35 53.26L26.4 53.62ZM31.4 46.17L31.1 46.34L30.96 46.42L29.84 47.07V47.42L30.61 46.98L30.76 46.89L31.4 46.52V46.17ZM30.5 52.74L29.38 53.38V53.74L30.7 53L31.3 52.65V52.3L30.51 52.76L30.5 52.74ZM28.84 53.74L27 54.77L26.4 55.12V55.47L27 55.12L28.86 54.05L28.84 53.74ZM28.11 55.56L26.37 56.56V56.91L28.11 55.91V55.56ZM30.55 54.14L28.65 55.24V55.6L30.65 54.41L32 53.6V53.25L30.52 54.1L30.55 54.14ZM28.66 58.38L30.43 57.38V57L28.66 58V58.38ZM26.36 59.71L28.12 58.71V58.3L26.36 59.3V59.71ZM29.91 55.91L28.78 56.56V56.91L29.91 56.27L30.69 55.81V55.46L29.91 55.91ZM26.36 58.32L28.24 57.23V56.87L26.36 57.96V58.32ZM36.42 34.74L35.05 35.53V35.89L36.42 35.09V34.74ZM36.42 30.56L35.6 31.04V31.39L36.42 30.91V30.56ZM35 31.35L34.29 31.76V32.11L35 31.7V31.35ZM36.39 31.95L35.03 32.73V33.09L36.39 32.3V31.95ZM34.39 34.52L33.81 34.86V35.21L34.39 34.87V34.52ZM34.93 34.52L36.44 33.65V33.3L34.93 34.17V34.52ZM43.35 28L44.83 27.14V27.5L43.35 28.35V28ZM41.46 31.88L39.16 33.21V33.56L41.88 31.99L42.82 31.45V31L41.46 31.79V31.88ZM43.46 29.66V29.31L42.31 29.98L41.55 30.41V30.77L42.31 30.33L43.46 29.66ZM41 30.68L39.11 31.77V32.12L41 31V30.68ZM42 29.07L42.79 28.61V28.26L41.43 29.05L39.15 30.36V30.71L42 29.07ZM39.78 29L41.64 27.93V27.58L39.78 28.65L39.18 29V29.35L39.78 29ZM43.49 26.86L44.09 26.51V26.16L43.3 26.62L42.18 27.26V27.62L43.49 26.86ZM44.84 29.92L43.36 30.77V31.12L44.84 30.27V29.92ZM49.21 27.4L47.83 28.19V28.54L49.21 27.75V27.4ZM49.21 23.22L48.38 23.69V24L49.21 23.52V23.22ZM47.82 24L47.11 24.41V24.76L47.82 24.35V24ZM49.2 24.6L47.85 25.38V25.73L49.2 24.95V24.6ZM47.2 27.17L46.62 27.5V27.86L47.2 27.52V27.17ZM47.74 27.17L49.25 26.3V26L47.74 26.87V27.17ZM49.22 33.81L47.94 34.54V34.9L49.22 34.16V33.81ZM49.22 32.4L46.79 33.8V34.15L49.21 32.76L49.22 32.4ZM47.32 32.45L49.22 31.35V31L47.32 32.1V32.45ZM47.84 30.75L49.22 29.95V29.6L47.84 30.4V30.75ZM55.84 21.09L57.32 20.24V19.9L55.84 20.75V21.09ZM53.95 24.63L51.62 26V26.35L54.34 24.78L55.28 24.23V23.88L53.92 24.67L53.95 24.63ZM55.95 22.41V22.06L54.8 22.72L54.04 23.16V23.51L54.8 23.07L55.95 22.41ZM53.5 23.48L51.61 24.57V24.92L53.5 23.83V23.48ZM54.5 21.87L55.29 21.42V21.06L53.92 21.85L51.64 23.17V23.52L54.5 21.87ZM52.26 21.77L54.1 20.7V20.34L52.24 21.42L51.64 21.76V22.12L52.24 21.77H52.26ZM56 19.63L56.6 19.28V18.93L55.81 19.38L54.64 20V20.35L56 19.63ZM57.35 22.69L55.87 23.54V23.89L57.3 23L57.35 22.69ZM54.42 29.4L51.62 31V31.36L54.42 29.74V29.4ZM51.64 32.4V32.75L52.21 32.42L54.56 31.07V30.71L52.56 31.87L51.64 32.4ZM57.3 24.94L55.3 26.11L53.95 26.89V27.25L55.3 26.46L57.3 25.29V24.94ZM57 29.3L56.49 29.59L55.09 30.4V30.75L56.21 30.11L57 29.65V29.3ZM53.29 28.65L51.61 29.65V30L53.29 29L55.14 27.93V27.58L53.3 28.65H53.29ZM55.68 27.26V27.62L56.68 27.05V26.7L55.68 27.26ZM55 29.44L56.77 28.44V28.08L55 29.08V29.44ZM51.66 28.57L53.42 27.57V27.22L51.66 28.22V28.57ZM56.78 32.94L55 34V34.36L56.77 33.36L56.78 32.94ZM56.44 36.28L57.44 35.72V35.37L56.44 35.93V36.28ZM53.84 37.79L55.84 36.64V36.29L53.84 37.43V37.79ZM57 34.21L55.26 35.21V35.56L57 34.56V34.21ZM51.68 34.84L52.42 34.42L54.6 33.16V32.81L52.6 33.96L51.68 34.49V34.84ZM54.68 35.53L52.43 36.83L51.63 37.29V37.64L52.71 37L54.71 35.86L54.68 35.53ZM51.68 36.24L53 35.48L54.48 34.63V34.28L52.34 35.51L51.69 35.89L51.68 36.24ZM51.68 39.04L53.32 38.09V37.74L51.68 38.69V39.04ZM57 31.39L56.35 31.77L56.21 31.85L55.09 32.5V32.85L56.21 32.2L56.35 32.12L57 31.74V31.39ZM55.75 38.16L54.63 38.81V39.16L56 38.4L56.6 38.06V37.7L55.81 38.16H55.75ZM54.09 39.16L52.23 40.23L51.63 40.58V40.93L52.23 40.58L54.09 39.51V39.16ZM53.35 40.98L51.61 41.98V42.34L53.35 41.34V40.98ZM55.8 39.57L53.89 40.67V41L55.89 39.82L57.29 39V38.65L55.81 39.5L55.8 39.57ZM53.91 43.81L55.67 42.81V42.45L53.91 43.45V43.81ZM51.61 45.13L53.37 44.13V43.78L51.61 44.78V45.13ZM55.15 41.34L54 42V42.35L55.12 41.7L55.91 41.24V40.89L55.12 41.35L55.15 41.34ZM61.66 20.2L60.28 21V21.35L61.66 20.56V20.2ZM61.66 16.02L60.83 16.5V16.85L61.66 16.38V16.02ZM60.29 16.81L59.58 17.22V17.58L60.29 17.17V16.81ZM61.67 17.41L60.32 18.2V18.55L61.67 17.77V17.41ZM59.67 19.99L59.09 20.32V20.67L59.67 20.34V19.99ZM60.21 19.99L61.72 19.12V18.76L60.21 19.63V19.99ZM61.68 26.62L60.41 27.36V27.71L61.64 27L61.68 26.62ZM61.68 25.21L59.26 26.61V27L61.68 25.6V25.21ZM59.83 27.67L59.12 28.08V28.44L59.83 28.03V27.67ZM59.83 25.26L61.73 24.17V23.82L59.83 24.91V25.26ZM60.35 23.56L61.73 22.77V22.42L60.35 23.21V23.56ZM59.17 30.56L59.88 30.15V29.8L59.17 30.21V30.56ZM60.43 29.84L61.7 29.1V28.75L60.43 29.48V29.84ZM60.28 32.71L61.71 31.89V31.5L60.28 32.33V32.71ZM60 31.43L61.67 30.43V30.08L60 31.08V31.43ZM59.46 31.43L58.78 31.82V32.17L59.46 31.78V31.43ZM61.68 32.94L59.68 34.09V34.44L61.68 33.29V32.94ZM59.68 32.68L59 33V33.35L59.69 32.96L59.68 32.68ZM60.17 38.8L61.68 37.93V37.58L60.17 38.45V38.8ZM59.05 39.45L59.63 39.11V38.76L59.05 39.1V39.45ZM59.57 36.35L60.28 35.94V35.59L59.57 36V36.35ZM61.66 36.19L60.31 36.97V37.32L61.66 36.54V36.19ZM61.66 35.19V34.84L60.83 35.32V35.67L61.66 35.19ZM60.3 40.19L61.68 39.4V39.05L60.3 39.84V40.19Z" fill="#FFFFF7"/>
<path d="M44.7 35.26H44.78L44 34.86C42.93 34.26 41.45 34.36 39.83 35.3C38.0872 36.4255 36.6352 37.947 35.5925 39.7405C34.5498 41.534 33.9458 43.5486 33.83 45.62C33.83 47.54 34.52 48.89 35.62 49.5L36.35 49.92C37.45 50.55 38.93 50.45 40.57 49.51C42.3129 48.3823 43.7649 46.8589 44.8075 45.0638C45.8502 43.2687 46.454 41.2527 46.57 39.18C46.57 37.21 45.85 35.85 44.7 35.26Z" fill="#788EFF"/>
<path d="M46.9999 37.4701C47.0263 37.4755 47.0536 37.4755 47.0799 37.4701L45.5299 36.5801C44.9198 36.3111 44.2498 36.2064 43.5867 36.2766C42.9235 36.3468 42.2903 36.5893 41.7499 36.9801C40.1762 38.0046 38.8668 39.3865 37.9284 41.0131C36.99 42.6396 36.4491 44.4649 36.3499 46.3401C36.2769 47.016 36.388 47.699 36.6714 48.3169C36.9548 48.9348 37.4001 49.4646 37.9599 49.8501L39.4699 50.7201C40.0822 51.003 40.7588 51.1178 41.4301 51.0528C42.1014 50.9878 42.7433 50.7452 43.2899 50.3501C44.8562 49.3226 46.1586 47.9408 47.0915 46.3164C48.0245 44.692 48.5618 42.8708 48.6599 41.0001C48.6599 39.2401 47.9999 38.0001 46.9999 37.4701Z" fill="url(#paint0_linear_52_13475)"/>
<path d="M38.12 47.22C38.12 50.57 40.47 51.92 43.37 50.22C44.8981 49.2242 46.1698 47.8822 47.082 46.3028C47.9942 44.7234 48.5211 42.9512 48.62 41.13C48.62 37.78 46.27 36.42 43.37 38.13C41.843 39.1269 40.5721 40.4692 39.66 42.0484C38.748 43.6275 38.2204 45.3991 38.12 47.22Z" fill="#D3D3D1"/>
<path d="M79.85 64.23C79.5871 63.5726 79.1725 62.9866 78.64 62.52C78.7719 62.3874 78.8831 62.2357 78.97 62.07C79.1525 61.7231 79.229 61.3301 79.19 60.94C79.1582 60.5561 79.0421 60.1839 78.85 59.85C78.6594 59.5164 78.4201 59.213 78.14 58.95C77.8645 58.6897 77.5629 58.4585 77.24 58.26C76.92 58.06 76.59 57.9 76.24 57.72L75.92 57.53C76.0532 57.3003 76.1351 57.0444 76.16 56.78C76.2043 56.485 76.2043 56.185 76.16 55.89C76.1327 55.7477 76.096 55.6074 76.05 55.47C76.0062 55.3236 75.9458 55.1827 75.87 55.05C75.7959 54.9183 75.7088 54.7943 75.61 54.68C75.5144 54.5693 75.4108 54.4657 75.3 54.37C75.1903 54.2683 75.0733 54.1747 74.95 54.09L74.59 53.85C74.104 53.5695 73.5995 53.3223 73.08 53.11C72.6986 52.6255 72.2842 52.1677 71.84 51.74C71.3845 51.306 70.9072 50.8955 70.41 50.51C70.16 50.32 69.91 50.13 69.65 49.95C69.39 49.77 69.13 49.6 68.86 49.44L68.45 49.2L68 49C67.73 48.86 67.45 48.73 67.17 48.61C66.55 48.05 65.9 47.53 65.26 47.02L64.26 46.23C63.94 45.96 63.62 45.69 63.32 45.41L62.73 44.94L62.13 44.48C61.73 44.17 61.32 43.89 60.89 43.61C60.0466 43.0541 59.1566 42.5723 58.23 42.17L57.53 41.89C57.29 41.81 57.05 41.72 56.8 41.65C56.55 41.58 56.31 41.53 56.06 41.47C55.81 41.41 55.56 41.38 55.3 41.35C55.0481 41.3151 54.7943 41.2951 54.54 41.29C54.2836 41.275 54.0264 41.275 53.77 41.29C53.51 41.29 53.25 41.29 53 41.39C52.777 41.4257 52.5565 41.4758 52.34 41.54L48.45 39.16L44.45 36.77C44.39 36.77 44.35 36.84 44.3 36.77C41.55 34.98 32.78 45.35 34.69 46.64C34.6795 46.6335 34.6678 46.629 34.6556 46.627C34.6434 46.6249 34.6309 46.6253 34.6188 46.6281C34.6067 46.6309 34.5953 46.636 34.5852 46.6432C34.5751 46.6504 34.5666 46.6595 34.56 46.67C34.5534 46.6805 34.549 46.6922 34.547 46.7044C34.5449 46.7167 34.5453 46.7292 34.5481 46.7412C34.5509 46.7533 34.556 46.7647 34.5632 46.7748C34.5704 46.7849 34.5795 46.7935 34.59 46.8L38.5 49.36L42.35 51.84L43.35 56.03L43.86 58.17L44.12 59.24L44.25 59.77C44.2922 59.9762 44.385 60.1686 44.52 60.33C44.66 60.49 44.8 60.59 44.93 60.72L45.34 61.08L46.16 61.82L47.8 63.28C47.95 63.4159 48.1273 63.5182 48.32 63.58C48.53 63.63 48.7 63.63 48.89 63.66L49.98 63.79L52.16 64.05C52.88 64.14 53.61 64.22 54.33 64.35C55.05 64.48 55.77 64.6 56.5 64.69C56.8681 64.7403 57.2386 64.7703 57.61 64.78C57.7995 64.7993 57.9905 64.7993 58.18 64.78C58.2797 64.7662 58.3773 64.7393 58.47 64.7L58.72 64.54C58.8727 64.4088 58.9974 64.2483 59.0868 64.0679C59.1761 63.8875 59.2282 63.691 59.24 63.49C59.247 63.2646 59.2234 63.0392 59.17 62.82C59.55 63.05 59.93 63.27 60.33 63.47C61.06 63.83 61.8 64.18 62.55 64.47C64.0433 65.1367 65.5567 65.7434 67.09 66.29C67.86 66.56 68.64 66.81 69.43 67.03C70.2158 67.2699 71.0229 67.434 71.84 67.52C72.0497 67.5349 72.2603 67.5349 72.47 67.52H72.78C72.8827 67.4911 72.983 67.4543 73.08 67.41C73.2789 67.3304 73.467 67.2263 73.64 67.1C73.8236 66.9727 73.9716 66.8006 74.07 66.6C74.1478 66.4586 74.1922 66.3013 74.2 66.14C74.8956 66.4402 75.6191 66.6714 76.36 66.83C76.7966 66.9253 77.2434 66.9656 77.69 66.95C78.1467 66.9323 78.5924 66.8055 78.99 66.58C79.4037 66.3609 79.7314 66.0085 79.92 65.58C80.0541 65.1355 80.0293 64.6583 79.85 64.23Z" fill="#FFD2B1"/>
<path d="M76 55.8899C75.8963 55.479 75.7025 55.0962 75.4327 54.7694C75.1629 54.4425 74.8238 54.1797 74.44 53.9999C74.1 53.8299 73.67 53.5999 72.96 53.2899C72.3335 52.5852 71.644 51.9392 70.9 51.3599C69.8237 50.2791 68.5686 49.3927 67.19 48.7399C65.767 47.8207 64.455 46.7402 63.28 45.5199C62.73 45.1099 57.36 40.3199 52.35 41.7899L44.45 36.9099L35 46.7399L50.54 55.9999L57 53.6699L60.51 52.0999C60.9931 52.2518 61.4643 52.439 61.92 52.6599C62.53 52.9699 63.11 53.3399 63.7 53.6599C65.25 54.5599 73.89 58.4899 75.13 58.0399C75.514 57.8512 75.815 57.5276 75.9755 57.131C76.1359 56.7344 76.1447 56.2926 76 55.8899Z" fill="#FFD2B1"/>
<path d="M63 56.8899C63.72 57.2499 67.83 59.5099 68.52 59.8899C70.33 60.8899 76.95 63.6099 78.23 62.7399C78.6422 62.4774 78.944 62.0731 79.0785 61.6033C79.213 61.1335 79.1709 60.6307 78.96 60.1899C78.57 59.2599 76.5 57.9399 75.6 57.4799C74.7 57.0199 73.73 56.7099 72.82 56.2599C70.24 54.9899 64.94 50.8199 62.63 49.1099C61.99 48.6299 61.3 48.1999 60.63 47.7499C59.8586 47.1691 59.0311 46.6666 58.16 46.2499C57.2737 45.8313 56.2601 45.7704 55.33 46.0799C54.8766 46.2494 54.4902 46.5611 54.2288 46.9686C53.9674 47.376 53.845 47.8571 53.88 48.3399C53.9629 48.7196 54.1046 49.084 54.3 49.4199C55.12 50.9899 55.86 53.2499 57.3 54.4199C58.81 55.7099 61.18 55.9999 63 56.8899Z" fill="#FFD2B1"/>
<g style="mix-blend-mode:multiply" opacity="0.4">
<path d="M69.73 57.4701C69.0617 57.0575 68.447 56.5638 67.9 56.0001C66.5089 54.8564 64.9552 53.9262 63.29 53.2401C62.4647 52.6701 61.6733 52.0524 60.92 51.3901L60 52.0001C60.0085 52.0835 59.9839 52.1669 59.9315 52.2323C59.8792 52.2978 59.8032 52.3401 59.72 52.3501L59.31 52.4601H59.23C59.1904 52.4969 59.1419 52.5228 59.0893 52.535C59.0367 52.5473 58.9818 52.5456 58.93 52.5301C58.4994 52.6877 58.1024 52.9252 57.76 53.2301C57.4639 53.518 57.1269 53.7606 56.76 53.9501C56.9074 54.1192 57.0679 54.2764 57.24 54.4201C58.81 55.6901 62.38 56.6001 64.17 57.5101C64.88 57.8701 68.99 60.1401 69.68 60.5101C71.49 61.5701 76.9 63.5801 78.18 62.7201C78.4822 62.5251 78.7263 62.2522 78.8864 61.9302C79.0466 61.6081 79.1169 61.2488 79.09 60.8901C78.09 62.9601 75.24 62.2201 73.58 60.5101C72.4325 59.3358 71.1385 58.314 69.73 57.4701Z" fill="#FFCCB5"/>
</g>
<path d="M64.2101 61.41C64.9801 61.8 69.5301 63.52 70.2701 63.95C72.2001 65.07 76.7901 67.86 79.0001 66.47C79.2117 66.3782 79.4007 66.2412 79.5537 66.0686C79.7067 65.896 79.8201 65.692 79.8859 65.4709C79.9516 65.2498 79.9682 65.0169 79.9344 64.7887C79.9005 64.5606 79.8171 64.3425 79.6901 64.15C79.2004 63.1921 78.395 62.4327 77.4101 62C76.4101 61.5 75.4101 61.18 74.4101 60.7C72.9001 59.96 70.6701 57.78 67.6401 56.45C65.6401 54.84 63.7801 53.71 62.6401 52.89C61.9501 52.37 61.1301 51.6 60.4201 51.11C59.5939 50.4954 58.7097 49.9628 57.7801 49.52C56.8415 49.0723 55.7654 49.0078 54.7801 49.34C54.295 49.5178 53.8816 49.8498 53.6034 50.2852C53.3252 50.7205 53.1976 51.2351 53.2401 51.75C53.3213 52.1568 53.4737 52.5461 53.6901 52.9C54.5601 54.57 55.3501 56.97 56.8601 58.2C58.5901 59.52 62.3101 60.45 64.2101 61.41Z" fill="#FFD2B1"/>
<g style="mix-blend-mode:multiply" opacity="0.4">
<path d="M75.94 65.7199C74.12 65.1199 73.22 63.8899 71.46 62.3299C69.1744 61.6349 67.0593 60.47 65.25 58.9099C62.99 56.9099 59.82 56.3399 57.61 54.6199C57.61 54.6199 55.04 53.3299 54.17 53.7199C54.89 55.2799 55.65 57.1299 56.92 58.1599C58.59 59.5199 62.31 60.4499 64.21 61.4099C64.98 61.7999 69.53 63.5199 70.27 63.9499C72.2 65.0699 76.79 67.8599 79 66.4699C79.4193 66.2672 79.7424 65.9082 79.9 65.4699C79.3071 65.8227 78.6388 66.0293 77.9502 66.0728C77.2617 66.1162 76.5726 65.9953 75.94 65.7199Z" fill="#FFCCB5"/>
</g>
<path d="M57.54 61.7C58.28 62.07 58.98 62.53 59.69 62.95C61.57 64.04 70.69 68.18 72.92 67.38C74.33 66.86 74.3 66.02 73.92 65.05C73.4496 64.1016 72.6651 63.3453 71.7 62.91C70.77 62.43 70.21 62.66 69.27 62.2C68.67 61.9 68.02 61.11 67.09 60.5C65.98 59.75 64.51 59.24 63.25 58.5C61.1 56.9 59.72 56.27 58.25 54.65C57.273 53.7847 56.2335 52.9926 55.14 52.28C54.3408 51.6789 53.4831 51.1596 52.58 50.73C51.6615 50.3009 50.6142 50.2365 49.65 50.55C49.1772 50.7235 48.7743 51.0473 48.5034 51.4719C48.2324 51.8964 48.1083 52.3981 48.15 52.9C48.2157 53.2836 48.3405 53.6547 48.52 54C49.37 55.63 50.14 58 51.61 59.17C53.24 60.48 55.69 60.76 57.54 61.7Z" fill="#FFD2B1"/>
<g style="mix-blend-mode:multiply" opacity="0.4">
<path d="M54.7399 60.6501C55.6981 60.93 56.634 61.281 57.54 61.7001C58.28 62.0701 58.98 62.5301 59.69 62.9501C61.57 64.0401 70.6899 68.1801 72.9199 67.3801C73.9199 67.0101 74.1899 66.5001 74.1299 65.8901C73.9378 65.9837 73.7408 66.0671 73.54 66.1401C73.0062 66.4103 72.4017 66.5081 71.8099 66.4201C71.6102 66.4351 71.4097 66.4351 71.2099 66.4201C70.8329 66.3947 70.4602 66.3242 70.0999 66.2101C69.2045 65.8427 68.4241 65.2418 67.8399 64.4701C67.7731 64.4009 67.6919 64.3471 67.6021 64.3126C67.5123 64.278 67.416 64.2635 67.32 64.2701C66.1477 64.3284 64.9785 64.1066 63.9091 63.6232C62.8396 63.1398 61.9006 62.4086 61.1699 61.4901C58.4799 61.1101 56.9899 59.9001 55.8799 59.6601C54.5199 59.3601 53.93 58.8501 52.54 58.8101C52.4674 58.7947 52.3925 58.7947 52.32 58.8101C51.65 59.1201 52.55 59.7001 52.79 59.8101C53.4056 60.164 54.0599 60.4458 54.7399 60.6501Z" fill="#FFCCB5"/>
</g>
<path d="M34.7 46.7501L42.57 51.7501C42.57 51.7501 43.81 57.0201 44.46 59.8001C44.5148 60.0194 44.6331 60.2176 44.8 60.3701L48 63.2801C48.1682 63.4302 48.3768 63.5276 48.6 63.5601C49.69 63.7001 51.88 63.9901 52.98 64.1101C54.57 64.2801 57.63 65.0201 58.5 64.6101C59.37 64.2001 59.7 62.3901 57.39 60.5501C55.6973 59.2856 53.6611 58.5638 51.55 58.4801C51.3513 56.7273 50.9658 55.0008 50.4 53.3301C50.7425 51.914 50.854 50.4518 50.73 49.0001L37.92 43.5901L34.7 46.7501Z" fill="#FFD2B1"/>
<path d="M59.06 64.25C59.1048 64.1532 59.1153 64.0441 59.0899 63.9405C59.0645 63.8369 59.0045 63.7451 58.92 63.68C58.0267 63.1123 56.9763 62.8427 55.92 62.91C54.52 63.04 54.72 64.24 54.92 64.47C55.9763 64.7292 57.0629 64.8436 58.15 64.81C58.334 64.7911 58.5114 64.731 58.669 64.634C58.8265 64.537 58.9602 64.4058 59.06 64.25Z" fill="#FFE5D0"/>
<g style="mix-blend-mode:screen" opacity="0.3">
<path d="M55.57 63C55.4146 63.0332 55.2693 63.103 55.1463 63.2035C55.0232 63.304 54.9259 63.4324 54.8624 63.5781C54.7988 63.7237 54.7709 63.8824 54.7809 64.041C54.7909 64.1996 54.8386 64.3535 54.92 64.49H55.21C55.32 64.08 55.68 63.07 55.57 63Z" fill="#FFE5D0"/>
</g>
<g style="mix-blend-mode:multiply" opacity="0.6">
<path d="M58.58 64.55C57.1741 64.6008 55.7667 64.507 54.38 64.27C54.4045 64.3345 54.4382 64.3951 54.48 64.45C55.6039 64.6954 56.7498 64.8261 57.9 64.84C58.1134 64.8626 58.3289 64.826 58.5229 64.7343C58.7169 64.6425 58.882 64.4992 59 64.32C58.9487 64.3843 58.8852 64.4377 58.8131 64.4772C58.741 64.5167 58.6618 64.5414 58.58 64.55Z" fill="#FFE5D0"/>
</g>
<path opacity="0.6" d="M42.77 49.68C42 48.96 39.25 46.31 39.25 46.31C39.43 42.67 42.95 38.67 46.04 37.7L44.6 36.82C39.87 36.02 34.7 46.75 34.7 46.75L42.5 51.75C42.57 51.1 42.76 49.7 42.77 49.68Z" fill="#FFB18F"/>
<path d="M44.71 51.27L67.74 64.57L78.92 58.11V54.33L44.71 47.49V51.27Z" fill="#C2B3C6"/>
<path d="M56.3 49.8801L51.14 48.8501V54.9801L56.3 57.9601V49.8801Z" fill="#A091BC"/>
<path opacity="0.9" d="M66.67 55.2C66.51 54.09 66.49 52.92 66.31 51.81L62.4 51C61.73 51.39 61 51.69 60.34 52.11C59.4 52.69 58.51 53.36 57.58 53.96V58.7L67 64.16V60.4C67 60.27 67 59.88 67.08 59.87C67.0385 58.3064 66.9015 56.7469 66.67 55.2Z" fill="#BF90B2"/>
<path d="M68.69 51.8201L68.64 52.2801L78.92 54.3301V58.1101L74.83 60.4701L78.92 58.1101V54.3301L68.69 51.8201Z" fill="#E2D4DD"/>
<path d="M68.64 52.28L67.74 60.79V64.57L74.83 60.47L78.92 58.11V54.33L68.64 52.28Z" fill="#EBDAED"/>
<g style="mix-blend-mode:multiply" opacity="0.7">
<path d="M57.26 58.51L62.89 61.77V58.01L58.14 54.77L57.26 58.51Z" fill="#E0AACC"/>
</g>
<path d="M46.14 48.3201L67.74 60.7901L78.92 54.3301L57.32 41.8601L46.14 48.3201Z" fill="#F9F8F2"/>
<path d="M67.74 60.8L44.71 47.5L55.89 41.04L78.92 54.34L67.74 60.8Z" fill="#F9F8F2"/>
<path d="M62.93 58.01L51.14 51.23L62.33 44.77L75.69 52.47L70.74 55.33L69.16 54.42L62.93 58.01Z" fill="#D9CAED"/>
<path opacity="0.2" d="M67.48 48.8199L55.84 46.7099H55.9L67.54 48.8299L67.48 48.8199ZM68.17 48.4299L56.53 46.3099H56.46L68.1 48.4199L68.17 48.4299ZM66.91 49.1499L55.27 46.9999H55.21L66.85 49.1199L66.91 49.1499ZM66.29 49.5099L54.65 47.3999H54.58L66.22 49.5199L66.29 49.5099ZM67.71 47.8699L57.15 45.9999H57.09L67.83 47.9999L67.71 47.8699ZM65.71 49.8699L54 47.7599H53.94L65.58 49.8799L65.71 49.8699ZM65.35 46.4799L58.46 45.2199H58.39L65.47 46.5099L65.35 46.4799ZM61.73 44.3899L60.34 44.1399H60.27L61.85 44.4199L61.73 44.3899ZM62.93 45.0899L59.71 44.4999H59.65L63.06 45.1199L62.93 45.0899ZM64.14 45.7799L59 44.8599H58.94L64.18 45.8599L64.14 45.7799ZM66.55 47.1699L57.83 45.5899H57.77L66.68 47.2099L66.55 47.1699ZM65 50.2399L53.39 48.1199H53.33L65 50.2699V50.2399ZM58.11 54.2399L55.47 53.7599L55.59 53.8299L58.05 54.2699L58.11 54.2399ZM59.36 53.5099L53.06 52.3699L53.18 52.4299L59.3 53.5499L59.36 53.5099ZM59.99 53.1499L51.85 51.6699L51.97 51.7399L59.97 53.1899L59.99 53.1499ZM57.48 54.5999L56.68 54.4499L56.8 54.5199L57.42 54.6299L57.48 54.5999ZM58.74 53.8699L54.3 52.9999L54.42 53.0699L58.7 53.8499L58.74 53.8699ZM60.62 52.7899L50.68 50.9999L50.8 51.0699L60.58 52.8499L60.62 52.7899ZM63.12 51.3399L51.51 49.1999H51.45L63.09 51.3199L63.12 51.3399ZM63.75 50.9799L52.14 48.8399H52.08L63.72 50.9999L63.75 50.9799ZM64.38 50.6199L52.77 48.4799H52.7L64.34 50.5899L64.38 50.6199ZM61.9 51.9999L50.26 49.9299H50.2L61.84 52.0499L61.9 51.9999ZM62.53 51.6399L50.89 49.5699H50.82L62.46 51.6899L62.53 51.6399ZM61.27 52.3699L49.63 50.2899L61.26 52.4099L61.27 52.3699Z" fill="#7F7799"/>
<path opacity="0.6" d="M72.9499 56.6101L64.4399 51.7001L69.3999 48.8401L77.9099 53.7501L72.9499 56.6101Z" fill="#E0AACC"/>
<path opacity="0.6" d="M67.03 60.4L57.98 55.17L59.57 54.25L67.81 59.01L67.03 60.4Z" fill="#E0AACC"/>
<path d="M64.84 48.52C63.6653 47.8933 62.3592 47.5531 61.028 47.527C59.6968 47.5009 58.3784 47.7898 57.18 48.37C55.13 49.55 55.24 51.53 57.42 52.79C57.44 52.8 64.84 48.52 64.84 48.52Z" fill="#D4A8C6"/>
<path d="M56.6299 54.39L56.3199 54.21L67.5099 47.75L67.8199 47.93L56.6299 54.39Z" fill="#7F7799"/>
<path d="M57.65 44.4899L54.36 42.5899L55.94 41.6799L59.22 43.5799L57.65 44.4899Z" fill="#3263A8"/>
<path d="M70.0799 51.0899C69.8332 50.956 69.5601 50.8775 69.2799 50.8599L70.0899 50.4899C70.1241 50.4676 70.1641 50.4556 70.2049 50.4556C70.2458 50.4556 70.2857 50.4676 70.3199 50.4899L71.3199 51.0799L71.6799 50.9899L70.3199 50.1699H70.2399L68.8699 50.8699V50.9499C69.1601 50.9297 69.4504 50.9884 69.7099 51.1199C69.9699 51.2699 70.0799 51.5399 69.5699 51.8399C69.3906 51.9609 69.1827 52.0329 68.9669 52.0487C68.7511 52.0645 68.535 52.0235 68.3399 51.9299C68.0499 51.7699 68.0999 51.5699 68.2399 51.3899C68.3799 51.2099 68.2399 51.3099 68.2399 51.2799C68.1747 51.2474 68.1028 51.2304 68.0299 51.2304C67.957 51.2304 67.8851 51.2474 67.8199 51.2799C67.6399 51.3799 67.6599 51.6999 68.1999 51.9999C68.4753 52.1769 68.7932 52.2768 69.1204 52.2891C69.4475 52.3014 69.772 52.2257 70.0599 52.0699C70.6599 51.7399 70.5699 51.3699 70.0799 51.0899Z" fill="#6B6597"/>
<path d="M73.2 51.76C72.8439 51.6061 72.4539 51.5473 72.0682 51.5894C71.6826 51.6315 71.3145 51.773 71 52C70.23 52.44 69.91 52.91 70.59 53.3C70.9521 53.4655 71.352 53.5304 71.7478 53.4882C72.1437 53.446 72.5209 53.2981 72.84 53.06C73.56 52.62 73.88 52.15 73.2 51.76ZM70.67 53.22C70.28 53 70.74 52.6 71.37 52.22C72 51.84 72.67 51.6 73.06 51.82C73.45 52.04 73 52.44 72.37 52.82C71.74 53.2 71.06 53.45 70.67 53.22Z" fill="#6B6597"/>
<path d="M75.38 53.0001C75.0163 52.8338 74.6147 52.7683 74.2171 52.8106C73.8195 52.8528 73.4406 53.0011 73.12 53.2401C72.36 53.6801 72.04 54.1501 72.71 54.5401C73.0726 54.7034 73.4721 54.7672 73.8675 54.7251C74.2629 54.6829 74.64 54.5362 74.96 54.3001C75.73 53.8701 76.05 53.4101 75.38 53.0001ZM72.85 54.4601C72.46 54.2301 72.92 53.8401 73.54 53.4601C74.16 53.0801 74.85 52.8301 75.24 53.0601C75.63 53.2901 75.17 53.6701 74.54 54.0601C73.91 54.4501 73.24 54.7001 72.85 54.4801V54.4601Z" fill="#6B6597"/>
<path d="M47.7699 47.2699C47.6114 47.1869 47.4381 47.1359 47.2599 47.1199L47.7799 46.8899C47.8499 46.8899 47.8699 46.8899 47.9199 46.8899L48.5699 47.2699L48.7999 47.2099L47.9399 46.6799L47.0199 47.1199V47.1799C47.2026 47.1602 47.387 47.195 47.5499 47.2799C47.7199 47.3799 47.7899 47.5499 47.4599 47.7399C47.3455 47.815 47.214 47.8598 47.0776 47.8703C46.9412 47.8808 46.8044 47.8566 46.6799 47.7999C46.4999 47.6899 46.5299 47.5699 46.6199 47.4599C46.6261 47.4553 46.6312 47.4492 46.6346 47.4423C46.6381 47.4353 46.6399 47.4277 46.6399 47.4199C46.6399 47.4122 46.6381 47.4045 46.6346 47.3976C46.6312 47.3906 46.6261 47.3846 46.6199 47.3799C46.5776 47.3603 46.5316 47.3501 46.4849 47.3501C46.4383 47.3501 46.3922 47.3603 46.3499 47.3799C46.2299 47.4399 46.2499 47.6399 46.5899 47.8399C46.7686 47.9455 46.9724 48.0012 47.1799 48.0012C47.3875 48.0012 47.5912 47.9455 47.7699 47.8399C48.1299 47.6799 48.0799 47.4499 47.7699 47.2699Z" fill="#F4C245"/>
<path d="M49.7499 47.7001C49.5198 47.5956 49.2659 47.5544 49.0145 47.5807C48.7631 47.6071 48.5234 47.7001 48.3199 47.8501C47.8299 48.1301 47.6299 48.4301 48.0599 48.6701C48.2893 48.7778 48.5438 48.8208 48.7958 48.7944C49.0479 48.7679 49.2879 48.6731 49.4899 48.5201C49.9999 48.2401 50.1799 48.0001 49.7499 47.7001ZM48.1399 48.6301C47.8999 48.4801 48.1399 48.2301 48.5899 48.0001C49.0399 47.7701 49.4199 47.6001 49.6599 47.7501C49.8999 47.9001 49.6599 48.1401 49.2199 48.3701C48.7799 48.6001 48.3899 48.7701 48.1399 48.6301Z" fill="#F4C245"/>
<path d="M51.1299 48.4999C50.8998 48.3954 50.6459 48.3542 50.3945 48.3806C50.1431 48.4069 49.9034 48.4999 49.6999 48.6499C49.2099 48.9299 49.0099 49.2199 49.4399 49.4699C49.6701 49.5745 49.9239 49.6157 50.1753 49.5893C50.4267 49.5629 50.6665 49.4699 50.8699 49.3199C51.3599 48.9999 51.5599 48.7399 51.1299 48.4999ZM49.5299 49.4199C49.2799 49.2799 49.5299 49.0299 49.9699 48.7999C50.4099 48.5699 50.7999 48.3999 51.0499 48.5499C51.2999 48.6999 51.0499 48.9399 50.6099 49.1699C50.1699 49.3999 49.7699 49.5699 49.5299 49.4199Z" fill="#F4C245"/>
<path d="M75.51 55.6401L74.25 55.4001V55.3301L75.51 55.5701V55.6401ZM75.17 55.7801L73.91 55.5501V55.6201L75.18 55.8501L75.17 55.7801ZM74.79 56.0001L73.53 55.7701V55.8401L74.79 56.0701V56.0001ZM74.41 56.2201L73.15 56.0001V56.0801L74.41 56.3101V56.2201ZM74.04 56.4301L72.78 56.2001V56.2701L74.05 56.5101L74.04 56.4301ZM73.66 56.6501L72.4 56.4201V56.4901L73.66 56.7201V56.6501ZM73.29 56.8701L72 56.6401V56.7101L73.26 56.9401L73.29 56.8701ZM72.91 57.0901L71.65 56.8501V56.9301L72.92 57.1601L72.91 57.0901ZM72.53 57.3001L71.27 57.0701V57.1401L72.53 57.3801V57.3001Z" fill="#6B6597"/>
<path d="M57.37 42.65C57.1561 42.5419 56.9197 42.4856 56.68 42.4856C56.4403 42.4856 56.204 42.5419 55.99 42.65C55.62 42.86 55.64 43.22 55.99 43.45C56.204 43.5581 56.4403 43.6144 56.68 43.6144C56.9197 43.6144 57.1561 43.5581 57.37 43.45C57.78 43.23 57.76 42.87 57.37 42.65ZM56.12 43.37C55.78 43.17 55.76 42.86 56.12 42.67C56.3063 42.5767 56.5117 42.5282 56.72 42.5282C56.9283 42.5282 57.1338 42.5767 57.32 42.67C57.66 42.86 57.68 43.17 57.32 43.36C57.1339 43.4526 56.9291 43.5017 56.7212 43.5034C56.5133 43.5051 56.3077 43.4595 56.12 43.37Z" fill="#F4C245"/>
<path d="M66 47.5201L65.84 47.8101L66.17 48.0601H65.64L65.35 48.3101L65.18 48.01L64.67 47.91L65.09 47.75V47.44L65.52 47.6301L66 47.5201ZM62.42 46.5201L62 46.3601V46.66L61.58 46.8301L62.09 46.93L62.26 47.23L62.55 46.98H63.08L62.75 46.73L62.9 46.44L62.42 46.5201ZM59 46.4901L58.57 46.3V46.6L58.15 46.7701L58.66 46.87L58.83 47.16L59.12 46.92H59.65L59.32 46.67L59.47 46.39L59 46.4901ZM56 47.44L55.56 47.25V47.55L55.14 47.7201L55.64 47.82L55.82 48.1101L56.11 47.87H56.64L56.31 47.62L56.46 47.34L56 47.44ZM54.4 49.1501L54 49V49.3101L53.58 49.4701L54.09 49.57L54.27 49.87L54.56 49.62H55.08L54.75 49.37L54.91 49.0801L54.4 49.1501ZM54.51 51.1501L54.08 50.96V51.26L53.66 51.43L54.17 51.53L54.34 51.82L54.63 51.5801H55.16L54.83 51.3301L55 51L54.51 51.1501ZM56.35 52.93L55.92 52.7401V53.0401L55.5 53.21L56.01 53.3101L56.18 53.6101L56.47 53.3601H57L56.67 53.1101L56.82 52.82L56.35 52.93Z" fill="#E8AB31"/>
<path d="M64.05 45.75L69.84 49.09L58.64 55.56L52.85 52.22L64.05 45.75Z" fill="#F9F8F2"/>
<path d="M52.85 55.97L58.64 59.31V55.56L52.85 52.22V55.97Z" fill="#D1C1D3"/>
<path d="M53.42 52.5499L64.63 46.08L63.97 45.7L52.77 52.1699V55.93L53.42 56.2999V52.5499Z" fill="#788EFF"/>
<path d="M58.74 55.62L69.95 49.15L69.29 48.77L58.09 55.24V59L58.74 59.38V55.62Z" fill="#788EFF"/>
<path d="M53.42 52.5499L52.77 52.1699V55.9299L53.42 56.2999V52.5499Z" fill="#7D239B"/>
<path d="M58.74 55.62L58.09 55.24V59L58.74 59.38V55.62Z" fill="#7D239B"/>
<g style="mix-blend-mode:multiply">
<path d="M54.8299 41.6499L45.6699 46.9499L63.1599 57.0499L66.4799 57.0399L54.8299 41.6499Z" fill="#C2B3C6"/>
</g>
<path d="M66.5 57.04L45.62 44.99V42.02L66.5 47.31V57.04Z" fill="#C4BEA3"/>
<path d="M76.16 51.4501L66.5 57.0401V47.3101L76.16 48.4901V51.4501Z" fill="#D8D2B8"/>
<path d="M66.5 54.0799L45.62 42.0299L55.29 36.4399L76.17 48.4999L66.5 54.0799Z" fill="#FFF9E1"/>
<path d="M55.1099 36.8701L46.4099 41.8701L66.7199 53.6001L75.4199 48.6001L55.1099 36.8701ZM68.1099 52.5401C67.8693 52.6607 67.604 52.7234 67.3349 52.7234C67.0658 52.7234 66.8005 52.6607 66.5599 52.5401L48.3499 42.0001C47.8999 41.7401 47.8699 41.3401 48.2799 41.1001L53.7199 38.0001C53.9598 37.8773 54.2254 37.8132 54.4949 37.8132C54.7644 37.8132 55.03 37.8773 55.2699 38.0001L73.4399 48.4901C73.8899 48.7401 73.9199 49.1401 73.5099 49.3801L68.1099 52.5401Z" fill="#687A51"/>
<path d="M65.24 42.7501C63.24 41.5901 59.64 41.7501 57.24 43.1301C54.84 44.5101 54.56 46.5801 56.58 47.7501C58.6 48.9201 62.18 48.7501 64.58 47.3701C66.98 45.9901 67.26 43.9201 65.24 42.7501ZM56.64 47.7501C54.64 46.6001 54.94 44.5601 57.3 43.1901C59.66 41.8201 63.2 41.6601 65.19 42.8101C67.18 43.9601 66.89 46.0001 64.53 47.3701C62.17 48.7401 58.63 48.8701 56.64 47.7201V47.7501Z" fill="#A5AA9F"/>
<path d="M64.4199 47.2699C62.1099 48.6099 58.6699 48.7799 56.7299 47.6599C54.7899 46.5399 55.0999 44.5599 57.4099 43.2299C59.7199 41.8999 63.1599 41.7199 65.0999 42.8399C67.0399 43.9599 66.7299 45.9399 64.4199 47.2699Z" fill="#A5AA9F"/>
<path d="M63.91 47C62.9169 47.5645 61.8052 47.8884 60.6642 47.9458C59.5233 48.0031 58.3847 47.7922 57.34 47.33C55.69 46.33 55.95 44.68 57.92 43.54C58.9132 42.9754 60.0248 42.6515 61.1658 42.5942C62.3068 42.5369 63.4453 42.7478 64.49 43.21C66.14 44.14 65.88 45.84 63.91 47Z" fill="#FFF9E1"/>
<path d="M64.9999 48.9901L64.3099 48.5901L64.0499 48.7301L64.7499 49.1401L64.9999 48.9901Z" fill="#687A51"/>
<path d="M65.37 49.2L65.12 49.3499L68.11 51.08L68.37 50.93L65.37 49.2Z" fill="#687A51"/>
<path d="M51.56 41.2301L50.86 40.8301L50.61 40.9801L51.31 41.3801L51.56 41.2301Z" fill="#687A51"/>
<path d="M51.9299 41.4399L51.6699 41.5899L54.6699 43.3199L54.9299 43.1699L51.9299 41.4399Z" fill="#687A51"/>
<path d="M54.56 38.3101L54.21 38.5101L57.83 40.6001L58.19 40.4001L54.56 38.3101Z" fill="#687A51"/>
<path d="M69.22 46.77L68.87 46.97L72.49 49.06L72.84 48.86L69.22 46.77Z" fill="#A5AA9F"/>
<path d="M65.4799 51.2699L66.2399 50.8299L65.8499 50.6499V50.7399C65.8499 50.7399 65.8499 50.7399 65.8499 50.7999L65.2499 51.1499C65.2351 51.1598 65.2177 51.1651 65.1999 51.1651C65.1821 51.1651 65.1647 51.1598 65.1499 51.1499H65.0499L65.5499 51.4399L65.4599 51.3799C65.4599 51.3799 65.4299 51.2999 65.4799 51.2699Z" fill="#687A51"/>
<path d="M66.9299 51.22C66.8034 51.1576 66.6624 51.1303 66.5217 51.1409C66.3811 51.1514 66.2458 51.1995 66.1299 51.28C65.8899 51.42 65.7699 51.59 66.0299 51.74C66.1583 51.8022 66.3008 51.8294 66.443 51.8189C66.5852 51.8083 66.7221 51.7604 66.8399 51.68C67.0699 51.55 67.1999 51.37 66.9299 51.22ZM66.0899 51.71C65.9799 51.64 66.2099 51.49 66.3599 51.41C66.5099 51.33 66.7599 51.19 66.8699 51.26C66.9799 51.33 66.7599 51.47 66.6099 51.56C66.4599 51.65 66.2099 51.77 66.0899 51.71Z" fill="#687A51"/>
<path d="M67.7299 51.68C67.6016 51.6178 67.4591 51.5906 67.3169 51.6011C67.1746 51.6116 67.0377 51.6595 66.9199 51.74C66.6899 51.87 66.5599 52.05 66.8299 52.2C66.9565 52.2623 67.0974 52.2896 67.2381 52.2791C67.3788 52.2685 67.5141 52.2205 67.6299 52.14C67.8699 52 67.9999 51.83 67.7299 51.68ZM66.8799 52.16C66.7699 52.1 66.9999 51.95 67.1499 51.86C67.2999 51.77 67.5499 51.65 67.6699 51.71C67.7899 51.77 67.5499 51.93 67.3999 52.01C67.2499 52.09 66.9999 52.23 66.8799 52.16Z" fill="#687A51"/>
<path d="M72.1799 47.5301L72.6899 47.2301L72.4299 47.1101V47.1701L72.0299 47.4101H71.9999H71.9299L72.2399 47.6301V47.5701C72.2399 47.5701 72.1499 47.5501 72.1799 47.5301Z" fill="#FFF9E1"/>
<path d="M73.16 47.49C73.0776 47.4436 72.9846 47.4192 72.89 47.4192C72.7954 47.4192 72.7024 47.4436 72.62 47.49C72.46 47.58 72.38 47.7 72.56 47.8C72.6399 47.8486 72.7315 47.8743 72.825 47.8743C72.9185 47.8743 73.0101 47.8486 73.09 47.8C73.25 47.71 73.34 47.6 73.16 47.49ZM72.6 47.82C72.52 47.82 72.67 47.68 72.77 47.62C72.87 47.56 73.04 47.47 73.12 47.52C73.2 47.57 73.04 47.66 72.94 47.72C72.84 47.78 72.67 47.86 72.6 47.82Z" fill="#FFF9E1"/>
<path d="M73.69 47.8001C73.6076 47.7536 73.5146 47.7292 73.42 47.7292C73.3254 47.7292 73.2324 47.7536 73.15 47.8001C72.99 47.8901 72.91 48.0101 73.09 48.1101C73.1706 48.1566 73.262 48.1811 73.355 48.1811C73.4481 48.1811 73.5395 48.1566 73.62 48.1101C73.78 48.0001 73.87 47.9001 73.69 47.8001ZM73.13 48.1301C73.05 48.0801 73.2 47.9801 73.3 47.9201C73.4 47.8601 73.57 47.7801 73.65 47.8201C73.73 47.8601 73.57 47.9701 73.47 48.0201C73.37 48.0701 73.2 48.1701 73.13 48.1301Z" fill="#FFF9E1"/>
<path d="M56.31 38.36L56.82 38.07L56.56 38L56.15 38.23C56.15 38.23 56.15 38.23 56.08 38.23H56.01L56.32 38.44V38.38C56.32 38.38 56.28 38.38 56.31 38.36Z" fill="#FFF9E1"/>
<path d="M57.2799 38.3301C57.2001 38.2815 57.1084 38.2559 57.015 38.2559C56.9215 38.2559 56.8298 38.2815 56.75 38.3301C56.59 38.4201 56.5 38.5301 56.68 38.6401C56.7624 38.6866 56.8554 38.7109 56.9499 38.7109C57.0445 38.7109 57.1375 38.6866 57.22 38.6401C57.38 38.5501 57.4599 38.4301 57.2799 38.3301ZM56.72 38.6501C56.64 38.6501 56.8 38.5101 56.9 38.4501C57 38.3901 57.1599 38.3101 57.2399 38.3501C57.3199 38.3901 57.17 38.4901 57.07 38.5501C56.97 38.6101 56.8 38.7001 56.72 38.6501Z" fill="#FFF9E1"/>
<path d="M57.81 38.6301C57.7294 38.5836 57.638 38.5591 57.545 38.5591C57.4519 38.5591 57.3606 38.5836 57.28 38.6301C57.12 38.7201 57.03 38.8401 57.21 38.9401C57.2914 38.9895 57.3848 39.0157 57.48 39.0157C57.5752 39.0157 57.6686 38.9895 57.75 38.9401C57.91 38.8501 58 38.7401 57.81 38.6301ZM57.25 38.9601C57.17 38.9101 57.33 38.8201 57.43 38.7601C57.53 38.7001 57.69 38.6101 57.77 38.6601C57.85 38.7101 57.7 38.8001 57.6 38.8601C57.5 38.9201 57.33 39.0001 57.25 39.0001V38.9601Z" fill="#FFF9E1"/>
<path d="M48.61 42.4601H48.55C48.5178 42.4776 48.4817 42.4868 48.445 42.4868C48.4083 42.4868 48.3722 42.4776 48.34 42.4601L47.67 42.0701C47.61 42.0701 47.61 41.9901 47.67 41.9501H47.74C47.7694 41.9352 47.802 41.9274 47.835 41.9274C47.868 41.9274 47.9006 41.9352 47.93 41.9501L48 42.0001L48.78 41.5501L48.7 41.4801C48.6867 41.4801 48.674 41.4748 48.6646 41.4654C48.6553 41.4561 48.65 41.4434 48.65 41.4301C48.65 41.4168 48.6553 41.4041 48.6646 41.3947C48.674 41.3854 48.6867 41.3801 48.7 41.3801H48.75C48.8084 41.3603 48.8716 41.3603 48.93 41.3801L49.46 41.6001C49.46 41.6001 49.52 41.6001 49.52 41.6701C49.527 41.6823 49.5307 41.696 49.5307 41.7101C49.5307 41.7241 49.527 41.7379 49.52 41.7501L48.52 42.3301L48.61 42.3901C48.6173 42.4003 48.6213 42.4125 48.6213 42.4251C48.6213 42.4376 48.6173 42.4499 48.61 42.4601ZM51.39 43.4601C51.2033 43.5868 50.9861 43.6611 50.7609 43.6751C50.5358 43.6892 50.311 43.6426 50.11 43.5401C49.84 43.3801 49.8 43.2001 49.96 43.0101C49.8102 43.0581 49.6522 43.0749 49.4957 43.0594C49.3391 43.0439 49.1875 42.9965 49.05 42.9201C48.68 42.7101 48.73 42.4401 49.17 42.1801C49.3587 42.0579 49.5762 41.9871 49.8007 41.9748C50.0252 41.9626 50.249 42.0092 50.45 42.1101C50.72 42.2701 50.76 42.4501 50.6 42.6401C50.7494 42.5896 50.9078 42.5715 51.0647 42.587C51.2216 42.6025 51.3734 42.6513 51.51 42.7301C51.88 42.9401 51.83 43.2101 51.39 43.4601Z" fill="#FFF9E1"/>
<path d="M48.39 42.2399L49.39 41.6499L48.87 41.4099H48.81L48.91 41.4899C48.91 41.4899 48.91 41.4899 48.91 41.5799L48.1 42.0399C48.0787 42.0522 48.0546 42.0587 48.03 42.0587C48.0054 42.0587 47.9813 42.0522 47.96 42.0399L47.83 41.9999H47.76L48.44 42.3899H48.51L48.39 42.3099C48.39 42.3099 48.34 42.2699 48.39 42.2399Z" fill="#A5AA9F"/>
<path d="M50.35 42.17C50.1818 42.0845 49.9937 42.0458 49.8054 42.0581C49.6171 42.0705 49.4356 42.1333 49.28 42.24C48.96 42.43 48.79 42.66 49.14 42.87C49.3116 42.951 49.5013 42.9862 49.6905 42.9721C49.8797 42.9581 50.0621 42.8954 50.22 42.79C50.54 42.61 50.71 42.37 50.35 42.17ZM49.22 42.82C49.07 42.73 49.38 42.53 49.58 42.42C49.78 42.31 50.12 42.12 50.27 42.21C50.42 42.3 50.12 42.5 49.92 42.62C49.72 42.74 49.38 42.91 49.22 42.82Z" fill="#A5AA9F"/>
<path d="M51.42 42.7801C51.2491 42.6961 51.059 42.6593 50.8691 42.6733C50.6793 42.6874 50.4966 42.7519 50.34 42.8601C50.02 43.0401 49.85 43.2701 50.21 43.4801C50.3791 43.5642 50.5677 43.6011 50.756 43.5871C50.9443 43.573 51.1253 43.5084 51.28 43.4001C51.6 43.2201 51.77 43.0001 51.42 42.7801ZM50.29 43.4301C50.13 43.3401 50.44 43.1501 50.64 43.0301C50.84 42.9101 51.18 42.7401 51.34 42.8301C51.5 42.9201 51.18 43.1201 50.98 43.2301C50.78 43.3401 50.44 43.5201 50.29 43.4301Z" fill="#A5AA9F"/>
<path d="M68.9999 48.27C68.6618 48.0875 68.2851 47.9878 67.901 47.9791C67.5168 47.9704 67.136 48.053 66.7899 48.22C66.2099 48.56 66.2499 49.13 66.8799 49.49C67.2181 49.6717 67.5941 49.7718 67.9778 49.7822C68.3616 49.7927 68.7424 49.7131 69.0899 49.55C69.7199 49.21 69.6799 48.64 68.9999 48.27ZM66.9999 49.43C66.4299 49.1 66.3999 48.59 66.9199 48.29C67.2331 48.1381 67.5781 48.0633 67.926 48.072C68.274 48.0807 68.6148 48.1726 68.9199 48.34C69.4799 48.66 69.5199 49.17 68.9999 49.47C68.6869 49.6211 68.3427 49.6962 67.9952 49.6892C67.6477 49.6823 67.3067 49.5935 66.9999 49.43Z" fill="#A5AA9F"/>
<path d="M55.5999 40.5099C55.2578 40.3352 54.8791 40.2441 54.495 40.2441C54.1108 40.2441 53.7321 40.3352 53.3899 40.5099C52.7999 40.8399 52.84 41.4099 53.48 41.7799C53.8181 41.9624 54.1948 42.0621 54.5789 42.0708C54.9631 42.0795 55.3439 41.9969 55.69 41.8299C56.27 41.4499 56.2299 40.8699 55.5999 40.5099ZM53.5999 41.6599C53.0399 41.3399 52.9999 40.8299 53.5199 40.5299C53.8298 40.3727 54.1724 40.2907 54.5199 40.2907C54.8674 40.2907 55.2101 40.3727 55.5199 40.5299C56.0899 40.8599 56.1199 41.3699 55.5999 41.6699C55.2887 41.8297 54.9436 41.9121 54.5937 41.9104C54.2439 41.9087 53.8996 41.8227 53.5899 41.6599H53.5999Z" fill="#A5AA9F"/>
<path d="M68.86 48.83C68.8116 48.8277 68.7646 48.8138 68.7228 48.7895C68.681 48.7651 68.6457 48.731 68.62 48.69C68.5955 48.6433 68.5599 48.6033 68.5163 48.5736C68.4727 48.544 68.4224 48.5255 68.37 48.52H68.31C68.2637 48.5198 68.2183 48.5078 68.178 48.4851C68.1377 48.4623 68.104 48.4296 68.08 48.39C68.0545 48.3578 68.0188 48.3353 67.9788 48.3263C67.9388 48.3172 67.8969 48.322 67.86 48.34L67.31 48.66C67.287 48.6709 67.2674 48.6878 67.2533 48.7089C67.2392 48.73 67.2312 48.7546 67.23 48.78V49.28H68.14C68.2048 49.3021 68.2751 49.3021 68.34 49.28L68.89 48.96C69 48.91 69 48.84 68.86 48.83Z" fill="#687A51"/>
<path d="M55.41 41.06C55.3629 41.0574 55.317 41.0443 55.2755 41.0219C55.234 40.9994 55.198 40.968 55.17 40.93C55.1471 40.8821 55.1119 40.8411 55.068 40.8112C55.0241 40.7813 54.973 40.7637 54.92 40.76H54.86C54.8146 40.7559 54.7707 40.7422 54.731 40.7198C54.6913 40.6974 54.6569 40.6668 54.63 40.63C54.5993 40.6039 54.5603 40.5896 54.52 40.5896C54.4797 40.5896 54.4408 40.6039 54.41 40.63L53.86 40.95C53.8384 40.96 53.8198 40.9754 53.8058 40.9946C53.7918 41.0139 53.7829 41.0364 53.78 41.06V41.57H54.69C54.7556 41.5874 54.8245 41.5874 54.89 41.57L55.44 41.26C55.55 41.15 55.51 41.08 55.41 41.06Z" fill="#687A51"/>
<path d="M62 45.2199L61.74 44.9999L63.11 44.1999C63.27 44.3299 63.32 44.5299 63.04 44.9099C62.97 45.0099 62.97 45.0799 63.13 45.1799C63.2714 45.2612 63.4293 45.3097 63.592 45.3218C63.7547 45.3339 63.918 45.3094 64.07 45.2499C64.35 45.0899 64.35 44.5899 63.42 44.0299L63.95 43.7199L63.55 43.4899L63.01 43.7899C62.5964 43.5379 62.1264 43.3931 61.6427 43.3687C61.159 43.3443 60.6769 43.4409 60.24 43.6499C59.62 44.0099 59.76 44.4799 60.24 44.9899L60.49 45.2799L58.92 46.1799C58.8 46.0899 58.66 45.8599 59.01 45.3499C59.1 45.2199 59.08 45.1399 58.91 45.0399C58.7526 44.9699 58.5822 44.9337 58.41 44.9337C58.2377 44.9337 58.0674 44.9699 57.91 45.0399C57.68 45.1699 57.44 45.6599 58.62 46.3799L57.92 46.7799L58.33 47.0099L59.02 46.6099C59.453 46.8722 59.9435 47.0247 60.4489 47.0543C60.9543 47.084 61.4593 46.9898 61.92 46.7799C62.6 46.2999 62.46 45.8199 62 45.2199ZM61.52 44.6499C61.25 44.3899 61.19 44.1099 61.52 43.9299C61.7126 43.834 61.9248 43.784 62.14 43.784C62.3551 43.784 62.5674 43.834 62.76 43.9299L61.52 44.6499ZM59.32 46.3899L60.76 45.5599C60.8261 45.6179 60.8758 45.6922 60.904 45.7754C60.9323 45.8587 60.938 45.9479 60.9208 46.0341C60.9036 46.1203 60.8639 46.2004 60.8058 46.2664C60.7477 46.3324 60.6733 46.3819 60.59 46.4099C60.3901 46.5249 60.1628 46.5838 59.9322 46.5802C59.7016 46.5767 59.4763 46.511 59.28 46.3899H59.32Z" fill="#687A51"/>
<path d="M63.22 50.1L61.45 49.08L61.55 49.02L63.32 50.05L63.22 50.1Z" fill="#A5AA9F"/>
<path d="M54.22 44.9101L52.45 43.8801L52.55 43.8201L54.32 44.8501L54.22 44.9101Z" fill="#A5AA9F"/>
<path d="M63.6099 41.24L67.7699 43.65L58.0999 49.23L53.9399 46.83L63.6099 41.24Z" fill="#F9F8F2"/>
<path d="M53.9399 49.8101L58.0999 52.2101V49.2301L53.9399 46.8301V49.8101Z" fill="#D1C1D3"/>
<path d="M54.39 47.09L64.07 41.51L63.55 41.21L53.87 46.79V49.77L54.39 50.08V47.09Z" fill="#788EFF"/>
<path d="M58.1799 49.2799L67.8599 43.6999L67.3299 43.3899L57.6599 48.9799V51.9599L58.1799 52.2599V49.2799Z" fill="#788EFF"/>
<path d="M54.39 47.09L53.87 46.79V49.77L54.39 50.08V47.09Z" fill="#7D239B"/>
<path d="M58.1799 49.28L57.6599 48.98V51.96L58.1799 52.26V49.28Z" fill="#7D239B"/>
</g>
<defs>
<linearGradient id="paint0_linear_52_13475" x1="46.3099" y1="37.0901" x2="38.6699" y2="50.3201" gradientUnits="userSpaceOnUse">
<stop stop-color="#FFFEFA"/>
<stop offset="1" stop-color="#F1F0EC"/>
</linearGradient>
<clipPath id="clip0_52_13475">
<rect width="81" height="77" fill="white"/>
</clipPath>
</defs>
</svg>
