<svg width="112" height="72" viewBox="0 0 112 72" fill="none" xmlns="http://www.w3.org/2000/svg">
<g clip-path="url(#clip0_52_13311)">
<path d="M24.23 54.6001L73.28 26.2901V18.8701L24.23 30.2201V54.6001Z" fill="#D8D2B8"/>
<path d="M0 40.61L24.23 54.6V30.22L0 33.19V40.61Z" fill="#C4BEA3"/>
<path d="M73.28 18.8701L24.24 47.1801L0.0200195 33.1901L49.05 4.88013L73.28 18.8701Z" fill="#FFF9E1"/>
<path d="M1.83997 33.4699L23.65 46.0699L71.35 18.5299L49.54 5.93994L1.83997 33.4699ZM66.69 16.5499C67.69 17.1399 67.69 18.1099 66.69 18.7199L24 43.3599C23.4185 43.6535 22.7763 43.8065 22.125 43.8065C21.4736 43.8065 20.8314 43.6535 20.25 43.3599L6.59997 35.5099C5.59997 34.9199 5.59997 33.9399 6.59997 33.3399L49.31 8.69994C49.8914 8.40637 50.5336 8.25343 51.185 8.25343C51.8363 8.25343 52.4785 8.40637 53.06 8.69994L66.69 16.5499Z" fill="#687A51"/>
<path d="M25.76 19.7401C21 22.4801 22 27.5201 28 31.0001C34 34.4801 42.7 35.0001 47.44 32.2901C52.18 29.5801 51.18 24.4801 45.2 21.0001C39.22 17.5201 30.51 17.0001 25.76 19.7401ZM47.31 32.1901C42.64 34.8901 34.02 34.3101 28.11 30.9001C22.2 27.4901 21.2 22.5101 25.88 19.8101C30.56 17.1101 39.17 17.6901 45.08 21.1001C50.99 24.5101 52 29.4901 47.31 32.1901Z" fill="#A5AA9F"/>
<path d="M44.83 21.25C50.62 24.59 51.62 29.42 47.07 32.05C42.52 34.68 34.15 34.1 28.36 30.76C22.57 27.42 21.57 22.58 26.12 20C30.67 17.42 39.05 17.91 44.83 21.25Z" fill="#A5AA9F"/>
<path d="M43.6301 21.9399C48.5701 24.7899 49.4301 28.9399 45.5401 31.1699C41.6501 33.3999 34.5401 32.9199 29.5401 30.0599C24.5401 27.1999 23.7401 23.0599 27.6301 20.8299C31.5201 18.5999 38.6901 19.0899 43.6301 21.9399Z" fill="#FFF9E1"/>
<path d="M52 20.5701L50.36 21.5101L51 21.8801L52.63 20.9301L52 20.5701Z" fill="#687A51"/>
<path d="M52.86 20.07L53.5 20.43L60.54 16.37L59.9 16L52.86 20.07Z" fill="#687A51"/>
<path d="M20.43 38.79L18.79 39.74L19.43 40.1L21.07 39.16L20.43 38.79Z" fill="#687A51"/>
<path d="M21.29 38.29L21.93 38.66L28.97 34.6L28.34 34.23L21.29 38.29Z" fill="#687A51"/>
<path d="M7.91003 34.36L8.79003 34.86L17.29 29.95L16.41 29.45L7.91003 34.36Z" fill="#687A51"/>
<path d="M42.33 14.4901L43.2 14.9901L51.7 10.0901L50.83 9.58008L42.33 14.4901Z" fill="#A5AA9F"/>
<path d="M61.56 20.08L59.64 19L58.97 19.53L59.07 19.59L59.32 19.49C59.3622 19.4644 59.4106 19.4509 59.46 19.4509C59.5093 19.4509 59.5578 19.4644 59.6 19.49L61.11 20.36C61.21 20.42 61.2 20.45 61.11 20.5L60.91 20.65L61.03 20.72L62.18 20H62.05L61.81 20.12C61.769 20.1385 61.7234 20.1446 61.679 20.1375C61.6345 20.1304 61.5932 20.1104 61.56 20.08Z" fill="#687A51"/>
<path d="M61.23 18.0001C60.6 18.3601 60.93 18.7901 61.53 19.1301C61.8123 19.3248 62.1399 19.4436 62.4814 19.4751C62.8229 19.5066 63.1668 19.4498 63.48 19.3101C64.1 18.9501 63.78 18.5201 63.18 18.1801C62.8976 17.9855 62.57 17.8666 62.2285 17.8351C61.887 17.8036 61.5432 17.8604 61.23 18.0001ZM63.33 19.2201C63.06 19.3801 62.42 19.0401 62.05 18.8301C61.68 18.6201 61.1 18.2501 61.38 18.0901C61.66 17.9301 62.28 18.2701 62.65 18.4801C63.02 18.6901 63.6 19.0901 63.33 19.2501V19.2201Z" fill="#687A51"/>
<path d="M63.08 17C62.46 17.36 62.79 17.78 63.39 18.13C63.6788 18.3321 64.0159 18.4542 64.3672 18.4841C64.7184 18.5139 65.0712 18.4504 65.39 18.3C66.01 17.94 65.68 17.52 65.09 17.17C64.8001 16.9661 64.4612 16.8429 64.108 16.813C63.7548 16.7832 63.4001 16.8477 63.08 17ZM65.19 18.22C64.92 18.37 64.28 18.04 63.91 17.83C63.54 17.62 62.96 17.24 63.23 17.09C63.5 16.94 64.14 17.26 64.51 17.48C64.88 17.7 65.46 18 65.19 18.18V18.22Z" fill="#687A51"/>
<path d="M45.3 10.3901L44 9.65015C43.8298 9.76049 43.6662 9.88069 43.51 10.0101H43.58L43.75 9.95015C43.7692 9.93555 43.7913 9.92519 43.8148 9.91978C43.8383 9.91436 43.8627 9.91401 43.8863 9.91874C43.9099 9.92347 43.9323 9.93317 43.9519 9.94721C43.9715 9.96124 43.9879 9.97929 44 10.0001L45 10.5901C45.07 10.5901 45.06 10.6501 45 10.6801L44.87 10.7801L44.95 10.8301L45.74 10.3701H45.66L45.49 10.4501C45.4736 10.4588 45.4557 10.4641 45.4372 10.4658C45.4188 10.4675 45.4001 10.4654 45.3825 10.4599C45.3648 10.4543 45.3484 10.4452 45.3343 10.4333C45.3201 10.4213 45.3085 10.4066 45.3 10.3901Z" fill="#FFF9E1"/>
<path d="M45.07 8.99996C44.66 9.23996 44.88 9.52996 45.28 9.75996C45.4678 9.89122 45.6869 9.97053 45.9152 9.98984C46.1435 10.0092 46.3729 9.9678 46.58 9.86996C47 9.62996 46.78 9.34996 46.38 9.11996C46.1912 8.98716 45.9709 8.9062 45.741 8.88514C45.5112 8.86409 45.2798 8.90367 45.07 8.99996ZM46.48 9.81996C46.3 9.91996 45.88 9.69996 45.63 9.54996C45.38 9.39996 44.99 9.15996 45.18 9.05996C45.37 8.95996 45.78 9.17996 46.03 9.31996C46.28 9.45996 46.67 9.72996 46.48 9.83996V9.81996Z" fill="#FFF9E1"/>
<path d="M46.3201 8.30001C45.9001 8.54001 46.1201 8.83001 46.5201 9.06001C46.7094 9.19214 46.9302 9.27191 47.1603 9.29123C47.3903 9.31054 47.6214 9.26872 47.8301 9.17001C48.2401 8.93001 48.0301 8.65001 47.6301 8.42001C47.4413 8.28721 47.2209 8.20625 46.9911 8.18519C46.7612 8.16414 46.5298 8.20372 46.3201 8.30001ZM47.7301 9.12001C47.5501 9.22001 47.1201 9 46.8701 8.86C46.6201 8.72 46.2401 8.47 46.4201 8.36C46.6001 8.25 47.0301 8.48001 47.2801 8.62001C47.5301 8.76 47.9101 9.00001 47.7301 9.12001Z" fill="#FFF9E1"/>
<path d="M7.99998 31.9199L6.71998 31.1799C6.54976 31.2903 6.38615 31.4105 6.22998 31.5399H6.29998L6.46998 31.4699C6.49765 31.4551 6.52857 31.4473 6.55998 31.4473C6.59139 31.4473 6.62232 31.4551 6.64998 31.4699L7.64998 32.0499C7.71998 32.0499 7.70998 32.1199 7.64998 32.1499L7.51998 32.2499H7.59998L8.38998 31.7999H8.30998L8.14998 31.8799C8.131 31.8996 8.107 31.9138 8.08056 31.9208C8.05412 31.9279 8.02625 31.9276 7.99998 31.9199Z" fill="#FFF9E1"/>
<path d="M7.79003 30.55C7.37003 30.79 7.59003 31.08 7.99003 31.31C8.17932 31.4421 8.40018 31.5219 8.63023 31.5412C8.86028 31.5605 9.09134 31.5187 9.30003 31.42C9.71003 31.18 9.49003 30.9 9.09003 30.67C8.90317 30.5371 8.68449 30.456 8.45618 30.4349C8.22787 30.4139 7.99805 30.4536 7.79003 30.55ZM9.20003 31.36C9.01003 31.47 8.59003 31.25 8.34003 31.1C8.09003 30.95 7.70003 30.71 7.89003 30.61C8.08003 30.51 8.49003 30.73 8.74003 30.87C8.99003 31.01 9.38003 31.26 9.20003 31.36Z" fill="#FFF9E1"/>
<path d="M9 29.83C8.59 30.07 8.8 30.36 9.2 30.59C9.38971 30.7212 9.61049 30.8004 9.84033 30.8197C10.0702 30.839 10.3011 30.7978 10.51 30.7C10.93 30.46 10.71 30.18 10.31 29.95C10.1212 29.8172 9.90088 29.7363 9.67101 29.7152C9.44115 29.6942 9.20979 29.7338 9 29.83ZM10.41 30.65C10.23 30.75 9.8 30.53 9.55 30.38C9.3 30.23 9 30 9.13 29.89C9.26 29.78 9.74 30.01 9.99 30.15C10.24 30.29 10.62 30.54 10.44 30.65H10.41Z" fill="#FFF9E1"/>
<path d="M25.82 43L25.99 43.09C26.13 43.17 26.12 43.3 25.99 43.38L24.4 44.3C24.3237 44.3371 24.2399 44.3564 24.155 44.3564C24.0701 44.3564 23.9864 44.3371 23.91 44.3L23.74 44.2C23.7147 44.1877 23.6933 44.1685 23.6783 44.1447C23.6633 44.1208 23.6554 44.0932 23.6554 44.065C23.6554 44.0368 23.6633 44.0092 23.6783 43.9853C23.6933 43.9615 23.7147 43.9423 23.74 43.93L23.96 43.79L21.96 42.66L21.68 42.77C21.6105 42.7997 21.5356 42.815 21.46 42.815C21.3844 42.815 21.3096 42.7997 21.24 42.77L21.11 42.69C20.99 42.62 20.98 42.52 21.11 42.44L22 41.72C22.0772 41.6688 22.1675 41.641 22.26 41.64H22.34C22.4303 41.6383 22.5196 41.659 22.6 41.7L25.11 43.15L25.37 43.03C25.4382 42.9922 25.5139 42.9699 25.5917 42.9647C25.6695 42.9596 25.7474 42.9716 25.82 43ZM29.82 39.19C30.94 39.83 31.09 40.49 30.22 40.99C29.8829 41.1685 29.5123 41.2749 29.1319 41.3024C28.7514 41.33 28.3693 41.2781 28.01 41.15C28.44 41.62 28.36 42.06 27.73 42.43C27.2352 42.6677 26.6868 42.7716 26.1393 42.7312C25.5919 42.6909 25.0646 42.5077 24.61 42.2C23.5 41.55 23.35 40.9 24.21 40.4C24.5482 40.2196 24.9201 40.1114 25.3022 40.0821C25.6843 40.0529 26.0684 40.1032 26.43 40.23C26 39.77 26.08 39.32 26.71 38.96C27.2047 38.718 27.7553 38.6135 28.3043 38.6575C28.8532 38.7015 29.3802 38.8923 29.83 39.21L29.82 39.19Z" fill="#FFF9E1"/>
<path d="M24.91 43.3101L22.34 41.8201H22.27L21.37 42.5301L21.51 42.6101L21.84 42.4801C21.8978 42.4467 21.9633 42.4292 22.03 42.4292C22.0967 42.4292 22.1622 42.4467 22.22 42.4801L24.22 43.6501C24.36 43.7301 24.34 43.7701 24.22 43.8401L23.95 44.0301L24.11 44.1301L25.7 43.2101L25.54 43.1101L25.21 43.2701C25.168 43.3027 25.1181 43.3236 25.0654 43.3307C25.0127 43.3377 24.9591 43.3306 24.91 43.3101Z" fill="#A5AA9F"/>
<path d="M24.4699 40.5601C23.6299 41.0401 24.0699 41.5601 24.8699 42.0701C25.2482 42.3384 25.6908 42.502 26.1526 42.5441C26.6145 42.5863 27.0793 42.5055 27.4999 42.3101C28.3299 41.8301 27.8899 41.2501 27.0899 40.7901C26.7118 40.5251 26.2707 40.3644 25.8108 40.324C25.3509 40.2837 24.8884 40.3651 24.4699 40.5601ZM27.2899 42.1901C26.9299 42.4001 26.0699 41.9501 25.5799 41.6701C25.0899 41.3901 24.2999 40.8901 24.6699 40.6701C25.0399 40.4501 25.8899 40.9101 26.3899 41.2001C26.8899 41.4901 27.6599 42.0001 27.2899 42.1901Z" fill="#A5AA9F"/>
<path d="M27.0001 39.1199C26.1701 39.5999 26.6101 40.1699 27.4101 40.6299C27.7872 40.8965 28.228 41.059 28.6879 41.1011C29.1478 41.1432 29.6107 41.0635 30.0301 40.8699C30.8601 40.3799 30.4301 39.8099 29.6301 39.3499C29.25 39.0851 28.8072 38.9245 28.3457 38.8841C27.8843 38.8437 27.4203 38.9251 27.0001 39.1199ZM29.8301 40.7499C29.4601 40.9599 28.6101 40.5099 28.1101 40.2299C27.6101 39.9499 26.8401 39.4399 27.2001 39.2299C27.5601 39.0199 28.4201 39.4699 28.9201 39.7599C29.4201 40.0499 30.1601 40.5399 29.7901 40.7499H29.8301Z" fill="#A5AA9F"/>
<path d="M48.66 14.85C47.16 15.71 47.14 17.1 48.66 17.94C49.488 18.3639 50.4048 18.585 51.335 18.585C52.2651 18.585 53.182 18.3639 54.01 17.94C55.51 17.08 55.53 15.7 54.01 14.85C53.1806 14.4308 52.2643 14.2124 51.335 14.2124C50.4057 14.2124 49.4894 14.4308 48.66 14.85ZM53.66 17.75C52.9196 18.1268 52.1007 18.3231 51.27 18.3231C50.4393 18.3231 49.6203 18.1268 48.88 17.75C47.58 17 47.6 15.75 48.93 15C49.6693 14.6257 50.4863 14.4307 51.315 14.4307C52.1436 14.4307 52.9607 14.6257 53.7 15C55 15.75 55 17 53.68 17.75H53.66Z" fill="#A5AA9F"/>
<path d="M17.08 33.0801C15.59 33.9401 15.57 35.3301 17.08 36.1701C17.9097 36.5941 18.8282 36.8152 19.76 36.8152C20.6917 36.8152 21.6102 36.5941 22.44 36.1701C23.93 35.3101 23.95 33.9301 22.49 33.0801C21.6512 32.6565 20.7247 32.4358 19.785 32.4358C18.8453 32.4358 17.9187 32.6565 17.08 33.0801ZM22.08 35.9801C21.3416 36.3576 20.5242 36.5544 19.695 36.5544C18.8657 36.5544 18.0483 36.3576 17.31 35.9801C16 35.2301 16.02 33.9801 17.31 33.2301C18.0493 32.8558 18.8663 32.6608 19.695 32.6608C20.5236 32.6608 21.3407 32.8558 22.08 33.2301C23.45 34.0001 23.43 35.2101 22.1 36.0001L22.08 35.9801Z" fill="#A5AA9F"/>
<path d="M51.0001 15.1499C50.9433 15.2466 50.8632 15.3274 50.7671 15.385C50.671 15.4427 50.562 15.4753 50.4501 15.4799H50.3101C50.1998 15.4815 50.0917 15.5108 49.9956 15.5649C49.8995 15.6191 49.8185 15.6964 49.7601 15.7899V15.8699C49.7046 15.964 49.6257 16.042 49.531 16.0963C49.4364 16.1507 49.3292 16.1795 49.2201 16.1799C48.9501 16.1799 48.8601 16.3899 49.0401 16.4899L50.4101 17.2899C50.5644 17.3694 50.7367 17.4073 50.9101 17.3999H53.0001H53.0801V16.1399C53.0801 16.0299 53.0101 15.9299 52.8801 15.8499L51.5101 15.0599C51.3601 14.9999 51.0601 14.9999 51.0001 15.1499Z" fill="#687A51"/>
<path d="M19.42 33.39C19.3632 33.4866 19.2831 33.5675 19.187 33.6251C19.091 33.6828 18.9819 33.7154 18.87 33.72H18.73C18.6194 33.7253 18.5116 33.7572 18.4159 33.8129C18.3202 33.8685 18.2392 33.9465 18.18 34.04V34.12C18.1231 34.2128 18.0439 34.2897 17.9495 34.3439C17.8552 34.3981 17.7487 34.4277 17.64 34.43C17.37 34.43 17.28 34.64 17.46 34.74L18.83 35.54C18.9856 35.6159 19.1569 35.6536 19.33 35.65H21.46H21.54V34.38C21.54 34.27 21.47 34.17 21.34 34.09L20 33.3C19.77 33.2 19.47 33.25 19.42 33.39Z" fill="#687A51"/>
<path d="M36.4 24.5301L35.34 24.8201L31.9 22.8201C32.8919 22.5559 33.9419 22.6119 34.9 22.9801C35.0809 23.0398 35.2722 23.0609 35.4617 23.0419C35.6512 23.023 35.8346 22.9644 36 22.8701C36.32 22.6801 37 22.0101 36.24 21.5501C35.48 21.0901 33.44 21.1101 31.14 22.3801L29.81 21.6101L28.86 22.1501L30.19 22.9201C28.31 24.0901 27.71 25.5901 29.81 26.8001C31.36 27.7001 33.35 27.5301 35.45 26.9801L36.65 26.6501L40.57 28.9101C40.16 29.0701 39.22 29.2501 37.04 28.7201C36.8304 28.648 36.6078 28.6214 36.3871 28.6421C36.1664 28.6628 35.9526 28.7303 35.76 28.8401C35.6292 28.9044 35.5191 29.0041 35.442 29.1278C35.365 29.2515 35.3241 29.3943 35.3241 29.5401C35.3241 29.6859 35.365 29.8287 35.442 29.9524C35.5191 30.0761 35.6292 30.1758 35.76 30.2401C36.33 30.5701 38.41 30.9501 41.36 29.3601L43.1 30.3601L44.05 29.8101L42.31 28.8101C43.88 27.9101 45.15 26.1501 42.76 24.7501C40.87 23.7201 38.87 23.8801 36.4 24.5301ZM34 25.1601C33.5253 25.3603 33.0153 25.4635 32.5 25.4635C31.9848 25.4635 31.4748 25.3603 31 25.1601C30.16 24.6701 30.12 23.9501 30.94 23.4201L34 25.1601ZM41.49 28.3901L37.9 26.3101C39.0921 25.9355 40.3833 26.0395 41.5 26.6001C42.49 27.1701 42.41 27.8701 41.51 28.3901H41.49Z" fill="#687A51"/>
<path d="M56.81 23.15L52.64 25.55L52.39 25.41L56.56 23L56.81 23.15Z" fill="#A5AA9F"/>
<path d="M35.67 35.35L31.5 37.76L31.26 37.62L35.43 35.21L35.67 35.35Z" fill="#A5AA9F"/>
<path d="M29.9 15.9299L19.46 21.9499L43.71 35.9499L54.14 29.9299L29.9 15.9299Z" fill="#F9F8F2"/>
<path d="M54.1399 37.3999L43.7 43.4199V35.9499L54.1399 29.9299V37.3999Z" fill="#E5E2D8"/>
<path d="M52.99 30.5901L28.75 16.5901L30.05 15.8401L54.3 29.8301V37.3101L52.99 38.0601V30.5901Z" fill="#788EFF"/>
<path d="M43.49 36.0701L19.25 22.0701L20.56 21.3201L44.8 35.3201V42.8001L43.49 43.5501V36.0701Z" fill="#788EFF"/>
<path d="M52.99 30.5901L54.3 29.8301V37.3101L52.99 38.0601V30.5901Z" fill="#576FD3"/>
<path d="M43.49 36.0701L44.8 35.3201V42.8001L43.49 43.5501V36.0701Z" fill="#576FD3"/>
<g style="mix-blend-mode:multiply" opacity="0.8">
<g style="mix-blend-mode:multiply">
<path d="M26.43 33.85C24.6821 32.9708 22.699 32.673 20.77 33C18.8129 32.6772 16.8039 32.9928 15.04 33.9C12.72 35.25 12.73 37.43 15.04 38.76C16.3172 39.4464 17.7503 39.7909 19.2 39.76H22.2C23.666 39.795 25.1162 39.4505 26.41 38.76C28.77 37.35 28.76 35.18 26.43 33.85Z" fill="#C4BEA3"/>
</g>
<g style="mix-blend-mode:multiply">
<path d="M19.35 28.3201C17.6014 27.4319 15.6133 27.1303 13.68 27.4601C11.7402 27.1416 9.74941 27.4536 7.99999 28.3501C5.68999 29.7001 5.69999 31.8801 7.99999 33.2101C9.28136 33.8952 10.7173 34.2395 12.17 34.2101H15.17C16.6393 34.2459 18.093 33.9014 19.39 33.2101C21.69 31.8201 21.68 29.6501 19.35 28.3201Z" fill="#C4BEA3"/>
</g>
</g>
<g style="mix-blend-mode:multiply" opacity="0.4">
<path d="M84.88 32.06C84.0518 31.9934 83.222 32.167 82.49 32.56L43.62 55.05C42.5 55.7 42.38 56.67 43.35 57.23L66.64 70.64C67.2547 70.9609 67.9505 71.0931 68.64 71.02L86.92 32.4C86.289 32.0861 85.5787 31.9678 84.88 32.06Z" fill="#50197C"/>
</g>
<path d="M110.84 46.81C110.803 47.0749 110.699 47.326 110.538 47.5395C110.377 47.753 110.165 47.9218 109.92 48.03L71.05 70.52C70.475 70.8368 69.8346 71.0161 69.1787 71.0438C68.5229 71.0716 67.8696 70.9471 67.27 70.68L44 57.27C43.799 57.1801 43.6296 57.032 43.5137 56.8448C43.3978 56.6576 43.3408 56.44 43.35 56.22C43.35 56.01 43.35 55.82 43.41 55.56C43.464 55.3154 43.5745 55.0868 43.7324 54.8923C43.8904 54.6979 44.0916 54.543 44.32 54.44L83.18 32C83.7543 31.6642 84.4003 31.4701 85.0646 31.4336C85.7289 31.397 86.3923 31.5192 87 31.79L110.24 45.2C110.415 45.2789 110.566 45.4012 110.68 45.5552C110.794 45.7093 110.866 45.89 110.89 46.08C110.91 46.35 110.84 46.59 110.84 46.81Z" fill="#E0DBE1"/>
<path d="M83.18 32L44.31 54.44C43.19 55.08 43.07 56.06 44.04 56.62L67.32 70C67.9184 70.2717 68.5724 70.3987 69.229 70.3709C69.8857 70.3431 70.5266 70.1613 71.1 69.84L110 47.38C111.11 46.73 111.23 45.76 110.26 45.2L87 31.79C86.3923 31.5192 85.7289 31.397 85.0646 31.4336C84.4003 31.4701 83.7543 31.6642 83.18 32Z" fill="url(#paint0_linear_52_13311)"/>
<path d="M77.75 38C77.6079 38.0629 77.4824 38.1579 77.3835 38.2777C77.2846 38.3975 77.2149 38.5386 77.18 38.69C77.1719 38.8276 77.2059 38.9644 77.2773 39.0823C77.3487 39.2001 77.4543 39.2935 77.58 39.35L79.12 40.23C79.4897 40.3999 79.8942 40.4802 80.3007 40.4646C80.7073 40.449 81.1044 40.3378 81.46 40.14L87 36.87C87.1414 36.805 87.2656 36.7078 87.3628 36.5863C87.46 36.4648 87.5276 36.3222 87.56 36.17C87.5674 36.0339 87.5331 35.8987 87.4616 35.7825C87.3901 35.6664 87.2849 35.5748 87.16 35.52L85.62 34.63C85.2489 34.464 84.8443 34.3866 84.4382 34.404C84.0321 34.4214 83.6355 34.533 83.28 34.73L77.75 38Z" fill="#F0F2FF"/>
<path opacity="0.4" d="M65.16 64.4301C65.0168 64.4939 64.8905 64.5905 64.7915 64.7121C64.6925 64.8337 64.6235 64.9769 64.59 65.1301C64.5811 65.2665 64.6149 65.4024 64.6865 65.5188C64.7582 65.6352 64.8642 65.7265 64.99 65.7801L67.99 67.4901C68.3594 67.656 68.7623 67.7334 69.1669 67.716C69.5714 67.6986 69.9662 67.5871 70.32 67.3901L76.41 63.8701C76.5502 63.806 76.6737 63.7104 76.7709 63.5907C76.868 63.471 76.9362 63.3305 76.97 63.1801C76.9781 63.0425 76.9442 62.9057 76.8727 62.7879C76.8013 62.67 76.6957 62.5766 76.57 62.5201L73.57 60.8201C73.1995 60.6518 72.7946 60.5731 72.3881 60.5905C71.9815 60.6079 71.5848 60.7208 71.23 60.9201L65.16 64.4301Z" fill="#3452A5"/>
<path d="M76.14 63.93L70.06 67.45C69.7666 67.6122 69.4394 67.7039 69.1044 67.7178C68.7694 67.7317 68.4358 67.6674 68.13 67.53L65.13 65.83C64.64 65.54 64.7 65.04 65.27 64.71L71.35 61.19C71.6434 61.0278 71.9706 60.9361 72.3055 60.9223C72.6405 60.9084 72.9741 60.9727 73.28 61.11L76.28 62.81C76.77 63.1 76.71 63.6 76.14 63.93Z" fill="#FFC440"/>
<g opacity="0.6">
<path d="M72.87 61.82L71 62.93C70.6478 62.807 70.274 62.7586 69.9021 62.7879C69.5303 62.8172 69.1686 62.9235 68.84 63.1C68.21 63.47 68.1 64 68.54 64.35L66.54 65.51L65.26 64.78L65.11 64.9L69.78 67.59C69.8532 67.5681 69.9237 67.5379 69.99 67.5L68.83 66.84L70.83 65.67C71.1783 65.7833 71.5461 65.824 71.9107 65.7896C72.2753 65.7552 72.629 65.6464 72.95 65.47C73.56 65.12 73.68 64.61 73.28 64.25L75.2 63.14L76.35 63.81L76.48 63.68L71.83 61L71.6 61.08L72.87 61.82ZM70.63 65.59L68.63 66.74L66.63 65.6L68.63 64.45L70.57 65.57L70.63 65.59ZM70.99 65.59L73.06 64.39C73.38 64.69 73.27 65.12 72.76 65.39C72.4925 65.5336 72.1992 65.6225 71.8971 65.6517C71.5949 65.6809 71.29 65.6497 71 65.56L70.99 65.59ZM70.77 63L68.69 64.2C68.33 63.9 68.43 63.46 68.96 63.2C69.2313 63.0429 69.5323 62.9441 69.8439 62.9096C70.1556 62.8752 70.4709 62.906 70.77 63ZM72.9 64.2L70.81 65.44L68.81 64.3L71 63.12L72.9 64.2ZM73 61.91L75 63.05L73.1 64.15L71.1 63.01L73 61.91Z" fill="#D88C1D"/>
</g>
<path d="M103.11 47.7799C104.463 47.7799 105.56 47.1442 105.56 46.3599C105.56 45.5757 104.463 44.9399 103.11 44.9399C101.757 44.9399 100.66 45.5757 100.66 46.3599C100.66 47.1442 101.757 47.7799 103.11 47.7799Z" fill="#F4AC1C"/>
<path d="M99.12 50.09C100.473 50.09 101.57 49.4542 101.57 48.67C101.57 47.8858 100.473 47.25 99.12 47.25C97.767 47.25 96.67 47.8858 96.67 48.67C96.67 49.4542 97.767 50.09 99.12 50.09Z" fill="#B53333"/>
<path d="M57.28 60.16L56.91 60.38C56.74 60.48 56.65 60.58 56.65 60.7C56.65 60.82 56.74 60.92 56.91 61.02L58.21 61.76C58.3766 61.8584 58.5666 61.9102 58.76 61.91C58.9522 61.9101 59.1413 61.8619 59.31 61.77L59.68 61.55C59.85 61.45 59.94 61.35 59.94 61.23C59.94 61.11 59.85 61.01 59.68 60.91L58.38 60.17C58.2138 60.0707 58.0236 60.0189 57.83 60.02C57.6379 60.02 57.4488 60.0682 57.28 60.16ZM59.4 61.06C59.61 61.19 59.62 61.31 59.4 61.43L59.09 61.61C58.9953 61.6684 58.8863 61.6994 58.775 61.6994C58.6638 61.6994 58.5547 61.6684 58.46 61.61L57.19 60.87C56.97 60.75 56.96 60.63 57.19 60.51L57.5 60.33C57.5954 60.2685 57.7065 60.2357 57.82 60.2357C57.9335 60.2357 58.0447 60.2685 58.14 60.33L59.4 61.06Z" fill="#F4A9FF"/>
<path d="M59.1901 59.07L58.8101 59.28C58.6401 59.38 58.5601 59.48 58.5601 59.6C58.5601 59.72 58.6401 59.82 58.8201 59.92L60.1101 60.66C60.2803 60.7583 60.4735 60.81 60.6701 60.81C60.8589 60.8088 61.0444 60.7607 61.2101 60.67L61.5901 60.45C61.7501 60.35 61.8401 60.25 61.8401 60.14C61.8401 60.03 61.7601 59.92 61.5801 59.81L60.2901 59.07C60.1198 58.9717 59.9267 58.92 59.7301 58.92C59.5394 58.9175 59.3521 58.9696 59.1901 59.07ZM61.3001 60C61.5201 60.13 61.5201 60.25 61.3001 60.37L61.0001 60.55C60.9047 60.6116 60.7936 60.6443 60.6801 60.6443C60.5665 60.6443 60.4554 60.6116 60.3601 60.55L59.0901 59.82C58.8701 59.69 58.8701 59.57 59.0901 59.45L59.4001 59.27C59.4954 59.2084 59.6065 59.1757 59.7201 59.1757C59.8336 59.1757 59.9447 59.2084 60.0401 59.27L61.3001 60Z" fill="#F4A9FF"/>
<path d="M61.09 58.0001L60.72 58.2101C60.55 58.3101 60.46 58.4101 60.46 58.5301C60.46 58.6501 60.55 58.7501 60.72 58.8501L62.01 59.6001C62.1788 59.7008 62.3736 59.7495 62.57 59.7401C62.7626 59.7438 62.9526 59.6954 63.12 59.6001L63.49 59.3801C63.66 59.2801 63.74 59.1801 63.74 59.0701C63.74 58.9601 63.66 58.8501 63.49 58.7501L62.19 58.0001C62.0234 57.9018 61.8334 57.85 61.64 57.8501C61.4464 57.849 61.2562 57.9008 61.09 58.0001ZM63.21 58.8901C63.42 59.0201 63.43 59.1401 63.21 59.2601L62.9 59.4401C62.8061 59.5008 62.6967 59.5331 62.585 59.5331C62.4732 59.5331 62.3638 59.5008 62.27 59.4401L61 58.6701C60.79 58.5401 60.78 58.4201 61 58.3001L61.3 58.1201C61.3953 58.0585 61.5064 58.0258 61.62 58.0258C61.7335 58.0258 61.8446 58.0585 61.94 58.1201L63.21 58.8901Z" fill="#F4A9FF"/>
<path d="M63 56.87L62.63 57.08C62.46 57.18 62.38 57.29 62.38 57.4C62.38 57.51 62.46 57.62 62.63 57.72L63.93 58.47C64.0966 58.5684 64.2865 58.6202 64.48 58.62C64.6736 58.6212 64.8638 58.5693 65.03 58.47L65.4 58.25C65.57 58.16 65.66 58.05 65.66 57.94C65.66 57.83 65.57 57.72 65.4 57.62L64.1 56.87C63.9335 56.7715 63.7435 56.7195 63.55 56.7195C63.3565 56.7195 63.1665 56.7715 63 56.87ZM65.12 57.77C65.34 57.89 65.34 58.01 65.12 58.13L64.81 58.31C64.7162 58.3707 64.6068 58.403 64.495 58.403C64.3832 58.403 64.2739 58.3707 64.18 58.31L62.91 57.58C62.69 57.45 62.69 57.33 62.91 57.21L63.2 57C63.2962 56.9407 63.407 56.9093 63.52 56.9093C63.633 56.9093 63.7438 56.9407 63.84 57L65.12 57.77Z" fill="#F4A9FF"/>
<path d="M67.63 54.19L67.26 54.41C67.09 54.5 67 54.61 67 54.72C67 54.83 67.09 54.94 67.26 55.04L68.55 55.79C68.7203 55.8883 68.9134 55.9401 69.11 55.94C69.3035 55.9402 69.4934 55.8884 69.66 55.79L70.03 55.58C70.2 55.48 70.28 55.37 70.28 55.26C70.28 55.15 70.2 55 70 54.94L68.71 54.19C68.5434 54.0917 68.3535 54.0399 68.16 54.04C67.9732 54.0425 67.7904 54.0942 67.63 54.19ZM69.75 55.09C69.96 55.21 69.97 55.34 69.75 55.46L69.44 55.63C69.3453 55.6884 69.2363 55.7194 69.125 55.7194C69.0137 55.7194 68.9047 55.6884 68.81 55.63L67.53 54.89C67.32 54.77 67.31 54.64 67.53 54.52L67.83 54.35C67.9262 54.2908 68.037 54.2594 68.15 54.2594C68.263 54.2594 68.3738 54.2908 68.47 54.35L69.75 55.09Z" fill="#F4A9FF"/>
<path d="M69.53 53.09L69.16 53.31C68.99 53.4 68.9 53.51 68.9 53.62C68.9 53.73 68.99 53.84 69.16 53.94L70.46 54.69C70.6266 54.7883 70.8166 54.8402 71.01 54.84C71.2036 54.8412 71.3938 54.7893 71.56 54.69L71.93 54.48C72.1 54.38 72.19 54.27 72.19 54.16C72.19 54.05 72.1 53.94 71.93 53.84L70.63 53.09C70.4635 52.9914 70.2735 52.9395 70.08 52.9395C69.8865 52.9395 69.6966 52.9914 69.53 53.09ZM71.65 53.99C71.86 54.11 71.87 54.24 71.65 54.36L71.34 54.54C71.2446 54.5963 71.1358 54.626 71.025 54.626C70.9142 54.626 70.8055 54.5963 70.71 54.54L69.44 53.8C69.22 53.68 69.21 53.55 69.44 53.44L69.75 53.26C69.8454 53.1984 69.9565 53.1657 70.07 53.1657C70.1835 53.1657 70.2947 53.1984 70.39 53.26L71.65 53.99Z" fill="#F4A9FF"/>
<path d="M71.4401 52L71.0601 52.22C70.8901 52.32 70.8101 52.42 70.8101 52.53C70.8101 52.64 70.8901 52.75 71.0701 52.85L72.3601 53.6C72.5303 53.6983 72.7235 53.7501 72.9201 53.75C73.1107 53.7525 73.298 53.7005 73.4601 53.6L73.8401 53.39C74.0001 53.29 74.0901 53.18 74.0901 53.07C74.0901 52.96 74.0101 52.85 73.8301 52.75L72.5401 52C72.3677 51.9081 72.1754 51.86 71.9801 51.86C71.7904 51.8545 71.6031 51.9031 71.4401 52ZM73.5501 52.9C73.7701 53.03 73.7701 53.15 73.5501 53.27L73.2501 53.45C73.1539 53.5093 73.0431 53.5407 72.9301 53.5407C72.8171 53.5407 72.7063 53.5093 72.6101 53.45L71.3401 52.71C71.1201 52.59 71.1201 52.47 71.3401 52.35L71.6501 52.17C71.7454 52.1085 71.8565 52.0757 71.9701 52.0757C72.0836 52.0757 72.1947 52.1085 72.2901 52.17L73.5501 52.9Z" fill="#F4A9FF"/>
<path d="M73.34 50.89L72.97 51.11C72.8 51.21 72.71 51.31 72.71 51.43C72.71 51.55 72.8 51.65 72.97 51.74L74.26 52.49C74.4302 52.5883 74.6234 52.64 74.82 52.64C75.0134 52.6402 75.2034 52.5884 75.37 52.49L75.74 52.28C75.91 52.18 75.99 52.08 76 51.96C76.01 51.84 75.91 51.74 75.74 51.64L74.44 50.9C74.2734 50.8016 74.0834 50.7498 73.89 50.75C73.6978 50.75 73.5087 50.7981 73.34 50.89ZM75.46 51.79C75.67 51.92 75.68 52.04 75.46 52.16L75.15 52.34C75.0553 52.3984 74.9462 52.4293 74.835 52.4293C74.7237 52.4293 74.6146 52.3984 74.52 52.34L73.24 51.6C73.03 51.48 73.02 51.36 73.24 51.24L73.54 51.06C73.6353 50.9984 73.7464 50.9657 73.86 50.9657C73.9735 50.9657 74.0846 50.9984 74.18 51.06L75.46 51.79Z" fill="#F4A9FF"/>
<path d="M78 48.2202L77.62 48.4302C77.45 48.5302 77.37 48.6402 77.37 48.7502C77.37 48.8602 77.45 48.9702 77.63 49.0702L78.92 49.8202C79.0903 49.9184 79.2834 49.9702 79.48 49.9702C79.6696 49.9655 79.8551 49.9139 80.02 49.8202L80.4 49.6002C80.56 49.5002 80.65 49.4002 80.65 49.2902C80.65 49.1802 80.57 49.0702 80.39 48.9702L79.1 48.2202C78.9297 48.1219 78.7366 48.0701 78.54 48.0702C78.3494 48.0677 78.162 48.1197 78 48.2202ZM80.11 49.1202C80.33 49.2402 80.33 49.3602 80.11 49.4802L79.81 49.6602C79.7146 49.7217 79.6035 49.7545 79.49 49.7545C79.3765 49.7545 79.2654 49.7217 79.17 49.6602L77.9 48.9302C77.68 48.8002 77.68 48.6802 77.9 48.5602L78.21 48.3802C78.3062 48.3209 78.417 48.2895 78.53 48.2895C78.643 48.2895 78.7538 48.3209 78.85 48.3802L80.11 49.1202Z" fill="#F4A9FF"/>
<path d="M79.88 47.12L79.51 47.33C79.34 47.43 79.25 47.54 79.25 47.65C79.25 47.76 79.34 47.87 79.51 47.97L80.8 48.72C80.9703 48.8183 81.1634 48.8701 81.36 48.87C81.5535 48.8702 81.7434 48.8184 81.91 48.72L82.28 48.5C82.45 48.41 82.53 48.3 82.53 48.19C82.53 48.08 82.45 47.97 82.28 47.87L81 47.12C80.8334 47.0217 80.6435 46.9699 80.45 46.97C80.2496 46.9652 80.052 47.0172 79.88 47.12ZM82 48C82.21 48.12 82.22 48.24 82 48.36L81.69 48.54C81.5962 48.6007 81.4868 48.633 81.375 48.633C81.2632 48.633 81.1538 48.6007 81.06 48.54L79.78 47.81C79.57 47.68 79.56 47.56 79.78 47.44L80.08 47.26C80.1762 47.2008 80.287 47.1694 80.4 47.1694C80.513 47.1694 80.6238 47.2008 80.72 47.26L82 48Z" fill="#F4A9FF"/>
<path d="M81.78 46.0001L81.41 46.2101C81.24 46.3101 81.16 46.4201 81.16 46.5301C81.16 46.6401 81.24 46.7501 81.41 46.8501L82.71 47.6001C82.8766 47.6985 83.0666 47.7503 83.26 47.7501C83.4536 47.7513 83.6438 47.6994 83.81 47.6001L84.18 47.3801C84.35 47.2901 84.44 47.1801 84.44 47.0701C84.44 46.9601 84.35 46.8501 84.18 46.7501L82.88 46.0001C82.7135 45.9016 82.5235 45.8496 82.33 45.8496C82.1365 45.8496 81.9466 45.9016 81.78 46.0001ZM83.9 46.9002C84.12 47.0202 84.12 47.1401 83.9 47.2701L83.59 47.4401C83.4962 47.5008 83.3868 47.5331 83.275 47.5331C83.1633 47.5331 83.0539 47.5008 82.96 47.4401L81.69 46.7101C81.47 46.5801 81.47 46.4601 81.69 46.3401L82 46.1701C82.0954 46.1086 82.2065 46.0758 82.32 46.0758C82.4335 46.0758 82.5447 46.1086 82.64 46.1701L83.9 46.9002Z" fill="#F4A9FF"/>
<path d="M83.6901 44.9201L83.3101 45.1301C83.1401 45.2301 83.0601 45.3401 83.0601 45.4501C83.0601 45.5601 83.1401 45.6701 83.3201 45.7701L84.6101 46.5201C84.7803 46.6184 84.9735 46.6701 85.1701 46.6701C85.3607 46.6726 85.548 46.6206 85.7101 46.5201L86.0901 46.3101C86.2601 46.2101 86.3401 46.1001 86.3401 45.9901C86.3401 45.8801 86.2601 45.7701 86.0801 45.6701L84.7901 44.9201C84.6204 44.8205 84.4268 44.7686 84.2301 44.7701C84.0394 44.7676 83.8521 44.8197 83.6901 44.9201ZM85.8001 45.8201C86.0201 45.9401 86.0201 46.0701 85.8001 46.1901L85.5001 46.3601C85.4047 46.4217 85.2936 46.4544 85.1801 46.4544C85.0665 46.4544 84.9554 46.4217 84.8601 46.3601L83.5901 45.6301C83.3701 45.5001 83.3701 45.3801 83.5901 45.2601L83.8901 45.0901C83.9863 45.0308 84.0971 44.9994 84.2101 44.9994C84.3231 44.9994 84.4339 45.0308 84.5301 45.0901L85.8001 45.8201Z" fill="#F4A9FF"/>
<path d="M88.3199 42.2402L87.9499 42.4601C87.7799 42.5601 87.6899 42.6601 87.6899 42.7701C87.6899 42.8801 87.7799 42.9901 87.9499 43.0901L89.2499 43.8401C89.4165 43.9385 89.6065 43.9903 89.7999 43.9902C89.9935 43.9913 90.1837 43.9394 90.3499 43.8401L90.7199 43.6301C90.8899 43.5301 90.9799 43.4302 90.9799 43.3102C90.9799 43.1902 90.8899 43.0902 90.7199 42.9902L89.4199 42.2402C89.2512 42.1483 89.0621 42.1001 88.8699 42.1001C88.6778 42.1001 88.4887 42.1483 88.3199 42.2402ZM90.4399 43.1401C90.6499 43.2701 90.6599 43.3901 90.4399 43.5101L90.1299 43.6901C90.0352 43.7486 89.9262 43.7795 89.8149 43.7795C89.7037 43.7795 89.5946 43.7486 89.4999 43.6901L88.2299 42.9501C88.0099 42.8301 87.9999 42.7101 88.2299 42.5901L88.5399 42.4101C88.6353 42.3486 88.7464 42.3158 88.8599 42.3158C88.9735 42.3158 89.0846 42.3486 89.1799 42.4101L90.4399 43.1401Z" fill="#F4A9FF"/>
<path d="M90.23 41.14L89.85 41.36C89.68 41.46 89.6 41.56 89.6 41.68C89.6 41.8 89.68 41.9 89.86 41.99L91.15 42.74C91.3202 42.8383 91.5134 42.89 91.71 42.89C91.9006 42.8925 92.088 42.8405 92.25 42.74L92.63 42.53C92.79 42.43 92.88 42.33 92.88 42.21C92.88 42.09 92.8 41.99 92.62 41.89L91.33 41.15C91.1603 41.0504 90.9668 40.9986 90.77 41C90.581 41 90.3951 41.0482 90.23 41.14ZM92.34 42.04C92.56 42.17 92.56 42.29 92.34 42.41L92.04 42.59C91.9438 42.6493 91.833 42.6807 91.72 42.6807C91.607 42.6807 91.4962 42.6493 91.4 42.59L90.13 41.85C89.91 41.73 89.91 41.61 90.13 41.49L90.44 41.31C90.5354 41.2485 90.6465 41.2157 90.76 41.2157C90.8735 41.2157 90.9846 41.2485 91.08 41.31L92.34 42.04Z" fill="#F4A9FF"/>
<path d="M92.13 40.0001L91.76 40.2201C91.59 40.3201 91.5 40.4201 91.5 40.5401C91.5 40.6601 91.59 40.7601 91.76 40.8601L93.05 41.6001C93.2203 41.6984 93.4134 41.7501 93.61 41.7501C93.802 41.7489 93.9908 41.7008 94.16 41.6101L94.53 41.3901C94.7 41.2901 94.78 41.1901 94.79 41.0701C94.8 40.9501 94.7 40.8601 94.53 40.7501L93.23 40.0101C93.0634 39.9117 92.8735 39.8599 92.68 39.8601C92.4878 39.8601 92.2988 39.9082 92.13 40.0001ZM94.25 40.9001C94.46 41.0301 94.47 41.1501 94.25 41.2701L93.94 41.4501C93.8453 41.5085 93.7363 41.5394 93.625 41.5394C93.5137 41.5394 93.4047 41.5085 93.31 41.4501L92 40.7401C91.79 40.6201 91.78 40.5001 92 40.3801L92.3 40.2001C92.3954 40.1385 92.5065 40.1058 92.62 40.1058C92.7335 40.1058 92.8446 40.1385 92.94 40.2001L94.25 40.9001Z" fill="#F4A9FF"/>
<path d="M94.58 38.8C94.3714 38.8092 94.1699 38.8787 94 39L93.63 39.21C93.46 39.31 93.38 39.41 93.38 39.53C93.38 39.65 93.46 39.75 93.63 39.85L94.93 40.59C95.0928 40.697 95.2854 40.7495 95.48 40.7401C95.6722 40.7401 95.8612 40.6919 96.03 40.6L96.4 40.3801C96.57 40.2801 96.66 40.18 96.66 40.07C96.66 39.96 96.57 39.85 96.4 39.75L95.13 39C94.9691 38.8831 94.7785 38.8138 94.58 38.8ZM96.15 39.8C96.37 39.93 96.37 40.05 96.15 40.17L95.84 40.35C95.7462 40.4107 95.6368 40.443 95.525 40.443C95.4132 40.443 95.3039 40.4107 95.21 40.35L94 39.6501C93.78 39.5201 93.78 39.4 94 39.28L94.31 39.1C94.4054 39.0385 94.5165 39.0057 94.63 39.0057C94.7435 39.0057 94.8546 39.0385 94.95 39.1L96.15 39.8Z" fill="#F4A9FF"/>
<path d="M93.3101 39.4301C93.3101 39.5501 93.4001 39.6501 93.5801 39.7601L94.9201 40.5301C95.0923 40.6336 95.2891 40.6889 95.4901 40.6901C95.6854 40.6901 95.8777 40.642 96.0501 40.5501L96.4201 40.3301C96.5901 40.2301 96.6801 40.1301 96.6701 40.0101C96.6601 39.8901 96.5801 39.7901 96.4001 39.6801L95.0601 38.9101C94.8889 38.8042 94.6913 38.7488 94.4901 38.7501C94.2941 38.7451 94.1006 38.7935 93.9301 38.8901L93.5601 39.1101C93.3901 39.2101 93.3101 39.3101 93.3101 39.4301ZM93.8601 39.6101C93.6401 39.4801 93.6301 39.3501 93.8601 39.2301L94.1701 39.0601C94.2654 38.9985 94.3765 38.9658 94.4901 38.9658C94.6036 38.9658 94.7147 38.9985 94.8101 39.0601L96.1301 39.8201C96.3601 39.9501 96.3701 40.0801 96.1301 40.2001L95.8201 40.3701C95.7227 40.4314 95.6101 40.4639 95.4951 40.4639C95.3801 40.4639 95.2674 40.4314 95.1701 40.3701L93.8601 39.6101Z" fill="#F0F2FF"/>
<path d="M91.4 40.5301C91.4 40.6501 91.5 40.7601 91.67 40.8601L93.02 41.6301C93.1912 41.736 93.3888 41.7915 93.59 41.7901C93.783 41.7975 93.9741 41.7489 94.14 41.6501L94.51 41.4301C94.68 41.3301 94.77 41.2301 94.77 41.1101C94.77 40.9901 94.67 40.8901 94.49 40.7801L93.15 40.0001C92.9789 39.8942 92.7813 39.8388 92.58 39.8401C92.3757 39.8395 92.1751 39.8949 92 40.0001L91.62 40.2201C91.48 40.3101 91.4 40.4201 91.4 40.5301ZM91.95 40.7101C91.73 40.5801 91.72 40.4601 91.95 40.3301L92.26 40.1601C92.3574 40.0988 92.47 40.0663 92.585 40.0663C92.7 40.0663 92.8127 40.0988 92.91 40.1601L94.23 40.9201C94.45 41.0501 94.46 41.1801 94.23 41.3001L93.93 41.4801C93.8308 41.5411 93.7165 41.5735 93.6 41.5735C93.4835 41.5735 93.3693 41.5411 93.27 41.4801L91.95 40.7101Z" fill="#F0F2FF"/>
<path d="M89.49 41.63C89.49 41.75 89.59 41.86 89.77 41.96L91.11 42.74C91.2839 42.8382 91.4802 42.8899 91.68 42.89C91.873 42.8974 92.064 42.8488 92.23 42.75L92.61 42.53C92.78 42.43 92.86 42.33 92.86 42.21C92.86 42.09 92.76 41.99 92.58 41.88L91.24 41.11C91.0668 41.0087 90.8706 40.9536 90.67 40.95C90.4764 40.9488 90.2862 41.0007 90.12 41.1L89.74 41.31C89.57 41.41 89.49 41.52 89.49 41.63ZM90.05 41.81C89.82 41.68 89.81 41.56 90.05 41.44L90.36 41.26C90.4573 41.1987 90.57 41.1662 90.685 41.1662C90.8 41.1662 90.9127 41.1987 91.01 41.26L92.3 42C92.52 42.13 92.53 42.25 92.3 42.37L92 42.55C91.9027 42.6112 91.79 42.6438 91.675 42.6438C91.56 42.6438 91.4473 42.6112 91.35 42.55L90.05 41.81Z" fill="#F0F2FF"/>
<path d="M87.5899 42.7301C87.5899 42.8501 87.6799 42.9601 87.8599 43.0601L89.1999 43.8401C89.375 43.9369 89.5701 43.9916 89.7699 44.0001C89.9635 44.0012 90.1538 43.9494 90.3199 43.8501L90.6999 43.6301C90.8699 43.5401 90.9499 43.4301 90.9499 43.3201C90.9499 43.2101 90.8599 43.0901 90.6699 42.9901L89.33 42.2101C89.1549 42.1133 88.9598 42.0585 88.76 42.0501C88.5664 42.0489 88.3761 42.1008 88.2099 42.2001L87.83 42.4101C87.66 42.5101 87.5799 42.6201 87.5899 42.7301ZM88.1399 42.9101C87.9099 42.7801 87.9099 42.6601 88.1399 42.5401L88.44 42.3601C88.5373 42.2988 88.6499 42.2663 88.7649 42.2663C88.88 42.2663 88.9926 42.2988 89.0899 42.3601L90.41 43.1201C90.63 43.2501 90.64 43.3701 90.41 43.4901L90.0999 43.6701C90.0026 43.7313 89.89 43.7639 89.7749 43.7639C89.6599 43.7639 89.5473 43.7313 89.4499 43.6701L88.1399 42.9101Z" fill="#F0F2FF"/>
<path d="M82.94 45.4199C82.94 45.5266 83.03 45.6366 83.21 45.7499L84.55 46.5199C84.7212 46.6258 84.9187 46.6813 85.12 46.6799C85.3168 46.6814 85.5103 46.6296 85.68 46.5299L86.05 46.3199C86.22 46.2199 86.3 46.1099 86.3 45.9999C86.3 45.8899 86.21 45.7699 86.03 45.6699L84.68 44.8899C84.5088 44.7945 84.316 44.7444 84.12 44.7444C83.924 44.7444 83.7312 44.7945 83.56 44.8899L83.19 45.1099C83 45.1999 82.93 45.2999 82.94 45.4199ZM83.49 45.5999C83.27 45.4699 83.26 45.3399 83.49 45.2199L83.8 45.0399C83.8954 44.9784 84.0065 44.9456 84.12 44.9456C84.2335 44.9456 84.3446 44.9784 84.44 45.0399L85.76 45.7999C85.99 45.9299 86 46.0499 85.76 46.1699L85.45 46.3499C85.3527 46.4112 85.24 46.4437 85.125 46.4437C85.01 46.4437 84.8973 46.4112 84.8 46.3499L83.49 45.5999Z" fill="#F0F2FF"/>
<path d="M81 46.52C81 46.64 81.09 46.74 81.27 46.85L82.61 47.62C82.7822 47.7234 82.9791 47.7787 83.18 47.78C83.3753 47.78 83.5677 47.7319 83.74 47.64L84.11 47.42C84.28 47.32 84.37 47.22 84.36 47.1C84.35 46.98 84.27 46.88 84.09 46.77L82.78 46C82.6088 45.8941 82.4113 45.8386 82.21 45.84C82.0141 45.8349 81.8205 45.8833 81.65 45.98L81.28 46.2C81.11 46.3 81 46.4 81 46.52ZM81.55 46.7C81.33 46.57 81.32 46.44 81.55 46.32L81.86 46.15C81.9554 46.0884 82.0665 46.0556 82.18 46.0556C82.2935 46.0556 82.4046 46.0884 82.5 46.15L83.82 46.91C84.05 47.04 84.06 47.17 83.82 47.29L83.51 47.46C83.4127 47.5212 83.3 47.5537 83.185 47.5537C83.07 47.5537 82.9573 47.5212 82.86 47.46L81.55 46.7Z" fill="#F0F2FF"/>
<path d="M79.12 47.6199C79.12 47.7399 79.22 47.8499 79.39 47.9499L80.74 48.7199C80.9103 48.8182 81.1034 48.87 81.3 48.87C81.4966 48.87 81.6897 48.8182 81.86 48.7199L82.23 48.4999C82.4 48.3999 82.49 48.2999 82.48 48.1799C82.47 48.0599 82.39 47.9599 82.21 47.8499L80.87 47.0799C80.6988 46.9741 80.5013 46.9186 80.3 46.9199C80.1047 46.9199 79.9123 46.968 79.74 47.0599L79.37 47.2799C79.2 47.3999 79.12 47.5099 79.12 47.6199ZM79.67 47.7999C79.45 47.6699 79.44 47.5499 79.67 47.4199L79.98 47.2499C80.0773 47.1887 80.19 47.1562 80.305 47.1562C80.42 47.1562 80.5327 47.1887 80.63 47.2499L81.95 48.0099C82.17 48.1399 82.18 48.2699 81.95 48.3899L81.65 48.5699C81.5507 48.631 81.4365 48.6633 81.32 48.6633C81.2035 48.6633 81.0892 48.631 80.99 48.5699L79.67 47.7999Z" fill="#F0F2FF"/>
<path d="M77.21 48.7201C77.21 48.8401 77.3 48.9501 77.48 49.0501L78.83 49.8301C79.0039 49.9283 79.2002 49.98 79.4 49.9801C79.593 49.9875 79.784 49.9389 79.95 49.8401L80.33 49.6201C80.49 49.5301 80.58 49.4201 80.58 49.3001C80.58 49.1801 80.48 49.0801 80.3 48.9701L79 48.2001C78.8268 48.0987 78.6305 48.0436 78.43 48.0401C78.2364 48.0389 78.0462 48.0908 77.88 48.1901L77.5 48.4001C77.29 48.5001 77.21 48.6101 77.21 48.7201ZM77.77 48.9001C77.54 48.7701 77.53 48.6501 77.77 48.5301L78.08 48.3501C78.1773 48.2888 78.29 48.2563 78.405 48.2563C78.52 48.2563 78.6326 48.2888 78.73 48.3501L80.05 49.1201C80.27 49.2501 80.28 49.3701 80.05 49.4901L79.75 49.6701C79.6526 49.7313 79.54 49.7638 79.425 49.7638C79.31 49.7638 79.1973 49.7313 79.1 49.6701L77.77 48.9001Z" fill="#F0F2FF"/>
<path d="M72.57 51.41C72.57 51.52 72.66 51.63 72.84 51.73L74.18 52.51C74.3531 52.6113 74.5494 52.6664 74.75 52.67C74.9436 52.6712 75.1338 52.6193 75.3 52.52L75.68 52.31C75.85 52.21 75.93 52.1 75.93 51.99C75.93 51.88 75.84 51.76 75.65 51.66L74.31 50.88C74.136 50.7817 73.9397 50.7301 73.74 50.73C73.547 50.7226 73.3559 50.7712 73.19 50.87L72.82 51.09C72.65 51.18 72.56 51.29 72.57 51.41ZM73.12 51.58C72.89 51.46 72.89 51.33 73.12 51.21L73.42 51.03C73.5173 50.9687 73.63 50.9362 73.745 50.9362C73.86 50.9362 73.9726 50.9687 74.07 51.03L75.39 51.79C75.61 51.92 75.62 52.04 75.39 52.16L75.08 52.34C74.9826 52.4013 74.87 52.4338 74.755 52.4338C74.64 52.4338 74.5273 52.4013 74.43 52.34L73.12 51.58Z" fill="#F0F2FF"/>
<path d="M70.6601 52.5101C70.6601 52.6167 70.7501 52.7267 70.9301 52.8401L72.27 53.6101C72.4412 53.7159 72.6388 53.7714 72.84 53.7701C73.0368 53.7715 73.2303 53.7197 73.4001 53.6201L73.77 53.4101C73.94 53.3101 74.02 53.2001 74.02 53.0901C74.02 52.9801 73.9301 52.8601 73.7501 52.7601L72.4001 52.0001C72.2288 51.9046 72.0361 51.8545 71.84 51.8545C71.644 51.8545 71.4513 51.9046 71.28 52.0001L70.9101 52.2201C70.7401 52.2901 70.6501 52.3901 70.6601 52.5101ZM71.21 52.6901C70.99 52.5601 70.98 52.4301 71.21 52.3101L71.5101 52.1301C71.6074 52.0688 71.72 52.0363 71.835 52.0363C71.9501 52.0363 72.0627 52.0688 72.1601 52.1301L73.4801 52.8901C73.7101 53.0201 73.7201 53.1501 73.4801 53.2601L73.17 53.4401C73.0727 53.5013 72.9601 53.5338 72.8451 53.5338C72.73 53.5338 72.6174 53.5013 72.52 53.4401L71.21 52.6901Z" fill="#F0F2FF"/>
<path d="M68.75 53.61C68.75 53.73 68.84 53.83 69.02 53.94L70.36 54.71C70.5312 54.8158 70.7287 54.8713 70.93 54.87C71.1253 54.87 71.3177 54.8219 71.49 54.73L71.86 54.51C72.03 54.41 72.11 54.31 72.11 54.19C72.11 54.07 72.02 53.97 71.84 53.86L70.5 53.09C70.3288 52.9841 70.1313 52.9286 69.93 52.93C69.7347 52.93 69.5424 52.978 69.37 53.07L69 53.29C68.83 53.39 68.75 53.49 68.75 53.61ZM69.3 53.79C69.08 53.66 69.07 53.53 69.3 53.41L69.61 53.24C69.7054 53.1784 69.8165 53.1456 69.93 53.1456C70.0435 53.1456 70.1546 53.1784 70.25 53.24L71.57 54C71.8 54.13 71.81 54.26 71.57 54.38L71.26 54.55C71.1627 54.6112 71.05 54.6437 70.935 54.6437C70.82 54.6437 70.7073 54.6112 70.61 54.55L69.3 53.79Z" fill="#F0F2FF"/>
<path d="M66.84 54.71C66.84 54.83 66.93 54.94 67.11 55.04L68.46 55.81C68.6302 55.9083 68.8234 55.9601 69.02 55.9601C69.2166 55.9601 69.4097 55.9083 69.58 55.81L69.95 55.59C70.12 55.49 70.21 55.39 70.2 55.27C70.19 55.15 70.11 55.05 69.93 54.94L68.59 54.17C68.4119 54.0618 68.2083 54.0031 68 54C67.8046 54 67.6123 54.0481 67.44 54.14L67.07 54.36C66.92 54.49 66.84 54.6 66.84 54.71ZM67.39 54.89C67.17 54.76 67.16 54.64 67.39 54.51L67.7 54.34C67.7973 54.2787 67.91 54.2462 68.025 54.2462C68.14 54.2462 68.2526 54.2787 68.35 54.34L69.67 55.1C69.89 55.23 69.9 55.36 69.67 55.48L69.36 55.66C69.2626 55.7213 69.15 55.7538 69.035 55.7538C68.92 55.7538 68.8073 55.7213 68.71 55.66L67.39 54.89Z" fill="#F0F2FF"/>
<path d="M62.1899 57.39C62.1899 57.51 62.2899 57.62 62.4699 57.72L63.8099 58.5C63.985 58.5968 64.1801 58.6516 64.3799 58.66C64.5735 58.6611 64.7637 58.6093 64.9299 58.51L65.3099 58.29C65.4799 58.2 65.5599 58.09 65.5599 57.98C65.5599 57.87 65.4599 57.75 65.2799 57.65L63.9399 56.87C63.7649 56.7732 63.5698 56.7184 63.3699 56.71C63.1764 56.7088 62.9861 56.7607 62.8199 56.86L62.4399 57.07C62.2699 57.17 62.1899 57.28 62.1899 57.39ZM62.7499 57.57C62.5199 57.44 62.5099 57.32 62.7499 57.2L62.9999 57C63.0973 56.9387 63.2099 56.9062 63.3249 56.9062C63.44 56.9062 63.5526 56.9387 63.6499 57L64.9999 57.8C65.2199 57.93 65.2299 58.05 64.9999 58.17L64.6999 58.35C64.6026 58.4113 64.49 58.4438 64.3749 58.4438C64.2599 58.4438 64.1473 58.4113 64.0499 58.35L62.7499 57.57Z" fill="#F0F2FF"/>
<path d="M60.28 58.5001C60.28 58.6101 60.38 58.7201 60.56 58.8201L61.9 59.6001C62.0732 59.7014 62.2695 59.7565 62.47 59.7601C62.6636 59.7613 62.8538 59.7094 63.02 59.6101L63.4 59.4001C63.57 59.3001 63.65 59.1901 63.65 59.0801C63.65 58.9701 63.55 58.8501 63.37 58.7501L62 58.0001C61.8261 57.9019 61.6298 57.8502 61.43 57.8501C61.237 57.8427 61.046 57.8913 60.88 57.9901L60.5 58.2101C60.36 58.2701 60.28 58.3801 60.28 58.5001ZM60.84 58.6801C60.61 58.5501 60.61 58.4201 60.84 58.3001L61.14 58.1201C61.2374 58.0588 61.35 58.0263 61.465 58.0263C61.58 58.0263 61.6927 58.0588 61.79 58.1201L63.11 58.8801C63.33 59.0101 63.34 59.1301 63.11 59.2501L62.8 59.4301C62.7027 59.4914 62.59 59.5239 62.475 59.5239C62.36 59.5239 62.2474 59.4914 62.15 59.4301L60.84 58.6801Z" fill="#F0F2FF"/>
<path d="M58.38 59.5999C58.38 59.7066 58.47 59.8166 58.65 59.9299L60 60.6999C60.1712 60.8058 60.3688 60.8613 60.57 60.8599C60.7636 60.8611 60.9538 60.8092 61.12 60.7099L61.5 60.4999C61.67 60.3999 61.75 60.2899 61.75 60.1799C61.75 60.0699 61.66 59.9499 61.48 59.8499L60.13 59.0699C59.9566 58.9704 59.7599 58.9186 59.56 58.9199C59.367 58.9125 59.176 58.9611 59.01 59.0599L58.64 59.2799C58.46 59.3799 58.37 59.4799 58.38 59.5999ZM58.93 59.7799C58.71 59.6499 58.7 59.5199 58.93 59.3999L59.23 59.2199C59.3273 59.1587 59.44 59.1261 59.555 59.1261C59.67 59.1261 59.7827 59.1587 59.88 59.2199L61.2 59.9799C61.43 60.1099 61.43 60.2399 61.2 60.3499L60.89 60.5299C60.7927 60.5912 60.68 60.6237 60.565 60.6237C60.45 60.6237 60.3374 60.5912 60.24 60.5299L58.93 59.7799Z" fill="#F0F2FF"/>
<path d="M56.74 61.0001L58.08 61.7701C58.2512 61.876 58.4487 61.9315 58.65 61.9301C58.8453 61.9301 59.0376 61.8821 59.21 61.7901L59.58 61.5701C59.75 61.4701 59.83 61.3701 59.83 61.2501C59.83 61.1301 59.74 61.0301 59.56 60.9201L58.21 60.1501C58.0433 60.0424 57.8484 59.9867 57.65 59.9901C57.4547 59.9901 57.2623 60.0382 57.09 60.1301L56.72 60.3501C56.55 60.4501 56.46 60.5501 56.47 60.6701C56.48 60.7901 56.56 60.9201 56.74 61.0001ZM57.02 60.8501C56.8 60.7201 56.79 60.5901 57.02 60.4701L57.33 60.3001C57.4254 60.2386 57.5365 60.2058 57.65 60.2058C57.7635 60.2058 57.8746 60.2386 57.97 60.3001L59.29 61.0601C59.52 61.1901 59.53 61.3201 59.29 61.4401L58.98 61.6101C58.8827 61.6714 58.77 61.7039 58.655 61.7039C58.54 61.7039 58.4273 61.6714 58.33 61.6101L57.02 60.8501Z" fill="#F0F2FF"/>
<path d="M50.9999 56.7401L50.6399 56.9501C50.4905 57.0348 50.3217 57.0796 50.1499 57.0801C49.9746 57.0736 49.8032 57.0256 49.6499 56.9401L48.5599 56.3101C48.3999 56.2201 48.3199 56.1201 48.3199 56.0201C48.3199 55.9201 48.3899 55.8301 48.5499 55.7401L48.9099 55.5301C49.0565 55.4385 49.2273 55.3932 49.3999 55.4001C49.5767 55.3966 49.7507 55.4453 49.8999 55.5401L50.0599 55.6301C50.0599 55.6301 50.0599 55.6301 50.0599 55.6901L49.8599 55.8101C49.8442 55.8223 49.8249 55.8289 49.8049 55.8289C49.785 55.8289 49.7657 55.8223 49.7499 55.8101L49.6099 55.7301C49.5385 55.6888 49.4574 55.6671 49.3749 55.6671C49.2924 55.6671 49.2114 55.6888 49.1399 55.7301L48.8699 55.8901C48.7199 55.9801 48.7199 56.0701 48.8699 56.1601L49.9299 56.7701C49.9994 56.817 50.0812 56.842 50.1649 56.842C50.2487 56.842 50.3305 56.817 50.3999 56.7701L50.6699 56.6101C50.8199 56.5301 50.8199 56.4401 50.6699 56.3401L50.5199 56.2601C50.5199 56.2601 50.5199 56.2601 50.5199 56.2001L50.7199 56.0801C50.7367 56.0704 50.7556 56.0654 50.7749 56.0654C50.7943 56.0654 50.8132 56.0704 50.8299 56.0801L50.9899 56.1701C51.1499 56.2601 51.2299 56.3601 51.2299 56.4601C51.2299 56.5601 51.1299 56.6501 50.9999 56.7401Z" fill="#F0F2FF"/>
<path d="M52.1 56.0799L51.91 56.1999C51.8933 56.2096 51.8744 56.2147 51.855 56.2147C51.8357 56.2147 51.8168 56.2096 51.8 56.1999L49.8 55.0499C49.8 55.0499 49.8 55.0499 49.8 54.9899L50.5401 54.5599C50.6934 54.476 50.8652 54.4314 51.0401 54.4299C51.2153 54.4375 51.3864 54.4854 51.5401 54.5699L51.8101 54.7299C52.0601 54.8799 52.1201 55.0199 51.9901 55.1799L53.1101 55.4199C53.1801 55.4199 53.1801 55.4199 53.1101 55.4799L53 55.5999C52.9511 55.6147 52.899 55.6147 52.85 55.5999L51.76 55.3599L51.44 55.5499L52.1501 55.9599C52.1501 55.9599 52.14 56.0599 52.1 56.0799ZM51.1 55.4199L51.5 55.1899C51.65 55.0999 51.65 55.0099 51.5 54.9099L51.23 54.7599C51.1606 54.7131 51.0788 54.688 50.995 54.688C50.9113 54.688 50.8295 54.7131 50.76 54.7599L50.3601 54.9899L51.05 55.3899L51.1 55.4199Z" fill="#F0F2FF"/>
<path d="M54.62 54.6301L53.62 55.2101C53.6033 55.2198 53.5843 55.2249 53.565 55.2249C53.5457 55.2249 53.5267 55.2198 53.51 55.2101L51.51 54.0701C51.51 54.0701 51.51 54.0701 51.51 54.0001L52.51 53.4201C52.5242 53.4088 52.5418 53.4026 52.56 53.4026C52.5782 53.4026 52.5958 53.4088 52.61 53.4201L52.78 53.5101C52.78 53.5101 52.78 53.5101 52.78 53.5701L52.07 53.9901L52.62 54.3001H52.69L53.3 53.9501C53.3167 53.9405 53.3357 53.9354 53.355 53.9354C53.3743 53.9354 53.3933 53.9405 53.41 53.9501L53.58 54.0501C53.58 54.0501 53.58 54.0501 53.58 54.1101L52.98 54.4601L53.56 54.8001H53.64L54.35 54.3801C54.3667 54.3705 54.3857 54.3654 54.405 54.3654C54.4243 54.3654 54.4433 54.3705 54.46 54.3801L54.62 54.4801C54.62 54.4801 54.65 54.6101 54.62 54.6301Z" fill="#F0F2FF"/>
<path d="M55 54.34L53 53.19C53 53.19 53 53.1901 53 53.1301L53.77 52.68C53.9238 52.5973 54.0953 52.5527 54.27 52.55C54.4461 52.5519 54.6186 52.6002 54.77 52.69L55.85 53.32C56.01 53.41 56.09 53.5101 56.09 53.6101C56.09 53.7101 56.02 53.8 55.87 53.89L55.09 54.34C55.0758 54.3464 55.0605 54.3497 55.045 54.3497C55.0295 54.3497 55.0142 54.3464 55 54.34ZM55.12 54.0201L55.57 53.76C55.72 53.67 55.71 53.5801 55.57 53.4901L54.51 52.8801C54.4412 52.8365 54.3614 52.8134 54.28 52.8134C54.1986 52.8134 54.1188 52.8365 54.05 52.8801L53.6 53.14L55.07 53.9901C55.0782 53.9969 55.0881 54.0015 55.0986 54.0032C55.1092 54.005 55.12 54.0039 55.13 54L55.12 54.0201Z" fill="#F0F2FF"/>
<path d="M55.1 52.0001L57.1 53.1501C57.1 53.1501 57.1 53.1501 57.1 53.2101L56.91 53.3201C56.8933 53.3297 56.8744 53.3348 56.855 53.3348C56.8357 53.3348 56.8168 53.3297 56.8 53.3201L54.8 52.1801V52.1101L55 52.0001C55.0155 51.9922 55.0327 51.988 55.05 51.988C55.0674 51.988 55.0846 51.9922 55.1 52.0001Z" fill="#F0F2FF"/>
<path d="M58.17 52.5799L57.97 52.6999C57.9533 52.7096 57.9343 52.7147 57.915 52.7147C57.8957 52.7147 57.8767 52.7096 57.86 52.6999L56.13 51.6999C56.1189 51.6953 56.107 51.6928 56.095 51.6928C56.083 51.6928 56.0711 51.6953 56.06 51.6999L55.67 51.9299C55.6515 51.9396 55.6309 51.9446 55.61 51.9446C55.5891 51.9446 55.5685 51.9396 55.55 51.9299L55.39 51.8299C55.39 51.8299 55.39 51.8299 55.39 51.7699L56.56 51.0899C56.5767 51.0803 56.5957 51.0752 56.615 51.0752C56.6343 51.0752 56.6533 51.0803 56.67 51.0899L56.84 51.1899C56.84 51.1899 56.84 51.1899 56.84 51.2499L56.45 51.4799L58.17 52.4799C58.17 52.4799 58.2 52.5599 58.17 52.5799Z" fill="#F0F2FF"/>
<path d="M60.55 51.2101L60.18 51.4201C60.0305 51.5048 59.8618 51.5495 59.69 51.5501C59.5139 51.5482 59.3414 51.4999 59.19 51.4101L58.11 50.7801C57.95 50.6901 57.86 50.5901 57.86 50.4901C57.86 50.3901 57.94 50.3001 58.09 50.2101L58.46 50.0001C58.6079 49.9117 58.7777 49.8666 58.95 49.8701C59.1261 49.8719 59.2986 49.9202 59.45 50.0101L59.6 50.1001C59.6 50.1001 59.6 50.1001 59.6 50.1701L59.4 50.2801C59.3833 50.2897 59.3643 50.2948 59.345 50.2948C59.3257 50.2948 59.3067 50.2897 59.29 50.2801L59.14 50.1901C59.0712 50.1465 58.9914 50.1234 58.91 50.1234C58.8286 50.1234 58.7488 50.1465 58.68 50.1901L58.4 50.3401C58.25 50.4301 58.25 50.5201 58.4 50.6101L59.4 51.2201C59.4694 51.2669 59.5512 51.292 59.635 51.292C59.7187 51.292 59.8006 51.2669 59.87 51.2201L60.15 51.0701C60.3 50.9801 60.29 50.8901 60.15 50.7901L60.01 50.7101C60.01 50.7101 60.01 50.7101 60.01 50.6501L60.21 50.5301C60.2285 50.5204 60.2491 50.5154 60.27 50.5154C60.2909 50.5154 60.3115 50.5204 60.33 50.5301L60.48 50.6201C60.64 50.7201 60.72 50.8101 60.72 50.9101C60.72 51.0101 60.7 51.1201 60.55 51.2101Z" fill="#F0F2FF"/>
<path d="M61.54 50.6399L61.31 50.7699C61.2968 50.779 61.2811 50.7838 61.265 50.7838C61.249 50.7838 61.2333 50.779 61.22 50.7699L59.79 49.3099C59.79 49.3099 59.79 49.3099 59.79 49.2399L60.1 49.0599C60.1205 49.0508 60.1426 49.0461 60.165 49.0461C60.1874 49.0461 60.2096 49.0508 60.23 49.0599L62.77 49.8899C62.77 49.8899 62.82 49.8899 62.77 49.8899L62.54 50.0199H62.48L61.94 49.8499L61.25 50.2499L61.55 50.5599C61.55 50.5599 61.57 50.6199 61.54 50.6399ZM60.27 49.3099L61.04 50.0699L61.61 49.7399L60.29 49.2999L60.27 49.3099Z" fill="#F0F2FF"/>
<path d="M63.4 49.5602L63.21 49.6702C63.1933 49.6798 63.1743 49.6849 63.155 49.6849C63.1357 49.6849 63.1167 49.6798 63.1 49.6702L61.1 48.5302C61.1 48.5302 61.1 48.5302 61.1 48.4702L61.84 48.0402C61.9894 47.9555 62.1582 47.9107 62.33 47.9102C62.5095 47.9102 62.6856 47.9586 62.84 48.0502L63.11 48.2102C63.36 48.3502 63.42 48.5002 63.28 48.6502L64.41 48.9002C64.47 48.9002 64.48 48.9002 64.41 48.9602L64.22 49.0702C64.1685 49.0902 64.1114 49.0902 64.06 49.0702L63 48.8602L62.68 49.0402L63.39 49.4602C63.39 49.4602 63.44 49.5402 63.4 49.5602ZM62.4 48.8902L62.8 48.6602C62.95 48.5702 62.95 48.4802 62.8 48.3902L62.53 48.2302C62.4596 48.1857 62.3782 48.1621 62.295 48.1621C62.2118 48.1621 62.1303 48.1857 62.06 48.2302L61.66 48.4602L62.35 48.8502C62.35 48.8502 62.4 48.9102 62.43 48.8902H62.4Z" fill="#F0F2FF"/>
<path d="M64.8001 48.6901L62.8 47.5401C62.8 47.5401 62.8 47.5401 62.8 47.4801L63.57 47.0301C63.7195 46.9454 63.8883 46.9007 64.06 46.9001C64.2395 46.9002 64.4157 46.9486 64.57 47.0401L65.6501 47.6701C65.8101 47.7601 65.89 47.8501 65.89 47.9601C65.89 48.0701 65.82 48.1501 65.67 48.2401L64.89 48.6901C64.8759 48.6965 64.8606 48.6998 64.8451 48.6998C64.8295 48.6998 64.8142 48.6965 64.8001 48.6901ZM64.92 48.3601L65.3701 48.1101C65.5201 48.0201 65.5101 47.9301 65.3701 47.8401L64.31 47.2301C64.2422 47.1841 64.1621 47.1596 64.0801 47.1596C63.9981 47.1596 63.9179 47.1841 63.85 47.2301L63.4001 47.4801L64.8701 48.3301L64.92 48.3601Z" fill="#F0F2FF"/>
<path d="M35.5 6.00013C32.15 7.94013 30.07 12.0901 30.05 18.0001V26.2401L37.05 22.1401V13.8801C37.05 7.98013 39.15 3.88013 42.5 1.88013L35.5 6.00013Z" fill="#7621D8"/>
<path d="M74.11 30.85C72.57 22 67 10.11 55.86 3.18005C50.66 0.180046 45.93 -0.0799541 42.53 1.89005L35.5 6.00005C38.9 4.00005 43.57 4.30005 48.77 7.30005C57.79 12.5 65.29 24.19 67 35L64.56 36.42C67.1013 39.2379 69.4658 42.2102 71.64 45.32C71.64 45.32 76.07 31.81 76.57 29.44L74.11 30.85Z" fill="url(#paint1_linear_52_13311)"/>
<path d="M19.5299 26.4102C17.8956 25.946 16.1643 25.946 14.5299 26.4102C12.2399 27.0702 11.0899 28.2902 11.0699 29.5202C11.0699 29.9702 11.0699 30.4302 11.0699 30.8902C11.0699 32.1102 12.2599 33.3302 14.5499 33.9702C16.1686 34.425 17.8813 34.425 19.4999 33.9702C21.7799 33.3202 22.9299 32.0902 22.9499 30.8702C22.9499 30.4102 22.9499 29.9502 22.9499 29.5002C22.9999 28.2602 21.8099 27.0502 19.5299 26.4102Z" fill="url(#paint2_linear_52_13311)"/>
<path style="mix-blend-mode:multiply" opacity="0.2" d="M11.68 31V32.31C11.5009 32.0876 11.3591 31.8377 11.26 31.57V30.3C11.3615 30.5543 11.5033 30.7907 11.68 31ZM14.68 32.71V34C14.8142 34.0427 14.9512 34.0761 15.09 34.1V32.8L14.68 32.71ZM16.41 32.95V34.3H16.83V33L16.41 32.95ZM15.54 32.87V34.2H15.96V32.93C15.86 32.92 15.72 32.89 15.58 32.87H15.54ZM12.09 31.48V32.76C12.2184 32.8769 12.3554 32.9838 12.5 33.08V31.77C12.3716 31.6799 12.2481 31.5831 12.13 31.48H12.09ZM13.82 32.48V33.77L14.24 33.91V32.61L13.82 32.48ZM13 32.06V33.35L13.42 33.55V32.25L13 32.06ZM17.32 32.97V34.31H17.74V33L17.32 32.97ZM21.62 31.73V33C21.7625 32.8974 21.8993 32.7872 22.03 32.67V31.43C21.91 31.53 21.75 31.63 21.61 31.73H21.62ZM18.18 32.92V34.24L18.59 34.18V32.85C18.4518 32.883 18.3115 32.9064 18.17 32.92H18.18ZM22.48 30.92V32.23C22.6569 31.9968 22.7953 31.7369 22.89 31.46V30.22C22.7889 30.4806 22.6471 30.7236 22.47 30.94L22.48 30.92ZM20.76 32.19V33.49C20.9 33.42 21.04 33.36 21.17 33.28V32C21 32.09 20.89 32.15 20.75 32.21L20.76 32.19ZM19.9 32.53V33.83L20.31 33.69V32.42L19.9 32.53ZM19.04 32.76V34.07L19.45 33.97V32.67L19.04 32.76Z" fill="url(#paint3_linear_52_13311)"/>
<path d="M21.26 27.1099C23.58 28.4399 23.59 30.6099 21.26 31.9599C19.9567 32.6206 18.5162 32.9649 17.055 32.9649C15.5939 32.9649 14.1533 32.6206 12.85 31.9599C10.52 30.6299 10.51 28.4599 12.85 27.1099C14.1533 26.4493 15.5939 26.105 17.055 26.105C18.5162 26.105 19.9567 26.4493 21.26 27.1099Z" fill="#FFCE45"/>
<path d="M20.88 27.3299C23 28.5399 23.01 30.5199 20.88 31.7499C19.693 32.3517 18.3809 32.6653 17.05 32.6653C15.7192 32.6653 14.4071 32.3517 13.22 31.7499C11.11 30.5399 11.1 28.5599 13.22 27.3299C14.4066 26.7266 15.7189 26.4121 17.05 26.4121C18.3812 26.4121 19.6935 26.7266 20.88 27.3299Z" fill="#FFCE45"/>
<path opacity="0.6" d="M13.33 27.6501C14.4841 27.0634 15.7604 26.7576 17.055 26.7576C18.3497 26.7576 19.626 27.0634 20.78 27.6501C22.28 28.5001 22.69 29.7501 22.01 30.8301C22.89 29.6801 22.52 28.2901 20.88 27.3601C19.6948 26.7584 18.3843 26.4448 17.055 26.4448C15.7258 26.4448 14.4153 26.7584 13.23 27.3601C11.6 28.3101 11.23 29.7001 12.13 30.8501C11.44 29.7701 11.84 28.5201 13.33 27.6501Z" fill="#E0890B"/>
<path d="M19.5 24.43C17.8813 23.9752 16.1686 23.9752 14.55 24.43C12.27 25.08 11.12 26.31 11.1 27.53C11.1 27.99 11.1 28.45 11.1 28.9C11.1 30.13 12.29 31.34 14.58 31.98C16.1986 32.4347 17.9113 32.4347 19.53 31.98C21.81 31.32 22.96 30.1 22.98 28.87C22.98 28.42 22.98 27.96 22.98 27.5C23 26.29 21.79 25.07 19.5 24.43Z" fill="url(#paint4_linear_52_13311)"/>
<path style="mix-blend-mode:multiply" opacity="0.2" d="M11.66 29V30.3C11.4789 30.079 11.3369 29.8288 11.24 29.56V28.32C11.3463 28.5658 11.4877 28.7949 11.66 29ZM14.66 30.7V32L15.08 32.1V30.82L14.66 30.7ZM16.38 30.95V32.29H16.8V31L16.38 30.95ZM15.52 30.86V32.19L15.94 32.25V31L15.52 30.86ZM12.11 29.5V30.78L12.53 31.11V29.8C12.3827 29.7106 12.2423 29.6103 12.11 29.5ZM13.84 30.5V31.79L14.26 31.93V30.6L13.84 30.5ZM13 30.08V31.37C13.1361 31.4446 13.2763 31.5113 13.42 31.57V30.28L13 30.08ZM17.32 31V32.33H17.74V31H17.32ZM21.62 29.75V31.06C21.77 30.95 21.9 30.84 22.03 30.73V29.45C21.8894 29.5586 21.7425 29.6588 21.59 29.75H21.62ZM18.15 31V32.32L18.57 32.25V30.88L18.15 31ZM22.45 29V30.3C22.6334 30.0695 22.7755 29.809 22.87 29.53V28.24C22.7745 28.5155 22.6324 28.7725 22.45 29ZM20.73 30.27V31.56L21.14 31.36V30L20.73 30.27ZM19.87 30.6V31.9L20.28 31.76V30.44L19.87 30.6ZM19 30.8V32.12L19.42 32.01V30.71L19 30.8Z" fill="url(#paint5_linear_52_13311)"/>
<path d="M21.23 25.1301C23.56 26.4601 23.57 28.6401 21.23 29.9901C19.9267 30.6507 18.4861 30.995 17.025 30.995C15.5638 30.995 14.1232 30.6507 12.82 29.9901C10.49 28.6601 10.48 26.4901 12.82 25.1401C14.122 24.4763 15.5623 24.1294 17.0238 24.1277C18.4852 24.126 19.9264 24.4694 21.23 25.1301Z" fill="#FFCE45"/>
<path d="M20.86 25.35C22.98 26.56 22.99 28.54 20.86 29.77C19.6737 30.3741 18.3613 30.6891 17.03 30.6891C15.6987 30.6891 14.3863 30.3741 13.2 29.77C11.08 28.56 11.08 26.58 13.2 25.35C14.3877 24.7505 15.6996 24.4382 17.03 24.4382C18.3604 24.4382 19.6723 24.7505 20.86 25.35Z" fill="#FFCE45"/>
<path opacity="0.6" d="M13.31 25.67C14.4641 25.0834 15.7404 24.7776 17.035 24.7776C18.3296 24.7776 19.606 25.0834 20.76 25.67C22.26 26.53 22.67 27.78 21.99 28.86C22.87 27.71 22.49 26.32 20.86 25.38C19.6723 24.7806 18.3604 24.4683 17.03 24.4683C15.6996 24.4683 14.3877 24.7806 13.2 25.38C11.58 26.33 11.2 27.72 12.1 28.87C11.42 27.79 11.82 26.54 13.31 25.67Z" fill="#E0890B"/>
<path d="M19.5101 22.8701C17.8757 22.4059 16.1444 22.4059 14.5101 22.8701C12.2301 23.5301 11.0801 24.7501 11.0601 25.9801C11.0601 26.4401 11.0601 26.8901 11.0601 27.3501C11.0601 28.5801 12.2501 29.7901 14.5401 30.4301C16.1744 30.8943 17.9057 30.8943 19.5401 30.4301C21.8201 29.7701 22.9701 28.5501 22.9901 27.3201C22.9901 26.8601 22.9901 26.4101 22.9901 25.9501C23.0001 24.7201 21.8001 23.5101 19.5101 22.8701Z" fill="url(#paint6_linear_52_13311)"/>
<path style="mix-blend-mode:multiply" opacity="0.2" d="M11.67 27.4699V28.7699C11.4889 28.549 11.3469 28.2987 11.25 28.0299V26.7599C11.3536 27.0163 11.4952 27.2556 11.67 27.4699ZM14.67 29.1699V30.4799L15.08 30.5799V29.2599L14.67 29.1699ZM16.39 29.4199V30.7599H16.81V29.4399L16.39 29.4199ZM15.53 29.3299V30.6599L15.95 30.7199V29.3899L15.53 29.3299ZM12.08 27.9399V29.2199C12.2138 29.3345 12.354 29.4413 12.5 29.5399V28.2399C12.368 28.1468 12.2412 28.0467 12.12 27.9399H12.08ZM13.81 28.9399V30.1999L14.23 30.3399V28.9999L13.81 28.9399ZM13 28.5199V29.8099C13.1361 29.8845 13.2763 29.9513 13.42 30.0099V28.7199L13 28.5199ZM17.32 29.4399V30.7699H17.74V29.4099L17.32 29.4399ZM21.62 28.1899V29.4999C21.7625 29.3973 21.8993 29.2872 22.03 29.1699V27.8899C21.8926 27.9982 21.749 28.0984 21.6 28.1899H21.62ZM18.18 29.3799V30.7099L18.6 30.6399V29.3199C18.44 29.3399 18.3 29.3699 18.16 29.3799H18.18ZM22.48 27.3799V28.6899C22.6569 28.4568 22.7953 28.1968 22.89 27.9199V26.6799C22.7904 26.9435 22.6448 27.1873 22.46 27.3999L22.48 27.3799ZM20.76 28.6599V29.9999L21.17 29.7999V28.4799L20.76 28.6599ZM19.9 28.9899V30.2899L20.31 30.1499V28.8799L19.9 28.9899ZM19.04 29.2199V30.5399L19.45 30.4299V29.1299L19.04 29.2199Z" fill="url(#paint7_linear_52_13311)"/>
<path d="M21.25 23.57C23.57 24.9 23.58 27.08 21.25 28.43C19.9467 29.0907 18.5061 29.435 17.045 29.435C15.5838 29.435 14.1433 29.0907 12.84 28.43C10.51 27.1 10.5 24.93 12.84 23.58C14.1425 22.9178 15.5827 22.5718 17.0438 22.5701C18.505 22.5683 19.946 22.9109 21.25 23.57Z" fill="#FFCE45"/>
<path d="M20.87 23.79C23 25 23 26.9999 20.89 28.2099C19.7037 28.8141 18.3913 29.129 17.06 29.129C15.7287 29.129 14.4163 28.8141 13.23 28.2099C11.11 26.9999 11.11 25.02 13.23 23.79C14.414 23.1899 15.7227 22.8772 17.05 22.8772C18.3774 22.8772 19.686 23.1899 20.87 23.79Z" fill="#FFCE45"/>
<path opacity="0.6" d="M13.32 24.1101C14.4741 23.5234 15.7504 23.2176 17.045 23.2176C18.3396 23.2176 19.616 23.5234 20.77 24.1101C22.27 24.9701 22.68 26.2201 22 27.3001C22.88 26.1501 22.51 24.7601 20.87 23.8201C19.6848 23.2184 18.3743 22.9048 17.045 22.9048C15.7158 22.9048 14.4053 23.2184 13.22 23.8201C11.59 24.7701 11.22 26.1601 12.12 27.3101C11.43 26.2301 11.83 25.0001 13.32 24.1101Z" fill="#E0890B"/>
<path d="M19.5299 21.3101C17.8956 20.8459 16.1643 20.8459 14.5299 21.3101C12.2399 21.9701 11.0899 23.1901 11.0699 24.4201C11.0699 24.8801 11.0699 25.3301 11.0699 25.7901C11.0699 27.0201 12.2599 28.2301 14.5499 28.8701C16.1686 29.3249 17.8813 29.3249 19.4999 28.8701C21.8399 28.2101 22.9999 27.0001 22.9999 25.7601C22.9999 25.3001 22.9999 24.8501 22.9999 24.3901C22.9999 23.1601 21.8099 22.0001 19.5299 21.3101Z" fill="url(#paint8_linear_52_13311)"/>
<path style="mix-blend-mode:multiply" opacity="0.2" d="M11.68 25.9101V27.2101C11.4989 26.9891 11.3569 26.7389 11.26 26.4701V25.2001C11.3637 25.4565 11.5052 25.6958 11.68 25.9101ZM14.68 27.6101V28.9201L15.09 29.0201V27.7001L14.68 27.6101ZM16.41 27.8601V29.2001H16.83V27.8801L16.41 27.8601ZM15.54 27.7701V29.1001L15.96 29.1601V27.8301C15.86 27.8201 15.72 27.7901 15.58 27.7701H15.54ZM12.09 26.3801V27.6601C12.2184 27.777 12.3554 27.884 12.5 27.9801V26.6801C12.3715 26.5867 12.248 26.4866 12.13 26.3801H12.09ZM13.82 27.3801V28.6701L14.24 28.8101V27.5101L13.82 27.3801ZM13 27.0001V28.2901C13.1361 28.3647 13.2763 28.4315 13.42 28.4901V27.1901L13 27.0001ZM17.32 27.9201V29.2501H17.74V27.8501L17.32 27.9201ZM21.62 26.6701V27.9801C21.7625 27.8775 21.8993 27.7674 22.03 27.6501V26.3301C21.91 26.4301 21.75 26.5301 21.61 26.6301L21.62 26.6701ZM18.18 27.8601V29.1801L18.59 29.1201V27.7601L18.18 27.8601ZM22.48 25.8601V27.1701C22.6569 26.937 22.7953 26.677 22.89 26.4001V25.1201C22.7889 25.3808 22.6471 25.6238 22.47 25.8401L22.48 25.8601ZM20.76 27.1401V28.4301L21.17 28.2301V26.9201L20.76 27.1401ZM19.9 27.4701V28.7701L20.31 28.6301V27.3201L19.9 27.4701ZM19.04 27.7001V29.0001L19.45 28.8901V27.5901L19.04 27.7001Z" fill="url(#paint9_linear_52_13311)"/>
<path d="M21.26 21.9999C23.58 23.3299 23.59 25.51 21.26 26.86C19.9567 27.5206 18.5162 27.8649 17.055 27.8649C15.5939 27.8649 14.1533 27.5206 12.85 26.86C10.52 25.53 10.51 23.3599 12.85 22.0099C14.1525 21.3477 15.5927 21.0017 17.0538 21C18.515 20.9983 19.956 21.3408 21.26 21.9999Z" fill="#FFCE45"/>
<path d="M20.88 22.2301C23 23.4401 23.01 25.4201 20.88 26.6501C19.6937 27.2542 18.3813 27.5691 17.05 27.5691C15.7188 27.5691 14.4064 27.2542 13.22 26.6501C11.11 25.4401 11.1 23.4601 13.22 22.2301C14.4066 21.6267 15.7189 21.3123 17.05 21.3123C18.3812 21.3123 19.6935 21.6267 20.88 22.2301Z" fill="#FFCE45"/>
<path opacity="0.6" d="M13.33 22.55C14.4841 21.9633 15.7604 21.6576 17.055 21.6576C18.3497 21.6576 19.626 21.9633 20.78 22.55C22.28 23.4 22.69 24.66 22.01 25.74C22.89 24.58 22.52 23.2 20.88 22.26C19.6948 21.6583 18.3843 21.3447 17.055 21.3447C15.7258 21.3447 14.4153 21.6583 13.23 22.26C11.6 23.21 11.23 24.6 12.13 25.75C11.44 24.67 11.84 23.42 13.33 22.55Z" fill="#E0890B"/>
<path d="M20 19.77C18.3657 19.3058 16.6344 19.3058 15 19.77C12.72 20.43 11.57 21.65 11.55 22.88C11.55 23.33 11.55 23.79 11.55 24.25C11.55 25.47 12.74 26.69 15.03 27.32C16.648 27.78 18.3621 27.78 19.98 27.32C22.27 26.67 23.42 25.44 23.44 24.22C23.44 23.76 23.44 23.3 23.44 22.85C23.48 21.62 22.32 20.41 20 19.77Z" fill="url(#paint10_linear_52_13311)"/>
<path style="mix-blend-mode:multiply" opacity="0.2" d="M12.19 24.3601V25.6701C12.0072 25.4503 11.865 25.1997 11.77 24.9301V23.6601C11.8715 23.9145 12.0133 24.1508 12.19 24.3601ZM15.19 26.0701V27.3701L15.61 27.4701V26.1501L15.19 26.0701ZM16.91 26.3101V27.6601H17.33V26.3401L16.91 26.3101ZM16.05 26.2301V27.5501C16.1849 27.5806 16.322 27.6006 16.46 27.6101V26.2901C16.37 26.2801 16.23 26.2501 16.09 26.2301H16.05ZM12.6 24.8401V26.1201C12.7338 26.2346 12.874 26.3415 13.02 26.4401V25.1301C12.8868 25.0423 12.7598 24.9454 12.64 24.8401H12.6ZM14.32 25.8401V27.1001L14.74 27.2401V25.9401L14.32 25.8401ZM13.46 25.4501V26.7401L13.88 26.9401V25.6401C13.78 25.5501 13.63 25.4901 13.5 25.4201L13.46 25.4501ZM17.77 26.3601V27.7001H18.19V26.3101L17.77 26.3601ZM22.08 25.1101V26.4201C22.2303 26.3238 22.3709 26.2133 22.5 26.0901V24.7901C22.3787 24.8935 22.2518 24.9903 22.12 25.0801L22.08 25.1101ZM18.64 26.3101V27.6001L19.06 27.5401V26.2101C18.935 26.2417 18.8081 26.2651 18.68 26.2801L18.64 26.3101ZM22.94 24.3101V25.6201C23.1234 25.3896 23.2655 25.1291 23.36 24.8501V23.5801C23.2818 23.8388 23.16 24.0823 23 24.3001L22.94 24.3101ZM21.22 25.5801V26.8801C21.3639 26.8181 21.5041 26.748 21.64 26.6701V25.3801L21.22 25.5801ZM20.36 25.9201V27.2201L20.78 27.0801V25.7801L20.36 25.9201ZM19.5 26.1501V27.4601L19.92 27.3601V26.0001L19.5 26.1501Z" fill="url(#paint11_linear_52_13311)"/>
<path d="M21.76 20.4702C24.09 21.8002 24.1 23.9702 21.76 25.3202C20.4585 25.9807 19.0196 26.325 17.56 26.325C16.1005 26.325 14.6615 25.9807 13.36 25.3202C11.03 23.9902 11.02 21.8202 13.36 20.4702C14.6615 19.8096 16.1005 19.4653 17.56 19.4653C19.0196 19.4653 20.4585 19.8096 21.76 20.4702Z" fill="#FFCE45"/>
<path d="M21.39 20.6901C23.51 21.9001 23.52 23.8801 21.39 25.1101C20.203 25.7118 18.8908 26.0255 17.56 26.0255C16.2291 26.0255 14.917 25.7118 13.73 25.1101C11.61 23.9001 11.6 21.9201 13.73 20.6901C14.917 20.0883 16.2291 19.7747 17.56 19.7747C18.8908 19.7747 20.203 20.0883 21.39 20.6901Z" fill="#FFCE45"/>
<path opacity="0.6" d="M13.84 21.0001C14.9941 20.4134 16.2704 20.1076 17.565 20.1076C18.8597 20.1076 20.136 20.4134 21.29 21.0001C22.79 21.8501 23.19 23.1001 22.52 24.1801C23.4 23.0301 23.02 21.6401 21.39 20.7101C20.203 20.1083 18.8909 19.7947 17.56 19.7947C16.2292 19.7947 14.9171 20.1083 13.73 20.7101C12.11 21.7101 11.73 23.0501 12.63 24.2001C12 23.1301 12.35 21.8801 13.84 21.0001Z" fill="#E0890B"/>
<path d="M20 18.0901C18.3657 17.6259 16.6344 17.6259 15 18.0901C12.72 18.7401 11.57 19.9701 11.55 21.1901C11.55 21.6501 11.55 22.1101 11.55 22.5701C11.55 23.7901 12.74 25.0001 15.03 25.6401C16.6644 26.1043 18.3957 26.1043 20.03 25.6401C22.32 24.9801 23.47 23.7601 23.49 22.5401C23.49 22.0801 23.49 21.6201 23.49 21.1601C23.43 19.9401 22.27 18.7201 20 18.0901Z" fill="url(#paint12_linear_52_13311)"/>
<path style="mix-blend-mode:multiply" opacity="0.2" d="M12.14 22.6801V24.0001C11.9561 23.783 11.8107 23.5362 11.71 23.2701V22.0001C11.8171 22.2477 11.9622 22.4772 12.14 22.6801ZM15.14 24.3901V25.6901L15.56 25.7901V24.4701L15.14 24.3901ZM16.86 24.6301V26.0001H17.28V24.6501L16.86 24.6301ZM16 24.5501V25.8701L16.42 25.9301V24.6101L16 24.5501ZM12.55 23.1601V24.4401C12.6838 24.5547 12.824 24.6615 12.97 24.7601V23.4501C12.86 23.3501 12.71 23.2601 12.59 23.1601H12.55ZM14.27 24.1601V25.4501L14.69 25.5801V24.2801C14.59 24.2101 14.45 24.1801 14.31 24.1301L14.27 24.1601ZM13.41 23.7601V25.0001L13.82 25.2101V23.9101C13.6929 23.8581 13.5693 23.7979 13.45 23.7301L13.41 23.7601ZM17.72 24.6801V26.0001H18.14V24.6201L17.72 24.6801ZM22.03 23.4301V24.7401C22.1779 24.6407 22.3183 24.5304 22.45 24.4101V23.1001C22.3307 23.2092 22.2037 23.3095 22.07 23.4001L22.03 23.4301ZM18.59 24.6301V25.9501L19.01 25.8901V24.5301L18.59 24.6301ZM22.89 22.6301V23.9301C23.0752 23.7046 23.2175 23.447 23.31 23.1701V21.8901C23.2197 22.1507 23.0916 22.3967 22.93 22.6201L22.89 22.6301ZM21.17 23.9001V25.2001L21.59 24.9901V23.6901C21.4681 23.7655 21.3411 23.8323 21.21 23.8901L21.17 23.9001ZM20.31 24.2301V25.5401C20.45 25.4901 20.6 25.4501 20.73 25.3901V24.1001C20.63 24.1501 20.49 24.1801 20.35 24.2201L20.31 24.2301ZM19.45 24.4601V25.7801L19.87 25.6801V24.3601C19.77 24.4001 19.63 24.4201 19.49 24.4501L19.45 24.4601Z" fill="url(#paint13_linear_52_13311)"/>
<path d="M17.5331 24.6563C20.8137 24.6426 23.4667 23.0958 23.4587 21.2015C23.4508 19.3072 20.7849 17.7827 17.5044 17.7964C14.2239 17.8101 11.5709 19.3569 11.5788 21.2513C11.5868 23.1456 14.2526 24.6701 17.5331 24.6563Z" fill="#FFCE45"/>
<path d="M21.3401 19.0001C23.4601 20.2101 23.4701 22.1901 21.3401 23.4201C20.153 24.0219 18.8409 24.3355 17.5101 24.3355C16.1792 24.3355 14.8671 24.0219 13.6801 23.4201C11.5601 22.2101 11.5501 20.2301 13.6801 19.0001C14.8664 18.396 16.1788 18.0811 17.5101 18.0811C18.8413 18.0811 20.1537 18.396 21.3401 19.0001Z" fill="#FFCE45"/>
<path opacity="0.6" d="M13.79 19.3201C14.9448 18.7358 16.2208 18.4313 17.515 18.4313C18.8092 18.4313 20.0852 18.7358 21.24 19.3201C22.73 20.1801 23.14 21.4301 22.47 22.5101C23.35 21.3601 22.97 19.9701 21.34 19.0401C20.1537 18.436 18.8413 18.1211 17.51 18.1211C16.1787 18.1211 14.8663 18.436 13.68 19.0401C12.06 19.9901 11.68 21.3801 12.58 22.5201C11.9 21.4501 12.29 20.1901 13.79 19.3201Z" fill="#E0890B"/>
<path d="M31.29 27.2C29.6713 26.7452 27.9587 26.7452 26.34 27.2C24.05 27.86 22.9 29.08 22.88 30.31C22.88 30.76 22.88 31.22 22.88 31.68C22.88 32.9 24.07 34.12 26.36 34.75C27.9779 35.21 29.6921 35.21 31.31 34.75C33.59 34.1 34.74 32.87 34.76 31.65C34.76 31.19 34.76 30.73 34.76 30.28C34.73 29.05 33.57 27.84 31.29 27.2Z" fill="url(#paint14_linear_52_13311)"/>
<path style="mix-blend-mode:multiply" opacity="0.2" d="M23.44 31.79V33.1C23.2609 32.8777 23.1191 32.6278 23.02 32.36V31.09C23.1239 31.3432 23.2655 31.5792 23.44 31.79ZM26.44 33.5V34.8L26.85 34.9V33.58L26.44 33.5ZM28.17 33.74V35.09H28.59V33.77L28.17 33.74ZM27.3 33.66V35C27.4384 35.0299 27.5788 35.0499 27.72 35.06V33.72C27.62 33.71 27.48 33.68 27.34 33.66H27.3ZM23.85 32.27V33.55C23.9784 33.6669 24.1155 33.7739 24.26 33.87V32.56C24.1316 32.47 24.0081 32.3731 23.89 32.27H23.85ZM25.58 33.27V34.56L26 34.7V33.4L25.58 33.27ZM24.71 32.88V34.17L25.13 34.37V33L24.71 32.88ZM29.03 33.79V35.1H29.45V33.74L29.03 33.79ZM33.33 32.54V33.85C33.4771 33.7537 33.6145 33.6431 33.74 33.52V32.22C33.6219 32.3231 33.4984 32.4199 33.37 32.51L33.33 32.54ZM29.89 33.74V35L30.31 34.94V33.64C30.1849 33.6713 30.058 33.6947 29.93 33.71L29.89 33.74ZM34.19 31.74V33C34.3669 32.7669 34.5053 32.5069 34.6 32.23V31C34.5152 31.261 34.3904 31.5073 34.23 31.73L34.19 31.74ZM32.51 33V34.3C32.65 34.23 32.79 34.17 32.92 34.09V32.8C32.7882 32.8762 32.6512 32.9431 32.51 33ZM31.65 33.34V34.64L32.06 34.5V33.21L31.65 33.34ZM30.79 33.57V34.88L31.2 34.78V33.47L30.79 33.57Z" fill="url(#paint15_linear_52_13311)"/>
<path d="M33 27.9C35.32 29.23 35.33 31.4 33 32.75C31.6967 33.4106 30.2561 33.7549 28.795 33.7549C27.3338 33.7549 25.8933 33.4106 24.59 32.75C22.26 31.42 22.25 29.25 24.59 27.9C25.8933 27.2393 27.3338 26.895 28.795 26.895C30.2561 26.895 31.6967 27.2393 33 27.9Z" fill="#FFCE45"/>
<path d="M32.6401 28.12C34.7601 29.33 34.7701 31.31 32.6401 32.54C31.453 33.1418 30.1409 33.4554 28.8101 33.4554C27.4792 33.4554 26.1671 33.1418 24.9801 32.54C22.8701 31.33 22.8601 29.35 24.9801 28.12C26.1666 27.5166 27.4789 27.2021 28.8101 27.2021C30.1412 27.2021 31.4535 27.5166 32.6401 28.12Z" fill="#FFCE45"/>
<path opacity="0.6" d="M25.09 28.4402C26.2448 27.8558 27.5209 27.5513 28.815 27.5513C30.1092 27.5513 31.3853 27.8558 32.54 28.4402C34.04 29.3002 34.45 30.5502 33.77 31.6302C34.65 30.4802 34.28 29.0902 32.64 28.1602C31.4548 27.5585 30.1443 27.2449 28.815 27.2449C27.4858 27.2449 26.1753 27.5585 24.99 28.1602C23.36 29.1602 22.99 30.5002 23.89 31.6402C23.2 30.5602 23.6 29.3102 25.09 28.4402Z" fill="#E0890B"/>
<path d="M30.75 25.22C29.1313 24.7652 27.4186 24.7652 25.8 25.22C23.51 25.88 22.36 27.1 22.34 28.33C22.34 28.79 22.34 29.24 22.34 29.7C22.34 30.93 23.53 32.14 25.82 32.78C27.4543 33.2442 29.1856 33.2442 30.82 32.78C33.1 32.12 34.25 30.9 34.27 29.67C34.27 29.21 34.27 28.76 34.27 28.3C34.2 27.07 33 25.86 30.75 25.22Z" fill="url(#paint16_linear_52_13311)"/>
<path style="mix-blend-mode:multiply" opacity="0.2" d="M22.9 29.82V31.12C22.7189 30.899 22.5768 30.6488 22.48 30.38V29.11C22.5836 29.3664 22.7252 29.6057 22.9 29.82ZM25.9 31.52V32.83L26.32 32.93V31.61L25.9 31.52ZM27.63 31.77V33.11H28.05V31.79L27.63 31.77ZM26.76 31.68V33L27.18 33.06V31.74C27.08 31.73 26.94 31.7 26.8 31.68H26.76ZM23.31 30.29V31.57C23.4419 31.6869 23.5823 31.7939 23.73 31.89V30.59C23.598 30.4969 23.4712 30.3967 23.35 30.29H23.31ZM25.04 31.29V32.58L25.46 32.72V31.42L25.04 31.29ZM24.18 30.9V32.19C24.3161 32.2646 24.4563 32.3314 24.6 32.39V31.07L24.18 30.9ZM28.49 31.82V33.15H28.91V31.76L28.49 31.82ZM32.79 30.57V31.88C32.9325 31.7774 33.0693 31.6673 33.2 31.55V30.24C33.082 30.3465 32.9585 30.4466 32.83 30.54L32.79 30.57ZM29.35 31.76V33.09L29.76 33.02V31.67L29.35 31.76ZM33.65 29.76V31.07C33.8269 30.8369 33.9653 30.5769 34.06 30.3V29C33.9771 29.268 33.8522 29.5212 33.69 29.75L33.65 29.76ZM32 31V32.29L32.42 32.09V30.83L32 31ZM31.14 31.33V32.63L31.56 32.49V31.23L31.14 31.33ZM30.28 31.56V32.88L30.69 32.77V31.5L30.28 31.56Z" fill="url(#paint17_linear_52_13311)"/>
<path d="M32.48 25.9201C34.8 27.2501 34.81 29.4301 32.48 30.7801C31.1767 31.4408 29.7362 31.7851 28.275 31.7851C26.8139 31.7851 25.3733 31.4408 24.07 30.7801C21.74 29.4501 21.74 27.2801 24.07 25.9301C25.3725 25.2679 26.8127 24.9219 28.2738 24.9202C29.735 24.9184 31.176 25.261 32.48 25.9201Z" fill="#FFCE45"/>
<path d="M28.2916 31.5012C31.2795 31.4887 33.6957 30.0772 33.6885 28.3486C33.6812 26.6199 31.2533 25.2287 28.2654 25.2413C25.2776 25.2538 22.8613 26.6653 22.8686 28.3939C22.8758 30.1225 25.3038 31.5137 28.2916 31.5012Z" fill="#FFCE45"/>
<path opacity="0.6" d="M24.55 26.4599C25.7041 25.8733 26.9804 25.5675 28.275 25.5675C29.5696 25.5675 30.8459 25.8733 32 26.4599C33.5 27.3199 33.91 28.5699 33.23 29.6499C34.11 28.4999 33.74 27.1099 32.1 26.1699C30.9147 25.5682 29.6043 25.2546 28.275 25.2546C26.9458 25.2546 25.6353 25.5682 24.45 26.1699C22.82 27.1199 22.45 28.5099 23.35 29.6599C22.66 28.5799 23.06 27.3299 24.55 26.4599Z" fill="#E0890B"/>
<path d="M30.76 23.6602C29.1257 23.196 27.3944 23.196 25.76 23.6602C23.47 24.3202 22.32 25.5402 22.3 26.7702C22.3 27.2302 22.3 27.6802 22.3 28.1402C22.3 29.3702 23.4901 30.5802 25.7801 31.2202C27.3987 31.675 29.1114 31.675 30.73 31.2202C33.01 30.5602 34.16 29.3402 34.18 28.1102C34.18 27.6502 34.18 27.2002 34.18 26.7402C34.21 25.5102 33.05 24.3002 30.76 23.6602Z" fill="url(#paint18_linear_52_13311)"/>
<path style="mix-blend-mode:multiply" opacity="0.2" d="M22.92 28.26V29.56C22.7389 29.339 22.5969 29.0887 22.5 28.82V27.55C22.6043 27.806 22.7458 28.0453 22.92 28.26ZM26 30V31.31L26.42 31.41V30.05L26 30ZM27.73 30.25V31.59H28.15V30.23L27.73 30.25ZM26.87 30.16V31.49L27.29 31.55V30.18C27.09 30.17 27 30.14 26.82 30.12L26.87 30.16ZM23.41 28.77V30C23.5419 30.1169 23.6823 30.2238 23.83 30.32V29C23.6681 28.9195 23.5111 28.8293 23.36 28.73L23.41 28.77ZM25.14 29.77V31L25.56 31.14V29.84L25.14 29.77ZM24.28 29.38V30.6L24.7 30.8V29.5L24.28 29.38ZM28.59 30.3V31.63H29.01V30.2L28.59 30.3ZM32.84 29V30.31L33.26 29.98V28.68C33.14 28.78 33 28.88 32.84 29ZM29.4 30.17V31.49C29.538 31.4805 29.6751 31.4604 29.81 31.43V30.11L29.4 30.17ZM33.7 28.17V29.5C33.8769 29.2668 34.0153 29.0069 34.11 28.73V27.47C34.0119 27.73 33.8736 27.973 33.7 28.19V28.17ZM32 29.47V30.76C32.1448 30.7001 32.2852 30.6299 32.42 30.55V29.27L32 29.47ZM31.14 29.8V31.1L31.56 30.96V29.67L31.14 29.8ZM30.28 30.03V31.35L30.7 31.24V29.94L30.28 30.03Z" fill="url(#paint19_linear_52_13311)"/>
<path d="M32.4901 24.3601C34.8101 25.6901 34.8201 27.8701 32.4901 29.2201C31.1868 29.8807 29.7462 30.225 28.2851 30.225C26.8239 30.225 25.3833 29.8807 24.0801 29.2201C21.7601 27.8901 21.7501 25.7201 24.0801 24.3701C25.3825 23.7078 26.8227 23.3619 28.2839 23.3601C29.745 23.3584 31.186 23.7009 32.4901 24.3601Z" fill="#FFCE45"/>
<path d="M32.11 24.5801C34.23 25.7901 34.24 27.7701 32.11 29.0001C30.9254 29.6041 29.6146 29.919 28.285 29.919C26.9553 29.919 25.6445 29.6041 24.46 29.0001C22.34 27.7901 22.33 25.8101 24.46 24.5801C25.6452 23.9784 26.9557 23.6648 28.285 23.6648C29.6142 23.6648 30.9247 23.9784 32.11 24.5801Z" fill="#FFCE45"/>
<path opacity="0.6" d="M24.56 24.9001C25.7141 24.3134 26.9904 24.0076 28.285 24.0076C29.5796 24.0076 30.856 24.3134 32.01 24.9001C33.51 25.7501 33.92 27.0101 33.24 28.0901C34.12 26.9301 33.75 25.5501 32.11 24.6101C30.9248 24.0084 29.6143 23.6948 28.285 23.6948C26.9558 23.6948 25.6453 24.0084 24.46 24.6101C22.83 25.5601 22.46 26.9501 23.36 28.1001C22.67 27.0001 23.07 25.7701 24.56 24.9001Z" fill="#E0890B"/>
<path d="M24.92 31.85C23.2864 31.3804 21.5536 31.3804 19.92 31.85C17.63 32.5 16.48 33.73 16.46 34.95C16.46 35.41 16.46 35.87 16.46 36.32C16.46 37.55 17.65 38.76 19.94 39.4C21.5586 39.8547 23.2713 39.8547 24.89 39.4C27.17 38.74 28.32 37.52 28.34 36.29C28.34 35.84 28.34 35.38 28.34 34.92C28.37 33.7 27.21 32.48 24.92 31.85Z" fill="url(#paint20_linear_52_13311)"/>
<path style="mix-blend-mode:multiply" opacity="0.2" d="M17.08 36.4401V37.7401C16.8989 37.5192 16.7569 37.2689 16.66 37.0001V35.7301C16.7643 35.9862 16.9059 36.2254 17.08 36.4401ZM20.08 38.1401V39.4501L20.5 39.5501V38.2301L20.08 38.1401ZM21.81 38.3901V39.7301H22.23V38.4101L21.81 38.3901ZM21 38.3001V39.6301L21.42 39.6901V38.3701L21 38.3001ZM17.54 36.9101V38.1901C17.6742 38.3074 17.8144 38.4175 17.96 38.5201V37.2101C17.8076 37.1189 17.6607 37.0187 17.52 36.9101H17.54ZM19.27 37.9101V39.1901L19.68 39.3301V38.0001L19.27 37.9101ZM18.41 37.5101V38.8001L18.83 39.0001V37.6901L18.41 37.5101ZM22.72 38.4301V39.7601H23.13V38.3801L22.72 38.4301ZM27 37.1601V38.4701L27.42 38.1401V36.8601C27.2877 36.9704 27.1473 37.0707 27 37.1601ZM23.56 38.3601V39.6801L23.97 39.6101V38.2901L23.56 38.3601ZM27.86 36.3601V37.6601C28.0426 37.4307 28.1816 37.1697 28.27 36.8901V35.6501C28.1699 35.9123 28.0318 36.1582 27.86 36.3801V36.3601ZM26.14 37.6301V39.0001L26.56 38.7901V37.4501L26.14 37.6301ZM25.28 37.9601V39.2601L25.7 39.1201V37.8501L25.28 37.9601ZM24.42 38.1901V39.5101L24.84 39.4001V38.1001L24.42 38.1901Z" fill="url(#paint21_linear_52_13311)"/>
<path d="M26.65 32.54C28.97 33.88 28.98 36.05 26.65 37.4C25.3467 38.0607 23.9061 38.4049 22.445 38.4049C20.9838 38.4049 19.5432 38.0607 18.24 37.4C15.92 36.07 15.91 33.9 18.24 32.55C19.5424 31.8878 20.9826 31.5418 22.4438 31.54C23.9049 31.5383 25.3459 31.8809 26.65 32.54Z" fill="#FFCE45"/>
<path d="M22.4695 38.1157C25.4573 38.1032 27.8736 36.6917 27.8663 34.9631C27.8591 33.2344 25.4311 31.8432 22.4433 31.8558C19.4554 31.8683 17.0392 33.2798 17.0464 35.0084C17.0537 36.737 19.4817 38.1282 22.4695 38.1157Z" fill="#FFCE45"/>
<path opacity="0.6" d="M18.7201 33.08C19.8741 32.4934 21.1504 32.1876 22.4451 32.1876C23.7397 32.1876 25.016 32.4934 26.1701 33.08C27.6701 33.94 28.0801 35.19 27.4001 36.27C28.2801 35.12 27.9101 33.73 26.2701 32.79C25.0848 32.1883 23.7743 31.8748 22.4451 31.8748C21.1158 31.8748 19.8053 32.1883 18.6201 32.79C16.9901 33.73 16.6201 35.13 17.5201 36.27C16.8301 35.21 17.2301 34 18.7201 33.08Z" fill="#E0890B"/>
<path d="M24.7001 30.2801C23.0821 29.8201 21.368 29.8201 19.75 30.2801C17.47 30.9301 16.32 32.1501 16.3 33.3801C16.3 33.8401 16.3 34.2901 16.3 34.7501C16.3 35.9801 17.4901 37.1901 19.7801 37.8301C21.3987 38.2849 23.1114 38.2849 24.73 37.8301C27.02 37.1701 28.17 35.9501 28.1901 34.7201C28.1901 34.2601 28.1901 33.8101 28.1901 33.3501C28.1501 32.1401 27.0001 30.9201 24.7001 30.2801Z" fill="url(#paint22_linear_52_13311)"/>
<path style="mix-blend-mode:multiply" opacity="0.2" d="M16.8601 34.8801V36.1801C16.6761 35.9594 16.5307 35.7092 16.4301 35.4401V34.1701C16.5368 34.4271 16.6817 34.6665 16.8601 34.8801ZM19.8601 36.5801V37.8901L20.2801 37.9901V36.6701C20.1701 36.6401 20.0001 36.6201 19.9001 36.5801H19.8601ZM21.5801 36.8301V38.1701H22.0001V36.8501L21.5801 36.8301ZM20.7201 36.7401V38.0701L21.1301 38.1301V36.8101L20.7201 36.7401ZM17.2701 35.3501V36.6301L17.6901 36.9601V35.6501C17.5566 35.5591 17.4296 35.4588 17.3101 35.3501H17.2701ZM18.9901 36.3501V37.6401L19.4101 37.7801V36.4801L18.9901 36.3501ZM18.1301 35.9601V37.2501L18.5401 37.4501V36.1301L18.1301 35.9601ZM22.4401 36.8801V38.2101H22.8601V36.8201L22.4401 36.8801ZM26.7501 35.6301V36.9401C26.8957 36.8375 27.0359 36.7273 27.1701 36.6101V35.3001C27.0508 35.4091 26.9238 35.5094 26.7901 35.6001L26.7501 35.6301ZM23.3101 36.8301V38.1501L23.7301 38.0801V36.7301L23.3101 36.8301ZM27.6101 34.8301V36.1401C27.7935 35.9096 27.9356 35.6491 28.0301 35.3701V34.0901C27.9457 34.3501 27.8171 34.5937 27.6501 34.8101L27.6101 34.8301ZM25.8901 36.1101V37.4001C26.0337 37.3414 26.174 37.2747 26.3101 37.2001V35.8901L25.8901 36.1101ZM25.0301 36.4401V37.7401L25.4501 37.6001V36.2901L25.0301 36.4401ZM24.1701 36.6701V38.0001L24.5901 37.8901V36.5901L24.1701 36.6701Z" fill="url(#paint23_linear_52_13311)"/>
<path d="M26.4301 31.0001C28.7601 32.3301 28.7701 34.5101 26.4301 35.8601C25.1286 36.5207 23.6896 36.8649 22.2301 36.8649C20.7705 36.8649 19.3316 36.5207 18.0301 35.8601C15.7001 34.5301 15.6901 32.3601 18.0301 31.0101C19.3308 30.348 20.7693 30.002 22.2289 30.0003C23.6884 29.9985 25.1278 30.3411 26.4301 31.0001Z" fill="#FFCE45"/>
<path d="M22.0999 36.6501C25.0878 36.6501 27.5099 35.2488 27.5099 33.5201C27.5099 31.7915 25.0878 30.3901 22.0999 30.3901C19.1121 30.3901 16.6899 31.7915 16.6899 33.5201C16.6899 35.2488 19.1121 36.6501 22.0999 36.6501Z" fill="#FFCE45"/>
<path opacity="0.6" d="M18.51 31.5201C19.664 30.9334 20.9403 30.6276 22.235 30.6276C23.5296 30.6276 24.8059 30.9334 25.96 31.5201C27.46 32.3801 27.86 33.6301 27.19 34.7101C28.07 33.5601 27.69 32.1701 26.06 31.2301C24.8729 30.6283 23.5608 30.3147 22.23 30.3147C20.8991 30.3147 19.587 30.6283 18.4 31.2301C16.78 32.1801 16.4 33.5701 17.3 34.7201C16.62 33.6401 17 32.3901 18.51 31.5201Z" fill="#E0890B"/>
</g>
<defs>
<linearGradient id="paint0_linear_52_13311" x1="43.3766" y1="50.8918" x2="110.912" y2="50.8918" gradientUnits="userSpaceOnUse">
<stop stop-color="#5917FF"/>
<stop offset="0.16" stop-color="#6D22F8"/>
<stop offset="0.48" stop-color="#A13DE7"/>
<stop offset="0.95" stop-color="#4BF2EA"/>
<stop offset="1" stop-color="#42E8E0"/>
</linearGradient>
<linearGradient id="paint1_linear_52_13311" x1="21.46" y1="-8.13995" x2="78.74" y2="35.57" gradientUnits="userSpaceOnUse">
<stop stop-color="#7626F5"/>
<stop offset="0.25" stop-color="#8328F6"/>
<stop offset="0.73" stop-color="#42E8E0" stop-opacity="0.56"/>
<stop offset="1" stop-color="#42E8E0"/>
</linearGradient>
<linearGradient id="paint2_linear_52_13311" x1="11.1199" y1="30.2002" x2="23.0199" y2="30.2002" gradientUnits="userSpaceOnUse">
<stop stop-color="#D88000"/>
<stop offset="1" stop-color="#FFAC33"/>
</linearGradient>
<linearGradient id="paint3_linear_52_13311" x1="11.26" y1="32.26" x2="22.89" y2="32.26" gradientUnits="userSpaceOnUse">
<stop stop-color="#D88F25"/>
<stop offset="1" stop-color="#EBA136"/>
</linearGradient>
<linearGradient id="paint4_linear_52_13311" x1="11.09" y1="28.22" x2="22.99" y2="28.22" gradientUnits="userSpaceOnUse">
<stop stop-color="#D88000"/>
<stop offset="1" stop-color="#FFAC33"/>
</linearGradient>
<linearGradient id="paint5_linear_52_13311" x1="11.24" y1="30.29" x2="22.87" y2="30.29" gradientUnits="userSpaceOnUse">
<stop stop-color="#D88F25"/>
<stop offset="1" stop-color="#EBA136"/>
</linearGradient>
<linearGradient id="paint6_linear_52_13311" x1="11.1101" y1="26.6601" x2="23.0101" y2="26.6601" gradientUnits="userSpaceOnUse">
<stop stop-color="#D88000"/>
<stop offset="1" stop-color="#FFAC33"/>
</linearGradient>
<linearGradient id="paint7_linear_52_13311" x1="11.25" y1="28.7299" x2="22.88" y2="28.7299" gradientUnits="userSpaceOnUse">
<stop stop-color="#D88F25"/>
<stop offset="1" stop-color="#EBA136"/>
</linearGradient>
<linearGradient id="paint8_linear_52_13311" x1="11.1199" y1="25.1001" x2="23.0199" y2="25.1001" gradientUnits="userSpaceOnUse">
<stop stop-color="#D88000"/>
<stop offset="1" stop-color="#FFAC33"/>
</linearGradient>
<linearGradient id="paint9_linear_52_13311" x1="11.26" y1="27.1701" x2="22.89" y2="27.1701" gradientUnits="userSpaceOnUse">
<stop stop-color="#D88F25"/>
<stop offset="1" stop-color="#EBA136"/>
</linearGradient>
<linearGradient id="paint10_linear_52_13311" x1="11.62" y1="23.56" x2="23.52" y2="23.56" gradientUnits="userSpaceOnUse">
<stop stop-color="#D88000"/>
<stop offset="1" stop-color="#FFAC33"/>
</linearGradient>
<linearGradient id="paint11_linear_52_13311" x1="11.77" y1="25.6201" x2="23.4" y2="25.6201" gradientUnits="userSpaceOnUse">
<stop stop-color="#D88F25"/>
<stop offset="1" stop-color="#EBA136"/>
</linearGradient>
<linearGradient id="paint12_linear_52_13311" x1="11.57" y1="21.8701" x2="23.47" y2="21.8701" gradientUnits="userSpaceOnUse">
<stop stop-color="#D88000"/>
<stop offset="1" stop-color="#FFAC33"/>
</linearGradient>
<linearGradient id="paint13_linear_52_13311" x1="11.72" y1="23.9401" x2="23.35" y2="23.9401" gradientUnits="userSpaceOnUse">
<stop stop-color="#D88F25"/>
<stop offset="1" stop-color="#EBA136"/>
</linearGradient>
<linearGradient id="paint14_linear_52_13311" x1="22.88" y1="30.99" x2="34.78" y2="30.99" gradientUnits="userSpaceOnUse">
<stop stop-color="#D88000"/>
<stop offset="1" stop-color="#FFAC33"/>
</linearGradient>
<linearGradient id="paint15_linear_52_13311" x1="23.02" y1="33.05" x2="34.65" y2="33.05" gradientUnits="userSpaceOnUse">
<stop stop-color="#D88F25"/>
<stop offset="1" stop-color="#EBA136"/>
</linearGradient>
<linearGradient id="paint16_linear_52_13311" x1="22.34" y1="29.01" x2="34.24" y2="29.01" gradientUnits="userSpaceOnUse">
<stop stop-color="#D88000"/>
<stop offset="1" stop-color="#FFAC33"/>
</linearGradient>
<linearGradient id="paint17_linear_52_13311" x1="22.48" y1="31.08" x2="34.11" y2="31.08" gradientUnits="userSpaceOnUse">
<stop stop-color="#D88F25"/>
<stop offset="1" stop-color="#EBA136"/>
</linearGradient>
<linearGradient id="paint18_linear_52_13311" x1="22.35" y1="27.4502" x2="34.25" y2="27.4502" gradientUnits="userSpaceOnUse">
<stop stop-color="#D88000"/>
<stop offset="1" stop-color="#FFAC33"/>
</linearGradient>
<linearGradient id="paint19_linear_52_13311" x1="22.49" y1="29.52" x2="34.12" y2="29.52" gradientUnits="userSpaceOnUse">
<stop stop-color="#D88F25"/>
<stop offset="1" stop-color="#EBA136"/>
</linearGradient>
<linearGradient id="paint20_linear_52_13311" x1="16.51" y1="35.63" x2="28.41" y2="35.63" gradientUnits="userSpaceOnUse">
<stop stop-color="#D88000"/>
<stop offset="1" stop-color="#FFAC33"/>
</linearGradient>
<linearGradient id="paint21_linear_52_13311" x1="16.65" y1="37.7001" x2="28.28" y2="37.7001" gradientUnits="userSpaceOnUse">
<stop stop-color="#D88F25"/>
<stop offset="1" stop-color="#EBA136"/>
</linearGradient>
<linearGradient id="paint22_linear_52_13311" x1="16.29" y1="34.0701" x2="28.1901" y2="34.0701" gradientUnits="userSpaceOnUse">
<stop stop-color="#D88000"/>
<stop offset="1" stop-color="#FFAC33"/>
</linearGradient>
<linearGradient id="paint23_linear_52_13311" x1="16.4401" y1="36.1401" x2="28.0701" y2="36.1401" gradientUnits="userSpaceOnUse">
<stop stop-color="#D88F25"/>
<stop offset="1" stop-color="#EBA136"/>
</linearGradient>
<clipPath id="clip0_52_13311">
<rect width="111.83" height="71.05" fill="white"/>
</clipPath>
</defs>
</svg>
