<svg width="53" height="87" viewBox="0 0 53 87" fill="none" xmlns="http://www.w3.org/2000/svg">
<g clip-path="url(#clip0_52_13266)">
<path d="M29.0529 2.83595L4.16639 17.2421C3.94106 17.3676 3.75377 17.5519 3.62434 17.7754C3.49491 17.9989 3.42815 18.2533 3.43113 18.5117V80.1192C3.43113 81.2455 3.99278 82.9861 6.19856 82.5356L29.2163 69.3888C31.1382 68.2998 32.6759 66.6399 33.6176 64.638C33.9837 63.8474 34.2248 63.0046 34.3325 62.1397L34.3937 4.42298C34.3937 2.04756 31.1463 1.61752 29.0529 2.83595Z" fill="url(#paint0_linear_52_13266)"/>
<path d="M33.3522 2.15005C32.8157 1.89925 32.222 1.79736 31.6328 1.85499C31.0437 1.91262 30.4807 2.12766 30.0027 2.47769L7.60791 15.4402C6.23276 16.3337 5.08951 17.5426 4.27267 18.967C3.45583 20.3913 2.98888 21.9902 2.91041 23.6313V83.2729C2.8479 83.8604 2.94156 84.4541 3.1819 84.9936C3.42224 85.5331 3.80069 85.9992 4.27881 86.3446L2.23643 85.1569C1.75592 84.8137 1.37568 84.3479 1.13508 83.8078C0.89448 83.2678 0.802278 82.673 0.868024 82.0852V22.4333C0.948948 20.7928 1.41694 19.1949 2.23356 17.7709C3.05017 16.347 4.1921 15.1376 5.56552 14.2422L27.9807 1.28998C28.461 0.944876 29.0236 0.732868 29.6116 0.675343C30.1997 0.617818 30.7925 0.716811 31.3303 0.962336L33.3522 2.15005Z" fill="url(#paint1_linear_52_13266)"/>
<path d="M30.0027 2.4777L7.6079 15.4402C6.23275 16.3337 5.08949 17.5427 4.27266 18.967C3.45582 20.3913 2.98886 21.9902 2.9104 23.6313V83.2729C2.9104 86.2627 5.03449 87.4709 7.62832 85.976L30.0027 72.9623C31.3765 72.0682 32.5182 70.859 33.3333 69.4346C34.1484 68.0102 34.6135 66.4116 34.69 64.7712L34.7206 5.17054C34.7206 2.18078 32.5965 1.02378 30.0027 2.4777ZM34.0875 62.6108C34.0874 63.0529 33.9713 63.4871 33.7508 63.8699C33.5303 64.2528 33.2132 64.5707 32.8314 64.7917L26.2141 68.6006L12.3973 76.5869L4.95279 80.8873C4.82881 80.959 4.68819 80.9969 4.54503 80.997C4.40187 80.9971 4.26119 80.9595 4.13708 80.888C4.01297 80.8164 3.90979 80.7134 3.83788 80.5893C3.76598 80.4652 3.72786 80.3243 3.72736 80.1808V24.5733C3.7288 22.7354 4.21156 20.9302 5.12734 19.3382C6.04312 17.7462 7.3598 16.4232 8.94566 15.5016L12.1828 13.6381C12.2641 13.587 12.3551 13.5533 12.45 13.5392C12.5449 13.5251 12.6417 13.5309 12.7343 13.5562L14.9809 14.1501C15.1475 14.1874 15.322 14.1619 15.4711 14.0784L22.3335 10.1057C22.4365 10.0453 22.5295 9.96935 22.6092 9.88043L26.0098 5.7132C26.0942 5.60852 26.1983 5.52154 26.3162 5.45723L30.8401 2.83607C31.169 2.64326 31.5428 2.54089 31.9239 2.53932C32.3049 2.53775 32.6795 2.63703 33.01 2.82712C33.3405 3.01722 33.6151 3.29139 33.8061 3.62196C33.9971 3.95252 34.0977 4.32777 34.0977 4.70979L34.0875 62.6108Z" fill="#353131"/>
<path d="M21.445 72.6961C21.1888 72.7031 20.9388 72.7773 20.72 72.9111L18.2078 74.365C17.8345 74.5881 17.5189 74.8963 17.2865 75.2645C17.0541 75.6327 16.9114 76.0507 16.8701 76.4845V77.8155C16.8587 77.9356 16.8724 78.0568 16.9103 78.1713C16.9482 78.2859 17.0094 78.3913 17.0901 78.4808C17.1707 78.5703 17.2691 78.6421 17.3789 78.6915C17.4887 78.7409 17.6075 78.7669 17.7279 78.7677C17.9847 78.7553 18.2341 78.6778 18.4529 78.5425L20.9651 77.0886C21.3387 76.8668 21.654 76.5587 21.8849 76.1901C22.1158 75.8214 22.2556 75.4028 22.2926 74.9691V73.72C22.3168 73.595 22.313 73.4662 22.2815 73.3429C22.2501 73.2195 22.1917 73.1048 22.1106 73.0068C22.0295 72.9089 21.9277 72.8302 21.8126 72.7764C21.6975 72.7227 21.572 72.6952 21.445 72.6961Z" fill="#262424"/>
<path d="M20.6995 76.9554C21.0764 76.7339 21.3946 76.4247 21.6274 76.0541C21.8602 75.6835 22.0008 75.2622 22.0373 74.8257V73.4844C22.043 73.349 22.0195 73.214 21.9684 73.0885C21.9173 72.9631 21.8397 72.8502 21.7411 72.7575C21.6474 72.7177 21.5468 72.6969 21.445 72.696C21.188 72.7072 20.9382 72.7848 20.7199 72.9213L18.1874 74.3855C17.8122 74.609 17.4953 74.9186 17.2628 75.2888C17.0302 75.6591 16.8886 76.0794 16.8496 76.5152V77.8155C16.8475 77.952 16.8726 78.0875 16.9234 78.2141C16.9743 78.3407 17.0499 78.4558 17.1458 78.5527C17.2374 78.5634 17.3299 78.5634 17.4215 78.5527C17.6815 78.5402 17.9342 78.4628 18.1567 78.3274L20.6995 76.9554Z" fill="#353131"/>
<path d="M21.445 9.50166L17.4113 11.8361C17.156 11.9897 16.9415 11.8976 16.9415 11.6416C16.9607 11.4915 17.0127 11.3476 17.0939 11.2202C17.1751 11.0927 17.2835 10.9848 17.4113 10.9044L21.445 8.56992C21.7003 8.42657 21.9045 8.50848 21.9045 8.76446C21.8926 8.91531 21.8446 9.06106 21.7647 9.18939C21.6847 9.31771 21.575 9.42482 21.445 9.50166Z" fill="#191414"/>
<path d="M2.04232 33.7882C2.13797 33.8952 2.21713 34.016 2.2772 34.1465C2.33678 34.2857 2.36803 34.4354 2.3691 34.5868V39.5424C2.37672 39.6143 2.36568 39.687 2.33705 39.7534C2.30842 39.8198 2.26318 39.8776 2.20571 39.9213L1.77681 40.167C1.83774 40.126 1.8862 40.069 1.91684 40.0021C1.94747 39.9353 1.95909 39.8612 1.95041 39.7882V34.8121C1.94584 34.66 1.91113 34.5103 1.84829 34.3718C1.79074 34.2423 1.71509 34.1216 1.62363 34.0134C1.53949 33.9208 1.43911 33.8445 1.32748 33.7882L1.16409 33.696C1.102 33.6601 1.03156 33.6411 0.959854 33.6411C0.888151 33.6411 0.817712 33.6601 0.755615 33.696L1.1743 33.4503C1.23795 33.4134 1.31015 33.394 1.38365 33.394C1.45715 33.394 1.52935 33.4134 1.59299 33.4503L1.74617 33.5424C1.85951 33.6048 1.96001 33.6882 2.04232 33.7882Z" fill="#F6F4F7"/>
<path d="M1.90958 34.8123V39.7679C1.90958 40.1468 1.64407 40.2901 1.3275 40.1058L1.16411 40.0136C0.991767 39.9029 0.84878 39.7518 0.747402 39.5735C0.646025 39.3952 0.58928 39.1949 0.582031 38.9898V34.0239C0.582031 33.6553 0.847542 33.5017 1.16411 33.686L1.3275 33.7884C1.49809 33.901 1.63973 34.0525 1.74088 34.2304C1.84203 34.4083 1.89983 34.6077 1.90958 34.8123Z" fill="#CBC6CF"/>
<path d="M2.04237 26.1808C2.13346 26.2913 2.21222 26.4115 2.27724 26.5392C2.33509 26.6788 2.36627 26.8282 2.36915 26.9794V31.9351C2.3778 32.0071 2.36724 32.0801 2.33853 32.1466C2.30982 32.2132 2.264 32.2709 2.20576 32.3139L1.77686 32.5596C1.83782 32.5212 1.88656 32.466 1.91732 32.4007C1.94807 32.3354 1.95957 32.2627 1.95046 32.191V27.2252C1.94363 27.0734 1.90902 26.9241 1.84834 26.7849C1.79298 26.6573 1.71708 26.5397 1.62368 26.4368C1.55173 26.3479 1.46544 26.2718 1.36838 26.2115L1.20499 26.1194C1.14289 26.0834 1.07245 26.0645 1.00075 26.0645C0.929045 26.0645 0.858605 26.0834 0.796509 26.1194L1.2152 25.8736C1.27885 25.8368 1.35105 25.8174 1.42454 25.8174C1.49804 25.8174 1.57024 25.8368 1.63389 25.8736L1.78707 25.9658C1.88104 26.0261 1.96685 26.0984 2.04237 26.1808Z" fill="#F6F4F7"/>
<path d="M1.90958 27.2252V32.191C1.90958 32.5596 1.64407 32.7132 1.3275 32.5187L1.16411 32.4265C0.991767 32.3157 0.84878 32.1647 0.747402 31.9864C0.646025 31.8081 0.58928 31.6078 0.582031 31.4026V26.4572C0.582031 26.0886 0.847542 25.9351 1.16411 26.1194L1.3275 26.2115C1.49674 26.3231 1.63755 26.473 1.73863 26.649C1.83971 26.825 1.89826 27.0224 1.90958 27.2252Z" fill="#CBC6CF"/>
<path d="M15.471 11.8974C15.3035 12.0124 15.1647 12.1646 15.0655 12.3422C14.9663 12.5198 14.9094 12.718 14.8992 12.9213C14.8992 13.2899 15.1545 13.4435 15.4813 13.249C15.6524 13.1369 15.7945 12.9856 15.8957 12.8076C15.9969 12.6295 16.0544 12.4298 16.0633 12.2251C16.0633 11.8667 15.7978 11.7131 15.471 11.8974Z" fill="#191414"/>
<path opacity="0.1" d="M15.0524 12.8087C15.0624 12.6586 15.1084 12.5131 15.1867 12.3847C15.2649 12.2564 15.373 12.1489 15.5017 12.0715C15.7366 11.9384 15.9306 12.0715 15.9204 12.3377C15.9072 12.4856 15.8597 12.6284 15.7817 12.7546C15.7037 12.8808 15.5973 12.987 15.4711 13.0647C15.4303 13.1021 15.3784 13.1252 15.3234 13.1306C15.2684 13.1359 15.2131 13.1232 15.1658 13.0944C15.1186 13.0655 15.082 13.022 15.0616 12.9705C15.0411 12.919 15.0379 12.8622 15.0524 12.8087Z" fill="#CFD5D5"/>
<path opacity="0.1" d="M15.2566 12.7165C15.2619 12.635 15.287 12.556 15.3297 12.4864C15.3725 12.4168 15.4315 12.3587 15.5017 12.3172C15.6344 12.2455 15.7366 12.3172 15.7263 12.4605C15.7202 12.5418 15.6947 12.6205 15.6521 12.69C15.6094 12.7594 15.5509 12.8177 15.4813 12.8598C15.3179 12.9315 15.2566 12.8598 15.2566 12.7165Z" fill="#CFD5D5"/>
<g style="mix-blend-mode:screen" opacity="0.2">
<path d="M15.4098 12.6348C15.4113 12.6062 15.4195 12.5783 15.4337 12.5534C15.4479 12.5286 15.4677 12.5073 15.4915 12.4915C15.5425 12.4915 15.5834 12.4915 15.5834 12.5426C15.5816 12.5724 15.5722 12.6013 15.5561 12.6264C15.54 12.6515 15.5178 12.672 15.4915 12.686C15.4404 12.7167 15.3996 12.686 15.4098 12.6348Z" fill="#CFD5D5"/>
</g>
<path opacity="0.7" d="M10.2426 28.5768V81.0307L41.532 62.918V10.4744L10.2426 28.5768Z" fill="#CFE9FF"/>
<path d="M41.532 10.6688L10.2426 28.7814V22.9964L41.532 4.88379V10.6688Z" fill="#07DBB4"/>
<path opacity="0.5" d="M41.5319 27.6757L33.73 25.116L17.0131 49.2695V69.7883L41.5319 55.5972V27.6757Z" fill="#455CBA"/>
<path d="M35.8234 33.092L19.1064 45.174V65.6518L51.7847 46.7405V26.2627L35.8234 33.092Z" fill="#FFC522"/>
<path d="M19.1064 45.1738L20.3319 45.696L36.9978 45.3991L50.9984 28.1977L51.7745 26.2626L35.8234 21.0203L19.1064 45.1738Z" fill="#07DBB4"/>
<path opacity="0.7" d="M19.1064 45.1738V65.6926L20.3319 64.0237V45.696L19.1064 45.1738Z" fill="#EB9A1E"/>
<path opacity="0.3" d="M50.9881 46.2798L20.3319 64.0238L19.1064 65.6928L51.7745 46.7815L50.9881 46.2798Z" fill="#EB9A1E"/>
<path opacity="0.1" d="M50.9882 28.1876V46.2798L51.7745 46.7815V26.2627L50.9882 28.1876Z" fill="#EB9A1E"/>
<path opacity="0.7" d="M51.0597 46.2183L37.1204 45.2764L37.0183 45.3992L50.9985 46.3412L51.7337 46.8224H51.795V46.7405L51.0597 46.2183Z" fill="#EB9A1E"/>
<path opacity="0.7" d="M20.2808 63.9828L19.1064 65.5801V65.6927L19.2494 65.6108L20.4238 64.0647L36.9978 45.3992H36.814L20.2808 63.9828Z" fill="#EB9A1E"/>
<path d="M48.5679 39.1841L22.6704 54.1739V33.5527L48.5679 18.563V39.1841Z" fill="#FFFAEB"/>
<path d="M44.0644 32.2115L27.0309 42.0715C26.1424 42.5835 25.4276 42.2763 25.4276 41.3958V38.0476C25.479 37.5298 25.6508 37.0312 25.9293 36.592C26.2077 36.1527 26.585 35.7851 27.0309 35.5186L44.0644 25.6483C44.9529 25.1364 45.6677 25.4436 45.6677 26.3343V29.6927C45.6148 30.2088 45.4422 30.7053 45.1639 31.1427C44.8855 31.58 44.509 31.946 44.0644 32.2115Z" fill="#07DBB4"/>
<path d="M11.3556 25.8941V26.0477C11.3434 26.1291 11.3553 26.2122 11.3898 26.2868C11.4243 26.3615 11.4799 26.4243 11.5497 26.4675C11.6411 26.4873 11.7357 26.4875 11.8272 26.4681C11.9187 26.4487 12.0051 26.4101 12.0807 26.3549L12.6423 26.0272C12.8533 25.904 13.0319 25.732 13.1632 25.5255C13.2912 25.3389 13.3589 25.1173 13.3572 24.8907V24.6655C13.3678 24.5518 13.3349 24.4384 13.2653 24.3481C13.2381 24.3128 13.2019 24.2856 13.1606 24.2694C13.1192 24.2531 13.0742 24.2485 13.0304 24.2559C12.9222 24.2583 12.8151 24.2791 12.7138 24.3173C12.5913 24.3475 12.4716 24.3886 12.3564 24.4402L12.0398 24.5528C11.8152 24.6143 11.7028 24.5631 11.7028 24.3993V24.2047C11.7023 24.0561 11.7431 23.9103 11.8207 23.7837C11.8982 23.6571 12.0095 23.5547 12.142 23.488L12.5504 23.2525C12.8466 23.0784 12.9895 23.1501 12.9895 23.447V23.5392H13.0508L13.2755 23.4061C13.2959 23.3958 13.3127 23.3795 13.3237 23.3594C13.3346 23.3392 13.3392 23.3162 13.3368 23.2935V23.1706C13.3368 22.9453 13.2755 22.761 13.1427 22.761C13.0531 22.7385 12.9595 22.737 12.8692 22.7565C12.7789 22.776 12.6943 22.8161 12.6219 22.8737L12.0807 23.1808C11.8667 23.3037 11.6847 23.4756 11.5497 23.6825C11.4271 23.8718 11.3599 24.0917 11.3556 24.3173V24.5631C11.3556 24.7576 11.4169 24.9214 11.5292 24.9214C11.6641 24.9725 11.813 24.9725 11.9479 24.9214L12.4279 24.7371C12.8159 24.5938 13.01 24.6347 13.01 24.8702V25.0341C13.0116 25.1802 12.9709 25.3237 12.893 25.4472C12.8151 25.5708 12.7032 25.6691 12.5709 25.7303L12.142 25.976C11.856 26.1501 11.7131 26.0784 11.7131 25.7917V25.6586H11.6416L11.4271 25.7815C11.4056 25.7914 11.3875 25.8073 11.3748 25.8272C11.3621 25.8472 11.3555 25.8704 11.3556 25.8941Z" fill="#FFFAEB"/>
<path d="M14.7256 24.819L15.7468 24.2252C15.7638 24.2404 15.7855 24.2494 15.8083 24.2508C15.831 24.2523 15.8536 24.246 15.8724 24.233C15.8913 24.2201 15.9052 24.2011 15.912 24.1793C15.9189 24.1575 15.9182 24.134 15.9102 24.1126V23.9385H15.8387L14.8175 24.5119C14.5418 24.6757 14.409 24.6143 14.409 24.3276V24.0307V23.959L15.7876 23.1603C15.8065 23.1483 15.822 23.1316 15.8327 23.1119C15.8434 23.0922 15.849 23.0701 15.8489 23.0477V22.4231C15.8489 22.1979 15.7876 22.0545 15.6651 22.0033C15.5736 21.9835 15.4791 21.9833 15.3876 22.0028C15.296 22.0222 15.2097 22.0607 15.1341 22.116L14.7256 22.3515C14.5116 22.4743 14.3296 22.6463 14.1946 22.8532C14.0738 23.0465 14.0101 23.2701 14.0107 23.4982V24.5221C14.0107 24.7474 14.072 24.8907 14.1946 24.9419C14.2866 24.9624 14.3821 24.962 14.4739 24.9407C14.5658 24.9194 14.6518 24.8779 14.7256 24.819Z" fill="#FFFAEB"/>
<path d="M17.8811 22.9248V22.7508C17.8811 22.6996 17.8198 22.7201 17.8198 22.7201L17.1458 23.0989C16.8803 23.2627 16.7475 23.1911 16.7475 22.9146V21.8907C16.7468 21.7539 16.7835 21.6194 16.8538 21.5021C16.924 21.3847 17.025 21.2889 17.1458 21.2252L17.8198 20.8464C17.8379 20.8359 17.853 20.821 17.8637 20.8031C17.8744 20.7852 17.8804 20.7648 17.8811 20.744V20.5597H17.8198L17.1152 20.9692C16.9018 21.0886 16.7198 21.257 16.5842 21.4607C16.4571 21.6516 16.3895 21.8762 16.3901 22.1057V23.1296C16.3901 23.3651 16.4616 23.488 16.5842 23.5494C16.7067 23.6109 16.8905 23.5699 17.1152 23.4368L17.8198 23.0272C17.8386 23.0176 17.8542 23.003 17.8651 22.9849C17.8759 22.9668 17.8815 22.946 17.8811 22.9248Z" fill="#FFFAEB"/>
<path d="M19.0554 22.3105L19.3312 22.1569C19.5617 22.0413 19.7456 21.8497 19.852 21.6143V21.8088H19.9235L20.1481 21.6757C20.1669 21.6661 20.1826 21.6514 20.1934 21.6333C20.2042 21.6152 20.2098 21.5944 20.2094 21.5733V19.2184H20.1481L19.9235 19.3515C19.9035 19.3606 19.8863 19.3749 19.8738 19.3929C19.8612 19.4109 19.8537 19.4319 19.852 19.4539V21.0921C19.8559 21.2335 19.8167 21.3728 19.7396 21.4914C19.6505 21.6195 19.5357 21.7276 19.4026 21.8088L19.1167 21.9317C18.8512 22.0955 18.7082 22.0238 18.7082 21.7474V20.058H18.647L18.4223 20.1911C18.4035 20.2007 18.3879 20.2153 18.377 20.2334C18.3662 20.2515 18.3606 20.2723 18.361 20.2934V21.9931C18.361 22.2184 18.4223 22.3617 18.5448 22.4231C18.6328 22.4456 18.7248 22.4471 18.8135 22.4275C18.9021 22.408 18.985 22.3679 19.0554 22.3105Z" fill="#FFFAEB"/>
<path d="M53 15.3583C52.885 16.4088 52.5281 17.4181 51.9574 18.3065C51.3868 19.195 50.618 19.9383 49.7117 20.4778C47.894 21.5017 46.4235 20.9078 46.4235 19.0853C46.5278 18.0209 46.8796 16.9959 47.4507 16.0926C48.0218 15.1892 48.7962 14.4328 49.7117 13.8839C51.5294 12.8601 53 13.4846 53 15.3583Z" fill="#DB3E3E"/>
<path d="M48.5374 16.894V16.2899C48.5437 16.194 48.5834 16.1034 48.6497 16.0339L49.3237 15.2251C49.4023 15.117 49.4991 15.0235 49.6096 14.9486L50.2019 14.6107C50.304 14.5493 50.3551 14.5698 50.3551 14.6722V19.1158C50.3682 19.1627 50.3682 19.2123 50.3551 19.2592C50.3279 19.3032 50.289 19.3387 50.2428 19.3616L49.6096 19.7302C49.4973 19.7916 49.4462 19.7302 49.4462 19.6585V16.0647L48.7314 16.894C48.5986 16.9964 48.5374 16.9964 48.5374 16.894Z" fill="#FFFAEB"/>
<path d="M28.6445 37.4333C28.8794 37.72 28.7364 38.3445 28.3177 38.836C27.899 39.3275 27.3578 39.4913 27.1127 39.2046C26.8676 38.9179 27.0106 38.3036 27.4293 37.8121C27.848 37.3206 28.3994 37.1568 28.6445 37.4333ZM30.4622 36.0613C30.0435 36.5527 29.8903 37.1773 30.1354 37.4537C30.3805 37.7302 30.9218 37.5664 31.3404 37.0851C31.7591 36.6039 31.9123 35.9691 31.6672 35.6824C31.4221 35.3957 30.8809 35.5698 30.4622 36.0613ZM33.5258 34.3104C33.1071 34.7916 32.9641 35.4162 33.2092 35.7029C33.4543 35.9896 33.9955 35.8155 34.4142 35.3343C34.8329 34.8531 34.9759 34.2182 34.741 33.9316C34.5061 33.6449 33.9139 33.7882 33.485 34.3104H33.5258ZM36.5894 32.5493C36.1707 33.0408 36.0175 33.6653 36.2626 33.952C36.5077 34.2387 37.0489 34.0647 37.4676 33.5732C37.8863 33.0817 38.0395 32.4572 37.7944 32.1807C37.5493 31.9043 36.9366 32.0681 36.5179 32.5493H36.5894ZM39.653 30.7985C39.2241 31.2899 39.0811 31.9145 39.3262 32.2012C39.5713 32.4879 40.1125 32.3138 40.5312 31.8223C40.9499 31.3309 41.1031 30.7063 40.858 30.4299C40.6129 30.1534 39.9695 30.307 39.5508 30.7985H39.653ZM42.7165 29.0476C42.2979 29.5391 42.1447 30.1636 42.3898 30.4401C42.6349 30.7165 43.1761 30.563 43.605 30.0715C44.0339 29.58 44.1666 28.9554 43.9216 28.679C43.6765 28.4025 42.9923 28.5561 42.5736 29.0476H42.7165Z" fill="#FFFAEB"/>
</g>
<defs>
<linearGradient id="paint0_linear_52_13266" x1="0.0918192" y1="15.0817" x2="36.6071" y2="67.8449" gradientUnits="userSpaceOnUse">
<stop stop-color="#5917FF"/>
<stop offset="0.16" stop-color="#6D22F8"/>
<stop offset="0.48" stop-color="#A13DE7"/>
<stop offset="0.95" stop-color="#42E8E0"/>
<stop offset="1" stop-color="#42E8E0"/>
</linearGradient>
<linearGradient id="paint1_linear_52_13266" x1="11.2767" y1="30.3821" x2="15.3776" y2="23.2652" gradientUnits="userSpaceOnUse">
<stop stop-color="#C0B9C8"/>
<stop offset="1" stop-color="#F6F4F7"/>
</linearGradient>
<clipPath id="clip0_52_13266">
<rect width="53" height="87" fill="white"/>
</clipPath>
</defs>
</svg>
