<svg width="91" height="74" viewBox="0 0 91 74" fill="none" xmlns="http://www.w3.org/2000/svg">
<g style="mix-blend-mode:multiply" opacity="0.4">
<path d="M75.1044 18.1871L23.6557 47.7678C22.1765 48.6237 22.3159 49.2977 23.9665 49.287H63.2391L68.5983 45.4035C71.9961 39.5836 75.3295 33.7959 78.5665 27.8797L78.7273 16.8926C77.4624 17.1435 76.2416 17.5798 75.1044 18.1871Z" fill="#50197C"/>
</g>
<path d="M61.5241 1.61555C61.1999 1.48507 60.8477 1.43919 60.5007 1.48225C60.1538 1.5253 59.8236 1.65586 59.5412 1.86161L8.19961 31.3782C7.45685 31.8251 6.82883 32.4388 6.36551 33.1706C5.90218 33.9023 5.61633 34.7319 5.5307 35.5933V70.9618C5.49838 71.248 5.55383 71.5372 5.6897 71.7913C5.82558 72.0453 6.0355 72.2522 6.29171 72.3847L7.0956 72.7591C7.4103 72.8564 7.74322 72.88 8.06853 72.828C8.39383 72.7761 8.70277 72.65 8.97134 72.4596L60.3129 42.943C61.056 42.4991 61.6845 41.8875 62.148 41.1574C62.6115 40.4272 62.897 39.5988 62.9818 38.7386V3.35937C63.0022 3.10671 62.959 2.85297 62.856 2.62127C62.7531 2.38956 62.5936 2.18726 62.3923 2.03278C62.1029 1.84021 61.7814 1.76532 61.5241 1.61555Z" fill="#E0DBE1"/>
<path d="M60.27 42.9431L8.92843 72.4597C7.45999 73.3048 6.25952 72.802 6.25952 71.3257V35.9464C6.34675 35.0869 6.63335 34.2595 7.0966 33.5297C7.55986 32.7999 8.18703 32.1879 8.92843 31.742L60.3129 2.22546C61.7813 1.3803 62.9818 1.88312 62.9818 3.35948V38.7387C62.8923 39.6028 62.6002 40.4338 62.1291 41.1642C61.658 41.8947 61.0211 42.5041 60.27 42.9431Z" fill="#07DBB4"/>
<path d="M50.7627 16.7001C50.5949 16.8176 50.4023 16.8951 50.1997 16.9266C49.9972 16.9582 49.7901 16.9429 49.5944 16.882C49.4321 16.8016 49.2987 16.6732 49.2123 16.5142C49.126 16.3553 49.091 16.1736 49.1121 15.994V13.6618C49.164 13.1283 49.3403 12.6143 49.627 12.161C49.9136 11.7078 50.3025 11.3277 50.7627 11.0514L58.1263 6.82558C58.2936 6.70701 58.4858 6.62804 58.6882 6.59467C58.8906 6.56131 59.098 6.57442 59.2946 6.63301C59.4569 6.71336 59.5903 6.8418 59.6767 7.00075C59.763 7.15969 59.798 7.34139 59.777 7.52096V9.86389C59.7222 10.3965 59.5435 10.9089 59.255 11.3603C58.9666 11.8117 58.5764 12.1895 58.1156 12.4636L50.7627 16.7001Z" fill="#F0F2FF"/>
<path opacity="0.4" d="M11.0936 67.9341C10.9258 68.0516 10.7332 68.1291 10.5307 68.1606C10.3281 68.1921 10.121 68.1769 9.92532 68.1159C9.76304 68.0356 9.62961 67.9071 9.54327 67.7482C9.45693 67.5892 9.4219 67.4076 9.44298 67.228V62.7454C9.4941 62.2117 9.67011 61.6974 9.95681 61.244C10.2435 60.7906 10.6329 60.4107 11.0936 60.135L19.1218 55.5241C19.2891 55.4055 19.4812 55.3265 19.6837 55.2932C19.8861 55.2598 20.0935 55.2729 20.2901 55.3315C20.4524 55.4118 20.5858 55.5403 20.6721 55.6992C20.7585 55.8582 20.7935 56.0399 20.7724 56.2194V60.7127C20.7197 61.2446 20.5429 61.7567 20.2563 62.2082C19.9697 62.6596 19.5811 63.0378 19.1218 63.3124L11.0936 67.9341Z" fill="#3452A5"/>
<path d="M18.9181 55.7383L10.8899 60.3599C10.5097 60.5848 10.1876 60.8955 9.94931 61.2671C9.71106 61.6387 9.56333 62.0608 9.51794 62.4996V66.9822C9.51794 67.7417 10.1289 68.052 10.8792 67.5599L18.9073 62.9489C19.287 62.7233 19.6087 62.4125 19.8469 62.041C20.085 61.6696 20.2331 61.2478 20.2793 60.8092V56.316C20.2793 55.5671 19.6684 55.2996 18.9181 55.7383Z" fill="#FFC440"/>
<g opacity="0.6">
<path d="M19.1646 62.7884L19.4111 62.5744V55.5457L19.1753 55.6205V57.3644L16.6351 58.8407C16.5064 58.156 15.8312 57.9528 15.0273 58.4235C14.6172 58.6744 14.2624 59.0057 13.9842 59.3974C13.706 59.7891 13.5103 60.2329 13.4088 60.7022L10.7184 62.2107V60.4562L10.4719 60.638V67.731L10.7077 67.6454V65.6983L13.4088 64.1899C13.516 64.928 14.1912 65.1527 15.0166 64.6713C15.4384 64.4189 15.8012 64.0792 16.0804 63.675C16.3596 63.2709 16.5487 62.8117 16.6351 62.3284L19.1646 60.8734V62.7884ZM13.3874 60.9804V63.9438L10.7184 65.463V62.4567L13.3874 60.9804ZM15.0058 58.6375C15.6811 58.2523 16.2385 58.4021 16.3778 58.9584L13.6339 60.5418C13.7225 60.1485 13.8896 59.7772 14.1254 59.45C14.3611 59.1228 14.6606 58.8464 15.0058 58.6375ZM15.0058 64.4145C14.3199 64.8104 13.7411 64.6285 13.6339 64.0294L16.3885 62.446C16.3055 62.8512 16.14 63.2351 15.9021 63.5737C15.6643 63.9123 15.3592 64.1985 15.0058 64.4145ZM16.41 62.1893L13.6124 63.8047V60.8413L16.41 59.1831V62.1893ZM16.6565 62.0502V59.0975L19.1646 57.6104V60.6166L16.6565 62.0502Z" fill="#D88C1D"/>
</g>
<path d="M54.8787 39.5089C54.9302 38.5826 55.1997 37.6815 55.6652 36.8785C56.1308 36.0755 56.7793 35.3934 57.5583 34.8872C59.0267 34.0421 60.2272 34.7268 60.2272 36.4278C60.1768 37.3531 59.909 38.2536 59.4454 39.0565C58.9817 39.8594 58.3353 40.5421 57.5583 41.0494C56.0791 41.9053 54.8787 41.2099 54.8787 39.5089Z" fill="#F4AC1C"/>
<path d="M48.7369 43.0499C48.7938 42.1212 49.0688 41.2188 49.54 40.4159C50.0111 39.613 50.665 38.9321 51.4487 38.4282C52.9279 37.5831 54.1283 38.2678 54.1283 39.9688C54.0776 40.8953 53.8085 41.7967 53.3429 42.5998C52.8773 43.4029 52.2283 44.085 51.4487 44.5905C49.9374 45.4463 48.7369 44.7509 48.7369 43.0499Z" fill="#B53333"/>
<path d="M11.4795 51.2127C11.608 50.9918 11.6747 50.7406 11.6724 50.4852V48.5167C11.6724 48.2492 11.6081 48.0888 11.4795 48.0139C11.3922 47.9802 11.2975 47.9703 11.2052 47.9854C11.1129 48.0004 11.0262 48.0398 10.9543 48.0995L10.4612 48.3776C10.2404 48.5035 10.0558 48.684 9.92528 48.9018C9.79681 49.1266 9.73025 49.3813 9.73235 49.64V51.6085C9.73235 51.8653 9.79666 52.0364 9.92528 52.1113C10.0539 52.1862 10.2361 52.1113 10.4612 52.0257L10.9543 51.7476C11.1725 51.6173 11.3534 51.4331 11.4795 51.2127ZM11.3187 50.6778C11.3255 50.8261 11.2898 50.9734 11.2158 51.1022C11.1418 51.2311 11.0324 51.3362 10.9007 51.4052L10.5041 51.6406C10.2254 51.8011 10.0968 51.7155 10.0968 51.3838V49.4475C10.0862 49.2998 10.1192 49.1522 10.1915 49.023C10.2639 48.8937 10.3725 48.7884 10.5041 48.72L10.9007 48.4846C11.1793 48.3206 11.3187 48.4062 11.3187 48.7414V50.6778Z" fill="#F0F2FF"/>
<path d="M13.9876 49.7684C14.1147 49.547 14.1812 49.2961 14.1805 49.041V47.0725C14.1805 46.805 14.1162 46.6338 13.9876 46.5696C13.859 46.5055 13.6875 46.5162 13.4624 46.6445L12.9693 46.9334C12.7564 47.0582 12.5782 47.2342 12.4509 47.4453C12.3235 47.6565 12.2512 47.8961 12.2405 48.1423V50.1215C12.2405 50.3782 12.3048 50.5494 12.4441 50.6243C12.5835 50.6992 12.7442 50.6243 12.9693 50.5387L13.4624 50.2606C13.6754 50.1422 13.8558 49.9732 13.9876 49.7684ZM13.8268 49.2121C13.8322 49.359 13.797 49.5045 13.7252 49.6328C13.6534 49.7611 13.5476 49.8672 13.4195 49.9396L13.0122 50.175C12.7442 50.3247 12.6049 50.2392 12.6049 49.9182V48.0032C12.5971 47.8559 12.6311 47.7095 12.7032 47.5807C12.7753 47.452 12.8824 47.3462 13.0122 47.2757L13.4195 47.0404C13.6875 46.8799 13.8268 46.9655 13.8268 47.2971V49.2121Z" fill="#F0F2FF"/>
<path d="M16.5064 48.3243C16.6336 48.1029 16.7001 47.852 16.6994 47.5968V45.6283C16.6994 45.3644 16.6351 45.1932 16.5064 45.1148C16.4169 45.0842 16.3212 45.0761 16.2278 45.091C16.1344 45.1059 16.046 45.1435 15.9705 45.2004L15.4775 45.4892C15.2785 45.617 15.1161 45.7939 15.0059 46.0027C14.8773 46.2236 14.8107 46.4748 14.8129 46.7302V48.6987C14.8129 48.9662 14.8772 49.1266 15.0059 49.2015C15.1345 49.2764 15.306 49.2015 15.5311 49.1266L16.0241 48.8378C16.224 48.7079 16.3895 48.5318 16.5064 48.3243ZM16.3457 47.7787C16.3533 47.9286 16.318 48.0776 16.244 48.2083C16.17 48.339 16.0603 48.446 15.9276 48.5168L15.5203 48.7415C15.2524 48.902 15.113 48.8164 15.113 48.4847V46.5484C15.1077 46.4015 15.1428 46.256 15.2146 46.1277C15.2865 45.9994 15.3922 45.8933 15.5203 45.8209L15.9276 45.5962C16.2063 45.4357 16.3457 45.5213 16.3457 45.8423V47.7787Z" fill="#F0F2FF"/>
<path d="M19.0146 46.8799C19.1417 46.6585 19.2083 46.4076 19.2075 46.1524V44.1732C19.2075 43.9165 19.1432 43.7453 19.0146 43.6704C18.886 43.5955 18.7038 43.6704 18.4787 43.756L17.9856 44.0341C17.7674 44.1644 17.5865 44.3487 17.4604 44.5691C17.3304 44.7893 17.2636 45.041 17.2675 45.2965V47.265C17.2675 47.5218 17.3318 47.693 17.4604 47.7678C17.5465 47.8042 17.6409 47.8164 17.7334 47.8032C17.826 47.79 17.9132 47.7519 17.9856 47.693L18.4787 47.4041C18.6995 47.2783 18.8841 47.0977 19.0146 46.8799ZM18.8538 46.3343C18.862 46.4829 18.8269 46.6307 18.7527 46.7598C18.6785 46.8889 18.5685 46.9938 18.4358 47.0618L18.0392 47.2971C17.7605 47.4576 17.6319 47.372 17.6319 47.0404V45.104C17.6228 44.9565 17.6563 44.8095 17.7285 44.6805C17.8007 44.5515 17.9086 44.446 18.0392 44.3765L18.4358 44.1411C18.7145 43.9771 18.8538 44.0627 18.8538 44.3979V46.3343Z" fill="#F0F2FF"/>
<path d="M25.1241 43.3497C25.256 43.1297 25.3263 42.8785 25.3278 42.6222V40.6537C25.3278 40.3862 25.2528 40.2258 25.1241 40.1509C24.9955 40.076 24.824 40.1509 24.5989 40.2365L24.1059 40.5146C23.8859 40.6378 23.7041 40.8192 23.5807 41.0388C23.4522 41.2636 23.3856 41.5183 23.3877 41.777V43.7455C23.3877 44.0023 23.4521 44.1734 23.5807 44.2483C23.7093 44.3232 23.8808 44.2483 24.1059 44.1627L24.6525 43.8632C24.8505 43.7344 25.0127 43.5577 25.1241 43.3497ZM24.9634 42.8147C24.9712 42.962 24.9371 43.1085 24.8651 43.2372C24.793 43.366 24.6858 43.4717 24.5561 43.5422L24.1488 43.7776C23.8808 43.9274 23.7415 43.8418 23.7415 43.5208V41.5844C23.7336 41.4372 23.7677 41.2907 23.8398 41.1619C23.9118 41.0332 24.019 40.9275 24.1488 40.857L24.5561 40.6216C24.8347 40.4611 24.9634 40.5467 24.9634 40.8784V42.8147Z" fill="#F0F2FF"/>
<path d="M27.643 41.9053C27.7701 41.6839 27.8366 41.433 27.8359 41.1778V39.2094C27.8359 38.9455 27.7716 38.7743 27.643 38.6958C27.5535 38.6653 27.4578 38.6571 27.3644 38.6721C27.2709 38.687 27.1826 38.7245 27.1071 38.7814L26.614 39.0703C26.394 39.1935 26.2123 39.3749 26.0888 39.5945C25.9617 39.8159 25.8952 40.0668 25.8959 40.322V42.2905C25.8959 42.5579 25.9602 42.7184 26.0888 42.7933C26.2174 42.8682 26.3889 42.7933 26.614 42.7184L27.1071 42.4295C27.33 42.3066 27.5153 42.1254 27.643 41.9053ZM27.4822 41.3597C27.4898 41.5097 27.4546 41.6587 27.3806 41.7894C27.3066 41.9201 27.1968 42.0271 27.0642 42.0979L26.6569 42.3333C26.3889 42.483 26.2496 42.3974 26.2496 42.0658V40.1401C26.2422 39.9915 26.2764 39.8437 26.3483 39.7133C26.4203 39.583 26.5271 39.4752 26.6569 39.4019L27.0642 39.1773C27.3429 39.0168 27.4822 39.1024 27.4822 39.4233V41.3597Z" fill="#F0F2FF"/>
<path d="M30.1511 40.4609C30.2782 40.2395 30.3448 39.9886 30.344 39.7334V37.7649C30.344 37.5011 30.2797 37.3299 30.1511 37.2514C30.0639 37.2177 29.9692 37.2079 29.8768 37.2229C29.7845 37.238 29.6979 37.2774 29.6259 37.337L29.1328 37.6259C28.9099 37.7488 28.7246 37.9301 28.5969 38.1501C28.4684 38.3709 28.4017 38.6222 28.404 38.8776V40.8461C28.404 41.1135 28.4683 41.274 28.5969 41.3489C28.6849 41.385 28.7809 41.3971 28.875 41.3839C28.9692 41.3707 29.0582 41.3328 29.1328 41.274L29.6259 40.9851C29.8437 40.859 30.0247 40.6783 30.1511 40.4609ZM30.0118 39.9153C30.0194 40.0652 29.9841 40.2143 29.9101 40.345C29.8361 40.4757 29.7264 40.5827 29.5937 40.6535L29.1972 40.8781C28.9185 41.0386 28.7899 40.953 28.7899 40.6214V38.685C28.782 38.5377 28.8161 38.3912 28.8882 38.2625C28.9602 38.1338 29.0674 38.028 29.1972 37.9575L29.5937 37.7222C29.8724 37.5367 30.0118 37.6223 30.0118 37.9789V39.9153Z" fill="#F0F2FF"/>
<path d="M32.6592 39.0059C32.7878 38.7851 32.8544 38.5338 32.8522 38.2784V36.3099C32.8522 36.0425 32.7879 35.882 32.6592 35.8071C32.5306 35.7322 32.3591 35.8071 32.134 35.8927L31.641 36.1709C31.4232 36.297 31.2422 36.4777 31.1158 36.6951C30.979 36.9168 30.9083 37.1729 30.9121 37.4333V39.4017C30.9121 39.6585 30.9764 39.8297 31.1158 39.9046C31.2551 39.9795 31.4159 39.9046 31.641 39.819L32.1555 39.5836C32.3739 39.4415 32.5483 39.2414 32.6592 39.0059ZM32.4985 38.471C32.5051 38.6181 32.4704 38.764 32.3985 38.8926C32.3265 39.0211 32.2201 39.127 32.0912 39.1985L31.6839 39.4338C31.4159 39.5943 31.2766 39.5087 31.2766 39.1771V37.2407C31.2687 37.0934 31.3028 36.9469 31.3749 36.8182C31.447 36.6895 31.5541 36.5837 31.6839 36.5132L32.0912 36.2778C32.3591 36.1174 32.4985 36.203 32.4985 36.5346V38.471Z" fill="#F0F2FF"/>
<path d="M38.7795 35.4863C38.9066 35.2649 38.9732 35.014 38.9724 34.7588V32.7903C38.9724 32.5229 38.9081 32.3517 38.7795 32.2875C38.6915 32.2514 38.5956 32.2393 38.5014 32.2525C38.4072 32.2656 38.3182 32.3036 38.2436 32.3624L37.7505 32.6513C37.5307 32.7779 37.3484 32.9605 37.2222 33.1804C37.0961 33.4003 37.0306 33.6496 37.0324 33.903V35.8714C37.0324 36.1425 37.0967 36.3136 37.2253 36.3849C37.3131 36.4155 37.4071 36.4237 37.4988 36.4088C37.5905 36.3938 37.6771 36.3562 37.7505 36.2994L38.2436 36.0105C38.4666 35.8875 38.6518 35.7063 38.7795 35.4863ZM38.5866 34.9407C38.5942 35.0906 38.5589 35.2396 38.4849 35.3703C38.4109 35.501 38.3012 35.608 38.1685 35.6789L37.772 35.9142C37.4933 36.064 37.3539 35.9784 37.3539 35.6468V33.7211C37.3463 33.5711 37.3816 33.4221 37.4556 33.2914C37.5296 33.1607 37.6393 33.0537 37.772 32.9829L38.1685 32.7582C38.4472 32.5942 38.5866 32.6798 38.5866 33.015V34.9407Z" fill="#F0F2FF"/>
<path d="M41.2876 34.042C41.4147 33.8206 41.4812 33.5697 41.4805 33.3145V31.346C41.4805 31.0821 41.4162 30.9109 41.2876 30.8325C41.2003 30.7988 41.1056 30.7889 41.0133 30.804C40.921 30.819 40.8343 30.8584 40.7624 30.9181L40.2693 31.2069C40.0463 31.3299 39.8611 31.5111 39.7334 31.7311C39.6048 31.952 39.5382 32.2032 39.5405 32.4586V34.4271C39.5405 34.6946 39.6048 34.855 39.7334 34.9299C39.8213 34.966 39.9173 34.9781 40.0115 34.965C40.1057 34.9518 40.1947 34.9139 40.2693 34.855L40.7624 34.5662C40.9802 34.44 41.1612 34.2593 41.2876 34.042ZM41.1268 33.4964C41.1352 33.6439 41.1027 33.7909 41.0327 33.9212C40.9627 34.0515 40.858 34.1599 40.7302 34.2345L40.3229 34.4592C40.0442 34.6197 39.9156 34.5341 39.9156 34.2024V32.2661C39.9078 32.1188 39.9418 31.9723 40.0139 31.8436C40.086 31.7148 40.1931 31.6091 40.3229 31.5386L40.7302 31.3032C40.9982 31.1534 41.1375 31.239 41.1375 31.56L41.1268 33.4964Z" fill="#F0F2FF"/>
<path d="M43.7957 32.587C43.9276 32.367 43.9979 32.1158 43.9994 31.8595V29.891C44.0123 29.7967 44.0003 29.7007 43.9646 29.6125C43.9289 29.5243 43.8707 29.447 43.7957 29.3882C43.6671 29.3133 43.4956 29.3882 43.2705 29.4738L42.7775 29.7519C42.5575 29.8847 42.3752 30.0714 42.2477 30.2941C42.1201 30.5169 42.0516 30.7685 42.0486 31.025V32.9935C42.0357 33.0878 42.0477 33.1838 42.0834 33.272C42.1191 33.3602 42.1774 33.4375 42.2523 33.4963C42.3809 33.5712 42.5524 33.4963 42.7775 33.4107L43.2705 33.1326C43.4924 33.0022 43.6741 32.8135 43.7957 32.587ZM43.635 32.052C43.6441 32.1995 43.6106 32.3465 43.5384 32.4755C43.4662 32.6045 43.3583 32.71 43.2277 32.7795L42.8204 33.0149C42.5524 33.1754 42.4131 33.0898 42.4131 32.7581V30.8217C42.4065 30.6747 42.4411 30.5287 42.513 30.4002C42.585 30.2717 42.6914 30.1657 42.8204 30.0943L43.2277 29.8589C43.5063 29.6984 43.635 29.784 43.635 30.1157V32.052Z" fill="#F0F2FF"/>
<path d="M46.3145 31.1429C46.4431 30.9221 46.5097 30.6708 46.5075 30.4154V28.4469C46.5075 28.1794 46.4431 28.019 46.3145 27.9441C46.1859 27.8692 46.0037 27.9441 45.7786 28.0297L45.2855 28.3078C45.0641 28.4354 44.8808 28.6197 44.7545 28.8416C44.6283 29.0635 44.5637 29.315 44.5674 29.5702V31.5387C44.5674 31.7955 44.6317 31.9666 44.7603 32.0415C44.889 32.1164 45.0605 32.0415 45.2855 31.9559L45.7786 31.6778C46.0023 31.551 46.1875 31.3662 46.3145 31.1429ZM46.1537 30.608C46.1593 30.7561 46.1231 30.9029 46.0492 31.0315C45.9753 31.1601 45.8667 31.2654 45.7357 31.3354L45.3284 31.5708C45.0605 31.7313 44.9211 31.635 44.9211 31.314V29.3777C44.9133 29.2304 44.9474 29.0839 45.0194 28.9552C45.0915 28.8264 45.1986 28.7207 45.3284 28.6502L45.7357 28.4148C46.0144 28.2579 46.1537 28.3435 46.1537 28.6716V30.608Z" fill="#F0F2FF"/>
<path d="M52.4241 27.6231C52.5512 27.4017 52.6177 27.1508 52.617 26.8956V24.9272C52.617 24.6633 52.5527 24.4921 52.4241 24.4136C52.3363 24.3831 52.2423 24.3749 52.1506 24.3898C52.0588 24.4048 51.9723 24.4424 51.8988 24.4992L51.4058 24.7881C51.185 24.9139 51.0004 25.0945 50.8699 25.3123C50.7413 25.5331 50.6747 25.7844 50.6769 26.0398V28.0083C50.6769 28.2757 50.7412 28.4362 50.8699 28.5111C50.9578 28.5472 51.0538 28.5593 51.148 28.5461C51.2422 28.533 51.3312 28.495 51.4058 28.4362L51.8988 28.1473C52.1189 28.0241 52.3006 27.8427 52.4241 27.6231ZM52.2633 27.0775C52.2706 27.2262 52.2365 27.3739 52.1645 27.5043C52.0926 27.6346 51.9858 27.7425 51.856 27.8157L51.4487 28.0404C51.1807 28.2008 51.0414 28.1153 51.0414 27.7836V25.8472C51.036 25.7004 51.0711 25.5548 51.143 25.4266C51.2148 25.2983 51.3205 25.1921 51.4487 25.1197L51.856 24.8844C52.1239 24.7346 52.2633 24.8202 52.2633 25.1411V27.0775Z" fill="#F0F2FF"/>
<path d="M54.9323 26.1787C55.0691 25.957 55.1397 25.7009 55.1359 25.4405V23.4721C55.1359 23.2153 55.0716 23.0441 54.9323 22.9692C54.7929 22.8943 54.6321 22.9692 54.407 23.0548L53.914 23.333C53.6932 23.464 53.5107 23.6504 53.3847 23.8738C53.2587 24.0972 53.1936 24.3497 53.1959 24.6061V26.5746C53.1959 26.8313 53.2602 27.0025 53.3888 27.0774C53.5174 27.1523 53.6889 27.1309 53.914 26.9918L54.407 26.7136C54.6262 26.5845 54.8074 26.4 54.9323 26.1787ZM54.7822 25.6759C54.7904 25.8245 54.7553 25.9723 54.6811 26.1014C54.6069 26.2305 54.4968 26.3354 54.3642 26.4034L53.9569 26.6387C53.6889 26.7992 53.5496 26.7136 53.5496 26.382V24.4028C53.543 24.2557 53.5776 24.1097 53.6496 23.9812C53.7215 23.8527 53.8279 23.7468 53.9569 23.6753L54.3642 23.44C54.6429 23.283 54.7822 23.3686 54.7822 23.6967V25.6759Z" fill="#F0F2FF"/>
<path d="M57.451 24.7239C57.5796 24.5031 57.6462 24.2518 57.644 23.9964V22.028C57.644 21.7605 57.5796 21.6 57.451 21.5251C57.3224 21.4503 57.1402 21.5251 56.9151 21.6107L56.422 21.8889C56.2068 22.0183 56.0265 22.1983 55.8968 22.4131C55.7684 22.6378 55.7018 22.8925 55.7039 23.1513V25.1198C55.7039 25.3765 55.7682 25.5477 55.8968 25.6226C55.9841 25.6563 56.0788 25.6661 56.1711 25.6511C56.2634 25.6361 56.3501 25.5967 56.422 25.537L56.9151 25.2588C57.1388 25.1321 57.324 24.9472 57.451 24.7239ZM57.2902 24.189C57.2958 24.3372 57.2596 24.4839 57.1857 24.6125C57.1118 24.7412 57.0032 24.8465 56.8722 24.9165L56.4756 25.1519C56.197 25.3088 56.0576 25.2232 56.0576 24.8951V22.9587C56.0494 22.8101 56.0846 22.6623 56.1587 22.5332C56.2329 22.4041 56.343 22.2992 56.4756 22.2312L56.8722 21.9959C57.1509 21.839 57.2902 21.9245 57.2902 22.2526V24.189Z" fill="#F0F2FF"/>
<path d="M60.1521 22.5521V20.5836C60.1521 20.3161 60.0878 20.145 59.9592 20.0808C59.8731 20.0445 59.7787 20.0323 59.6861 20.0454C59.5936 20.0586 59.5064 20.0967 59.4339 20.1557L58.9409 20.4445C58.7179 20.5675 58.5327 20.7487 58.405 20.9687C58.2779 21.1902 58.2113 21.441 58.212 21.6962V23.6647C58.212 23.9357 58.2764 24.1069 58.405 24.1782C58.5336 24.2531 58.7158 24.1782 58.9409 24.0926L59.4339 23.8038C59.6538 23.6771 59.8361 23.4945 59.9622 23.2747C60.0884 23.0548 60.1539 22.8055 60.1521 22.5521ZM59.7984 22.734C59.806 22.8839 59.7707 23.0329 59.6967 23.1636C59.6227 23.2943 59.513 23.4013 59.3804 23.4721L58.9838 23.7075C58.7051 23.8573 58.5765 23.7717 58.5765 23.4507V21.5144C58.5678 21.3655 58.6015 21.2173 58.6735 21.0867C58.7456 20.9561 58.8531 20.8484 58.9838 20.7762L59.3804 20.5515C59.659 20.3875 59.7984 20.4731 59.7984 20.8083V22.734Z" fill="#F0F2FF"/>
<path d="M9.64661 38.2358V35.4114C9.64792 35.3869 9.6569 35.3634 9.67227 35.3442C9.68765 35.325 9.70866 35.3111 9.73235 35.3044L10.7292 34.7374C10.7928 34.6861 10.8683 34.6514 10.9488 34.6365C11.0292 34.6215 11.1122 34.6268 11.1901 34.6519C11.2539 34.7042 11.3032 34.772 11.3332 34.8488C11.3632 34.9256 11.373 35.0088 11.3616 35.0905V36.631C11.3609 36.8528 11.3018 37.0705 11.1901 37.2622C11.0817 37.4522 10.922 37.6079 10.7292 37.7116L9.73235 38.2893C9.73235 38.2893 9.64661 38.2893 9.64661 38.2358ZM10.0861 37.6688L10.6541 37.3478C10.7449 37.2969 10.8199 37.2221 10.8709 37.1315C10.922 37.041 10.9471 36.9381 10.9435 36.8343V35.3044C10.9435 35.0798 10.8471 35.0156 10.6541 35.1226L10.0861 35.4542C10.0804 35.4659 10.0774 35.4787 10.0774 35.4917C10.0774 35.5046 10.0804 35.5174 10.0861 35.5291V37.6688C10.0861 37.6688 10.0753 37.6902 10.1075 37.6688H10.0861Z" fill="#F0F2FF"/>
<path d="M13.2588 36.2458L11.9726 36.984H11.9083V34.1275C11.9057 34.1037 11.9105 34.0797 11.922 34.0587C11.9335 34.0376 11.9511 34.0206 11.9726 34.0099L13.2588 33.261H13.3231V33.4963C13.3257 33.5202 13.3209 33.5442 13.3094 33.5652C13.2979 33.5863 13.2802 33.6033 13.2588 33.614L12.3477 34.1382C12.3477 34.1382 12.3477 34.1382 12.3477 34.2131V35.0048L13.1195 34.5662H13.1945V34.8015C13.1962 34.8266 13.1898 34.8515 13.1763 34.8727C13.1628 34.8938 13.1429 34.9102 13.1195 34.9192L12.3477 35.3685C12.3477 35.3685 12.3477 35.3685 12.3477 35.4434V36.3742L13.2588 35.8393H13.3231V36.0746C13.332 36.0897 13.3374 36.1066 13.3389 36.1241C13.3404 36.1415 13.338 36.1591 13.3318 36.1755C13.3257 36.1919 13.3159 36.2067 13.3033 36.2189C13.2906 36.2311 13.2754 36.2403 13.2588 36.2458Z" fill="#F0F2FF"/>
<path d="M13.8375 35.8393V33.0042C13.8383 32.981 13.8446 32.9582 13.8558 32.9378C13.8669 32.9174 13.8827 32.8998 13.9018 32.8865L14.8558 32.3409C14.9215 32.2895 14.9988 32.2549 15.081 32.24C15.1632 32.2251 15.2477 32.2303 15.3274 32.2553C15.4346 32.3195 15.4882 32.4586 15.4882 32.694V32.9186C15.488 33.0534 15.4581 33.1866 15.4007 33.3086C15.3433 33.4306 15.2597 33.5385 15.1559 33.6247C15.1942 33.5999 15.2389 33.5866 15.2845 33.5866C15.3302 33.5866 15.3749 33.5999 15.4131 33.6247C15.454 33.6623 15.485 33.7092 15.5037 33.7613C15.5224 33.8135 15.5281 33.8694 15.5203 33.9243V34.2345C15.5216 34.4518 15.4662 34.6656 15.3596 34.855C15.2423 35.038 15.0846 35.1917 14.8987 35.3044L13.9018 35.8714C13.9018 35.8714 13.8375 35.8928 13.8375 35.8393ZM14.277 33.9564L14.7915 33.6461C14.8862 33.5981 14.9656 33.5245 15.0205 33.4338C15.0755 33.343 15.1038 33.2387 15.1023 33.1326V32.9186C15.1023 32.694 15.0058 32.6405 14.8022 32.7582L14.277 33.0684C14.2618 33.071 14.2481 33.0788 14.2383 33.0906C14.2285 33.1024 14.2232 33.1173 14.2234 33.1326V33.935C14.2234 33.935 14.2448 33.9671 14.277 33.9564ZM14.277 35.283L14.8343 34.9513C14.9271 34.9046 15.0045 34.8325 15.0577 34.7435C15.1108 34.6544 15.1375 34.5521 15.1345 34.4485V34.1596C15.1345 33.935 15.0273 33.8815 14.8236 34.0099L14.277 34.3201C14.277 34.3201 14.2234 34.3201 14.2234 34.395V35.3044C14.2234 35.3044 14.2448 35.3044 14.277 35.3044V35.283Z" fill="#F0F2FF"/>
<path d="M16.4742 31.4958V34.3202C16.4744 34.3449 16.4675 34.3692 16.4541 34.3901C16.4408 34.4109 16.4218 34.4275 16.3992 34.4378L16.1527 34.5876C16.0991 34.5876 16.0777 34.5876 16.0777 34.5876V31.7205C16.076 31.6954 16.0823 31.6705 16.0958 31.6493C16.1093 31.6282 16.1292 31.6119 16.1527 31.6028L16.3992 31.453C16.3992 31.453 16.4742 31.4423 16.4742 31.4958Z" fill="#F0F2FF"/>
<path d="M17.7927 33.6356L17.5354 33.7854C17.4818 33.7854 17.4604 33.7854 17.4604 33.7854V31.3248L16.9566 31.6136H16.8816V31.3783C16.8828 31.3524 16.8903 31.3273 16.9033 31.3049C16.9164 31.2825 16.9347 31.2637 16.9566 31.2499L18.4465 30.394H18.5215V30.6294C18.5225 30.6557 18.5159 30.6817 18.5026 30.7044C18.4893 30.7272 18.4699 30.7457 18.4465 30.7578L17.8998 31.0252C17.8942 31.0369 17.8912 31.0497 17.8912 31.0627C17.8912 31.0757 17.8942 31.0885 17.8998 31.1001V33.5607C17.8914 33.5824 17.8767 33.6011 17.8576 33.6144C17.8385 33.6277 17.8159 33.6351 17.7927 33.6356Z" fill="#F0F2FF"/>
<path d="M20.8367 31.881L20.3651 32.1484C20.3019 32.2007 20.2258 32.2353 20.1448 32.2484C20.0638 32.2616 19.9807 32.2529 19.9042 32.2233C19.797 32.1591 19.7434 32.02 19.7434 31.7954V30.2441C19.7406 30.0267 19.7961 29.8125 19.9042 29.6236C20.0149 29.4327 20.1738 29.2741 20.3651 29.1636L20.8367 28.8962C21.0296 28.7892 21.1797 28.7571 21.2976 28.8213C21.4155 28.8855 21.4583 29.0245 21.4583 29.2599V29.4846C21.46 29.5096 21.4537 29.5345 21.4402 29.5557C21.4267 29.5769 21.4068 29.5932 21.3833 29.6022L21.1368 29.752H21.0618V29.5487C21.0618 29.3134 20.9653 29.2599 20.7724 29.3669L20.4294 29.5701C20.3378 29.6201 20.2621 29.6947 20.211 29.7855C20.1598 29.8763 20.1352 29.9796 20.14 30.0837V31.5921C20.14 31.8168 20.2364 31.881 20.4294 31.7633L20.7724 31.56C20.8639 31.5129 20.9399 31.4403 20.9912 31.3512C21.0426 31.262 21.0671 31.1599 21.0618 31.0572V30.8111C21.0594 30.7846 21.0653 30.758 21.0788 30.735C21.0922 30.712 21.1125 30.6938 21.1368 30.6828L21.3833 30.533C21.4369 30.533 21.4583 30.533 21.4583 30.533V30.7577C21.46 30.9783 21.4046 31.1957 21.2976 31.3889C21.1856 31.5873 21.0276 31.7561 20.8367 31.881Z" fill="#F0F2FF"/>
<path d="M22.1015 31.1535L21.8121 31.3247C21.8121 31.3247 21.7586 31.3247 21.8121 31.2605L22.5089 28.051C22.5282 28 22.5617 27.9555 22.6053 27.9226L23.0126 27.6873C23.0662 27.6873 23.0984 27.6873 23.1091 27.6873L23.8058 30.1158C23.8164 30.1316 23.822 30.1502 23.822 30.1693C23.822 30.1883 23.8164 30.2069 23.8058 30.2227L23.5271 30.3832C23.5271 30.3832 23.5271 30.3832 23.4735 30.3832C23.4199 30.3832 23.4735 30.3832 23.4735 30.3297L23.3235 29.8162L22.4338 30.3297L22.2838 31.0251C22.2704 31.0627 22.2458 31.0953 22.2131 31.1183C22.1805 31.1413 22.1415 31.1536 22.1015 31.1535ZM22.7554 28.2329L22.4017 29.9553L23.1305 29.5381L22.7768 28.2543L22.7554 28.2329Z" fill="#F0F2FF"/>
<path d="M24.4917 29.7734L24.2344 29.9232H24.1701V27.056C24.1675 27.0322 24.1723 27.0082 24.1838 26.9872C24.1953 26.9661 24.213 26.9491 24.2344 26.9383L25.1776 26.3927C25.3706 26.2858 25.5314 26.2537 25.6385 26.3178C25.7024 26.3702 25.7516 26.438 25.7817 26.5148C25.8117 26.5916 25.8215 26.6748 25.81 26.7565V27.1523C25.8139 27.3194 25.7814 27.4853 25.7147 27.6386C25.6481 27.7919 25.549 27.9289 25.4242 28.0403L25.8743 28.8854C25.8743 28.8854 25.8743 28.971 25.8208 29.0138L25.5635 29.1529C25.4992 29.1529 25.4563 29.1529 25.4456 29.1529L25.0169 28.3291L24.6524 28.5645C24.6524 28.5645 24.5988 28.5645 24.5988 28.6394V29.6557C24.599 29.6852 24.588 29.7136 24.5682 29.7354C24.5483 29.7571 24.521 29.7707 24.4917 29.7734ZM24.5988 28.19L25.1133 27.9012C25.2053 27.8508 25.2818 27.7764 25.3346 27.6859C25.3875 27.5955 25.4147 27.4924 25.4134 27.3877V27.0025C25.4134 26.7672 25.3063 26.7137 25.1133 26.8314L24.5988 27.1202C24.5932 27.1319 24.5902 27.1447 24.5902 27.1577C24.5902 27.1706 24.5932 27.1834 24.5988 27.1951V28.1686C24.5988 28.1686 24.5667 28.2114 24.6524 28.19H24.5988Z" fill="#F0F2FF"/>
<path d="M26.346 28.6288V25.8044C26.3451 25.7781 26.3516 25.7521 26.3649 25.7294C26.3782 25.7067 26.3977 25.6882 26.4211 25.6761L27.4072 25.109C27.6001 25.0021 27.7609 24.97 27.8681 25.0342C27.9752 25.0983 28.0396 25.2374 28.0396 25.4728V27.0133C28.0386 27.2317 27.9794 27.4459 27.8681 27.6338C27.7573 27.8247 27.5984 27.9833 27.4072 28.0939L26.4211 28.6609C26.4211 28.6609 26.346 28.6823 26.346 28.6288ZM26.7855 28.0618L27.3536 27.7301C27.446 27.6812 27.5224 27.6067 27.5737 27.5157C27.625 27.4247 27.649 27.3209 27.643 27.2166V25.6761C27.643 25.4514 27.5465 25.3979 27.3536 25.5049L26.7855 25.8365C26.7785 25.8458 26.7748 25.857 26.7748 25.8686C26.7748 25.8802 26.7785 25.8915 26.7855 25.9007V28.0404C26.7855 28.0404 26.7962 28.0725 26.7962 28.0618H26.7855Z" fill="#F0F2FF"/>
<g style="mix-blend-mode:multiply" opacity="0.4">
<path d="M60.2701 42.9431C61.0131 42.4992 61.6416 41.8876 62.1051 41.1575C62.5686 40.4273 62.8542 39.5989 62.939 38.7387V24.6063L54.7822 29.2921V22.0708C54.7822 18.7008 57.5369 14.368 60.9239 12.4423C61.554 12.0704 62.2371 11.7963 62.9497 11.6292V8.55884C62.2452 8.80132 61.5666 9.1131 60.9239 9.48959C55.9076 12.3781 51.8239 18.8078 51.8239 23.8146V31.0252L50.5698 31.742C50.216 31.9654 49.918 32.2666 49.6988 32.6227C49.4796 32.9787 49.3449 33.3801 49.3051 33.7961V49.2658L60.2701 42.9431Z" fill="#50197C"/>
</g>
<path d="M60.0235 28.8854L59.0374 28.3184C58.6634 28.1506 58.3405 27.887 58.1015 27.5545C57.8624 27.2219 57.7157 26.8322 57.6761 26.4248V46.0668C57.6991 46.4731 57.8292 46.8661 58.0531 47.2062C58.2771 47.5462 58.5871 47.8211 58.9516 48.0032L59.927 48.5702C60.9368 49.0815 62.0532 49.3479 63.1855 49.3479C64.3177 49.3479 65.4341 49.0815 66.4439 48.5702V28.9175C65.4458 29.4138 64.3449 29.6694 63.2299 29.6638C62.1148 29.6583 61.0166 29.3916 60.0235 28.8854Z" fill="url(#paint0_linear_52_13199)"/>
<path d="M82.6074 19.5886L66.5296 28.8854C65.5428 29.4171 64.4354 29.686 63.3141 29.6663V49.3405C64.4085 49.3457 65.4873 49.0811 66.4546 48.5702L82.5323 39.2413C82.9013 39.075 83.2197 38.8142 83.455 38.4854C83.6903 38.1566 83.8342 37.7714 83.8722 37.3691V17.7271C83.8396 18.1197 83.7062 18.4974 83.4846 18.8235C83.263 19.1496 82.9609 19.4131 82.6074 19.5886Z" fill="url(#paint1_linear_52_13199)"/>
<path d="M82.5859 15.8334L81.5998 15.2664C80.5921 14.7544 79.4775 14.4875 78.3467 14.4875C77.216 14.4875 76.1013 14.7544 75.0937 15.2664L59.0052 24.606C57.2152 25.6759 57.226 27.3341 59.0052 28.3718L60.0235 28.8853C61.0315 29.4025 62.1485 29.6722 63.2819 29.6722C64.4153 29.6722 65.5323 29.4025 66.5403 28.8853L82.6181 19.5564C84.3973 18.5615 84.3866 16.8712 82.5859 15.8334Z" fill="#F1EDF2"/>
<path d="M61.5134 25.7937V17.1174C61.5134 12.3352 65.2006 6.41908 69.9167 3.74451C72.6928 2.13977 75.4475 1.89371 77.484 3.07052C78.4015 3.64914 79.145 4.46483 79.6356 5.43107C80.1262 6.39731 80.3457 7.47807 80.2708 8.55874V17.3848C80.2708 19.0431 76.3585 19.0965 76.3585 17.3848V8.55874C76.3585 7.94893 76.2514 6.85771 75.5225 6.41908C74.7936 5.98045 73.3788 6.23721 71.8675 7.09307C68.3733 9.09365 65.3828 13.6725 65.3828 17.1174V25.8365C65.3828 27.5268 61.5134 27.698 61.5134 25.7937Z" fill="url(#paint2_linear_52_13199)"/>
<g style="mix-blend-mode:screen">
<path d="M72.1676 3.92645C72.3605 4.2474 73.1108 3.92645 73.368 3.85156C74.7293 3.5841 76.1441 3.38084 77.4518 4.67533C78.1163 5.33862 78.6523 4.8251 78.3521 4.39717C76.4121 1.58353 71.503 2.86732 72.1676 3.92645Z" fill="white"/>
</g>
<path d="M74.322 38.653C71.7067 40.1507 69.5845 39.2521 69.5845 36.6524C69.5845 34.0527 71.7282 30.7041 74.322 29.1636C76.9159 27.623 79.0489 28.5645 79.0489 31.1642C79.0489 33.7638 76.9266 37.1445 74.322 38.653ZM74.322 29.3348C71.8139 30.7897 69.6702 34.042 69.6702 36.5775C69.6702 39.113 71.8139 39.9795 74.322 38.5139C76.8302 37.0482 78.9203 33.8066 78.9203 31.2711C78.9203 28.7356 76.8516 27.8691 74.322 29.3348Z" fill="#EDA722"/>
<path d="M74.0862 31.0251L74.933 30.5437C75.0402 30.4795 75.1259 30.5437 75.1259 30.6185V31.3246C75.1153 31.447 75.0666 31.563 74.9866 31.6563L74.9116 31.7312C74.8799 31.7638 74.8551 31.8023 74.8386 31.8445C74.822 31.8868 74.814 31.9319 74.8151 31.9772V32.3624C74.8131 32.3837 74.8131 32.4052 74.8151 32.4266L75.0187 32.6298C75.0246 32.6433 75.0277 32.6579 75.0277 32.6726C75.0277 32.6873 75.0246 32.7019 75.0187 32.7154V33.7104C75.0311 33.7631 75.0311 33.818 75.0187 33.8708L74.7293 34.3415C74.7153 34.3977 74.7153 34.4565 74.7293 34.5127V36.5347C74.7264 36.5985 74.7071 36.6606 74.6733 36.7149C74.6396 36.7692 74.5924 36.814 74.5364 36.8449L74.0648 37.1231C73.9576 37.1766 73.8719 37.1231 73.8719 37.0375V35.069C73.8578 35.0237 73.8578 34.9753 73.8719 34.93L74.1827 34.3309C74.1909 34.2813 74.1909 34.2307 74.1827 34.1811V33.2289C74.1886 33.2154 74.1916 33.2009 74.1916 33.1861C74.1916 33.1714 74.1886 33.1568 74.1827 33.1433L73.979 32.9615V32.8759L73.8719 31.3781C73.8738 31.3058 73.8946 31.2352 73.9322 31.1733C73.9698 31.1114 74.0229 31.0603 74.0862 31.0251Z" fill="#D88223"/>
<path d="M84.8583 39.8725L84.2473 39.5088L84.8261 39.8297L84.8583 39.8725Z" fill="#505B60"/>
<path d="M84.7297 40.0437L84.6761 39.9474L83.6042 38.2036L82.9933 37.8506L84.0223 39.5837V39.6372H84.108L84.2688 39.7228L84.7297 40.0437Z" fill="#D88223"/>
<path d="M87.6128 21.6321C86.961 22.4957 86.1451 23.2227 85.2119 23.7717C84.5726 24.1791 83.8265 24.3876 83.0682 24.3708V25.8044C83.0657 25.8343 83.0701 25.8644 83.0813 25.8923C83.0925 25.9201 83.11 25.945 83.1325 25.9649L83.7971 26.4142C83.8451 26.4515 83.8823 26.5009 83.9049 26.5573C83.9275 26.6137 83.9347 26.6751 83.9257 26.7352C83.9257 27.345 83.9257 29.0032 83.9257 29.3134C84.0066 29.612 84.1069 29.9051 84.2258 30.1907C84.2797 30.3467 84.2797 30.5162 84.2258 30.6721C84.1293 31.0252 83.9686 31.6564 83.8721 32.0308C83.8391 32.1169 83.8391 32.2122 83.8721 32.2983C83.8721 32.4052 84.0007 32.555 84.0543 32.6406C84.1079 32.7262 83.8078 33.9886 83.8507 34.1812C83.8935 34.3737 84.1615 35.1226 84.2794 35.465C84.3269 35.5963 84.3269 35.7401 84.2794 35.8715C84.1293 36.3315 83.8078 37.2837 83.6792 37.6581C83.6649 37.7503 83.6649 37.8441 83.6792 37.9363C83.6596 38.0099 83.6596 38.0873 83.6792 38.1609L84.676 39.9475C84.7014 39.9844 84.7342 40.0156 84.7723 40.039C84.8105 40.0625 84.8531 40.0777 84.8976 40.0838C84.942 40.0898 84.9871 40.0865 85.0302 40.0741C85.0733 40.0617 85.1132 40.0405 85.1476 40.0117C85.2396 39.9525 85.3226 39.8805 85.3941 39.7978V26.3821L86.2623 24.756V38.0967L86.7232 37.1446C86.8018 36.9327 86.8346 36.7067 86.8197 36.4813V25.1732C86.8358 24.7078 86.9724 24.2544 87.2163 23.8573L87.3556 23.6327C87.499 23.3925 87.58 23.1204 87.5914 22.841L87.6128 21.6321Z" fill="#FFC522"/>
<path d="M86.2195 24.7559V38.0966L85.5121 39.5837C85.471 39.6764 85.4168 39.7629 85.3513 39.8404V26.382L86.2195 24.7559Z" fill="#F4B728"/>
<path d="M84.9869 26.3928V39.8513L83.915 38.0753C83.8848 38.004 83.8666 37.928 83.8615 37.8507C83.8699 37.7564 83.8879 37.6632 83.915 37.5725L84.526 35.7859C84.5735 35.6545 84.5735 35.5107 84.526 35.3794C84.3974 35.037 84.1294 34.3096 84.0865 34.0849C84.0437 33.8602 84.3759 32.7048 84.2902 32.555L84.108 32.202C84.0802 32.1186 84.0802 32.0286 84.108 31.9452C84.2152 31.5601 84.3759 30.9396 84.4724 30.5758C84.5154 30.4219 84.5154 30.2591 84.4724 30.1051C84.3502 29.8207 84.2499 29.5275 84.1723 29.2279C84.1723 29.0353 84.1723 28.3613 84.1723 27.7194L84.9869 26.3928Z" fill="#F4B728"/>
<path d="M84.2366 35.9143C84.2841 35.7829 84.2841 35.6391 84.2366 35.5077C84.1187 35.1654 83.8507 34.4379 83.8079 34.224C83.765 34.01 84.0972 32.8332 84.0115 32.6834C83.9257 32.5336 83.8829 32.448 83.8293 32.3411C83.7963 32.2549 83.7963 32.1597 83.8293 32.0736C83.9258 31.6992 84.0972 31.068 84.183 30.7149C84.2369 30.5589 84.2369 30.3895 84.183 30.2335C84.0641 29.9479 83.9638 29.6548 83.8829 29.3562C83.8829 29.046 83.8829 27.3878 83.8829 26.7779C83.8919 26.7179 83.8847 26.6565 83.8621 26.6001C83.8395 26.5437 83.8023 26.4943 83.7543 26.457L83.0897 26.0077L82.5323 25.676L83.1969 26.1254C83.2449 26.1626 83.2822 26.212 83.3048 26.2684C83.3274 26.3248 83.3345 26.3862 83.3255 26.4463C83.3255 27.0561 83.3255 28.7143 83.3255 29.0246C83.4081 29.3227 83.5083 29.6156 83.6256 29.9018C83.6795 30.0578 83.6795 30.2273 83.6256 30.3833C83.5399 30.7363 83.3684 31.3675 83.2719 31.742C83.2389 31.8281 83.2389 31.9233 83.2719 32.0094C83.2719 32.1164 83.4005 32.2662 83.4541 32.3518C83.5077 32.4373 83.2076 33.6997 83.2505 33.8923C83.2934 34.0849 83.5613 34.8338 83.6792 35.1761C83.7267 35.3075 83.7267 35.4513 83.6792 35.5826L83.079 37.3692C83.0647 37.4614 83.0647 37.5552 83.079 37.6474C83.0604 37.7211 83.0604 37.7983 83.079 37.8721L83.6899 38.2251C83.6704 38.1515 83.6704 38.0741 83.6899 38.0004C83.6757 37.9083 83.6757 37.8145 83.6899 37.7223C83.765 37.3265 84.0865 36.3743 84.2366 35.9143Z" fill="#D88223"/>
<path d="M83.0683 25.8472V24.4136L82.4574 24.0605V25.4941C82.4523 25.5284 82.4566 25.5633 82.4699 25.5953C82.4831 25.6273 82.5047 25.6552 82.5324 25.676L83.1433 26.029C83.1156 26.0082 83.094 25.9804 83.0808 25.9484C83.0676 25.9164 83.0633 25.8814 83.0683 25.8472Z" fill="#D88223"/>
<path d="M86.3481 15.7373C86.3613 15.5976 86.3375 15.4569 86.2792 15.3293C86.2209 15.2016 86.1301 15.0915 86.0158 15.0098L85.4049 14.6567C85.5192 14.7384 85.61 14.8486 85.6683 14.9762C85.7266 15.1039 85.7503 15.2446 85.7372 15.3842C85.7088 15.9258 85.5058 16.4436 85.1584 16.8606C84.9993 17.0495 84.8111 17.212 84.601 17.342C84.494 17.4046 84.3785 17.4515 84.258 17.4811C84.1017 17.5158 83.938 17.493 83.7971 17.4169L84.4081 17.7699C84.5489 17.8461 84.7126 17.8689 84.869 17.8341C84.9894 17.8045 85.1049 17.7577 85.212 17.6951C85.4242 17.5679 85.6128 17.405 85.7693 17.2136C86.1167 16.7967 86.3198 16.2788 86.3481 15.7373Z" fill="#D88223"/>
<path d="M87.7522 12.9557C86.1659 12.0356 83.9365 13.3194 82.393 15.1488C79.842 18.2513 79.3382 22.5627 81.4176 23.7716L82.0286 24.1247C78.813 21.1399 84.5796 12.3566 88.331 13.3194L87.7522 12.9557Z" fill="#D88223"/>
<path d="M85.2012 13.619C83.9106 14.4554 82.836 15.5841 82.0649 16.9133C81.2938 18.2425 80.848 19.7346 80.7638 21.2683C80.7638 23.1833 81.6963 24.328 83.0683 24.4136C83.8261 24.4271 84.5714 24.2189 85.212 23.8145C86.1397 23.2621 86.9514 22.5355 87.6022 21.6748C88.8424 20.1129 89.5553 18.1992 89.6387 16.208C89.6494 13.3515 87.6665 12.2068 85.2012 13.619ZM85.2012 15.0847C85.8229 14.7316 86.3374 15.0205 86.3374 15.7373C86.3153 16.1297 86.201 16.5114 86.0036 16.8516C85.8062 17.1917 85.5313 17.4806 85.2012 17.695C84.5689 18.0588 84.0651 17.7592 84.0651 17.0424C84.0875 16.6488 84.2032 16.2662 84.4025 15.9258C84.6019 15.5855 84.8793 15.2972 85.212 15.0847H85.2012Z" fill="#FFC522"/>
<path d="M84.9869 26.3928V39.8513L84.7618 39.4554V26.8101L84.9869 26.3928Z" fill="#D88223"/>
<path d="M86.0159 38.5245L86.2302 38.0966L86.2195 24.7559L86.0159 25.141V38.5245Z" fill="#D88223"/>
<defs>
<linearGradient id="paint0_linear_52_13199" x1="57.6761" y1="37.9041" x2="65.9401" y2="37.9041" gradientUnits="userSpaceOnUse">
<stop stop-color="#D88223"/>
<stop offset="0.42" stop-color="#E79C23"/>
<stop offset="1" stop-color="#FFC522"/>
</linearGradient>
<linearGradient id="paint1_linear_52_13199" x1="61.8885" y1="33.5284" x2="68.2339" y2="33.5284" gradientUnits="userSpaceOnUse">
<stop stop-color="#F3B022"/>
<stop offset="1" stop-color="#FFC522"/>
</linearGradient>
<linearGradient id="paint2_linear_52_13199" x1="68.727" y1="30.2548" x2="73.7141" y2="-0.77312" gradientUnits="userSpaceOnUse">
<stop stop-color="#C0B9C8"/>
<stop offset="1" stop-color="#E0DBE1"/>
</linearGradient>
</defs>
</svg>
