<svg width="24" height="24" viewBox="0 0 24 24" fill="none" xmlns="http://www.w3.org/2000/svg">
<path fill-rule="evenodd" clip-rule="evenodd" d="M10.8695 0.0486348C8.5845 0.251721 6.22384 1.21876 4.40873 2.69518C3.8752 3.12918 3.03046 3.98053 2.60494 4.51319C1.529 5.85993 0.647314 7.6816 0.281645 9.31319C0.0520105 10.3381 0 10.8363 0 12.0119C0 13.1876 0.0520105 13.6858 0.281645 14.7107C0.655294 16.3778 1.55999 18.2255 2.67169 19.5919C3.10575 20.1253 3.95721 20.97 4.48994 21.3954C5.83686 22.4712 7.65878 23.3528 9.29058 23.7184C10.3156 23.948 10.8139 24 11.9897 24C13.1655 24 13.6638 23.948 14.6888 23.7184C15.9157 23.4435 17.5199 22.7581 18.5741 22.0583C20.4024 20.8446 21.8067 19.2478 22.7654 17.2921C23.5417 15.7084 23.9225 14.2018 23.9911 12.4423C24.1004 9.63835 23.2057 6.89371 21.4335 4.59627C21.0375 4.08299 19.9197 2.96529 19.4063 2.5694C16.9265 0.656954 13.9416 -0.224384 10.8695 0.0486348ZM11.5672 3.22634V5.61123L10.5048 5.66989C9.1231 5.74626 7.84832 5.89537 6.59904 6.1268C6.38372 6.16665 6.20079 6.19237 6.19253 6.18392C6.16564 6.15651 6.49018 5.39143 6.73282 4.91026C7.6929 3.00631 8.93031 1.71735 10.3594 1.13259C10.6881 0.998121 11.2429 0.850183 11.4381 0.844973L11.5672 0.8415V3.22634ZM12.9285 0.914202C14.3586 1.24861 15.7122 2.33965 16.7276 3.97654C17.1142 4.59974 17.8459 6.12366 17.7873 6.1835C17.7792 6.19171 17.5329 6.15646 17.24 6.10512C15.8195 5.85636 14.8765 5.74738 13.4746 5.66989L12.4121 5.61123V3.22634V0.8415L12.5178 0.842204C12.5759 0.84258 12.7607 0.875012 12.9285 0.914202ZM7.99492 1.82431C7.48946 2.34144 6.97748 2.97608 6.59186 3.5637C6.2375 4.10364 5.61845 5.35468 5.41895 5.93404L5.27343 6.35664L3.67631 6.63121C2.79791 6.7822 2.0677 6.89423 2.05366 6.8802C2.0208 6.84734 2.25626 6.43084 2.63493 5.85205C3.6857 4.2459 5.20175 2.89517 6.97339 1.98661C7.26335 1.83792 8.28032 1.41161 8.35496 1.40748C8.38256 1.40598 8.22052 1.59353 7.99492 1.82431ZM16.1513 1.60944C18.2702 2.46088 20.1083 3.9626 21.3444 5.85205C21.7231 6.43084 21.9586 6.84734 21.9257 6.8802C21.9117 6.89423 21.1815 6.7822 20.303 6.63121L18.7059 6.35664L18.5604 5.93404C18.3609 5.35468 17.7419 4.10364 17.3875 3.5637C17.0019 2.97608 16.4899 2.34144 15.9844 1.82431C15.7588 1.59353 15.5894 1.40472 15.608 1.40472C15.6266 1.40472 15.8711 1.49685 16.1513 1.60944ZM11.5672 9.00811V11.5895H8.37373H5.1803L5.20799 11.085C5.2701 9.95366 5.48189 8.57965 5.74791 7.58215C5.82283 7.30125 5.89014 7.0669 5.89746 7.06136C5.90483 7.05587 6.37555 6.97439 6.94354 6.88034C8.53742 6.61638 10.0691 6.45661 11.2269 6.43352L11.5672 6.42671V9.00811ZM13.5992 6.47567C14.66 6.53997 15.7659 6.67021 17.0358 6.88043C17.6038 6.97444 18.0745 7.05587 18.0819 7.06136C18.0892 7.0669 18.1565 7.30125 18.2315 7.58215C18.4975 8.57965 18.7093 9.95366 18.7714 11.085L18.7991 11.5895H15.6056H12.4121V9.00811V6.42671H12.6017C12.706 6.42671 13.1548 6.44877 13.5992 6.47567ZM4.99549 7.27477C4.99549 7.30237 4.94414 7.52939 4.88138 7.77932C4.65236 8.69088 4.47802 9.90532 4.40671 11.085L4.37625 11.5895H2.57264H0.769032L0.790484 11.4839C0.802266 11.4259 0.824375 11.1988 0.839631 10.9794C0.894881 10.1852 1.1124 9.17638 1.41499 8.31128C1.5084 8.04417 1.60772 7.81687 1.6357 7.80617C1.69945 7.78167 4.80139 7.23577 4.91335 7.22934C4.95855 7.22671 4.99549 7.24718 4.99549 7.27477ZM20.6892 7.50954C21.5952 7.66626 22.35 7.80288 22.3666 7.81311C22.3831 7.82335 22.4727 8.04887 22.5655 8.31433C22.867 9.17642 23.0846 10.1863 23.1397 10.9794C23.155 11.1988 23.1771 11.4258 23.1889 11.4839L23.2103 11.5895H21.4067H19.6031L19.5726 11.085C19.5013 9.90532 19.327 8.69088 19.098 7.77932C18.9776 7.29979 18.966 7.2246 19.0129 7.2246C19.0289 7.2246 19.7832 7.35283 20.6892 7.50954ZM4.40671 12.9389C4.47853 14.1276 4.65057 15.3197 4.88776 16.2729C4.95386 16.5383 4.99718 16.7663 4.98409 16.7794C4.9609 16.8025 1.67302 16.248 1.61279 16.2107C1.59622 16.2005 1.50671 15.975 1.41391 15.7095C1.1124 14.8474 0.894787 13.8376 0.839631 13.0445C0.824375 12.8251 0.802266 12.598 0.790484 12.5399L0.769032 12.4343H2.57264H4.37625L4.40671 12.9389ZM11.5672 15.0157V17.5971H11.3776C10.9437 17.5971 9.51759 17.4929 8.77423 17.4068C8.1049 17.3293 5.94079 16.995 5.89746 16.9625C5.89014 16.957 5.82283 16.7226 5.74791 16.4417C5.48189 15.4442 5.2701 14.0702 5.20799 12.9389L5.1803 12.4343H8.37373H11.5672V15.0157ZM18.7714 12.9389C18.7093 14.0702 18.4975 15.4442 18.2315 16.4417C18.1565 16.7226 18.0892 16.957 18.0819 16.9625C18.0386 16.995 15.8745 17.3293 15.2051 17.4068C14.4618 17.4929 13.0357 17.5971 12.6017 17.5971H12.4121V15.0157V12.4343H15.6056H18.7991L18.7714 12.9389ZM23.1889 12.5399C23.1771 12.598 23.155 12.8251 23.1397 13.0445C23.0846 13.8376 22.867 14.8474 22.5655 15.7095C22.4727 15.975 22.3831 16.2005 22.3666 16.2107C22.3063 16.248 19.0185 16.8025 18.9953 16.7794C18.9822 16.7663 19.0255 16.5383 19.0916 16.2729C19.3288 15.3197 19.5008 14.1276 19.5726 12.9389L19.6031 12.4343H21.4067H23.2103L23.1889 12.5399ZM3.69105 17.3964L5.27343 17.6672L5.41895 18.0898C5.61845 18.6692 6.2375 19.9202 6.59186 20.4601C6.97748 21.0478 7.48946 21.6824 7.99492 22.1995C8.22052 22.4303 8.38993 22.6191 8.37134 22.6191C8.30689 22.6191 7.31714 22.2089 7.02151 22.0597C5.39022 21.2364 3.94026 20.0056 2.8916 18.5541C2.63686 18.2016 2.03822 17.2267 2.03822 17.1645C2.03822 17.1114 1.97203 17.1021 3.69105 17.3964ZM21.9411 17.1645C21.9411 17.2267 21.3425 18.2016 21.0878 18.5541C20.0391 20.0056 18.5891 21.2364 16.9579 22.0597C16.6622 22.2089 15.6725 22.6191 15.608 22.6191C15.5894 22.6191 15.7588 22.4303 15.9844 22.1995C16.4899 21.6824 17.0019 21.0478 17.3875 20.4601C17.7419 19.9202 18.3609 18.6691 18.5605 18.0896L18.706 17.6668L20.218 17.4023C21.8106 17.1237 21.9411 17.1056 21.9411 17.1645ZM6.62152 17.9008C7.82237 18.1254 9.17046 18.283 10.5228 18.3568L11.5672 18.4138V20.7981C11.5672 23.5401 11.6356 23.2417 11.0385 23.1059C9.09812 22.6647 7.31958 20.7808 6.24755 18.0313C6.20478 17.9216 6.1884 17.8318 6.21117 17.8318C6.23389 17.8318 6.41855 17.8629 6.62152 17.9008ZM17.7125 18.0782C16.6513 20.7873 14.8665 22.668 12.9409 23.1059C12.3438 23.2417 12.4121 23.5401 12.4121 20.7981V18.4138L13.4566 18.3568C14.7843 18.2844 16.466 18.0844 17.4583 17.8811C17.8272 17.8055 17.8211 17.8007 17.7125 18.0782Z" fill="white"/>
</svg>
