<svg width="160" height="30" viewBox="0 0 160 30" fill="none" xmlns="http://www.w3.org/2000/svg">
<g clip-path="url(#clip0_52_13860)">
<path d="M14.5648 10.3573C11.7258 10.3573 9.42437 8.03876 9.42437 5.17864C9.42437 2.3185 11.7258 0 14.5648 0C17.4039 0 19.7053 2.3185 19.7053 5.17864C19.7053 8.03876 17.4039 10.3573 14.5648 10.3573ZM25.511 22.0988C24.3803 20.4104 22.8727 18.9967 21.1088 17.9794C17.0839 15.658 12.0415 15.6578 8.01659 17.9794C6.25383 18.9961 4.74695 20.4085 3.61653 22.0956C4.35323 23.196 5.2493 24.1799 6.27156 25.0132C11.0779 28.9314 18.051 28.9315 22.8577 25.0136C23.8792 24.1811 24.7747 23.1983 25.511 22.0988ZM2.1598 6.98725C3.48564 4.82015 5.35459 3.02831 7.57029 1.80374C8.4047 4.64204 8.36289 7.72621 7.4497 10.5401C8.50181 10.37 9.57257 10.3175 10.6362 10.3829C8.88871 14.0815 5.68908 16.8687 1.81182 18.0997C2.06148 19.0459 2.41248 19.9508 2.85211 20.8017C4.05253 19.1679 5.58015 17.7949 7.33654 16.7818C11.7827 14.2173 17.3426 14.2175 21.7888 16.7818C23.5465 17.7956 25.075 19.1699 26.2757 20.8052C26.7163 19.9532 27.0679 19.0472 27.318 18.0997C23.4407 16.8688 20.241 14.0813 18.4935 10.3829C19.5571 10.3175 20.6278 10.37 21.68 10.5401C20.7668 7.72621 20.725 4.64204 21.5594 1.80374C23.7751 3.02831 25.6441 4.82015 26.9699 6.98725C30.1459 12.1787 29.7754 18.779 26.1507 23.5667L27.2138 24.4653L26.3356 25.5226L25.2709 24.6227C25.0056 24.9123 24.7291 25.1912 24.4417 25.4584L25.335 26.531L24.2854 27.4158L23.3938 26.3451C23.0828 26.5842 22.762 26.811 22.4318 27.0248L23.1272 28.2381L21.9438 28.9233L21.2505 27.7133C20.9031 27.8946 20.5477 28.062 20.185 28.2149L20.6601 29.5306L19.3751 30L18.9004 28.6862C16.0955 29.5664 13.0342 29.5664 10.2292 28.6862L9.75461 30L8.46954 29.5307L8.94477 28.2149C8.58194 28.062 8.22655 27.8946 7.87918 27.7133L7.1858 28.9233L6.00252 28.2381L6.69786 27.0248C6.36775 26.811 6.04689 26.5842 5.73589 26.3451L4.84422 27.4158L3.79453 26.531L4.68803 25.4584C4.40065 25.191 4.12402 24.9122 3.85876 24.6227L2.79409 25.5226L1.9159 24.4653L2.97905 23.5666C-0.636724 18.7907 -1.02287 12.1894 2.1598 6.98725ZM18.6752 20.9977C18.1073 20.9977 17.647 21.4614 17.647 22.0334C17.647 22.6054 18.1073 23.0693 18.6752 23.0693C19.243 23.0693 19.7032 22.6054 19.7032 22.0334C19.7032 21.4614 19.243 20.9977 18.6752 20.9977ZM10.4501 20.9977C11.0179 20.9977 11.4783 21.4614 11.4783 22.0334C11.4783 22.6054 11.0179 23.0693 10.4501 23.0693C9.88233 23.0693 9.42199 22.6054 9.42199 22.0334C9.42199 21.4614 9.88233 20.9977 10.4501 20.9977ZM20.9181 11.8238C22.5628 14.138 24.9073 15.87 27.6001 16.7438C28.0841 13.6209 27.4576 10.4065 25.808 7.71019C24.9348 6.28295 23.8007 5.03441 22.4729 4.03175C22.0422 6.98832 22.6068 10.022 24.0928 12.6144C23.072 12.219 22.0043 11.9521 20.9181 11.8238ZM15.8012 4.99352C16.0938 4.82258 16.2395 4.49126 16.2032 4.1871C16.1368 3.63418 15.5596 3.47562 15.0901 3.44617V2.68111H14.6219V3.43716C14.5174 3.43716 14.3952 3.43716 14.2652 3.43716V2.68111H13.797V3.43716C13.319 3.43716 12.8758 3.43716 12.8758 3.43716V3.92705C12.8758 3.92705 13.0727 3.92705 13.1465 3.92705C13.3716 3.92705 13.4731 3.98352 13.4731 4.21641C13.4731 4.33865 13.4731 6.12209 13.4731 6.16834C13.4731 6.32308 13.3883 6.35559 13.2521 6.35559C13.158 6.35559 12.9722 6.35559 12.9722 6.35559L12.8758 6.92225C12.8758 6.92225 13.3336 6.92225 13.797 6.92225V7.67616H14.2652V6.92225C14.4091 6.92225 14.5343 6.92225 14.6219 6.92225V7.67616H15.0901V6.90973C15.8305 6.86623 16.441 6.70828 16.4598 5.81122C16.4693 5.36345 16.2286 5.08448 15.8012 4.99352ZM14.2652 3.9707C14.6016 3.94079 15.3271 3.92369 15.3395 4.40274C15.3527 4.92087 14.614 4.89157 14.2652 4.88104V3.9707ZM14.2652 6.36231V5.35048C14.6437 5.33094 15.5496 5.29568 15.5496 5.84204C15.5496 6.40519 14.6595 6.3707 14.2652 6.36231ZM8.21155 11.8238C7.12521 11.9521 6.05766 12.219 5.03691 12.6144C6.53061 9.99497 7.09233 7.02144 6.6568 4.03175C5.32898 5.03441 4.19493 6.28295 3.32173 7.71019C1.67215 10.4065 1.04558 13.6209 1.52959 16.7438C4.22235 15.87 6.56681 14.138 8.21155 11.8238ZM14.5648 8.97627C16.647 8.97627 18.3346 7.27615 18.3346 5.17864C18.3346 3.08111 16.647 1.381 14.5648 1.381C12.4827 1.381 10.7951 3.08111 10.7951 5.17864C10.7951 7.27615 12.4827 8.97627 14.5648 8.97627Z" fill="white"/>
<path d="M40.9519 22.5604C45.1206 22.5604 47.0963 20.4605 47.0963 18.007C47.0963 12.393 38.0858 14.5146 38.0858 11.2555C38.0858 10.0926 39.0411 9.17389 41.386 9.17389C42.7106 9.17389 44.2086 9.56764 45.5764 10.377L46.4667 8.16786C45.1423 7.29293 43.2315 6.81158 41.4077 6.81158C37.239 6.81158 35.2849 8.91154 35.2849 11.3868C35.2849 17.0664 44.3172 14.9046 44.3172 18.2075C44.3172 19.3449 43.3185 20.198 40.9519 20.198C39.0846 20.198 37.1522 19.498 35.9364 18.5138L34.9592 20.7229C36.2185 21.8167 38.5851 22.5604 40.9519 22.5604ZM69.4166 7.03043L65.53 18.7325L61.687 7.03043H59.0815L55.1515 18.6669L51.3737 7.03043H48.4425L53.4797 22.3415H56.4977L60.3191 11.0114L64.0753 22.3415H67.0716L72.1088 7.03043H69.4166ZM85.3099 22.3415H88.2628L81.4018 7.03043H78.6225L71.7831 22.3415H74.6927L76.1907 18.7982H83.79L85.3099 22.3415ZM77.146 16.5671L79.9905 9.87392L82.8565 16.5671H77.146ZM96.448 7.03043H90.1952V22.3415H93.0176V17.9232H96.448C100.443 17.9232 102.918 15.8452 102.918 12.4767C102.918 9.08644 100.443 7.03043 96.448 7.03043ZM96.3182 15.5171H93.0176V9.43639H96.3182C98.7931 9.43639 100.074 10.552 100.074 12.4767C100.074 14.4017 98.7931 15.5171 96.3182 15.5171ZM110.67 22.5604C114.839 22.5604 116.815 20.4605 116.815 18.007C116.815 12.393 107.803 14.5146 107.803 11.2555C107.803 10.0926 108.759 9.17389 111.104 9.17389C112.429 9.17389 113.926 9.56764 115.294 10.377L116.185 8.16786C114.86 7.29293 112.95 6.81158 111.126 6.81158C106.957 6.81158 105.003 8.91154 105.003 11.3868C105.003 17.0664 114.035 14.9046 114.035 18.2075C114.035 19.3449 113.037 20.198 110.67 20.198C108.803 20.198 106.87 19.498 105.654 18.5138L104.677 20.7229C105.936 21.8167 108.304 22.5604 110.67 22.5604ZM122.481 22.3415H125.304V9.43639H130.341V7.03043H117.444V9.43639H122.481V22.3415ZM135.291 19.9574V15.7358H142.63V13.3955H135.291V9.41454H143.564V7.03043H132.469V22.3415H143.867V19.9574H135.291ZM160 22.3415L156.505 17.3107C158.567 16.5015 159.739 14.7954 159.739 12.4767C159.739 9.08644 157.264 7.03043 153.269 7.03043H147.016V22.3415H149.839V17.8794H153.269C153.465 17.8794 153.66 17.8794 153.855 17.8576L156.96 22.3415H160ZM156.895 12.4767C156.895 14.4017 155.614 15.539 153.139 15.539H149.839V9.43639H153.139C155.614 9.43639 156.895 10.552 156.895 12.4767Z" fill="white"/>
</g>
<defs>
<clipPath id="clip0_52_13860">
<rect width="160" height="30" fill="white"/>
</clipPath>
</defs>
</svg>
